<svg height="198.058" viewBox="0 0 436.389 440.129" width="196.375" xmlns="http://www.w3.org/2000/svg"><g fill="none"><path d="m198.472 232.603c-9.027-.695-18.116-.898-27.174-1.43-7.929-.467-15.91.018-23.836-.477-13.5-.844-27.001-1.322-40.522-.477-17.59 1.099-35.399-.798-52.917.954-3.765.376-25.437.339-27.174 3.813-1.021 2.042-.611 4.925-.953 7.151-.356 2.314-.97 4.849-1.431 7.151-.863 4.319-3.324 8.464-3.813 12.872-.53 4.77-1.377 9.527-1.907 14.302-.227 2.037.254 4.163 0 6.197-1.488 11.903.101 26.655 1.43 38.615.135 1.214.815 3.047.953 4.291.597 5.371.284 10.853.954 16.209.303 2.429 1.128 4.734 1.43 7.151.792 6.337 1.115 12.731 1.907 19.069.235 1.878-.235 3.843 0 5.721 1.384 11.072 1.3 36.332 6.674 45.289 1.843 3.071 5.088 6.607 8.581 8.104 14.009 6.004 40.823 3.358 54.824 4.291 7.145.476 14.308.477 21.453.953 4.746.317 9.556-.316 14.302 0 11.72.782 23.544.618 35.278 0 12.219-.643 24.491-.31 36.708-.953 9.85-.518 19.709-.883 29.557-1.43 4.436-.247 8.912.233 13.349 0 5.666-.298 2.897-.811 8.581-.477 21.905 1.289 43.937.563 65.789 2.384 3.788.315 7.651-.292 11.441 0 10.432.802 20.979.476 31.464.476 8.191 0 22.844-.453 30.034-4.767 4.842-2.905 8.766-7.684 12.395-11.918 3.584-4.182 6.491-8.447 8.105-13.825 1.513-5.044 3.491-10.415 3.813-15.732.27-4.445.477-8.896.477-13.349 0-6.937-2.42-20.316-4.29-27.173-.226-.826-.786-1.545-.954-2.384-1.105-5.526-1.76-11.548-2.384-17.162-.372-3.355-1.489-6.669-1.906-10.012-.433-3.463.017-7.03-.477-10.488-.518-3.622-.723-7.428-1.43-10.964-.333-1.664.411-3.6 0-5.244-.778-3.11-.655-6.433-1.431-9.535-1.197-4.788-2.327-9.843-3.813-14.302-1.515-4.543-3.119-14.431-7.628-16.685-7.491-3.746-17.111-5.239-25.743-6.198-3.478-.386-7.011-.09-10.489-.477-11.561-1.284-23.195-2.653-34.801-3.814-3.997-.399-7.921-1.507-11.918-1.906-7.322-.733-14.692-.873-21.93-1.907-1.55-.222-3.222.257-4.767 0-4.448-.742-10.182.553-14.302-.477-4.666-1.167-10.375-.477-40.283-.954-27.086-.663-29.167-.318-31.226-.476z" stroke="#000" stroke-width="2.5"/><path d="m75.475 234.033c-4.342 5.148-6.035 11.42-7.15 18.116-.59 3.537-2.414 6.912-2.861 10.488-.442 3.535-1.221 7.061-1.907 10.488-.932 4.66-.02 9.634-.953 14.302-.91 4.549.032 14.941.953 19.546.482 2.409-1.281 4.736-.476 7.15 1.119 3.359.579 7.086 1.43 10.489.599 2.396-.485 5.201 0 7.627.717 3.586.543 7.417 1.43 10.965.411 1.645-.411 3.599 0 5.244 1.731 6.925-.291 15.231.953 21.453.557 2.783.477 5.647.477 8.581 0 5.783.936 31.499-1.43 36.231-.479.958.028 2.328-.477 3.338-.694 1.388.792 7.789.477 8.104-.575.575-2.242-4.342-2.384-4.767" stroke="#000" stroke-width="2"/><path d="m130.776 235.463c-1.175 11.35 0 22.886 0 34.325 0 7.931-.31 15.967.477 23.836.814 8.137 2.436 16.201 3.337 24.313.256 2.304-.252 4.424-.477 6.675-.33 3.307-.175 6.692-.476 10.011-.272 2.99.331 6.075 0 9.058-.777 6.985-.92 14.066-1.907 20.976-.791 5.531 1.291 13.905 0 19.069-.626 2.503-1.29 10.433-.477 12.872.581 1.743 1.422 8.12.477 10.011-.467.934-.954 6.94-.954 8.104 0 .524-.153 4.444-.477 4.768-.126.126-1.233 0-1.43 0" stroke="#000" stroke-width="2"/><path d="m188.46 237.847c-2.181 22.824.099 46.279 2.384 69.126.438 4.378.001 9.049-.477 13.348-.279 2.512.229 5.11 0 7.628-.464 5.109-1.398 10.165-1.907 15.255-.22 2.201.245 4.476 0 6.674-.791 7.125-1.018 14.347-1.906 21.453-.293 2.343.333 4.814 0 7.151-1.55 10.847.476 21.663.476 32.418 0 2.527 1.041 3.337-1.907 3.337" stroke="#000" stroke-width="2"/><path d="m243.284 245.474c4.943 4.353 2.975 10.775 2.384 16.686-.537 5.367-.539 10.824-.953 16.209-1.434 18.635-4.171 37.177-5.721 55.777-1.055 12.659-3.814 24.897-3.814 37.662 0 10.462.832 22.77-2.384 32.417-.336 1.008-.232 9.291-.476 9.535-.586.586-.477-3.132-.477-3.337" stroke="#000" stroke-width="2"/><path d="m294.771 244.044c2.312 7.268 2.163 15.206 2.861 22.883.391 4.309 1.514 8.55 1.906 12.872.831 9.132 1.308 20.897.477 30.034-.865 9.514-1.649 19.059-2.383 28.604-.528 6.854-2.332 13.629-2.861 20.499-.44 5.721-.911 11.449-1.43 17.162-1.087 11.956-2.86 23.701-2.86 35.755 0 .427.009 9.535.476 9.535.47 0 1.187-3.327 1.431-3.814" stroke="#000" stroke-width="2"/><path d="m350.072 254.532c-.456 5.221-1.423 10.403-1.907 15.732-.431 4.74.116 9.61.477 14.302.4 5.212-.047 10.571-.477 15.732-.396 4.748-.081 9.555-.477 14.302-.24 2.88-1.19 5.701-1.43 8.581-.547 6.569-1.676 13.035-2.86 19.546-.889 4.885-2.367 9.842-2.861 14.779-.831 8.311-2.309 16.57-3.337 24.79.08 1.212-.79 2.192-.953 3.337-.784 5.482-2.271 15.119-.477 20.499.093.281-.438 9.019.477 8.105.333-.334-1.14-1.285-1.431-1.431" stroke="#000" stroke-width="2"/><path d="m21.128 275.985c5.189.06 10.001-.644 15.256-.953 7.376-.434 14.638.392 21.929.953 10.428.802 21.028-.696 31.464 0 9.842.656 19.717.774 29.558 1.43 15.753 1.05 31.467 2.027 47.196 3.337 1.9.159 3.82-.158 5.721 0 7.948.663 15.874 1.815 23.836 2.384 8.084.577 16.224.376 24.313.953 10.669.763 21.252 3.146 31.941 3.814 10.262.642 20.841 1.17 30.988 2.861 7.1 1.183 14.337 1.116 21.452 1.907 5.114.568 10.208 1.185 15.256 1.907 4.801.685 13.744-1.099 18.592-1.907 2.903-.484 6.222.071 9.058.476 6.79.97 14.078.477 20.976.477 6.638 0 14.577-1.6 20.976 0 2.353.588 4.527 0 6.198 0 1.525 0 2.863.48 2.86.477-1.283-1.284-5.125-.477-6.674-.477" stroke="#000" stroke-width="2"/><path d="m24.942 321.751c.318.636.399 1.463.954 1.907.43.344 20.653-1.324 21.929-1.43 9.024-.752 18.135.088 27.174-.477 15.008-.938 29.819-.477 44.812-.477 6.114 0 12.079.283 18.116.954 2.669.296 5.436-.297 8.104 0 9.01 1.001 18.131 1.153 27.174 1.907 4.735.394 9.564-.365 14.302 0 12.857.989 25.774 1.313 38.615 2.383 6.232.52 12.368 2.295 18.593 2.861 22.626 2.057 45.401 4.767 68.172 4.767 7.195 0 14.781.715 21.929 0 3.112-.311 6.399-1.104 9.535-.477.348.07.598.477.953.477.356 0 .609-.39.954-.477 1.174-.293 2.669.382 3.814 0 2.299-.766 5.074-.919 7.627-1.43 1.221-.244 2.582.176 3.814 0 4.41-.63 8.861-.477 13.349-.477 1.627 0 3.574 1.034 5.244.477.963-.321 2.108-.784 3.337-.477.345.087.598.477.953.477.356 0 .598-.477.954-.477.224 0 .252.477.477.477 1.219 0 5.609-.953 6.674-.953.518 0 3.276.507 3.337.476.201-.1.252-.476.477-.476.158 0-.113.364 0 .476.117.118 2.742.118 2.86 0 .667-.666-2.28-.476-2.384-.476" stroke="#000" stroke-width="2"/><path d="m34 362.75c-1.133-4.24-1.811 1.05-2.384.477-.159-.159.257-.433.477-.477 2.015-.403 4.144-.697 6.198-.954 6.841-.855 13.585-1.951 20.499-2.383 19.175-1.199 38.45-.954 57.684-.954 17.643 0 35.347 2.166 52.917 3.337 4.322.289 8.556 1.575 12.872 1.907 6.351.489 12.714.977 19.069 1.431 1.788.127 5.448-.146 7.151 0 6.285.538 12.746 1.897 19.069 2.383 16.493 1.269 33.041 2.51 49.58 3.337 9.711.486 19.352 2.384 29.081 2.384 15.876 0 31.96 1.591 47.673 3.337 6.893.766 14.195.074 20.976 1.43 1.356.272 14.03-1.34 15.732-1.907 2.256-.752 5.022.477 7.151.477.835 0 4.712.532 5.244 0 .648-.648-1.683-.477-1.907-.477" stroke="#000" stroke-width="2"/><path d="m37.337 250.718c2.312-2.7 6.81-3.473 9.058-5.72.791-.792 1.643-1.775 2.86-2.384.226-.113 1.844-1.494 1.907-1.43.609.608-.707 2.968-.953 3.337-1.26 1.889-1.72 4.296-2.861 6.197-.784 1.307-1.94 2.588-2.86 3.814-1.636 2.181-2.371 4.987-3.814 7.151-1.978 2.968-2.774 6.978-4.29 10.012-.071.142.159.476 0 .476-.318 0 0-.635 0-.953" stroke="#000" stroke-linecap="round" stroke-linejoin="round" stroke-width="1.7"/><path d="m95.498 249.288c.025-.287-3.814-1.123-3.814-1.43 0-1.35 14.302-4.477 14.302.477 0 4.449-9.488 9.441-11.441 13.348-.84 1.679 3.192 3.594 4.29 3.814 1.618.324 3.191 1.115 4.768 1.43.779.156 1.612-.192 2.383 0 1.299.325 2.431.954 3.814.954" stroke="#000" stroke-linecap="round" stroke-linejoin="round" stroke-width="1.7"/><path d="m145.078 251.195c.636-.635 1.159-1.408 1.907-1.907 1.797-1.198 11.249.731 13.348 1.43.296.099 2.861.706 2.861 1.431 0 1.911-6.547 4.895-5.244 6.197 1.461 1.461 3.902 1.071 5.244 2.86 1.029 1.373 1.069 2.333.476 3.814-2.724 6.812-10.543 4.768-16.208 4.768" stroke="#000" stroke-linecap="round" stroke-linejoin="round" stroke-width="1.7"/><path d="m210.867 250.718c-4.462 1.759-6.134 10.31-.477 11.442 3.349.67 6.319-.954 9.535-.954" stroke="#000" stroke-linecap="round" stroke-linejoin="round" stroke-width="1.7"/><path d="m224.215 253.579c-3.425 5.389-3.743 12.112-5.244 18.116-.334 1.338-.034 3.337-1.43 3.337" stroke="#000" stroke-linecap="round" stroke-linejoin="round" stroke-width="1.7"/><path d="m267.121 257.869c-.29.111-4.742 2.887-4.291 3.337.421.421 2.805-.133 3.337 0 2.389.598 3.303 2.793 4.291 4.768.984 1.969.089 1.009.477 3.337 1.732 10.391-16.651 8.651-18.593 4.767" stroke="#000" stroke-linecap="round" stroke-linejoin="round" stroke-width="1.7"/><path d="m264.26 257.869c6.402-.479 12.654-.115 19.07.954.922.154 5.72.375 5.72.953" stroke="#000" stroke-linecap="round" stroke-linejoin="round" stroke-width="1.7"/><path d="m325.282 259.776c-2.239 1.557-2.783 4.086-4.291 6.198-1.922 2.691-7.569 11.559-5.72 15.255 1.853 3.708 8.438 3.074 10.488 0 .558-.837-.17-.97-.477-1.43-2.793-4.189-9.812 0-5.721 0" stroke="#000" stroke-linecap="round" stroke-linejoin="round" stroke-width="1.7"/><path d="m362.943 260.73c2.762-1.435 5.923-1.639 9.058-1.43 3.088.205 8.581.913 8.581 1.906 0 .159-.364-.112-.476 0-.017.018-1.216 2.98-1.43 3.338-2.451 4.084-4.85 8.029-7.628 11.918-1.475 2.065-3.514 3.631-4.767 5.721-.138.23-1.81 2.957-1.907 2.86-.405-.405 1.025-.548 1.43-.954.219-.219.578-1.054.953-1.43" stroke="#000" stroke-linecap="round" stroke-linejoin="round" stroke-width="1.7"/><path d="m366.281 273.125c3.33-.555 1.893-.477 4.29-.477 3.384 0 6.605-.477 10.011-.477.784 0 3.073-.37 3.814 0 .201.101.702.477.477.477-.355 0-.636-.318-.953-.477" stroke="#000" stroke-linecap="round" stroke-linejoin="round" stroke-width="1.7"/><path d="m54.976 286.473c-1.48.174-2.847.713-4.29.954-1.484.247-2.851.116-4.291.476-1.732.433-1.73 1.077-2.384 2.384-2.509 5.019 14.645 6.733 12.872 13.825-1.068 4.274-17.201 9.587-11.441 1.907 1.49-1.988 3.467-3.554 4.767-5.721 1.206-2.01 1.19-4.524 1.907-6.674.18-.54-.253-1.402 0-1.907.199-.398.761-2.192.953-2.384.987-.986-.038 1.508.954-.476.397-.795-.636-.477-.954-.477" stroke="#000" stroke-linecap="round" stroke-linejoin="round" stroke-width="1.7"/><path d="m110.753 290.287c-5.431-1.13-18.869-4.798-23.359-1.43-.951.713-2.592 2.444-1.907 3.814 1.079 2.159 18.27-2.276 21.453-3.338.751-.25 3.813-1.807 3.813.954 0 .927-1.728.775-2.383 1.43-.128.128-7.151 17.816-7.151 18.116" stroke="#000" stroke-linecap="round" stroke-linejoin="round" stroke-width="1.7"/><path d="m144.125 292.194c2.903-1.71 4.67-3.527 7.151-4.767.512-.257 1.43-1.527 1.43-.954 0 .032-1.36 1.218-1.43 1.43-.994 2.98-2.656 5.97-3.814 9.058-.505 1.345-5.507 15.995-5.721 16.209-.507.507-2.384.465-2.384-.953" stroke="#000" stroke-linecap="round" stroke-linejoin="round" stroke-width="1.7"/><path d="m170.345 290.764c-2.718.501-5.667 2.77-7.151 5.244-1.049 1.748-1.939 3.878-2.861 5.72-1.123 2.248-1.693 4.736-2.383 7.151-.35 1.223.248.766.476 1.907.371 1.851 1.165 4.044 3.338 4.768.603.201 1.303-.201 1.906 0 .786.262 1.323.742 2.384.476 2.234-.558 3.82-2.196 5.721-3.337 4.103-2.461 3.883-2.453 7.151-5.72 1.059-1.06 1.006.264 1.43-1.431.263-1.051.263-2.268.477-3.337.231-1.158.695-1.29.476-2.383.166-.97-.785-1.545-.953-2.384-.269-1.344-.536-3.853-1.907-4.767-1.436-.958-3.65.121-5.244-.477-.998-.374-1.907-.954-2.86-1.43z" stroke="#000" stroke-linecap="round" stroke-linejoin="round" stroke-width="1.7"/><path d="m199.425 303.159c.962-1.814 2.963-2.487 4.291-3.814 1.384-1.385 2.898-2.421 4.29-3.814.604-.604 3.377-3.774 3.814-3.337.254.253-2.196 4.392-2.383 4.767-1.341 2.681-8.27 18.593-10.965 18.593" stroke="#000" stroke-linecap="round" stroke-linejoin="round" stroke-width="1.7"/><path d="m219.448 303.635c.646-1.163 1.485-1.961 2.383-2.86 1.119-1.118-.112.337.477-1.43.387-1.161 2.907-2.884 3.814-3.337.433-.217 1.396-2.418 1.907-1.907.248.248-2.22 4.754-2.384 5.244-.685 2.056-5.85 17.768-6.197 18.116-.309.308-1.007-.477-1.43-.477" stroke="#000" stroke-linecap="round" stroke-linejoin="round" stroke-width="1.7"/><path d="m252.342 307.449c2.333-2.214 4.808-4.781 7.628-5.721 1.624-.541 5.705-5.244 5.721-5.244.741 0-1.274 5.73-1.431 6.198-1.302 3.907-1.59 8.108-2.86 11.918-.345 1.036-3.213 5.12-3.814 5.721-.094.094-.285 2.576-.953 1.907-.186-.186 0-1.616 0-1.907" stroke="#000" stroke-linecap="round" stroke-linejoin="round" stroke-width="1.7"/><path d="m274.749 303.159c3.878-3.878.39-1.29 2.86-1.907 18.133-4.533-5.943 16.241-4.767 18.592.802 1.605 13.204 3.337 15.255 3.337" stroke="#000" stroke-linecap="round" stroke-linejoin="round" stroke-width="1.7"/><path d="m306.689 309.833c1.591-1.773 2.73-2.557 4.291-3.337.814-.407 3.023-3.174 3.337-2.861.843.843-4.039 11.362-4.291 12.872-.082.494-1.515 5.635-1.906 5.244-.309-.309.476-1.006.476-1.43" stroke="#000" stroke-linecap="round" stroke-linejoin="round" stroke-width="1.7"/><path d="m322.421 303.635c.318-.635.318-2.224.954-1.907.636.318-1.664 1.907-.954 1.907 1.146 0 1.836-1.394 2.861-1.907 1.243-.621 7.003-.443 7.628 1.431.964 2.894-4.768 4.362-4.768 6.674 0 2.072 3.262 3.513 3.814 5.721 1.283 5.132-8.278 4.691-10.488 5.244-1.078.269-2.805.953-3.814.953" stroke="#000" stroke-linecap="round" stroke-linejoin="round" stroke-width="1.7"/><path d="m358.176 308.879c1.942-.335 3.479-1.501 5.244-2.383 1.964-.982 4.291-2.861 4.291-2.861 0 .757-6.699 15.781-7.628 17.639-.456.912-.921 3.338-1.907 3.338" stroke="#000" stroke-linecap="round" stroke-linejoin="round" stroke-width="1.7"/><path d="m381.059 304.589c-4.694 4.967-4.507 9.289 3.337 6.674 1.122-.374 2.643-1.43 3.337-1.43" stroke="#000" stroke-linecap="round" stroke-linejoin="round" stroke-width="1.7"/><path d="m391.547 306.973c-5.159 4.61-9.176 10.646-13.348 16.208-.748.997-1.285 3.337-2.861 3.337" stroke="#000" stroke-linecap="round" stroke-linejoin="round" stroke-width="1.7"/><path d="m32.57 338.437c.235-1.132 5.792-9.058 6.197-9.058.158 0-.476 8.943-.476 9.534 0 1.159-.118 14.302.476 14.302.483 0 .954-1.064.954-1.43" stroke="#000" stroke-linecap="round" stroke-linejoin="round" stroke-width="1.7"/><path d="m53.069 332.716c.188 1.381-3.337 3.127-3.337 4.767 0 .5 9.889 3.226 7.628 10.012-1.306 3.917-6.088 2.492-8.581 0" stroke="#000" stroke-linecap="round" stroke-linejoin="round" stroke-width="1.7"/><path d="m47.348 334.623c2.43-1.195 12.28-3.453 14.302-1.43" stroke="#000" stroke-linecap="round" stroke-linejoin="round" stroke-width="1.7"/><path d="m82.15 332.716c.816-2.886 4.016-3.54 5.244-4.767.027-.028 1.907-1.598 1.907-.954 0 .348-.846 1.951-.954 2.384-.986 3.944-2.1 8.118-2.86 11.918-.249 1.247-2.411 4.795-1.43 3.814" stroke="#000" stroke-linecap="round" stroke-linejoin="round" stroke-width="1.7"/><path d="m108.847 326.995c-4.539 2.514-8.582 12.023-8.582 17.162 0 1.023.651 3.338 1.907 3.338 1.884 0 6.198-2.956 6.198-4.768 0-2.121-5.512-1.43-6.198-1.43" stroke="#000" stroke-linecap="round" stroke-linejoin="round" stroke-width="1.7"/><path d="m141.264 336.53c.685-2.747 6.389-5.151 7.151-6.674.088-.177.906-1.431.954-1.431.361 0-.457 1.787-.954 4.768-.743 4.459-2.259 9.037-3.337 13.348-.412 1.649-1.484 3.337-1.43 3.337.313 0 .74-1.217.953-1.43" stroke="#000" stroke-linecap="round" stroke-linejoin="round" stroke-width="1.7"/><path d="m155.566 331.286c2.553-1.927 3.862-.954 6.674-.954h5.244c.318 0 .954-.318.954 0 0 2.483-3.905 11.117-5.244 13.349-.174.29-3.337 8.022-3.337 6.197 0-.225.476-.252.476-.477" stroke="#000" stroke-linecap="round" stroke-linejoin="round" stroke-width="1.7"/><path d="m159.38 340.82c3.079-1.123 6.392-.028 9.535-.476 1.259-.18 2.466-.814 3.813-.477.345.086.598.477.954.477.027 0 .649-.477.953-.477" stroke="#000" stroke-linecap="round" stroke-linejoin="round" stroke-width="1.7"/><path d="m196.565 335.1c2.868.035 5.322-1.801 7.628-3.338.12-.08 1.906-1.171 1.906-.953 0 .018-.951 1.902-.953 1.907-.937 2.809-1.509 5.878-2.86 8.581-.955 1.909-2.187 4.177-2.861 6.198-.3.901-1.43 5.988-1.43 5.244" stroke="#000" stroke-linecap="round" stroke-linejoin="round" stroke-width="1.7"/><path d="m224.692 335.576c-9.594-.203-1.43 5.185-1.43 9.535 0 4.648-8.337 6.686-9.535 4.29-.383-.766 3.188-2.71 3.814-3.337 1.309-1.308 11.136-6.026 10.011-7.151-.796-.796-1.553-1.703-2.86-3.337z" stroke="#000" stroke-linecap="round" stroke-linejoin="round" stroke-width="1.7"/><path d="m245.668 343.681c.636-.477 1.196-1.075 1.907-1.43 2.432-1.216 5.239-2.143 7.628-3.338.488-.244 2.255-1.558 2.383-1.43.159.159-.318.318-.477.477-.224.225.101.652 0 .953-1.606 4.82-3.658 9.546-5.244 14.302-.184.554-3.577 5.484-2.383 4.291" stroke="#000" stroke-linecap="round" stroke-linejoin="round" stroke-width="1.7"/><path d="m288.097 341.774c-1.684-.788-2.992-1.907-4.767-1.907-.97 0-2.366-.194-3.338 0-.609.122-8.889 3.029-7.627 4.29 2.724 2.725 9.954-1.878 11.918-2.86.634-.317 1.639.536 1.43.954-.503 1.006-1.353 1.753-1.907 2.86-1.762 3.525-4.733 6.035-7.151 9.058-.913 1.141-2.202 2.021-2.86 3.337-.1.201-.477.701-.477.477 0-.356.702-.226.954-.477" stroke="#000" stroke-linecap="round" stroke-linejoin="round" stroke-width="1.7"/><path d="m307.166 345.588c-.592-1.098 9.053-5.229 8.105-2.384-1.282 3.844-12.509 11.668-15.256 17.162-1.57 3.14 7.019.629 7.628.477 1.277-.319 3.674.616 4.29 0" stroke="#000" stroke-linecap="round" stroke-linejoin="round" stroke-width="1.7"/><path d="m325.759 344.634c-2.357-2.346-4.411-.475-6.198 1.907-.848 1.131-1.651 2.592-2.384 3.814-6.56 10.933 7.901 10.509 13.349 1.43.536-.893 1.327-2.217.953-3.337-.237-.713-5.397-3.555-5.72-3.814z" stroke="#000" stroke-linecap="round" stroke-linejoin="round" stroke-width="1.7"/><path d="m353.409 347.971c14.939-5.611-3.658 8.686-2.384 9.535 3.246 2.163 4.964.383 8.105 1.43 1.106.369 2.173 1.43 3.337 1.43" stroke="#000" stroke-linecap="round" stroke-linejoin="round" stroke-width="1.7"/><path d="m379.152 347.495c-1.228 1.63-7.151 15.409-7.151 15.732" stroke="#000" stroke-linecap="round" stroke-linejoin="round" stroke-width="1.7"/><path d="m33.047 384.203c1.114-.041 1.826-1.172 2.86-1.43 1.993-.499 3.573-.954 5.721-.954 6.799 0-8.624 15.082-2.384 17.162 3.312 1.104 7.744-.476 10.965-.476" stroke="#000" stroke-linecap="round" stroke-linejoin="round" stroke-width="1.7"/><path d="m51.639 386.11c.636-.636 1.216-1.332 1.907-1.907 1.358-1.132 3.096-1.43 4.767-1.43 5.111 0-1.553 8.812-.477 10.964 1.393 2.785 10.457.97 12.395 0" stroke="#000" stroke-linecap="round" stroke-linejoin="round" stroke-width="1.7"/><path d="m80.72 381.819c-2.138.642-3.346-1.529-1.907-.953.659.264 1.199 1.02 1.907.953 2.164-.206 8.419-4.459 9.534 0 .746 2.985-8.48 14.473-.477 12.872 1.096-.219 2.767-.954 3.814-.954.968 0 1.956.954 2.861.954" stroke="#000" stroke-linecap="round" stroke-linejoin="round" stroke-width="1.7"/><path d="m102.649 378.482c.453-1.971 11.442-4.061 11.442-.953 0 1.782-2.861 3.343-2.861 4.767 0 .61 5.623 2.039 8.581 3.814.609.365-.795 3.549-.953 3.813-.936 1.56-7.721 6.547-9.535 7.151-1.221.408-2.418.477-3.814.477" stroke="#000" stroke-linecap="round" stroke-linejoin="round" stroke-width="1.7"/><path d="m138.404 384.203c-3.222-.369-2.538.761 0 0 .436-.131 8.68-4.208 7.627 0-1.366 5.465-7.007 9.295-8.104 14.778-.909 4.547 9.282 4.544 10.965 2.861" stroke="#000" stroke-linecap="round" stroke-linejoin="round" stroke-width="1.7"/><path d="m159.857 380.389c-4.419 8.627 2.972 8.553 8.581 7.151 1.084-.271 2.312-1.395 3.337-1.907" stroke="#000" stroke-linecap="round" stroke-linejoin="round" stroke-width="1.7"/><path d="m174.635 378.959c-3.218 5.524-6.197 17.464-6.197 23.836" stroke="#000" stroke-linecap="round" stroke-linejoin="round" stroke-width="1.7"/><path d="m191.321 380.389c1.565-1.293 6.575-3.913 8.581-1.907 1.374 1.374-2.424 4.156-2.86 4.767-1.338 1.873-6.247 8.056-3.814 10.488 1.27 1.271 4.114 1.104 5.72 1.907.632.316 2.625.954 3.338.954.224 0 .252-.477.476-.477" stroke="#000" stroke-linecap="round" stroke-linejoin="round" stroke-width="1.7"/><path d="m213.727 379.435c.091.041-4.065 3.725-3.337 4.291 1.759 1.368 6.466 2.98 7.151 5.721.444 1.775-.483 2.55-1.43 3.814-.427.568-.451 1.404-.954 1.907-3.297 3.297-6.517.633-9.058-1.907" stroke="#000" stroke-linecap="round" stroke-linejoin="round" stroke-width="1.7"/><path d="m211.343 379.912c6.003-1.09 11.606 3.814 17.163 3.814" stroke="#000" stroke-linecap="round" stroke-linejoin="round" stroke-width="1.7"/><path d="m237.564 386.586c2.732-.546 1.658-.114 3.337-.953 1.193-.597 9.058-3.304 9.058-1.907 0 .571-3.846 5.098-4.291 5.721-.856 1.198-6.76 10.618-4.291 11.441 1.035.345 7.272-.735 8.582-.953 2.079-.347 6.112.562 7.627-.954" stroke="#000" stroke-linecap="round" stroke-linejoin="round" stroke-width="1.7"/><path d="m275.225 383.249c-4.151 1.984-11.999 10.884-7.627 15.256 2.158 2.158 10.517-1.82 9.534-4.768-.474-1.422-4.767-1.649-4.767 0" stroke="#000" stroke-linecap="round" stroke-linejoin="round" stroke-width="1.7"/><path d="m300.015 384.679c.138-1.659 7.664-2.933 6.198 0-1.161 2.322-10.741 9.282-7.628 12.395 1.587 1.587 5.431.477 7.628.477" stroke="#000" stroke-linecap="round" stroke-linejoin="round" stroke-width="1.7"/><path d="m313.364 385.633c.942-1.048 8.685-3.71 10.011-2.384.034.035-1.549 2.383-1.907 3.814-.901 3.605-1.824 7.337-2.86 10.965-.158.55-1.19 4.767-1.907 4.767-.251 0-.547-1.5-.954-1.907" stroke="#000" stroke-linecap="round" stroke-linejoin="round" stroke-width="1.7"/><path d="m314.794 392.784c3.247-2.686 15.033-1.208 17.162-3.337" stroke="#000" stroke-linecap="round" stroke-linejoin="round" stroke-width="1.7"/><path d="m346.258 388.97c1.809-.768 2.889-1.43 4.767-1.43 1.145 0 2.828-.017 3.814.477 1.573.786-6.569 10.325-5.721 12.871.38 1.139 12.455 2.384 14.302 2.384" stroke="#000" stroke-linecap="round" stroke-linejoin="round" stroke-width="1.7"/><path d="m387.733 388.493c-1.949-1.502-2.601-.563-4.29 0-.57.19-1.338-.19-1.907 0-3.901 1.301 6.011 8.955 3.814 13.349-1.467 2.934-15.169 8.798-13.349 3.337.22-.66.246-1.215.477-1.907 1.041-3.124 15.031-10.731 18.593-11.918.772-.258 3.813-1.198 3.813-2.384 0-1.173-2.589-.136-2.86 0" stroke="#000" stroke-linecap="round" stroke-linejoin="round" stroke-width="1.7"/><path d="m396.791 252.149c-.096-1.923 1.586-3.377 1.907-5.093 1.611-8.606-.347-17.937.477-26.735 1.078-11.517.477-22.772.477-34.374 0-5.869.591-11.379.953-17.188.927-14.849-.427-29.811.954-44.559.576-6.16-.478-19.094.476-24.189 3.289-17.566 2.854-38.221-1.43-55.38-.362-1.451-1.739-3.165-2.384-4.456-1.241-2.486-1.71-5.13-3.813-7.002-8.204-7.303-19.962-2.38-29.081-1.274-11.404 1.385-22.873 3.364-34.324 4.456-16.154 1.541-32.483 1.659-48.627 0-6.197-.636-12.451.637-18.592.637-2.858 0-5.652-.992-8.581-.637-8.532 1.036-17.19-.242-25.744.637-.964.099-1.894.637-2.86.637-6.269 0-12.814-1.274-19.069-1.274-.967 0-1.894.637-2.861.637-.81 0-1.577-.529-2.383-.637-7.347-.981-18.867-.358-25.744-.636-5.393-.218-10.904-.249-16.209.636-7.831 1.307-19.405 0-27.65 0-5.672 0-12.027 1.071-17.639 0-2.216-.422-4.386-1.018-6.674-.636-3.896.65-13.581.903-17.639 0-4.529-1.008-9.375-.085-13.825-1.273-1.968-.526-4.253.649-6.198 0-5.433-1.814-34.075-1.421-38.09 1.26-2.561 1.709-5.403 3.289-8.105 5.093-.568.379-1.953.698-2.383 1.273-4.693 6.266-3.964 15.312-1.907 23.552.488 1.957.007 4.485.476 6.366.829 3.317 0 12.085 0 15.914 0 3.464.477 6.619.477 10.185 0 7.91-.675 16.498.477 24.189.306 2.04-.306 4.325 0 6.366 1.049 7.001 1.07 14.626 2.384 21.642.851 4.545-.168 9.514.953 14.005.668 2.674-.192 6.234.477 8.912 1.194 4.782 2.741 27.054.953 31.828-.877 2.342-.238 30.544-.476 30.863" stroke="#000" stroke-width="2.5"/><path d="m287.62 283.136c-1.271-.636-4.449-.636-3.814-1.907.636-1.271 4.819 2.912 3.814 1.907-3.975-3.976-13.287-6.674-19.069-6.674-4.897 0-9.264 1.772-13.348 3.814-1.982.99-4.659.899-6.675 1.907-1.321.66-2.33 2.33-2.86 2.86-6.593 6.593-7.628 7.274-7.628 18.116 0 1.38-.604 4.512 0 5.72 2.347 4.693 4.313 9.58 6.675 14.302 1.928 3.858 15.205 10.464 19.069 12.395.762.382 2.097-.381 2.86 0 8.607 4.304 25.797-1.007 30.511-5.72.449-.45 1.457.449 1.907 0 .552-.553 1.354-3.262 1.907-3.814 2.238-2.238 4.657-4.657 6.674-6.675.252-.252 0-2.467 0-2.86 0-12.336-10.595-25.829-20.023-33.371z" stroke="#d23131" stroke-width="5"/><path d="m24.641 164.182c.412-5.836 7.117-9.025 10.488-12.395 3.521-3.521 6.749-9.17 9.534-13.349 3.4-5.099 7.839-9.956 10.488-15.255.318-.636 1.59-.318 1.907-.953 3.55-7.1 8.423-14.144 13.349-19.07.76-.76 5.482-12.633 6.674-11.441 2.56 2.56-1.656 12.445-.953 15.255 1.289 5.156 2.758 10.934 3.813 16.209.312 1.558-.385 3.226 0 4.767 1.482 5.925 5.518 13.01 8.582 18.116.804 1.341 3.325 2.348 3.813 3.814 1.479 4.437 3.283 8.895 4.768 13.348.402 1.206-.402 2.608 0 3.814 2.835 8.505 7.646 13.367 12.395 18.116.353.353 3.224.659 3.814.953 2.345 1.173 4.865 5.195 7.627 3.814 13.816-6.908 23.028-27.795 34.325-39.092 2.469-2.469 3.209-7.023 5.72-9.534 3.231-3.231 18.815-15.806 22.883-17.163 3.368-1.122 8.44-2.312 11.442-3.813 1.794-.897 6.885-1.164 7.628-1.907.98-.981 7.007-8.248 9.534-5.721.477.477.477 1.43.954 1.907.449.449 1.457-.45 1.907 0 1.314 1.314 2.006 4.965 2.86 6.674.909 1.818 9.246 6.896 11.442 7.628 3.385 1.128 9.872 4.767 13.348 4.767.024 0 8.581-1.98 8.581-.953 0 1.678-1.97 4.385-2.86 5.72-.973 1.459-.954 9.111-.954 11.442 0 2.204 1.953 2.952 2.861 4.767.792 1.586 1.596 4.457 2.86 5.721 3.721 3.721.512-.221 2.86.953 2.307 1.154 4.481 4.259 6.675 5.721 3.241 2.161.511.128 3.813.954 2.641.66 4.835 3.115 7.628 3.813 6.853 1.714 13.18 4.353 20.023 5.721 1.394.279 2.435 1.562 3.814 1.907 9.659 2.415 17.566 7.445 26.696 10.488 4.498 1.499 9.926 2.579 14.302 4.767.804.402 1.054 1.623 1.907 1.907 3.39 1.13 7.205 2.173 10.488 3.814 1.917.959 5.584-.068 7.628.954 6.582 3.291 13.638 1.575 20.976 5.244 1.608.803 16.972 10.775 18.116 11.918" stroke="#000" stroke-width=".5"/><path d="m80.895 125.09c1.271-.318 3.496-2.225 3.814-.954.318 1.272-4.4 2.126-3.814.954.245-.49 6.425-4.87 7.628-6.674 1.922-2.884 4.372-4.372 6.674-6.674 3.114-3.115 5.533-7.44 8.581-10.489 3.406-3.405 4.912-10.228 7.628-14.301.978-1.467 2.836-2.347 3.813-3.814.558-.837.243-2.15.954-2.861 2.832-2.832 10.556-11.475 14.302-13.348 3.483-1.742 9.695-3.974 12.395-6.674 2.867-2.868 12.414-8.572 18.115-5.721 5.966 2.982 11.636 6.286 7.628 14.302-.703 1.406.081 5.639-.953 6.674-.477.476-2.463 8.979-.954 10.488 1.616 1.616 2.151 4.057 3.814 5.721 2.14 2.139 5.124 3.573 6.674 6.674.639 1.277 2.275 1.321 2.861 1.907.449.449-.45 1.457 0 1.907 2.383 2.384 3.337 6.197 5.72 8.581.897.897 1.907 8.725 1.907 7.628 0-.636 0-2.543 0-1.907 0 1.633 1.724 4.767 0 4.767" stroke="#000" stroke-width=".5"/><path d="m247.75 151.787c5.161-4.059 8.11-9.304 11.442-14.302 3.643-5.465 7.769-10.701 11.441-16.209 9.053-13.579 11.268-32.244 21.93-42.906 2.79-2.79 4.939-7.799 7.628-10.488.449-.449-.636-1.907 0-1.907.375 0 7.627 15.906 7.627 17.163 0 5.405 13.522 37.358 17.162 40.998 4.35 4.35 9 9 13.349 13.349.745.745 1.659-.829 1.907-.954 1.679-.839 4.114-.15 5.721-.953 2.691-1.346 5.921-2.484 8.581-3.814 8.383-4.191 11.367 8.618 19.069 4.767 5.697-2.848 13.876-6.248 18.116-10.488 1.168-1.168 5.268-.5 6.674-1.907.636-.635 1.271-2.542 1.907-1.906 1.343 1.342-3.422-.954-3.814-.954" stroke="#000" stroke-width=".5"/><path d="m320.213 117.462c1.271-.953 2.69-1.736 3.814-2.86 1.235-1.235 2.238-4.67 3.814-5.721 2.711-1.807 4.508-3.554 6.674-5.721 1.87-1.87 5.467-3.146 7.628-4.767 5.81-4.358 12.246-9.386 17.162-14.302 4.807-4.807 12.874-8.106 17.162-12.395.625-.625 3.336-.476 3.814-.953 3.77-3.77 17.703-8.168 19.069-9.535" stroke="#000" stroke-width=".5"/><path d="m116.173 81.231c4.43-3.618 6.344-.954 10.488-.954 2.351 0 3.908 1.954 5.721 2.861 2.787 1.393 6.747.513 9.534 1.907.804.402 1.103 1.505 1.907 1.907 2.581 1.29 5.616.424 8.581 1.906 1.14.57 5.034 1.22 5.721 1.907.225.225-.318.954 0 .954 2.646 0 12.395-3.49 12.395.953" stroke="#000" stroke-width=".5"/><path d="m60.872 117.462c-.002.052 20.976-.042 20.976 0 0 .711-1.196.954-1.907.954" stroke="#000" stroke-width=".5"/><path d="m276.354 107.928c4.27-5.222 20.093 1.395 22.883 0 4.24-2.12 8.746-1.119 11.442-3.814.724-.725 5.587.953 4.767.953-.636 0-1.271 0-1.907 0" stroke="#000" stroke-width=".5"/><path d="m342.143 99.347c5.152-3.333 11.432-7.628 18.115-7.628 1.944 0 2.081 1.994 3.814 2.86 1.653.826 18.308.762 19.07 0 .918-.918.566-1.237 1.906-1.907 1.726-.863 3.921-2.013 4.768-2.86.634-.635 7.082-.408 9.534-2.86.188-.188 5.622 0 2.861 0" stroke="#000" stroke-width=".5"/></g><path d="m116.039 187.231c-1.333-1.049-2.892-1.907-3.463-1.907-3.658 0-14.398-14.321-14.388-19.186.008-3.904-4.991-16.42-7.923-19.834-3.148-3.667-9.244-15.8-9.244-18.399 0-1.06.715-1.696 1.907-1.696 1.049 0 1.907-.429 1.907-.953 0-.525.027-1.276.061-1.669.033-.393 3.591-4.362 7.906-8.819 10.213-10.55 13.34-14.672 16.726-22.051 3.85-8.391 7.754-12.274 12.339-12.274 1.96 0 5.181.825 7.158 1.833s5.393 2.127 7.591 2.487 4.64 1.189 5.427 1.842c.786.652 4.159 1.747 7.494 2.432s6.532 1.747 7.105 2.36c.702.752 2.297.871 4.901.366 2.123-.412 4.59-.767 5.484-.79 1.646-.042 12.201 9.235 12.201 10.723 0 .446 1.307 2.71 2.905 5.033 2.899 4.213 5.98 12.496 5.149 13.841-.241.39.1.926.759 1.192.659.265.34.522-.709.57-5.596.254-26.195 16.32-29.642 23.117-1.245 2.454-2.744 4.759-3.333 5.123s-5.905 7.152-11.815 15.085c-10.344 13.886-14.488 18.531-19.542 21.906-3.04 2.03-4.017 1.983-6.961-.332z" fill="#b3b3b3" opacity=".938"/><path d="m395.373 248.162c-1.115-1.081-6.32-3.016-11.609-4.316-6.044-1.485-13.163-2.484-20.566-2.886-7.24-.393-38.67-3.802-46.243-5.017-8.467-1.357-22.294-2.443-35.76-2.808-6.558-.177-12.215-.503-12.571-.723s-16.336-.58-35.511-.801c-19.175-.22-38.404-.627-42.73-.904-4.326-.278-15.589-.709-25.028-.959s-22.311-.699-28.604-.998c-8.808-.418-15.94-.405-30.987.059-10.751.331-22.979.459-27.174.285-7.115-.297-12.411-.116-34.318 1.17-7.797.458-13.907 1.265-16.096 2.125-.781.307-.834-.428-.831-11.522.003-7.858.248-13.697.729-17.332.599-4.531.64-7.118.238-14.905-.268-5.182-.703-10.867-.968-12.633-.264-1.766-.565-5.249-.669-7.74-.103-2.491-.344-5.129-.533-5.862-.369-1.425-.173-1.649 8.868-10.109 1.729-1.618 4.49-5.038 6.351-7.866 1.811-2.753 5.151-7.58 7.423-10.726 2.272-3.147 4.744-6.77 5.492-8.052.749-1.282 1.763-2.436 2.255-2.565.491-.128 1.502-1.439 2.245-2.913l1.352-2.679 9.077.139 9.076.139.512 2.387c.282 1.313.512 3.541.512 4.952 0 1.59.503 3.98 1.324 6.293 1.892 5.328 6.58 13.812 9.174 16.601 1.888 2.03 2.556 3.336 4.509 8.819 1.367 3.835 2.267 7.155 2.228 8.216-.145 3.956 3.841 11.146 9.621 17.354 2.477 2.661 3.556 3.475 4.951 3.737.981.184 3.043 1.281 4.582 2.438 1.552 1.167 3.323 2.103 3.978 2.103 1.82 0 7.18-3.774 10.908-7.679 4.173-4.373 7.183-8.188 13.732-17.407 2.817-3.965 6.853-9.221 8.969-11.68s4.393-5.651 5.06-7.093c.668-1.442 1.758-3.343 2.423-4.224 1.937-2.567 15.856-13.672 20.58-16.42 2.411-1.402 15.335-5.825 19.119-6.543 2.047-.388 2.947-.944 5.643-3.488 4.19-3.952 5.357-4.276 6.641-1.839.394.748.852 1.008 1.441.821.913-.289 1.712.997 2.862 4.607 1.041 3.267 6.791 7.295 15.829 11.091 7.782 3.268 8.392 3.39 13.352 2.688 2.36-.334 4.396-.501 4.525-.372.13.129-.531 1.705-1.467 3.501-1.649 3.163-1.706 3.446-1.82 9.063-.109 5.425-.048 5.872.946 6.933.585.624 1.794 2.628 2.687 4.452 1.831 3.74 3.925 6.066 4.55 5.054.282-.456 1.129.061 3.193 1.951 3.701 3.389 4.913 4.178 6.42 4.178.689 0 2.304.569 3.588 1.265 1.285.696 2.872 1.543 3.528 1.882 1.252.648 17.155 5.529 20.022 6.145.918.197 2.42.737 3.337 1.2.918.463 3.632 1.498 6.031 2.3 2.399.803 7.226 2.723 10.726 4.268 7.526 3.321 10.858 4.569 19.453 7.285 4.188 1.323 6.81 2.423 7.556 3.168 1.636 1.636 11.024 4.935 15.349 5.393 1.966.209 4.396.73 5.4 1.159s4.865 1.288 8.581 1.909 7.936 1.585 9.379 2.141c1.442.557 6.376 3.525 10.964 6.596l8.343 5.584.144 11.918c.15 12.528-.067 16.31-1.009 17.599-.5.683-.662.695-1.284.093z" fill="#008000" opacity=".938"/><path d="m394.423 215.132c-6.315-4.299-14.124-9.074-16.113-9.852-1.127-.442-4.774-1.234-8.104-1.76-3.33-.527-7.257-1.382-8.726-1.901-1.469-.52-4.043-1.07-5.721-1.223-1.73-.158-5.256-1.086-8.153-2.145-2.806-1.027-5.294-1.867-5.527-1.867-.234 0-.82-.437-1.303-.971-1.175-1.298-4.076-2.536-10.177-4.345-6.391-1.894-8.95-2.865-18.486-7.013-4.236-1.843-8.956-3.712-10.488-4.153s-3.751-1.279-4.931-1.862-3.218-1.319-4.529-1.636c-6.464-1.562-18.836-5.525-20.738-6.643-3.079-1.811-4.699-2.458-6.154-2.458-.908 0-2.353-.959-4.983-3.308-2.243-2.003-4.21-3.367-4.984-3.457-1.059-.122-1.608-.777-3.186-3.802-1.049-2.01-2.205-3.998-2.568-4.418-.58-.669-.343-1.097 1.94-3.496 1.43-1.503 4.111-4.986 5.956-7.739s5.866-8.545 8.935-12.872c3.775-5.319 6.662-10.049 8.919-14.61l3.338-6.743 2.114-.318c2.344-.351 4.198-.153 11.849 1.263 4.92.911 5.353.922 7.867.19 1.463-.425 4.014-1.076 5.669-1.445 1.655-.37 3.528-1.012 4.162-1.428.966-.632 1.448-.663 2.966-.19 1.907.595 2.131.974 6.028 10.171 2.35 5.548 4.301 8.16 11.66 15.613 4.078 4.13 7.62 7.509 7.872 7.509.253 0 .822-.329 1.265-.73.444-.401 1.946-.865 3.339-1.03 1.449-.171 4.739-1.287 7.687-2.607 2.835-1.269 5.854-2.304 6.71-2.3 1.601.008 3.111.782 7.792 3.991 4.439 3.043 5.367 2.952 13.905-1.363 3.986-2.014 8.673-4.701 10.416-5.972 2.387-1.741 3.762-2.392 5.568-2.641 1.6-.22 2.741-.699 3.426-1.438l1.028-1.109-.166 16.3c-.092 8.964-.394 20.697-.673 26.072-.278 5.375-.613 18.998-.744 30.273-.131 11.274-.377 20.741-.548 21.036-.201.349-1.394-.202-3.409-1.573z" fill="#008000" opacity=".938"/><path d="m331.45 129.758c-4.586-4.673-7.86-8.438-8.677-9.975l-1.313-2.47 1.604-1.223c.882-.673 2.189-2.299 2.905-3.615.827-1.52 2.462-3.321 4.487-4.943 1.751-1.404 3.611-3.029 4.132-3.613 1.152-1.29 6.403-4.449 7.395-4.449.393 0 2.696-1.159 5.116-2.576 7.332-4.291 13.177-5.716 14.845-3.619 1.218 1.531 2.364 1.891 7.126 2.236 6.317.458 13.793-.118 14.794-1.139 1.83-1.866 6.607-4.235 9.606-4.765 1.704-.301 3.91-.963 4.901-1.471s2.225-.923 2.741-.923c1.199 0 1.235 1.822.16 8.104-.463 2.708-.894 8.939-1.07 15.494-.19 7.021-.471 10.935-.782 10.882-.267-.045-1.071-.229-1.788-.409-1.68-.422-1.7.406-.024.995 1.208.426 1.233.494.456 1.271-.452.451-1.894.963-3.206 1.137-1.827.242-3.134.87-5.581 2.679-1.758 1.299-6.439 3.981-10.403 5.96-8.41 4.197-8.885 4.227-13.449.868-6.054-4.457-7.332-4.57-14.689-1.292-2.852 1.27-6.354 2.462-7.797 2.654-1.441.191-2.958.653-3.372 1.027-.667.604-1.579-.163-8.117-6.825z" fill="#666" opacity=".938"/><path d="m390.644 212.341c-10.114-6.51-12.377-7.562-18.896-8.776-3.129-.583-7.728-1.56-10.219-2.171-2.491-.612-5.492-1.266-6.67-1.454-3.334-.532-12.129-3.445-13.4-4.438-1.981-1.547-4.747-2.731-11.871-5.077-3.802-1.252-10.023-3.565-13.825-5.14-12.424-5.146-21.348-8.397-31.108-11.332-5.279-1.588-11.434-3.716-13.677-4.731-2.244-1.014-4.65-1.968-5.347-2.118-.696-.15-2.985-1.615-5.086-3.255-2.1-1.64-4.44-3.324-5.2-3.743-.837-.462-2.278-2.291-3.658-4.645l-2.276-3.883 2.595-2.983c5.508-6.33 18.993-26.381 23.488-34.924 1.794-3.408 3.49-6.355 3.769-6.548.909-.628 5.148-.39 11.861.666 6.45 1.014 6.663 1.018 10.25.189 2.014-.465 5.338-1.392 7.385-2.059l3.722-1.212 1.284.945c1.402 1.034 1.728 1.608 5.479 9.688 1.57 3.38 3.483 6.605 4.991 8.412 3.438 4.12 10.388 11.364 12.531 13.062l1.803 1.428 3.256-1.004c1.791-.551 5.9-1.95 9.131-3.108s6.449-2.103 7.151-2.102c.711.002 3.375 1.268 6.016 2.861 3.739 2.254 5.147 2.856 6.674 2.85 2.328-.008 8.897-3.067 16.952-7.893 3.015-1.807 6.615-3.643 7.998-4.081 1.384-.437 2.832-1.058 3.218-1.378.613-.509.702.346.699 6.746-.002 4.03-.208 14.729-.457 23.775s-.568 21.167-.708 26.936c-.726 29.938-.887 34.562-1.199 34.562-.187 0-3.182-1.829-6.656-4.065z" fill="#666" opacity=".938"/><path d="m25.121 148.208c-.494-5.681-1.442-27.622-2.106-48.758-.663-21.136-1.597-39.98-2.074-41.874-1.594-6.326 1.076-12.428 7.258-16.584 8.141-5.475 21.201-6.89 43.937-4.762 16.743 1.567 41.534 1.867 191.926 2.326 61.846.189 64.524.089 88.994-3.309 37.027-5.142 37.731-5.066 42.579 4.559 4.432 8.798 6.247 18.458 6.247 33.239v12.565l-7.951 2.231c-4.372 1.227-8.694 3.128-9.603 4.223-1.926 2.32-19.504 2.862-20.875.644-.459-.742-3.073-1.373-5.811-1.403l-4.976-.055 4.719-4.108c7.665-6.67 18.753-13.676 31.458-19.873 6.548-3.195 11.549-6.166 11.112-6.602-1.402-1.402-28.117 12.856-37.176 19.841-19.962 15.393-26.544 20.449-31.215 23.983-2.706 2.048-6.01 5.536-7.343 7.75l-2.424 4.028-4.357-9.421c-2.396-5.182-5.697-13.668-7.335-18.86-1.639-5.191-4.435-12.749-6.215-16.796l-3.236-7.358-2.036 3.924c-1.119 2.158-4.169 6.528-6.777 9.71-2.608 3.183-6.872 10.493-9.476 16.244s-6.262 13.777-8.13 17.834c-3.336 7.249-22.223 35.576-24.77 37.15-1.853 1.145-1.505-3.176.761-9.469 2.714-7.532 2.603-7.788-3.072-7.084-8.027.996-28.654-8.556-28.654-13.268 0-2.366-5.358-7.29-7.933-7.29-1.118 0-3.582 1.415-5.477 3.145-2.774 2.532-11.888 6.294-15.249 6.294-.388 0-1.118-2.2-1.622-4.889-1.112-5.925-5.91-13.593-14.517-23.199-7.074-7.894-7.324-9.122-4.395-21.548 2.217-9.401 1.569-11.943-3.966-15.57-4.869-3.19-12.657-2.734-18.98 1.111-2.966 1.805-8.356 4.88-11.977 6.834-7.373 3.978-19.71 14.934-19.71 17.503 0 .92-.96 2.469-2.133 3.443-1.173.973-3.844 5.143-5.935 9.266-4.793 9.449-24.221 30.697-25.772 28.187-.618-.999-.388-2.187.538-2.788 1.24-.804 1.218-1.303-.096-2.153-2.836-1.835-4.326-9.586-3.451-17.959.938-8.974-.793-10.446-4.634-3.94-4.451 7.537-7.098 11.573-12.125 18.481-2.776 3.816-9.685 13.524-15.354 21.575-5.669 8.05-12.419 16.554-15 18.897l-4.693 4.261z" fill="#0070ff" opacity=".938"/></svg>