<?xml version="1.0" encoding="UTF-8" standalone="no"?>
<!-- Created with Inkscape (http://www.inkscape.org/) -->

<svg
   xmlns:dc="http://purl.org/dc/elements/1.1/"
   xmlns:cc="http://creativecommons.org/ns#"
   xmlns:rdf="http://www.w3.org/1999/02/22-rdf-syntax-ns#"
   xmlns:svg="http://www.w3.org/2000/svg"
   xmlns="http://www.w3.org/2000/svg"
   xmlns:sodipodi="http://sodipodi.sourceforge.net/DTD/sodipodi-0.dtd"
   xmlns:inkscape="http://www.inkscape.org/namespaces/inkscape"
   width="872.77838"
   height="880.25763"
   id="svg3942"
   version="1.1"
   inkscape:version="0.48.0 r9654"
   sodipodi:docname="calendar.svg">
  <defs
     id="defs3944" />
  <sodipodi:namedview
     id="base"
     pagecolor="#ffffff"
     bordercolor="#666666"
     borderopacity="1.0"
     inkscape:pageopacity="0.0"
     inkscape:pageshadow="2"
     inkscape:zoom="0.35"
     inkscape:cx="366.75124"
     inkscape:cy="601.29562"
     inkscape:document-units="px"
     inkscape:current-layer="layer1"
     showgrid="false"
     fit-margin-top="10"
     fit-margin-right="10"
     fit-margin-bottom="10"
     fit-margin-left="10"
     inkscape:window-width="1920"
     inkscape:window-height="1018"
     inkscape:window-x="1272"
     inkscape:window-y="-8"
     inkscape:window-maximized="1" />
  <metadata
     id="metadata3947">
    <rdf:RDF>
      <cc:Work
         rdf:about="">
        <dc:format>image/svg+xml</dc:format>
        <dc:type
           rdf:resource="http://purl.org/dc/dcmitype/StillImage" />
        <dc:title></dc:title>
      </cc:Work>
    </rdf:RDF>
  </metadata>
  <g
     inkscape:label="Layer 1"
     inkscape:groupmode="layer"
     id="layer1"
     transform="translate(-87.244735,-172.58797)">
    <path
       style="fill:none;stroke:#000000;stroke-width:5;stroke-linecap:butt;stroke-linejoin:miter;stroke-miterlimit:4;stroke-opacity:1;stroke-dasharray:none"
       d="m 481.84277,615.97628 c -19.12695,-1.4713 -38.38622,-1.90149 -57.5787,-3.03046 -16.80083,-0.98828 -33.71199,0.0396 -50.50762,-1.01015 -28.60389,-1.78774 -57.21326,-2.80076 -85.86297,-1.01015 -37.27026,2.32939 -75.008,-1.69159 -112.12693,2.0203 -7.97805,0.79781 -53.89741,0.71864 -57.5787,8.08122 -2.16273,4.32547 -1.2945,10.43451 -2.02031,15.15229 -0.75424,4.90259 -2.05479,10.27396 -3.03045,15.15229 -1.83038,9.15188 -7.04352,17.93476 -8.08122,27.27412 -1.12297,10.10666 -2.91634,20.18614 -4.04062,30.30457 -0.47968,4.31717 0.53873,8.82215 0,13.13199 -3.152729,25.22186 0.21467,56.48022 3.03046,81.82235 0.28571,2.57137 1.72733,6.45455 2.02031,9.09138 1.26458,11.38123 0.60162,22.99571 2.0203,34.34518 0.64328,5.14626 2.39031,10.03106 3.03046,15.15229 1.67843,13.42747 2.36193,26.97662 4.04061,40.4061 0.49731,3.97845 -0.49731,8.14339 0,12.12183 2.93272,23.46179 2.754,76.98427 14.14214,95.96447 3.9049,6.5082 10.78052,14.0002 18.18275,17.1726 29.68408,12.7218 86.49963,7.1135 116.16754,9.0914 15.13874,1.0092 30.31808,1.011 45.45686,2.0203 10.05683,0.6705 20.24775,-0.6705 30.30458,0 24.8348,1.6557 49.88828,1.3086 74.75129,0 25.89128,-1.3627 51.89383,-0.6578 77.78174,-2.0203 20.87034,-1.0984 41.76213,-1.8712 62.62946,-3.0305 9.39945,-0.5222 18.88319,0.4948 28.28427,0 12.00689,-0.6319 6.13809,-1.7186 18.18275,-1.0101 46.41505,2.7303 93.10009,1.1923 139.40105,5.0507 8.02673,0.6689 16.21229,-0.6177 24.24366,0 22.10395,1.7004 44.4523,1.0102 66.67007,1.0102 17.35557,0 48.40469,-0.9606 63.63961,-10.1015 10.26027,-6.1562 18.57366,-16.2818 26.26397,-25.2538 7.59464,-8.86046 13.75361,-17.89788 17.17259,-29.29447 3.2062,-10.68733 7.39837,-22.06803 8.08122,-33.33503 0.57072,-9.41682 1.01015,-18.85017 1.01015,-28.28427 0,-14.70012 -5.12839,-43.04777 -9.09137,-57.5787 -0.47711,-1.74938 -1.66469,-3.27269 -2.02031,-5.05076 -2.34165,-11.70825 -3.729,-24.46968 -5.05076,-36.36549 -0.78991,-7.10916 -3.15524,-14.13025 -4.04061,-21.2132 -0.91732,-7.33858 0.0366,-14.89636 -1.01015,-22.22336 -1.09645,-7.67513 -1.53167,-15.73955 -3.03046,-23.23351 -0.70516,-3.52578 0.87119,-7.62693 0,-11.11168 -1.64715,-6.58858 -1.38725,-13.63023 -3.03046,-20.20305 -2.53646,-10.14584 -4.93208,-20.85717 -8.08122,-30.30457 -3.20875,-9.62625 -6.60749,-30.57787 -16.16244,-35.35534 -15.87231,-7.93616 -36.25714,-11.09964 -54.54824,-13.13199 -7.36862,-0.81873 -14.85473,-0.19141 -22.22335,-1.01015 -24.49688,-2.72187 -49.14972,-5.62208 -73.74114,-8.08122 -8.46901,-0.8469 -16.7848,-3.19371 -25.25381,-4.04061 -15.51536,-1.55154 -31.13071,-1.84971 -46.46702,-4.04061 -3.28573,-0.46939 -6.82769,0.54564 -10.10152,0 -9.42506,-1.57084 -21.57599,1.172 -30.30458,-1.01015 -9.88657,-2.47165 -21.98482,-1.01016 -85.35789,-2.02031 -57.39236,-1.40645 -61.80056,-0.67442 -66.16499,-1.01015 z"
       id="path3956"
       inkscape:connector-curvature="0"
       sodipodi:nodetypes="sssssssssssssssssssssssssssssssssssssssssssssssssssscs" />
    <path
       style="fill:none;stroke:#000000;stroke-width:4;stroke-linecap:butt;stroke-linejoin:miter;stroke-miterlimit:4;stroke-opacity:1;stroke-dasharray:none"
       d="m 221.22341,619.00674 c -9.20113,10.90737 -12.78775,24.19855 -15.15229,38.38579 -1.24908,7.49451 -5.11374,14.64597 -6.06091,22.22336 -0.93633,7.49064 -2.58823,14.96144 -4.04061,22.22336 -1.97481,9.87402 -0.0422,20.41407 -2.02031,30.30457 -1.92789,9.63947 0.0691,31.66023 2.02031,41.41626 1.02124,5.10622 -2.71535,10.0367 -1.01015,15.15229 2.37202,7.11607 1.2281,15.01392 3.03045,22.22335 1.26931,5.07721 -1.02803,11.0223 0,16.16244 1.51942,7.59709 1.15095,15.71545 3.03046,23.23351 0.8715,3.48602 -0.8715,7.62566 0,11.11168 3.6686,14.6744 -0.61651,32.27279 2.02031,45.45686 1.1796,5.89803 1.01015,11.96618 1.01015,18.18275 0,12.25322 1.98321,66.74426 -3.03046,76.77164 -1.01452,2.029 0.0593,4.9322 -1.01015,7.071 -1.47093,2.9419 1.67735,16.5054 1.01015,17.1726 -1.218,1.218 -4.75047,-9.2006 -5.05076,-10.1015"
       id="path3958"
       inkscape:connector-curvature="0" />
    <path
       style="fill:none;stroke:#000000;stroke-width:4;stroke-linecap:butt;stroke-linejoin:miter;stroke-miterlimit:4;stroke-opacity:1;stroke-dasharray:none"
       d="m 338.40111,622.0372 c -2.48974,24.04959 0,48.49292 0,72.73098 0,16.80499 -0.65716,33.83453 1.01015,50.50763 1.72417,17.24175 5.16107,34.32779 7.07107,51.51778 0.54244,4.88199 -0.53339,9.37448 -1.01016,14.14213 -0.70076,7.00768 -0.37091,14.18159 -1.01015,21.2132 -0.57594,6.33531 0.70232,12.87207 0,19.1929 -1.64449,14.80045 -1.94885,29.80443 -4.04061,44.44671 -1.67422,11.71953 2.73575,29.46312 0,40.40611 -1.32594,5.30376 -2.73293,22.10577 -1.01015,27.27412 1.23112,3.69335 3.01383,17.20585 1.01015,21.2132 -0.98962,1.97925 -2.0203,14.70533 -2.0203,17.17264 0,1.1097 -0.32479,9.4161 -1.01016,10.1015 -0.26739,0.2674 -2.61451,0 -3.03045,0"
       id="path3960"
       inkscape:connector-curvature="0" />
    <path
       style="fill:none;stroke:#000000;stroke-width:4;stroke-linecap:butt;stroke-linejoin:miter;stroke-miterlimit:4;stroke-opacity:1;stroke-dasharray:none"
       d="m 460.62956,627.08796 c -4.62297,48.36384 0.20981,98.06255 5.05077,146.47212 0.92774,9.27747 0.002,19.17458 -1.01016,28.28427 -0.59146,5.32315 0.48504,10.82701 0,16.16244 -0.98424,10.82669 -2.96202,21.53905 -4.04061,32.32488 -0.46633,4.6633 0.5175,9.48468 0,14.14214 -1.67747,15.09724 -2.15854,30.40035 -4.04061,45.45686 -0.62047,4.9638 0.70729,10.20132 0,15.15229 -3.28351,22.9846 1.01016,45.90196 1.01016,68.69037 0,5.35506 2.20549,7.07107 -4.04061,7.07107"
       id="path3962"
       inkscape:connector-curvature="0" />
    <path
       style="fill:none;stroke:#000000;stroke-width:4;stroke-linecap:butt;stroke-linejoin:miter;stroke-miterlimit:4;stroke-opacity:1;stroke-dasharray:none"
       d="m 576.79711,643.2504 c 10.4738,9.22278 6.3032,22.8309 5.05076,35.35534 -1.13717,11.37168 -1.1426,22.93505 -2.02031,34.34518 -3.03741,39.48635 -8.83743,78.77508 -12.12183,118.18785 -2.23535,26.82422 -8.08122,52.75437 -8.08122,79.80205 0,22.16767 1.76348,48.24767 -5.05076,68.69038 -0.71156,2.13468 -0.49239,19.68529 -1.01015,20.20305 -1.24164,1.24165 -1.01015,-6.63601 -1.01015,-7.07107"
       id="path3964"
       inkscape:connector-curvature="0" />
    <path
       style="fill:none;stroke:#000000;stroke-width:4;stroke-linecap:butt;stroke-linejoin:miter;stroke-miterlimit:4;stroke-opacity:1;stroke-dasharray:none"
       d="m 685.89358,640.21994 c 4.89928,15.40053 4.58204,32.21971 6.06092,48.48732 0.82998,9.12983 3.20813,18.11689 4.04061,27.27412 1.75916,19.35084 2.77017,44.2794 1.01015,63.63961 -1.83273,20.16001 -3.49498,40.38399 -5.05076,60.60915 -1.11727,14.52451 -4.94107,28.87853 -6.06092,43.43656 -0.93245,12.12183 -1.92996,24.26003 -3.03046,36.3655 -2.30303,25.33336 -6.06091,50.21983 -6.06091,75.76144 0,0.90387 0.0197,20.20306 1.01015,20.20306 0.99486,0 2.51422,-7.0488 3.03046,-8.0812"
       id="path3966"
       inkscape:connector-curvature="0" />
    <path
       style="fill:none;stroke:#000000;stroke-width:4;stroke-linecap:butt;stroke-linejoin:miter;stroke-miterlimit:4;stroke-opacity:1;stroke-dasharray:none"
       d="m 803.07128,662.4433 c -0.96635,11.06172 -3.01401,22.04245 -4.04061,33.33503 -0.91298,10.04272 0.24542,20.3631 1.01015,30.30458 0.84949,11.04342 -0.0988,22.39858 -1.01015,33.33503 -0.83827,10.05921 -0.17184,20.24482 -1.01016,30.30458 -0.50855,6.10271 -2.52189,12.08003 -3.03045,18.18274 -1.15993,13.91907 -3.55225,27.61857 -6.06092,41.41626 -1.88193,10.35062 -5.01482,20.8538 -6.06091,31.31473 -1.76113,17.61128 -4.894,35.11139 -7.07107,52.52793 0.16909,2.56915 -1.67363,4.64436 -2.02031,7.07107 -1.65959,11.61716 -4.81036,32.03592 -1.01015,43.43656 0.19806,0.59418 -0.92741,19.11019 1.01015,17.17259 0.70628,-0.7063 -2.41371,-2.72208 -3.03045,-3.03046"
       id="path3968"
       inkscape:connector-curvature="0" />
    <path
       style="fill:none;stroke:#000000;stroke-width:4;stroke-linecap:butt;stroke-linejoin:miter;stroke-miterlimit:4;stroke-opacity:1;stroke-dasharray:none"
       d="m 106.06602,707.90016 c 10.9945,0.12711 21.19023,-1.36532 32.32488,-2.0203 15.62907,-0.91936 31.01776,0.8319 46.46702,2.0203 22.09519,1.69963 44.55648,-1.47424 66.67007,0 20.85447,1.3903 41.77778,1.64035 62.62946,3.03046 33.37921,2.22528 66.67757,4.29377 100.0051,7.07107 4.02665,0.33555 8.09518,-0.33556 12.12183,0 16.8421,1.40351 33.63661,3.84569 50.50763,5.05076 17.12893,1.22349 34.37729,0.79598 51.51778,2.0203 22.60608,1.61472 45.03061,6.66562 67.68022,8.08123 21.74311,1.35894 44.15962,2.47753 65.65991,6.06091 15.04502,2.5075 30.37963,2.36536 45.45687,4.04061 10.83519,1.20391 21.62819,2.51251 32.32488,4.04061 10.17357,1.45337 29.12384,-2.32859 39.39595,-4.04061 6.15152,-1.02525 13.18366,0.15169 19.19289,1.01015 14.38717,2.05531 29.83052,1.01016 44.44672,1.01016 14.06411,0 30.88625,-3.39012 44.44671,0 4.98618,1.24654 9.59183,0 13.13198,0 3.23142,0 6.06739,1.01662 6.06092,1.01015 -2.71932,-2.71932 -10.85907,-1.01015 -14.14214,-1.01015"
       id="path3970"
       inkscape:connector-curvature="0" />
    <path
       style="fill:none;stroke:#000000;stroke-width:4;stroke-linecap:butt;stroke-linejoin:miter;stroke-miterlimit:4;stroke-opacity:1;stroke-dasharray:none"
       d="m 114.14724,804.87481 c 0.67343,1.34687 0.84443,3.09991 2.0203,4.04061 0.91194,0.72955 43.76188,-2.80503 46.46702,-3.03046 19.12084,-1.5934 38.42625,0.18687 57.5787,-1.01015 31.80164,-1.98761 63.18361,-1.01016 94.95434,-1.01016 12.95359,0 25.59454,0.59906 38.38579,2.02031 5.6544,0.62826 11.51821,-0.62827 17.1726,0 19.08985,2.12109 38.41634,2.44375 57.57869,4.04061 10.03344,0.83612 20.26532,-0.77225 30.30458,0 27.24389,2.09568 54.61397,2.7834 81.82236,5.05076 13.20557,1.10047 26.20644,4.86187 39.39594,6.06092 47.94476,4.35861 96.20126,10.10152 144.45182,10.10152 15.245,0 31.32114,1.51459 46.46702,0 6.59273,-0.65927 13.55776,-2.33921 20.20305,-1.01015 0.7383,0.14766 1.26738,1.01015 2.0203,1.01015 0.75293,0 1.28986,-0.82754 2.02031,-1.01015 2.48775,-0.62194 5.65595,0.80842 8.08122,0 4.87226,-1.62409 10.7529,-1.94855 16.16244,-3.03046 2.58525,-0.51705 5.46927,0.37314 8.08122,0 9.34387,-1.33484 18.77491,-1.01015 28.28427,-1.01015 3.44788,0 7.57318,2.18965 11.11168,1.01015 2.04171,-0.68057 4.46699,-1.66117 7.07107,-1.01015 0.73044,0.18261 1.26738,1.01015 2.0203,1.01015 0.75292,0 1.26738,-1.01015 2.02031,-1.01015 0.47619,0 0.53396,1.01015 1.01015,1.01015 2.58442,0 11.88539,-2.0203 14.14213,-2.0203 1.09815,0 6.94198,1.0747 7.07107,1.01015 0.42592,-0.21296 0.53396,-1.01015 1.01015,-1.01015 0.33672,0 -0.23809,0.77205 0,1.01015 0.24922,0.24921 5.81171,0.24921 6.06092,0 1.41297,-1.41297 -4.83169,-1.01015 -5.05076,-1.01015"
       id="path3972"
       inkscape:connector-curvature="0" />
    <path
       style="fill:none;stroke:#000000;stroke-width:4;stroke-linecap:butt;stroke-linejoin:miter;stroke-miterlimit:4;stroke-opacity:1;stroke-dasharray:none"
       d="m 133.34014,891.74792 c -2.39978,-8.98474 -3.83671,2.22421 -5.05076,1.01016 -0.33672,-0.33672 0.54321,-0.91677 1.01015,-1.01016 4.26931,-0.85386 8.78148,-1.47649 13.13198,-2.0203 14.49626,-1.81203 28.78681,-4.13515 43.43656,-5.05076 40.62996,-2.53938 81.47297,-2.02031 122.22846,-2.02031 37.38433,0 74.89791,4.58913 112.12693,7.07107 9.15844,0.61056 18.1294,3.33717 27.27412,4.04061 13.45786,1.03522 26.94071,2.06864 40.4061,3.03046 3.78808,0.27057 11.5446,-0.30923 15.15229,0 13.31666,1.14143 27.0082,4.02015 40.4061,5.05076 34.94661,2.6882 70.01114,5.31883 105.05587,7.07107 20.57621,1.02881 41.00505,5.05076 61.6193,5.05076 33.64131,0 67.72182,3.3718 101.01526,7.07107 14.60719,1.62302 30.07919,0.15695 44.44671,3.03046 2.87449,0.57489 29.72946,-2.83876 33.33503,-4.04061 4.78025,-1.59342 10.64264,1.01015 15.15229,1.01015 1.77007,0 9.98521,1.12647 11.11168,0 1.37281,-1.37281 -3.5667,-1.01015 -4.04061,-1.01015"
       id="path3974"
       inkscape:connector-curvature="0" />
    <path
       style="fill:none;stroke:#000000;stroke-width:3.4000001;stroke-linecap:round;stroke-linejoin:round;stroke-miterlimit:4;stroke-opacity:1;stroke-dasharray:none"
       d="m 140.41121,654.36208 c 4.89892,-5.72134 14.43062,-7.35956 19.1929,-12.12183 1.67662,-1.67662 3.48198,-3.7613 6.06091,-5.05077 0.47869,-0.23934 3.90619,-3.16487 4.04061,-3.03045 1.2897,1.28969 -1.49963,6.29005 -2.0203,7.07106 -2.66856,4.00284 -3.64414,9.10402 -6.06092,13.13199 -1.66173,2.76955 -4.11151,5.48201 -6.06091,8.08122 -3.46587,4.62115 -5.02451,10.56721 -8.08122,15.15229 -4.19177,6.28764 -5.87795,14.78634 -9.09138,21.2132 -0.15058,0.30117 0.33672,1.01015 0,1.01015 -0.67343,0 0,-1.34687 0,-2.0203"
       id="path3976"
       inkscape:connector-curvature="0" />
    <path
       style="fill:none;stroke:#000000;stroke-width:3.4000001;stroke-linecap:round;stroke-linejoin:round;stroke-miterlimit:4;stroke-opacity:1;stroke-dasharray:none"
       d="m 263.64982,651.33162 c 0.0527,-0.60873 -8.08122,-2.38013 -8.08122,-3.03046 0,-2.86144 30.30457,-9.48719 30.30457,1.01015 0,9.42861 -20.10408,20.00513 -24.24366,28.28428 -1.77858,3.55715 6.76473,7.61589 9.09138,8.08122 3.4279,0.68558 6.75994,2.36214 10.10152,3.03045 1.65089,0.33018 3.41744,-0.40833 5.05076,0 2.75228,0.68807 5.15163,2.02031 8.08122,2.02031"
       id="path3978"
       inkscape:connector-curvature="0" />
    <path
       style="fill:none;stroke:#000000;stroke-width:3.4000001;stroke-linecap:round;stroke-linejoin:round;stroke-miterlimit:4;stroke-opacity:1;stroke-dasharray:none"
       d="m 368.70568,655.37223 c 1.34687,-1.34687 2.45576,-2.98404 4.04061,-4.04061 3.80849,-2.53899 23.83565,1.54758 28.28427,3.03046 0.62545,0.20848 6.06092,1.49541 6.06092,3.03045 0,4.04974 -13.87132,10.37234 -11.11168,13.13199 3.09661,3.0966 8.26813,2.26951 11.11168,6.06091 2.18089,2.90785 2.26545,4.94298 1.01015,8.08122 -5.77345,14.43364 -22.34008,10.10153 -34.34518,10.10153"
       id="path3980"
       inkscape:connector-curvature="0" />
    <path
       style="fill:none;stroke:#000000;stroke-width:3.4000001;stroke-linecap:round;stroke-linejoin:round;stroke-miterlimit:4;stroke-opacity:1;stroke-dasharray:none"
       d="m 508.10673,654.36208 c -9.45405,3.72609 -12.99736,21.84621 -1.01015,24.24366 7.09614,1.41923 13.38986,-2.02031 20.20305,-2.02031"
       id="path3982"
       inkscape:connector-curvature="0" />
    <path
       style="fill:none;stroke:#000000;stroke-width:3.4000001;stroke-linecap:round;stroke-linejoin:round;stroke-miterlimit:4;stroke-opacity:1;stroke-dasharray:none"
       d="m 536.39101,660.42299 c -7.25676,11.41942 -7.93158,25.66541 -11.11168,38.3858 -0.70901,2.83605 -0.0717,7.07107 -3.03046,7.07107"
       id="path3984"
       inkscape:connector-curvature="0" />
    <path
       style="fill:none;stroke:#000000;stroke-width:3.4000001;stroke-linecap:round;stroke-linejoin:round;stroke-miterlimit:4;stroke-opacity:1;stroke-dasharray:none"
       d="m 627.30473,669.51436 c -0.61444,0.23505 -10.0466,6.11584 -9.09137,7.07107 0.89126,0.89126 5.94292,-0.28203 7.07107,0 5.06178,1.26545 6.999,5.91678 9.09137,10.10153 2.0861,4.17219 0.18793,2.13771 1.01015,7.07107 3.66964,22.01778 -35.2815,18.33042 -39.39594,10.10152"
       id="path3986"
       inkscape:connector-curvature="0" />
    <path
       style="fill:none;stroke:#000000;stroke-width:3.4000001;stroke-linecap:round;stroke-linejoin:round;stroke-miterlimit:4;stroke-opacity:1;stroke-dasharray:none"
       d="m 621.24382,669.51436 c 13.5642,-1.01656 26.81261,-0.24527 40.4061,2.02031 1.9544,0.32573 12.12183,0.7945 12.12183,2.0203"
       id="path3988"
       inkscape:connector-curvature="0" />
    <path
       style="fill:none;stroke:#000000;stroke-width:3.4000001;stroke-linecap:round;stroke-linejoin:round;stroke-miterlimit:4;stroke-opacity:1;stroke-dasharray:none"
       d="m 750.54335,673.55497 c -4.74341,3.29822 -5.89563,8.65793 -9.09138,13.13199 -4.07332,5.70265 -16.03805,24.49243 -12.12183,32.32488 3.92806,7.85612 17.88051,6.51427 22.22336,0 1.1825,-1.77375 -0.35997,-2.05517 -1.01015,-3.03046 -5.91689,-8.87532 -20.79089,0 -12.12184,0"
       id="path3990"
       inkscape:connector-curvature="0" />
    <path
       style="fill:none;stroke:#000000;stroke-width:3.4000001;stroke-linecap:round;stroke-linejoin:round;stroke-miterlimit:4;stroke-opacity:1;stroke-dasharray:none"
       d="m 830.3454,675.57528 c 5.85113,-3.04091 12.55039,-3.47329 19.19289,-3.03046 6.54229,0.43615 18.18275,1.93628 18.18275,4.04061 0,0.33672 -0.77206,-0.23809 -1.01015,0 -0.0361,0.0361 -2.57593,6.31352 -3.03046,7.07107 -5.19279,8.65466 -10.27662,17.01367 -16.16244,25.25381 -3.12594,4.37632 -7.44468,7.69375 -10.10153,12.12183 -0.29237,0.48729 -3.83408,6.26744 -4.04061,6.06092 -0.85846,-0.85846 2.172,-1.16184 3.03046,-2.02031 0.46423,-0.46422 1.22432,-2.23447 2.02031,-3.03045"
       id="path3992"
       inkscape:connector-curvature="0" />
    <path
       style="fill:none;stroke:#000000;stroke-width:3.4000001;stroke-linecap:round;stroke-linejoin:round;stroke-miterlimit:4;stroke-opacity:1;stroke-dasharray:none"
       d="m 837.41646,701.83925 c 7.05733,-1.17622 4.01275,-1.01016 9.09138,-1.01016 7.17026,0 13.99572,-1.01015 21.2132,-1.01015 1.65943,0 6.51016,-0.78553 8.08122,0 0.42592,0.21296 1.48634,1.01015 1.01015,1.01015 -0.75292,0 -1.34687,-0.67343 -2.0203,-1.01015"
       id="path3994"
       inkscape:connector-curvature="0" />
    <path
       style="fill:none;stroke:#000000;stroke-width:3.4000001;stroke-linecap:round;stroke-linejoin:round;stroke-miterlimit:4;stroke-opacity:1;stroke-dasharray:none"
       d="m 177.78685,730.12352 c -3.13535,0.36826 -6.03339,1.51064 -9.09137,2.0203 -3.14327,0.52388 -6.03955,0.2472 -9.09137,1.01016 -3.66894,0.91723 -3.66572,2.28066 -5.05077,5.05076 -5.31718,10.63437 31.03089,14.26733 27.27412,29.29442 -2.26388,9.05553 -36.44866,20.31395 -24.24366,4.04061 3.15919,-4.21225 7.34691,-7.53079 10.10153,-12.12183 2.55575,-4.25959 2.52223,-9.58701 4.04061,-14.14213 0.38152,-1.14458 -0.53522,-2.97019 0,-4.04061 0.4218,-0.84362 1.61405,-4.64451 2.0203,-5.05077 2.09004,-2.09004 -0.0817,3.19386 2.02031,-1.01015 0.84179,-1.68359 -1.34687,-1.01015 -2.02031,-1.01015"
       id="path3996"
       inkscape:connector-curvature="0" />
    <path
       style="fill:none;stroke:#000000;stroke-width:3.4000001;stroke-linecap:round;stroke-linejoin:round;stroke-miterlimit:4;stroke-opacity:1;stroke-dasharray:none"
       d="m 295.9747,738.20474 c -11.50914,-2.39427 -39.98263,-10.16659 -49.49748,-3.03046 -2.01434,1.51076 -5.4919,5.17863 -4.04061,8.08122 2.28773,4.57544 38.71233,-4.82289 45.45687,-7.07107 1.59165,-0.53055 8.08122,-3.82912 8.08122,2.02031 0,1.96338 -3.66244,1.64213 -5.05076,3.03046 -0.27062,0.27061 -15.15229,37.7512 -15.15229,38.38579"
       id="path3998"
       inkscape:connector-curvature="0" />
    <path
       style="fill:none;stroke:#000000;stroke-width:3.4000001;stroke-linecap:round;stroke-linejoin:round;stroke-miterlimit:4;stroke-opacity:1;stroke-dasharray:none"
       d="m 366.68538,742.24535 c 6.15115,-3.62333 9.89536,-7.47307 15.15229,-10.10153 1.08588,-0.54294 3.03045,-3.23435 3.03045,-2.0203 0,0.0683 -2.88066,2.58108 -3.03045,3.03046 -2.10429,6.31286 -5.62773,12.65023 -8.08122,19.19289 -1.06846,2.84922 -11.66747,33.89083 -12.12183,34.34519 -1.07351,1.0735 -5.05077,0.98463 -5.05077,-2.02031"
       id="path4004"
       inkscape:connector-curvature="0" />
    <path
       style="fill:none;stroke:#000000;stroke-width:3.4000001;stroke-linecap:round;stroke-linejoin:round;stroke-miterlimit:4;stroke-opacity:1;stroke-dasharray:none"
       d="m 422.24377,739.21489 c -5.75768,1.06122 -12.00758,5.8705 -15.15229,11.11168 -2.22273,3.70456 -4.10912,8.21824 -6.06092,12.12183 -2.38095,4.7619 -3.58815,10.03316 -5.05076,15.15229 -0.74022,2.59077 0.52642,1.62196 1.01015,4.04061 0.78448,3.92239 2.46792,8.56714 7.07107,10.10152 1.27776,0.42592 2.76286,-0.42592 4.04061,0 1.66511,0.55504 2.80338,1.572 5.05076,1.01016 4.73355,-1.18339 8.09463,-4.65475 12.12184,-7.07107 8.69339,-5.21604 8.22855,-5.1981 15.15228,-12.12183 2.24479,-2.24479 2.13255,0.56119 3.03046,-3.03046 0.5571,-2.2284 0.55739,-4.80724 1.01015,-7.07107 0.4907,-2.45346 1.47338,-2.73465 1.01016,-5.05076 0.35084,-2.0553 -1.6647,-3.2727 -2.02031,-5.05076 -0.56968,-2.84843 -1.13492,-8.16441 -4.04061,-10.10153 -3.04367,-2.02911 -7.73424,0.25639 -11.11168,-1.01015 -2.11495,-0.79311 -4.04061,-2.02031 -6.06091,-3.03046 z"
       id="path4006"
       inkscape:connector-curvature="0" />
    <path
       style="fill:none;stroke:#000000;stroke-width:3.4000001;stroke-linecap:round;stroke-linejoin:round;stroke-miterlimit:4;stroke-opacity:1;stroke-dasharray:none"
       d="m 483.86307,765.47886 c 2.03777,-3.84213 6.27853,-5.26838 9.09138,-8.08122 2.93398,-2.93399 6.14054,-5.1304 9.09137,-8.08122 1.2789,-1.27891 7.15503,-7.99726 8.08122,-7.07107 0.53681,0.53681 -4.65317,9.30634 -5.05076,10.10152 -2.84068,5.68136 -17.52314,39.39595 -23.23351,39.39595"
       id="path4008"
       inkscape:connector-curvature="0" />
    <path
       style="fill:none;stroke:#000000;stroke-width:3.4000001;stroke-linecap:round;stroke-linejoin:round;stroke-miterlimit:4;stroke-opacity:1;stroke-dasharray:none"
       d="m 526.28948,766.48901 c 1.36964,-2.46515 3.14623,-4.15638 5.05076,-6.06092 2.36899,-2.36898 -0.23809,0.71429 1.01016,-3.03045 0.81983,-2.45952 6.15948,-6.11021 8.08122,-7.07107 0.91712,-0.45856 2.95849,-5.12273 4.04061,-4.04061 0.52538,0.52539 -4.70474,10.07358 -5.05077,11.11168 -1.45236,4.35708 -12.39591,37.64972 -13.13198,38.38579 -0.65418,0.65418 -2.13254,-1.01015 -3.03046,-1.01015"
       id="path4010"
       inkscape:connector-curvature="0" />
    <path
       style="fill:none;stroke:#000000;stroke-width:3.4000001;stroke-linecap:round;stroke-linejoin:round;stroke-miterlimit:4;stroke-opacity:1;stroke-dasharray:none"
       d="m 595.99001,774.57023 c 4.94344,-4.69181 10.18766,-10.13024 16.16244,-12.12183 3.44191,-1.14731 12.08907,-11.11168 12.12183,-11.11168 1.5699,0 -2.69974,12.13983 -3.03046,13.13198 -2.75954,8.27863 -3.36966,17.18005 -6.06092,25.25382 -0.73179,2.19539 -6.80787,10.84848 -8.08122,12.12183 -0.19858,0.19858 -0.60342,5.45749 -2.0203,4.04061 -0.3936,-0.3936 0,-3.42417 0,-4.04061"
       id="path4012"
       inkscape:connector-curvature="0" />
    <path
       style="fill:none;stroke:#000000;stroke-width:3.4000001;stroke-linecap:round;stroke-linejoin:round;stroke-miterlimit:4;stroke-opacity:1;stroke-dasharray:none"
       d="m 643.46718,765.47886 c 8.21738,-8.21739 0.82749,-2.73226 6.06091,-4.04061 38.42196,-9.60549 -12.59243,34.41413 -10.10152,39.39595 1.70022,3.40044 27.97952,7.07106 32.32488,7.07106"
       id="path4014"
       inkscape:connector-curvature="0" />
    <path
       style="fill:none;stroke:#000000;stroke-width:3.4000001;stroke-linecap:round;stroke-linejoin:round;stroke-miterlimit:4;stroke-opacity:1;stroke-dasharray:none"
       d="m 711.1474,779.62099 c 3.36967,-3.75767 5.78462,-5.41769 9.09137,-7.07107 1.72531,-0.86265 6.4066,-6.72538 7.07107,-6.06091 1.78522,1.78522 -8.55806,24.07422 -9.09138,27.27412 -0.17432,1.04596 -3.21179,11.94049 -4.04061,11.11168 -0.65417,-0.65418 1.01016,-2.13255 1.01016,-3.03046"
       id="path4016"
       inkscape:connector-curvature="0" />
    <path
       style="fill:none;stroke:#000000;stroke-width:3.4000001;stroke-linecap:round;stroke-linejoin:round;stroke-miterlimit:4;stroke-opacity:1;stroke-dasharray:none"
       d="m 744.48243,766.48901 c 0.67343,-1.34687 0.67343,-4.71405 2.0203,-4.04061 1.34687,0.67343 -3.52615,4.04061 -2.0203,4.04061 2.4281,0 3.88915,-2.95473 6.06092,-4.04061 2.63466,-1.31734 14.8388,-0.94044 16.16244,3.03046 2.04428,6.13285 -10.10153,9.24441 -10.10153,14.14213 0,4.39059 6.9118,7.44415 8.08122,12.12183 2.71881,10.87523 -17.54153,9.94122 -22.22336,11.11168 -2.28489,0.57123 -5.9442,2.02031 -8.08122,2.02031"
       id="path4018"
       inkscape:connector-curvature="0" />
    <path
       style="fill:none;stroke:#000000;stroke-width:3.4000001;stroke-linecap:round;stroke-linejoin:round;stroke-miterlimit:4;stroke-opacity:1;stroke-dasharray:none"
       d="m 820.24387,777.60069 c 4.11499,-0.71026 7.37148,-3.18067 11.11168,-5.05077 4.16198,-2.08099 9.09137,-6.06092 9.09137,-6.06091 0,1.60379 -14.19325,33.43727 -16.16244,37.37564 -0.96622,1.93245 -1.95247,7.07107 -4.04061,7.07107"
       id="path4020"
       inkscape:connector-curvature="0" />
    <path
       style="fill:none;stroke:#000000;stroke-width:3.4000001;stroke-linecap:round;stroke-linejoin:round;stroke-miterlimit:4;stroke-opacity:1;stroke-dasharray:none"
       d="m 868.73119,768.50931 c -9.94767,10.52547 -9.55001,19.6825 7.07107,14.14214 2.3778,-0.7926 5.59932,-3.03046 7.07107,-3.03046"
       id="path4022"
       inkscape:connector-curvature="0" />
    <path
       style="fill:none;stroke:#000000;stroke-width:3.4000001;stroke-linecap:round;stroke-linejoin:round;stroke-miterlimit:4;stroke-opacity:1;stroke-dasharray:none"
       d="m 890.95455,773.56008 c -10.93109,9.77002 -19.44395,22.55809 -28.28427,34.34518 -1.58411,2.11214 -2.72272,7.07107 -6.06092,7.07107"
       id="path4024"
       inkscape:connector-curvature="0" />
    <path
       style="fill:none;stroke:#000000;stroke-width:3.4000001;stroke-linecap:round;stroke-linejoin:round;stroke-miterlimit:4;stroke-opacity:1;stroke-dasharray:none"
       d="m 130.30968,840.23014 c 0.49912,-2.39818 12.27363,-19.19289 13.13199,-19.19289 0.33433,0 -1.01016,18.95069 -1.01016,20.20305 0,2.45444 -0.2499,30.30457 1.01016,30.30457 1.02313,0 2.0203,-2.25488 2.0203,-3.03045"
       id="path4026"
       inkscape:connector-curvature="0" />
    <path
       style="fill:none;stroke:#000000;stroke-width:3.4000001;stroke-linecap:round;stroke-linejoin:round;stroke-miterlimit:4;stroke-opacity:1;stroke-dasharray:none"
       d="m 173.74624,828.10831 c 0.3977,2.92669 -7.07107,6.62611 -7.07107,10.10153 0,1.05937 20.95485,6.83597 16.16244,21.2132 -2.76684,8.30053 -12.90042,5.28233 -18.18274,0"
       id="path4028"
       inkscape:connector-curvature="0" />
    <path
       style="fill:none;stroke:#000000;stroke-width:3.4000001;stroke-linecap:round;stroke-linejoin:round;stroke-miterlimit:4;stroke-opacity:1;stroke-dasharray:none"
       d="m 161.62441,832.14892 c 5.14852,-2.53237 26.01857,-7.31646 30.30458,-3.03045"
       id="path4030"
       inkscape:connector-curvature="0" />
    <path
       style="fill:none;stroke:#000000;stroke-width:3.4000001;stroke-linecap:round;stroke-linejoin:round;stroke-miterlimit:4;stroke-opacity:1;stroke-dasharray:none"
       d="m 235.36555,828.10831 c 1.72999,-6.11559 8.51001,-7.49986 11.11167,-10.10152 0.0583,-0.0583 4.04062,-3.38543 4.04062,-2.02031 0,0.73678 -1.79113,4.13405 -2.02031,5.05077 -2.08962,8.35847 -4.45073,17.20288 -6.06092,25.25381 -0.52826,2.64134 -5.10911,10.15988 -3.03045,8.08122"
       id="path4036"
       inkscape:connector-curvature="0" />
    <path
       style="fill:none;stroke:#000000;stroke-width:3.4000001;stroke-linecap:round;stroke-linejoin:round;stroke-miterlimit:4;stroke-opacity:1;stroke-dasharray:none"
       d="m 291.93409,815.98648 c -9.61729,5.3263 -18.18275,25.47449 -18.18275,36.3655 0,2.16578 1.37879,7.07106 4.04061,7.07106 3.99089,0 13.13199,-6.26185 13.13199,-10.10152 0,-4.4955 -11.68017,-3.03046 -13.13199,-3.03046"
       id="path4038"
       inkscape:connector-curvature="0" />
    <path
       style="fill:none;stroke:#000000;stroke-width:3.4000001;stroke-linecap:round;stroke-linejoin:round;stroke-miterlimit:4;stroke-opacity:1;stroke-dasharray:none"
       d="m 360.62446,836.18953 c 1.45167,-5.81924 13.53816,-10.91386 15.15229,-14.14213 0.18725,-0.3745 1.91956,-3.03046 2.02031,-3.03046 0.76582,0 -0.96776,3.78624 -2.02031,10.10153 -1.57489,9.44935 -4.78751,19.15006 -7.07107,28.28427 -0.87324,3.49298 -3.14546,7.07107 -3.03045,7.07107 0.66438,0 1.56893,-2.57909 2.0203,-3.03046"
       id="path4042"
       inkscape:connector-curvature="0" />
    <path
       style="fill:none;stroke:#000000;stroke-width:3.4000001;stroke-linecap:round;stroke-linejoin:round;stroke-miterlimit:4;stroke-opacity:1;stroke-dasharray:none"
       d="m 390.92904,825.07786 c 5.41002,-4.08288 8.1826,-2.02031 14.14213,-2.02031 3.7039,0 7.40779,0 11.11168,0 0.67344,0 2.02031,-0.67343 2.02031,0 0,5.26059 -8.27393,23.55468 -11.11168,28.28427 -0.369,0.615 -7.07107,16.99794 -7.07107,13.13199 0,-0.47619 1.01015,-0.53397 1.01015,-1.01016"
       id="path4044"
       inkscape:connector-curvature="0" />
    <path
       style="fill:none;stroke:#000000;stroke-width:3.4000001;stroke-linecap:round;stroke-linejoin:round;stroke-miterlimit:4;stroke-opacity:1;stroke-dasharray:none"
       d="m 399.01026,845.28091 c 6.52404,-2.37946 13.54519,-0.059 20.20305,-1.01015 2.6689,-0.38128 5.2259,-1.72399 8.08122,-1.01016 0.73044,0.18261 1.26738,1.01016 2.02031,1.01016 0.0586,0 1.37535,-1.01016 2.0203,-1.01016"
       id="path4046"
       inkscape:connector-curvature="0" />
    <path
       style="fill:none;stroke:#000000;stroke-width:3.4000001;stroke-linecap:round;stroke-linejoin:round;stroke-miterlimit:4;stroke-opacity:1;stroke-dasharray:none"
       d="m 477.80216,833.15908 c 6.07657,0.076 11.27735,-3.81435 16.16244,-7.07107 0.2558,-0.17054 4.04061,-2.48242 4.04061,-2.02031 0,0.0373 -2.0166,4.02951 -2.02031,4.04061 -1.98439,5.95317 -3.19703,12.45498 -6.06091,18.18275 -2.02257,4.04514 -4.63378,8.85059 -6.06092,13.13198 -0.63699,1.91098 -3.03045,12.68997 -3.03045,11.11168"
       id="path4048"
       inkscape:connector-curvature="0" />
    <path
       style="fill:none;stroke:#000000;stroke-width:3.4000001;stroke-linecap:round;stroke-linejoin:round;stroke-miterlimit:4;stroke-opacity:1;stroke-dasharray:none"
       d="m 537.40116,834.16923 c -20.32874,-0.43151 -3.03046,10.98494 -3.03046,20.20305 0,9.84839 -17.66467,14.16814 -20.20305,9.09137 -0.81178,-1.62355 6.75435,-5.7442 8.08122,-7.07106 2.77281,-2.77281 23.59547,-12.77002 21.2132,-15.15229 -1.68651,-1.68651 -3.29133,-3.6091 -6.06091,-7.07107 z"
       id="path4050"
       inkscape:connector-curvature="0" />
    <path
       style="fill:none;stroke:#000000;stroke-width:3.4000001;stroke-linecap:round;stroke-linejoin:round;stroke-miterlimit:4;stroke-opacity:1;stroke-dasharray:none"
       d="m 581.84787,851.34182 c 1.34687,-1.01015 2.53476,-2.27753 4.04061,-3.03045 5.15308,-2.57654 11.10164,-4.54067 16.16244,-7.07107 1.03464,-0.51732 4.77821,-3.30301 5.05076,-3.03046 0.33672,0.33672 -0.67343,0.67343 -1.01015,1.01015 -0.47619,0.47619 0.21296,1.38143 0,2.02031 -3.40411,10.21232 -7.75199,20.22551 -11.11168,30.30457 -0.39122,1.17368 -7.57975,11.62037 -5.05076,9.09138"
       id="path4052"
       inkscape:connector-curvature="0" />
    <path
       style="fill:none;stroke:#000000;stroke-width:3.4000001;stroke-linecap:round;stroke-linejoin:round;stroke-miterlimit:4;stroke-opacity:1;stroke-dasharray:none"
       d="m 671.75145,847.30121 c -3.56778,-1.66826 -6.34024,-4.04061 -10.10153,-4.04061 -2.05503,0 -5.01338,-0.41154 -7.07107,0 -1.29088,0.25818 -18.83609,6.41772 -16.16244,9.09138 5.77247,5.77247 21.09211,-3.98007 25.25382,-6.06092 1.34221,-0.67111 3.47324,1.13474 3.03045,2.02031 -1.06643,2.13287 -2.86751,3.71471 -4.04061,6.06091 -3.73463,7.46927 -10.02897,12.78876 -15.15228,19.1929 -1.93501,2.41875 -4.66645,4.28214 -6.06092,7.07107 -0.21296,0.42591 -1.01015,1.48634 -1.01015,1.01015 0,-0.75292 1.48791,-0.47776 2.0203,-1.01015"
       id="path4054"
       inkscape:connector-curvature="0" />
    <path
       style="fill:none;stroke:#000000;stroke-width:3.4000001;stroke-linecap:round;stroke-linejoin:round;stroke-miterlimit:4;stroke-opacity:1;stroke-dasharray:none"
       d="m 712.15755,855.38243 c -1.25495,-2.32576 19.18178,-11.07833 17.17259,-5.05076 -2.71529,8.14587 -26.50394,24.72361 -32.32488,36.36549 -3.3262,6.6524 14.87158,1.33287 16.16244,1.01015 2.7058,-0.67645 7.78513,1.30625 9.09137,0"
       id="path4056"
       inkscape:connector-curvature="0" />
    <path
       style="fill:none;stroke:#000000;stroke-width:3.4000001;stroke-linecap:round;stroke-linejoin:round;stroke-miterlimit:4;stroke-opacity:1;stroke-dasharray:none"
       d="m 751.5535,853.36213 c -4.99303,-4.97139 -9.34571,-1.00776 -13.13199,4.04061 -1.79679,2.39572 -3.49759,5.49261 -5.05076,8.08122 -13.90026,23.16709 16.74173,22.26803 28.28427,3.03046 1.13595,-1.89325 2.81116,-4.69851 2.02031,-7.07107 -0.50355,-1.51063 -11.43737,-7.53365 -12.12183,-8.08122 z"
       id="path4058"
       inkscape:connector-curvature="0" />
    <path
       style="fill:none;stroke:#000000;stroke-width:3.4000001;stroke-linecap:round;stroke-linejoin:round;stroke-miterlimit:4;stroke-opacity:1;stroke-dasharray:none"
       d="m 810.14235,860.4332 c 31.65575,-11.89035 -7.75004,18.40353 -5.05077,20.20305 6.8765,4.58432 10.51691,0.81189 17.1726,3.03045 2.34334,0.78112 4.60426,3.03046 7.07106,3.03046"
       id="path4060"
       inkscape:connector-curvature="0" />
    <path
       style="fill:none;stroke:#000000;stroke-width:3.4000001;stroke-linecap:round;stroke-linejoin:round;stroke-miterlimit:4;stroke-opacity:1;stroke-dasharray:none"
       d="m 864.69058,859.42304 c -2.603,3.45578 -15.15229,32.65239 -15.15229,33.33504"
       id="path4062"
       inkscape:connector-curvature="0" />
    <path
       style="fill:none;stroke:#000000;stroke-width:3.4000001;stroke-linecap:round;stroke-linejoin:round;stroke-miterlimit:4;stroke-opacity:1;stroke-dasharray:none"
       d="m 131.31983,937.20479 c 2.36236,-0.0855 3.86959,-2.48263 6.06092,-3.03046 4.22406,-1.05601 7.57123,-2.0203 12.12183,-2.0203 14.40645,0 -18.27354,31.9579 -5.05076,36.36549 7.01866,2.33955 16.40954,-1.01015 23.23351,-1.01015"
       id="path4064"
       inkscape:connector-curvature="0" />
    <path
       style="fill:none;stroke:#000000;stroke-width:3.4000001;stroke-linecap:round;stroke-linejoin:round;stroke-miterlimit:4;stroke-opacity:1;stroke-dasharray:none"
       d="m 170.71578,941.2454 c 1.34687,-1.34687 2.57734,-2.82121 4.04061,-4.04061 2.8787,-2.39892 6.55998,-3.03046 10.10153,-3.03046 10.83002,0 -3.29046,18.6729 -1.01015,23.23351 2.95013,5.90028 22.15555,2.05421 26.26396,0"
       id="path4066"
       inkscape:connector-curvature="0" />
    <path
       style="fill:none;stroke:#000000;stroke-width:3.4000001;stroke-linecap:round;stroke-linejoin:round;stroke-miterlimit:4;stroke-opacity:1;stroke-dasharray:none"
       d="m 232.33509,932.15403 c -4.52888,1.35948 -7.08984,-3.24 -4.04061,-2.02031 1.39814,0.55926 2.54155,2.16307 4.04061,2.02031 4.587,-0.43686 17.84117,-9.44754 20.20305,0 1.58125,6.32501 -17.96911,30.66591 -1.01015,27.27412 2.32183,-0.46437 5.86326,-2.02031 8.08122,-2.02031 2.05052,0 4.14413,2.02031 6.06091,2.02031"
       id="path4068"
       inkscape:connector-curvature="0" />
    <path
       style="fill:none;stroke:#000000;stroke-width:3.4000001;stroke-linecap:round;stroke-linejoin:round;stroke-miterlimit:4;stroke-opacity:1;stroke-dasharray:none"
       d="m 278.80211,925.08296 c 0.96022,-4.17573 24.24366,-8.60564 24.24366,-2.02031 0,3.77693 -6.06092,7.08407 -6.06092,10.10153 0,1.29246 11.91494,4.32054 18.18275,8.08122 1.28927,0.77356 -1.68463,7.52176 -2.02031,8.08122 -1.9824,3.304 -16.359,13.87094 -20.20305,15.15229 -2.58801,0.86267 -5.1245,1.01015 -8.08122,1.01015"
       id="path4070"
       inkscape:connector-curvature="0" />
    <path
       style="fill:none;stroke:#000000;stroke-width:3.4000001;stroke-linecap:round;stroke-linejoin:round;stroke-miterlimit:4;stroke-opacity:1;stroke-dasharray:none"
       d="m 354.56355,937.20479 c -6.82636,-0.78051 -5.37784,1.61335 0,0 0.92431,-0.2773 18.39159,-8.91662 16.16244,0 -2.89519,11.58073 -14.84879,19.69571 -17.1726,31.31473 -1.92675,9.63377 19.66716,9.62727 23.23351,6.06091"
       id="path4072"
       inkscape:connector-curvature="0" />
    <path
       style="fill:none;stroke:#000000;stroke-width:3.4000001;stroke-linecap:round;stroke-linejoin:round;stroke-miterlimit:4;stroke-opacity:1;stroke-dasharray:none"
       d="m 400.02041,929.12357 c -9.36172,18.28026 6.29803,18.12347 18.18275,15.15229 2.29778,-0.57445 4.89971,-2.95493 7.07107,-4.04061"
       id="path4074"
       inkscape:connector-curvature="0" />
    <path
       style="fill:none;stroke:#000000;stroke-width:3.4000001;stroke-linecap:round;stroke-linejoin:round;stroke-miterlimit:4;stroke-opacity:1;stroke-dasharray:none"
       d="m 431.33514,926.09311 c -6.82005,11.7064 -13.13198,37.00453 -13.13198,50.50763"
       id="path4076"
       inkscape:connector-curvature="0" />
    <path
       style="fill:none;stroke:#000000;stroke-width:3.4000001;stroke-linecap:round;stroke-linejoin:round;stroke-miterlimit:4;stroke-opacity:1;stroke-dasharray:none"
       d="m 466.69048,929.12357 c 3.31683,-2.73997 13.93299,-8.29036 18.18275,-4.04061 2.9109,2.91091 -5.13637,8.80716 -6.06092,10.10152 -2.8342,3.96789 -13.23534,17.06924 -8.08122,22.22336 2.6914,2.6914 8.71819,2.33879 12.12183,4.04061 1.33813,0.66907 5.56114,2.02031 7.07107,2.02031 0.47619,0 0.53396,-1.01016 1.01015,-1.01016"
       id="path4078"
       inkscape:connector-curvature="0" />
    <path
       style="fill:none;stroke:#000000;stroke-width:3.4000001;stroke-linecap:round;stroke-linejoin:round;stroke-miterlimit:4;stroke-opacity:1;stroke-dasharray:none"
       d="m 514.16765,927.10326 c 0.19307,0.0857 -8.61376,7.89151 -7.07107,9.09138 3.72655,2.89843 13.70019,6.31343 15.15229,12.12183 0.94034,3.76134 -1.02273,5.40425 -3.03046,8.08122 -0.90351,1.20467 -0.95551,2.97581 -2.0203,4.04061 -6.98769,6.98768 -13.81029,1.342 -19.1929,-4.04061"
       id="path4080"
       inkscape:connector-curvature="0" />
    <path
       style="fill:none;stroke:#000000;stroke-width:3.4000001;stroke-linecap:round;stroke-linejoin:round;stroke-miterlimit:4;stroke-opacity:1;stroke-dasharray:none"
       d="m 509.11689,928.11342 c 12.71843,-2.31102 24.5907,8.08122 36.36549,8.08122"
       id="path4082"
       inkscape:connector-curvature="0" />
    <path
       style="fill:none;stroke:#000000;stroke-width:3.4000001;stroke-linecap:round;stroke-linejoin:round;stroke-miterlimit:4;stroke-opacity:1;stroke-dasharray:none"
       d="m 564.67528,942.25555 c 5.78906,-1.15781 3.51509,-0.24232 7.07106,-2.0203 2.52811,-1.26406 19.1929,-7.00013 19.1929,-4.04061 0,1.20977 -8.14917,10.80275 -9.09137,12.12183 -1.81429,2.54001 -14.32313,22.49974 -9.09137,24.24366 2.1913,0.73043 15.40795,-1.55784 18.18274,-2.02031 4.40608,-0.73434 12.95085,1.19129 16.16244,-2.0203"
       id="path4084"
       inkscape:connector-curvature="0" />
    <path
       style="fill:none;stroke:#000000;stroke-width:3.4000001;stroke-linecap:round;stroke-linejoin:round;stroke-miterlimit:4;stroke-opacity:1;stroke-dasharray:none"
       d="m 644.47733,935.18448 c -8.79534,4.20262 -25.42595,23.06138 -16.16244,32.32489 4.57357,4.57357 22.28518,-3.85513 20.20305,-10.10153 -1.00449,-3.01347 -10.10153,-3.49404 -10.10153,0"
       id="path4086"
       inkscape:connector-curvature="0" />
    <path
       style="fill:none;stroke:#000000;stroke-width:3.4000001;stroke-linecap:round;stroke-linejoin:round;stroke-miterlimit:4;stroke-opacity:1;stroke-dasharray:none"
       d="m 697.00526,938.21494 c 0.29109,-3.51697 16.23979,-6.21561 13.13198,0 -2.45917,4.91836 -22.759,19.6674 -16.16244,26.26397 3.36289,3.36288 11.50878,1.01015 16.16244,1.01015"
       id="path4088"
       inkscape:connector-curvature="0" />
    <path
       style="fill:none;stroke:#000000;stroke-width:3.4000001;stroke-linecap:round;stroke-linejoin:round;stroke-miterlimit:4;stroke-opacity:1;stroke-dasharray:none"
       d="m 725.28953,940.23525 c 1.99602,-2.21998 18.40347,-7.8605 21.2132,-5.05077 0.073,0.073 -3.28229,5.04797 -4.04061,8.08122 -1.9094,7.63761 -3.86481,15.54717 -6.06091,23.23351 -0.33321,1.16622 -2.5211,10.10153 -4.04061,10.10153 -0.53224,0 -1.15839,-3.17869 -2.02031,-4.04061"
       id="path4090"
       inkscape:connector-curvature="0" />
    <path
       style="fill:none;stroke:#000000;stroke-width:3.4000001;stroke-linecap:round;stroke-linejoin:round;stroke-miterlimit:4;stroke-opacity:1;stroke-dasharray:none"
       d="m 728.31999,955.38753 c 6.88068,-5.69179 31.85346,-2.55903 36.36549,-7.07106"
       id="path4092"
       inkscape:connector-curvature="0" />
    <path
       style="fill:none;stroke:#000000;stroke-width:3.4000001;stroke-linecap:round;stroke-linejoin:round;stroke-miterlimit:4;stroke-opacity:1;stroke-dasharray:none"
       d="m 794.99006,947.30631 c 3.83381,-1.62746 6.1227,-3.03045 10.10152,-3.03045 2.42614,0 5.99146,-0.0347 8.08122,1.01015 3.3338,1.6669 -13.92021,21.87896 -12.12183,27.27412 0.80432,2.41296 26.39103,5.05076 30.30458,5.05076"
       id="path4094"
       inkscape:connector-curvature="0" />
    <path
       style="fill:none;stroke:#000000;stroke-width:3.4000001;stroke-linecap:round;stroke-linejoin:round;stroke-miterlimit:4;stroke-opacity:1;stroke-dasharray:none"
       d="m 882.87333,946.29616 c -4.12981,-3.18221 -5.51147,-1.1933 -9.09137,0 -1.20671,0.40224 -2.8339,-0.40223 -4.04061,0 -8.2661,2.75537 12.7362,18.97431 8.08122,28.28427 -3.10836,6.21672 -32.14133,18.64222 -28.28428,7.07107 0.46633,-1.39898 0.52142,-2.5744 1.01016,-4.04061 2.20642,-6.61926 31.84876,-22.73808 39.39595,-25.25381 1.63722,-0.54574 8.08122,-2.53676 8.08122,-5.05077 0,-2.48655 -5.48654,-0.28718 -6.06092,0"
       id="path4096"
       inkscape:connector-curvature="0" />
    <path
       style="fill:none;stroke:#000000;stroke-width:5;stroke-linecap:butt;stroke-linejoin:miter;stroke-miterlimit:4;stroke-opacity:1;stroke-dasharray:none"
       d="m 902.06622,349.12484 c -0.20457,-4.07375 3.35979,-7.15424 4.04061,-10.79053 3.4141,-18.23485 -0.73505,-38.0079 1.01016,-56.65029 2.28456,-24.40387 1.01015,-48.25218 1.01015,-72.83609 0,-12.43505 1.25224,-24.11126 2.0203,-36.41805 1.96377,-31.46563 -0.9051,-63.16771 2.02031,-94.417135 1.22192,-13.052661 -1.01101,-40.45993 1.01015,-51.255027 6.96885,-37.220921 6.0462,-80.987926 -3.03046,-117.347029 -0.76757,-3.07474 -3.68448,-6.705201 -5.05076,-9.441709 -2.6301,-5.26781 -3.62512,-10.87028 -8.08122,-14.83699 -17.38238,-15.47333 -42.2971,-5.0431 -61.6193,-2.69763 -24.16483,2.9333 -48.46654,7.12748 -72.73099,9.44172 -34.22733,3.26445 -68.8278,3.51355 -103.03556,0 -13.13094,-1.34871 -26.38375,1.34881 -39.39595,1.34881 -6.05432,0 -11.97473,-2.10239 -18.18274,-1.34881 -18.07844,2.19449 -36.42274,-0.5129 -54.54824,1.34881 -2.04214,0.20976 -4.01274,1.34882 -6.06092,1.34882 -13.28222,0 -27.15092,-2.69763 -40.4061,-2.69763 -2.04817,0 -4.01274,1.34881 -6.06091,1.34881 -1.71693,0 -3.34236,-1.1207 -5.05077,-1.34881 -15.56638,-2.07852 -39.97586,-0.75919 -54.54823,-1.34882 -11.42769,-0.46239 -23.10442,-0.52735 -34.34519,1.34882 -16.59354,2.76958 -41.1195,0 -58.58885,0 -12.01805,0 -25.4837,2.2684 -37.37564,0 -4.69647,-0.89586 -9.29331,-2.15813 -14.14214,-1.34882 -8.25572,1.37794 -28.77669,1.91364 -37.37564,0 -9.59692,-2.13573 -19.86517,-0.17953 -29.29442,-2.69763 -4.17026,-1.11368 -9.01114,1.3756 -13.13199,0 -11.51341,-3.84335 -72.2016,-3.01039 -80.71068,2.67052 -5.4254,3.62216 -11.44748,6.96827 -17.17259,10.790528 -1.20358,0.803544 -4.13854,1.479575 -5.05076,2.697633 -9.94359,13.277272 -8.3992,32.446672 -4.04061,49.906207 1.03503,4.14611 0.0152,9.502755 1.01015,13.488164 1.75473,7.029049 0,25.6073531 0,33.7204095 0,7.340933 1.01015,14.0248275 1.01015,21.5810685 0,16.760465 -1.43085,34.958124 1.01016,51.255014 0.64753,4.323132 -0.64754,9.165038 0,13.48817 2.222,14.834776 2.26697,30.991426 5.05076,45.859746 1.80302,9.63002 -0.35499,20.15907 2.0203,29.67397 1.4145,5.66618 -0.40614,13.21006 1.01016,18.88343 2.52951,10.13267 5.80795,57.32583 2.0203,67.44081 -1.85892,4.9643 -0.50455,64.72207 -1.01015,65.39717"
       id="path4614"
       inkscape:connector-curvature="0"
       transform="translate(0,308.2677)"
       sodipodi:nodetypes="cssssssssssssssssssssssssssssssssssssssssc" />
    <path
       style="fill:none;stroke:#d23131;stroke-width:10;stroke-linecap:butt;stroke-linejoin:miter;stroke-miterlimit:4;stroke-opacity:1;stroke-dasharray:none"
       d="m 670.74129,414.78475 c -2.69374,-1.34687 -9.42809,-1.34687 -8.08122,-4.04061 1.34687,-2.69374 10.21081,6.1702 8.08122,4.04061 -8.42409,-8.42409 -28.15481,-14.14213 -40.4061,-14.14213 -10.3768,0 -19.63023,3.7542 -28.28427,8.08122 -4.1988,2.0994 -9.8708,1.90494 -14.14214,4.04061 -2.79984,1.39992 -4.93746,4.93746 -6.06091,6.06091 -13.97102,13.97102 -16.16244,15.4138 -16.16244,38.3858 0,2.92577 -1.28033,9.56118 0,12.12183 4.97143,9.94287 9.13883,20.29797 14.14213,30.30458 4.087,8.174 32.21968,22.17075 40.4061,26.26396 1.61625,0.80812 4.44467,-0.80812 6.06092,0 18.23723,9.11862 54.66247,-2.13454 64.64976,-12.12183 0.95238,-0.95238 3.08823,0.95238 4.04061,0 1.17097,-1.17096 2.86964,-6.91025 4.04061,-8.08122 4.74216,-4.74216 9.8676,-9.8676 14.14214,-14.14213 0.53478,-0.53479 0,-5.22903 0,-6.06092 0,-26.13911 -22.44968,-54.7293 -42.42641,-70.71068 z"
       id="path4631"
       inkscape:connector-curvature="0"
       transform="translate(0,308.2677)" />
    <path
       style="fill:none;stroke:#000000;stroke-width:1px;stroke-linecap:butt;stroke-linejoin:miter;stroke-opacity:1"
       d="m 26.263966,298.40976 c 0.872658,-12.36588 15.081786,-19.12239 22.223356,-26.26396 7.460924,-7.46093 14.300404,-19.4303 20.203051,-28.28427 7.203303,-10.80496 16.60917,-21.09651 22.223356,-32.32489 0.673435,-1.34687 3.367175,-0.67343 4.04061,-2.0203 7.521451,-15.0429 17.847521,-29.96935 28.284271,-40.4061 1.61019,-1.61019 11.61611,-26.76969 14.14214,-24.24366 5.42429,5.42429 -3.50905,26.3699 -2.02031,32.32488 2.73144,10.92575 5.84564,23.16729 8.08122,34.34518 0.66036,3.30179 -0.81666,6.83489 0,10.10153 3.13859,12.55437 11.69134,27.56679 18.18275,38.3858 1.70489,2.84148 7.04553,4.97415 8.08122,8.08122 3.13369,9.40108 6.95604,18.84781 10.10152,28.28427 0.85184,2.5555 -0.85183,5.52571 0,8.08122 6.0073,18.02188 16.20142,28.32324 26.26397,38.3858 0.74886,0.74886 6.83307,1.39622 8.08122,2.0203 4.9694,2.4847 10.30976,11.00756 16.16244,8.08122 29.27381,-14.63691 48.79366,-58.89519 72.73098,-82.83251 5.2319,-5.23189 6.80048,-14.88169 12.12183,-20.20305 6.84549,-6.84548 39.86602,-33.49172 48.48733,-36.36549 7.13469,-2.37823 17.88315,-4.90096 24.24366,-8.08122 3.80152,-1.90076 14.5885,-2.46667 16.16244,-4.04061 2.07743,-2.07743 14.84832,-17.47656 20.20305,-12.12183 1.01015,1.01015 1.01015,3.03046 2.0203,4.04061 0.95238,0.95238 3.08823,-0.95238 4.04061,0 2.78446,2.78446 4.25057,10.52143 6.06092,14.14213 1.92553,3.85106 19.59167,14.61178 24.24366,16.16245 7.17445,2.39148 20.9196,10.10152 28.28427,10.10152 0.0506,0 18.18275,-4.19587 18.18275,-2.0203 0,3.55569 -4.17502,9.29298 -6.06092,12.12183 -2.06045,3.09068 -2.0203,19.30431 -2.0203,24.24366 0,4.67021 4.13788,6.25545 6.06091,10.10152 1.6798,3.35961 3.38174,9.44265 6.06092,12.12183 7.88471,7.88472 1.085,-0.46765 6.06091,2.02031 4.88755,2.44377 9.49378,9.02292 14.14214,12.12183 6.86785,4.57856 1.0835,0.27087 8.08122,2.0203 5.59586,1.39897 10.24376,6.60155 16.16244,8.08122 14.5201,3.63003 27.92717,9.22199 42.42641,12.12183 2.9532,0.59065 5.15945,3.31017 8.08122,4.04062 20.46826,5.11706 37.22256,15.77469 56.56854,22.22335 9.53032,3.17677 21.03096,5.46472 30.30458,10.10153 1.70367,0.85183 2.23359,3.43827 4.04061,4.04061 7.18305,2.39435 15.26646,4.60277 22.22335,8.08122 4.0618,2.0309 11.83071,-0.14556 16.16244,2.0203 13.946,6.973 28.89829,3.33747 44.44671,11.11168 3.40619,1.70309 35.96299,22.831 38.3858,25.25381"
       id="path4633"
       inkscape:connector-curvature="0"
       transform="translate(87.244735,172.58797)"
       sodipodi:nodetypes="cssssssssssssssssssssssssssssssssssssssssssssc" />
    <path
       style="fill:none;stroke:#000000;stroke-width:1px;stroke-linecap:butt;stroke-linejoin:miter;stroke-opacity:1"
       d="m 145.46197,215.57725 c 2.69374,-0.67343 7.40778,-4.71404 8.08122,-2.0203 0.67343,2.69374 -9.32298,4.50381 -8.08122,2.0203 0.51944,-1.03889 13.61393,-10.31937 16.16244,-14.14213 4.07397,-6.11096 9.26384,-9.26384 14.14213,-14.14214 6.59881,-6.5988 11.72338,-15.76398 18.18275,-22.22335 7.21667,-7.21667 10.40794,-21.67282 16.16244,-30.30458 2.07211,-3.10816 6.00911,-4.97306 8.08122,-8.08122 1.18128,-1.77192 0.51446,-4.55507 2.0203,-6.06091 6.0009,-6.0009 22.36779,-24.315881 30.30458,-28.284276 7.38012,-3.69006 20.54287,-8.421034 26.26397,-14.142135 6.0764,-6.076405 26.30453,-18.162465 38.38579,-12.121831 12.63946,6.31973 24.65505,13.319371 16.16244,30.304577 -1.4896,2.979201 0.1723,11.949535 -2.0203,14.142135 -1.00931,1.00931 -5.2187,19.02496 -2.02031,22.22336 3.4246,3.42459 4.5566,8.59721 8.08122,12.12183 4.53366,4.53365 10.85713,7.57212 14.14214,14.14213 1.35295,2.70591 4.8197,2.7994 6.06092,4.04061 0.95238,0.95238 -0.95239,3.08823 0,4.04061 5.05076,5.05077 7.07106,13.13199 12.12183,18.18275 1.90004,1.90004 4.04061,18.48664 4.04061,16.16244 0,-1.34687 0,-5.38748 0,-4.04061 0,3.46013 3.65275,10.10152 0,10.10152"
       id="path4635"
       inkscape:connector-curvature="0"
       transform="translate(87.244735,172.58797)" />
    <path
       style="fill:none;stroke:#000000;stroke-width:1px;stroke-linecap:butt;stroke-linejoin:miter;stroke-opacity:1"
       d="m 499.01536,272.1458 c 10.93531,-8.59945 17.18319,-19.71388 24.24366,-30.30458 7.72021,-11.58032 16.46322,-22.67452 24.24366,-34.34519 19.18237,-28.77355 23.87618,-68.32289 46.46702,-90.91372 5.91264,-5.91265 10.46569,-16.52662 16.16244,-22.22336 0.95238,-0.952381 -1.34687,-4.040611 0,-4.040611 0.79516,0 16.16244,33.701791 16.16244,36.365491 0,11.45309 28.65249,79.16012 36.36549,86.87312 9.21591,9.21591 19.06836,19.06836 28.28427,28.28427 1.57933,1.57933 3.51463,-1.75731 4.04061,-2.0203 3.55717,-1.77859 8.71715,-0.31797 12.12183,-2.02031 5.70264,-2.85132 12.54662,-5.26316 18.18275,-8.08122 17.76245,-8.88123 24.08642,18.26137 40.4061,10.10153 12.0713,-6.03565 29.40151,-13.23908 38.3858,-22.22336 2.47639,-2.47639 11.16221,-1.06068 14.14213,-4.04061 1.34687,-1.34687 2.69374,-5.38748 4.04061,-4.04061 2.84539,2.84538 -7.25087,-2.02031 -8.08122,-2.02031"
       id="path4637"
       inkscape:connector-curvature="0"
       transform="translate(87.244735,172.58797)" />
    <path
       style="fill:none;stroke:#000000;stroke-width:1px;stroke-linecap:butt;stroke-linejoin:miter;stroke-opacity:1"
       d="m 652.55854,199.41481 c 2.69374,-2.0203 5.70027,-3.67996 8.08122,-6.06091 2.61717,-2.61717 4.74232,-9.8959 8.08122,-12.12183 5.74366,-3.82911 9.55154,-7.53123 14.14214,-12.12183 3.96221,-3.96222 11.58299,-6.66694 16.16244,-10.10153 12.31204,-9.23403 25.94879,-19.88787 36.36549,-30.30457 10.18619,-10.18619 27.2785,-17.17697 36.36549,-26.26397 1.32448,-1.32447 7.06905,-1.00813 8.08122,-2.02031 7.98753,-7.987516 37.51039,-17.307334 40.40611,-20.203046"
       id="path4639"
       inkscape:connector-curvature="0"
       transform="translate(87.244735,172.58797)" />
    <path
       style="fill:none;stroke:#000000;stroke-width:1px;stroke-linecap:butt;stroke-linejoin:miter;stroke-opacity:1"
       d="m 220.21325,122.64322 c 9.38756,-7.66596 13.44181,-2.0203 22.22336,-2.0203 4.9825,0 8.28065,4.14032 12.12183,6.06091 5.90525,2.95262 14.29781,1.08799 20.20305,4.04061 1.70367,0.85184 2.33694,3.18878 4.04061,4.04061 5.46909,2.73454 11.89914,0.89881 18.18275,4.04061 2.41403,1.20702 10.66621,2.58499 12.12183,4.04061 0.47619,0.47619 -0.67344,2.02031 0,2.02031 5.60567,0 26.26396,-7.3955 26.26396,2.0203"
       id="path4641"
       inkscape:connector-curvature="0"
       transform="translate(87.244735,172.58797)" />
    <path
       style="fill:none;stroke:#000000;stroke-width:1px;stroke-linecap:butt;stroke-linejoin:miter;stroke-opacity:1"
       d="m 103.03556,199.41481 c -0.005,0.10916 44.44671,-0.0903 44.44671,0 0,1.50585 -2.53476,2.02031 -4.04061,2.02031"
       id="path4643"
       inkscape:connector-curvature="0"
       transform="translate(87.244735,172.58797)" />
    <path
       style="fill:none;stroke:#000000;stroke-width:1px;stroke-linecap:butt;stroke-linejoin:miter;stroke-opacity:1"
       d="m 559.62451,179.21176 c 9.04828,-11.06355 42.57605,2.95564 48.48732,0 8.9849,-4.49245 18.53232,-2.36988 24.24366,-8.08122 1.53538,-1.53538 11.83874,2.02031 10.10153,2.02031 -1.34687,0 -2.69374,0 -4.04061,0"
       id="path4645"
       inkscape:connector-curvature="0"
       transform="translate(87.244735,172.58797)" />
    <path
       style="fill:none;stroke:#000000;stroke-width:1px;stroke-linecap:butt;stroke-linejoin:miter;stroke-opacity:1"
       d="m 699.02556,161.02902 c 10.91674,-7.06224 24.22363,-16.16244 38.3858,-16.16244 4.11764,0 4.4088,4.2247 8.08122,6.06091 3.50137,1.75069 38.79193,1.61417 40.4061,0 1.94653,-1.94653 1.2013,-2.62095 4.04061,-4.04061 3.65655,-1.82827 8.30672,-4.26611 10.10153,-6.06091 1.34457,-1.34458 15.00648,-0.86435 20.20305,-6.06092 0.39806,-0.39806 11.91159,0 6.06091,0"
       id="path4647"
       inkscape:connector-curvature="0"
       transform="translate(87.244735,172.58797)" />
    <path
       style="opacity:0.93805309;fill:#b3b3b3;fill-opacity:1;stroke:none"
       d="m 219.92987,347.24832 c -2.82524,-2.22233 -6.12721,-4.04061 -7.3377,-4.04061 -7.75042,0 -30.50796,-30.34532 -30.48708,-40.65202 0.0168,-8.27347 -10.57678,-34.79267 -16.7888,-42.02804 -6.67071,-7.76962 -19.58643,-33.47806 -19.58643,-38.98632 0,-2.24566 1.51486,-3.59253 4.04061,-3.59253 2.22234,0 4.04061,-0.90914 4.04061,-2.02031 0,-1.11117 0.0579,-2.70216 0.12864,-3.53553 0.0708,-0.83338 7.60944,-9.2429 16.75265,-18.68782 21.64026,-22.35437 28.26525,-31.08853 35.44065,-46.72375 8.1591,-17.7787 16.43128,-26.00724 26.14518,-26.00724 4.15341,0 10.97893,1.74733 15.16784,3.88296 4.18891,2.13563 11.42695,4.50745 16.08454,5.27071 4.65759,0.76327 9.83206,2.51931 11.49881,3.90233 1.66675,1.38301 8.81259,3.70233 15.87965,5.15405 7.06707,1.45171 13.84184,3.70209 15.05505,5.00084 1.48777,1.59267 4.86823,1.84492 10.38431,0.77491 4.49816,-0.87256 9.72717,-1.62606 11.62003,-1.67445 3.48796,-0.0892 25.85286,19.56797 25.85286,22.72281 0,0.94325 2.77074,5.74214 6.15722,10.66421 6.14179,8.92678 12.67008,26.47708 10.90886,29.32679 -0.51086,0.82657 0.21326,1.9633 1.60915,2.52606 1.39589,0.56277 0.71969,1.10594 -1.50264,1.20704 -11.85691,0.53945 -55.50627,34.58102 -62.80984,48.98459 -2.63645,5.19941 -5.81418,10.08426 -7.06163,10.85523 -1.24744,0.77096 -12.51283,15.15421 -25.03419,31.96278 -21.91882,29.42363 -30.69896,39.26579 -41.40939,46.41816 -6.4407,4.30105 -8.51076,4.20213 -14.74896,-0.70485 z"
       id="path4655"
       inkscape:connector-curvature="0"
       transform="translate(87.244735,172.58797)" />
    <path
       style="opacity:0.93805309000000003;fill:#008000;fill-opacity:1;stroke:none"
       d="m 811.81704,476.35675 c -2.36418,-2.29017 -13.39232,-6.38949 -24.59952,-9.14399 -12.80669,-3.14763 -27.89177,-5.26459 -43.57837,-6.11555 -15.33915,-0.83212 -81.93774,-8.05722 -97.98479,-10.63011 -17.9403,-2.87645 -47.23824,-5.17705 -75.77235,-5.94999 -13.8956,-0.3764 -25.88188,-1.06579 -26.63618,-1.53197 -0.7543,-0.46618 -34.61476,-1.22998 -75.24546,-1.6973 -40.6307,-0.46734 -81.37438,-1.3301 -90.54151,-1.91726 -9.16714,-0.58715 -33.03199,-1.50122 -53.03301,-2.03125 -20.00102,-0.53003 -47.27514,-1.48173 -60.60916,-2.11488 -18.66417,-0.88625 -33.77527,-0.85743 -65.65991,0.12523 -22.77894,0.70203 -48.68935,0.97338 -57.5787,0.60301 -15.07544,-0.62813 -26.29704,-0.24539 -72.717403,2.48018 -16.521783,0.97008 -29.467903,2.67937 -34.106225,4.50307 -1.654946,0.65069 -1.767247,-0.90745 -1.759615,-24.41429 0.0054,-16.65031 0.525339,-29.02291 1.543341,-36.72611 1.268811,-9.60107 1.356233,-15.081 0.503828,-31.58182 -0.56725,-10.98079 -1.489367,-23.02685 -2.04915,-26.76905 -0.559782,-3.74218 -1.197741,-11.12237 -1.417686,-16.40042 -0.219945,-5.27805 -0.728777,-10.86768 -1.130737,-12.42141 -0.781171,-3.01952 -0.365334,-3.49351 18.792062,-21.42021 3.661707,-3.42647 9.512199,-10.67354 13.455544,-16.66752 3.837307,-5.8328 10.915829,-16.05991 15.730049,-22.72692 4.814221,-6.667 10.050949,-14.34463 11.637174,-17.06138 1.586226,-2.71676 3.736013,-5.16235 4.777305,-5.43466 1.041292,-0.2723 3.182219,-3.04976 4.757614,-6.17212 l 2.864359,-5.67702 19.23248,0.29426 19.23247,0.29427 1.08491,5.05875 c 0.59671,2.78232 1.08491,7.50356 1.08491,10.49166 0,3.36976 1.06546,8.43364 2.8057,13.3348 4.00855,11.28958 13.94243,29.26688 19.43753,35.17602 4.00146,4.30296 5.41624,7.06983 9.55566,18.68782 2.89534,8.12628 4.80296,15.16108 4.72062,17.40842 -0.30709,8.38233 8.13916,23.61807 20.38572,36.7727 5.24897,5.63818 7.53505,7.36355 10.49135,7.91816 2.07898,0.39001 6.44759,2.71442 9.70803,5.16533 3.28847,2.47199 7.04169,4.45622 8.42903,4.45622 3.85637,0 15.21532,-7.99665 23.11338,-16.27171 8.84314,-9.26526 15.22027,-17.34882 29.09787,-36.88411 5.96816,-8.40131 14.51964,-19.53824 19.00327,-24.74874 4.48363,-5.2105 9.30918,-11.97376 10.72344,-15.02947 1.41425,-3.05571 3.72426,-7.08356 5.13335,-8.95076 4.10428,-5.43866 33.59708,-28.9691 43.60774,-34.79186 5.10858,-2.97143 32.49416,-12.3432 40.5115,-13.86366 4.33737,-0.82257 6.24489,-2.00153 11.95745,-7.39047 8.87862,-8.37565 11.35153,-9.06061 14.07137,-3.89762 0.83461,1.5843 1.80418,2.1369 3.05357,1.74036 1.93393,-0.61381 3.62704,2.11135 6.06457,9.76121 2.20545,6.92152 14.38928,15.45827 33.53957,23.49993 16.49039,6.9247 17.78208,7.1848 28.29262,5.69719 4.99967,-0.70762 9.31437,-1.06252 9.58824,-0.78865 0.27386,0.27386 -1.12526,3.61175 -3.10917,7.41752 -3.49445,6.70348 -3.61486,7.30332 -3.85537,19.20543 -0.23227,11.49469 -0.10324,12.44066 2.00391,14.69031 1.2387,1.32247 3.80032,5.56708 5.69249,9.43245 3.87936,7.92487 8.31735,12.85409 9.64255,10.70987 0.59765,-0.96704 2.39134,0.12903 6.76532,4.13406 7.84154,7.18009 10.41013,8.85155 13.6025,8.85155 1.46038,0 4.88214,1.2063 7.60392,2.68066 2.72177,1.47437 6.08509,3.26895 7.47405,3.98796 2.65445,1.37412 36.35161,11.71639 42.42641,13.02145 1.94454,0.41775 5.12652,1.56183 7.07107,2.54242 1.94454,0.98059 7.69479,3.17405 12.77833,4.87436 5.08354,1.7003 15.31133,5.7695 22.72843,9.04263 15.94524,7.03659 23.00646,9.68085 41.21863,15.43541 8.87489,2.80422 14.43045,5.13394 16.01049,6.71398 3.46664,3.46665 23.35819,10.45592 32.52303,11.4276 4.16688,0.44178 9.31615,1.54668 11.44282,2.45535 2.12666,0.90866 10.3089,2.72869 18.18275,4.04452 7.87383,1.31582 16.8162,3.35787 19.87191,4.53788 3.05571,1.18002 13.51079,7.46929 23.23351,13.97618 l 17.67767,11.8307 0.3038,25.25381 c 0.31933,26.54515 -0.14006,34.55961 -2.13755,37.29135 -1.058,1.44689 -1.40261,1.47176 -2.71935,0.19624 l 0,0 z"
       id="path4663"
       inkscape:connector-curvature="0"
       transform="translate(87.244735,172.58797)" />
    <path
       style="opacity:0.93805309;fill:#008000;fill-opacity:1;stroke:none"
       d="m 809.80414,406.36953 c -13.3815,-9.10848 -29.92917,-19.22665 -34.14208,-20.87638 -2.38843,-0.93528 -10.11609,-2.61326 -17.17259,-3.72884 -7.05651,-1.1156 -15.3767,-2.9286 -18.4893,-4.02892 -3.11261,-1.10032 -8.56744,-2.26595 -12.12183,-2.5903 -3.66767,-0.33468 -11.13893,-2.3006 -17.2757,-4.54578 -5.94723,-2.17584 -11.21796,-3.95606 -11.71273,-3.95606 -0.49476,0 -1.73726,-0.92563 -2.7611,-2.05696 -2.48847,-2.74973 -8.63646,-5.3745 -21.56256,-9.20572 -13.54241,-4.01391 -18.96544,-6.07135 -39.17126,-14.86124 -8.97615,-3.90479 -18.97666,-7.86473 -22.22335,-8.79987 -3.24669,-0.93514 -7.94864,-2.71089 -10.44877,-3.94611 -2.50012,-1.23521 -6.81853,-2.79491 -9.59645,-3.46601 -13.69622,-3.30873 -39.91227,-11.70666 -43.94163,-14.07607 -6.52474,-3.83677 -9.95711,-5.20732 -13.04104,-5.20732 -1.9224,0 -4.98419,-2.03297 -10.55835,-7.01051 -4.75153,-4.24297 -8.92069,-7.1341 -10.56098,-7.32361 -2.24329,-0.25915 -3.40631,-1.64726 -6.75081,-8.05731 -2.22234,-4.25932 -4.67078,-8.47166 -5.44098,-9.36077 -1.2289,-1.41861 -0.72551,-2.32575 4.11091,-7.40808 3.0312,-3.18533 8.71017,-10.56448 12.61994,-16.39811 3.90976,-5.83363 12.43011,-18.10699 18.93411,-27.27412 7.99699,-11.27147 14.11526,-21.29381 18.89831,-30.95737 l 7.07287,-14.28985 4.47984,-0.6718 c 4.9661,-0.74471 8.89526,-0.32592 25.10717,2.67604 10.42473,1.93035 11.34061,1.95247 16.66751,0.40242 3.10016,-0.90209 8.50605,-2.28067 12.01311,-3.0635 3.50706,-0.78284 7.47602,-2.14378 8.81989,-3.02433 2.04598,-1.34057 3.06824,-1.40599 6.28462,-0.40216 4.03975,1.2608 4.51479,2.06242 12.77147,21.55135 4.98037,11.75563 9.11333,17.28957 24.70724,33.0825 8.64017,8.75045 16.14667,15.9099 16.68111,15.9099 0.53444,0 1.74067,-0.69588 2.68048,-1.54641 0.93983,-0.85053 4.12344,-1.8324 7.07472,-2.18193 3.06936,-0.36352 10.0402,-2.72802 16.28739,-5.52466 6.00681,-2.68902 12.40493,-4.88166 14.21804,-4.87252 3.39173,0.0171 6.59299,1.65652 16.51105,8.45556 9.40508,6.44741 11.37159,6.25469 29.46376,-2.88753 8.4449,-4.26733 18.37652,-9.96205 22.07028,-12.65493 5.05822,-3.68763 7.97043,-5.0687 11.79831,-5.59517 3.3901,-0.46626 5.80735,-1.48128 7.25969,-3.04837 l 2.17731,-2.34936 -0.35201,34.53794 c -0.19362,18.99587 -0.83458,43.85661 -1.42437,55.24608 -0.58978,11.38947 -1.29934,40.25458 -1.57679,64.14468 -0.27745,23.89011 -0.8001,43.94828 -1.16145,44.57369 -0.42707,0.73917 -2.9549,-0.42699 -7.223,-3.33218 z"
       id="path4665"
       inkscape:connector-curvature="0"
       transform="translate(87.244735,172.58797)" />
    <path
       style="opacity:0.93805309000000003;fill:#666666;fill-opacity:1;stroke:none"
       d="m 676.36863,225.46857 c -9.71669,-9.90187 -16.65592,-17.87896 -18.387,-21.13703 l -2.78038,-5.23299 3.39739,-2.59132 c 1.86856,-1.42522 4.63865,-4.87192 6.15574,-7.65932 1.7534,-3.22156 5.21704,-7.03784 9.50683,-10.47474 3.71167,-2.97371 7.65204,-6.41874 8.75639,-7.65563 2.44093,-2.73388 13.56713,-9.42764 15.66976,-9.42726 0.83338,1.5e-4 5.71168,-2.45584 10.84066,-5.45775 15.53484,-9.09229 27.92079,-12.11208 31.45441,-7.66882 2.58022,3.24444 5.00904,4.00655 15.10003,4.73803 13.38412,0.9702 29.22594,-0.24911 31.3475,-2.41274 3.87721,-3.9541 13.99859,-8.97505 20.35388,-10.09704 3.6113,-0.63756 8.28462,-2.03994 10.38517,-3.11642 2.10055,-1.07647 4.71432,-1.95722 5.80837,-1.95722 2.54034,0 2.61659,3.86221 0.339,17.17259 -0.98171,5.73716 -1.89412,18.94 -2.26878,32.82996 -0.4013,14.87691 -0.9968,23.1707 -1.65568,23.05887 -0.56595,-0.096 -2.27058,-0.48625 -3.78807,-0.86712 -3.55984,-0.89346 -3.6037,0.85953 -0.0528,2.10945 2.56044,0.90127 2.61256,1.04633 0.96708,2.6913 -0.95657,0.95628 -4.01365,2.0404 -6.7935,2.40917 -3.86995,0.51336 -6.64112,1.84367 -11.82622,5.67719 -3.72457,2.7537 -13.64371,8.43638 -22.04254,12.62819 -17.81948,8.89359 -18.82558,8.95852 -28.49645,1.83923 -12.82791,-9.44338 -15.5373,-9.68165 -31.12486,-2.73725 -6.04344,2.6924 -13.46429,5.21818 -16.52211,5.62349 -3.05309,0.4047 -6.26794,1.38458 -7.14413,2.17752 -1.41401,1.27965 -3.34727,-0.34593 -17.19969,-14.46234 l 4e-5,0 z"
       id="path4667"
       inkscape:connector-curvature="0"
       transform="translate(87.244735,172.58797)" />
    <path
       style="opacity:0.93805309;fill:#666666;fill-opacity:1;stroke:none"
       d="m 801.7968,400.45544 c -21.43146,-13.79523 -26.22728,-16.02256 -40.0396,-18.59571 -6.63142,-1.2354 -16.37553,-3.30588 -21.65358,-4.60107 -5.27805,-1.29517 -11.63794,-2.68097 -14.1331,-3.07954 -7.06553,-1.12861 -25.70009,-7.30103 -28.3941,-9.40512 -4.19721,-3.27814 -10.05902,-5.78483 -25.15302,-10.75621 -8.05597,-2.65333 -21.23846,-7.55445 -29.29443,-10.89138 -26.32571,-10.90461 -45.23548,-17.79328 -65.91514,-24.01229 -11.18545,-3.36382 -24.22705,-7.87483 -28.98134,-10.02446 -4.75428,-2.14965 -9.85215,-4.16921 -11.32859,-4.48794 -1.47643,-0.31872 -6.32611,-3.42244 -10.77705,-6.89716 -4.45094,-3.47472 -9.40948,-7.04394 -11.01897,-7.93159 -1.77393,-0.97836 -4.82592,-4.8541 -7.74999,-9.84177 l -4.82365,-8.22783 5.49909,-6.32068 c 11.66956,-13.41305 40.24321,-55.89851 49.76942,-74.0009 3.80081,-7.2226 7.39413,-13.46595 7.98514,-13.87413 1.92713,-1.33097 10.90807,-0.8271 25.13317,1.41008 13.6676,2.1495 14.11804,2.15783 21.71828,0.40134 4.26866,-0.98652 11.3106,-2.94973 15.64875,-4.36269 l 7.88753,-2.56901 2.71907,2.0029 c 2.9723,2.18945 3.66137,3.40763 11.61118,20.52704 3.32653,7.16349 7.38014,13.99638 10.5742,17.82424 7.28508,8.73064 22.01126,24.08094 26.55179,27.67712 l 3.82047,3.02586 6.90051,-2.12571 c 3.79529,-1.16914 12.50151,-4.13281 19.34717,-6.58594 6.84565,-2.45313 13.66418,-4.45743 15.15229,-4.45401 1.50752,0.003 7.15243,2.68738 12.74758,6.06092 7.92358,4.77743 10.9069,6.05163 14.14214,6.04017 4.93203,-0.0175 18.85189,-6.49877 35.91999,-16.72492 6.38921,-3.82802 14.01566,-7.71899 16.94766,-8.64659 2.93201,-0.9276 6.00035,-2.24212 6.81853,-2.92116 1.29914,-1.07818 1.48669,0.7329 1.4803,14.2939 -0.004,8.54069 -0.43975,31.21114 -0.96828,50.37878 -0.52852,19.16765 -1.20362,44.85077 -1.5002,57.07362 -1.53928,63.43678 -1.87929,73.23606 -2.54112,73.23606 -0.39576,0 -6.74171,-3.8764 -14.1021,-8.61422 z"
       id="path4669"
       inkscape:connector-curvature="0"
       transform="translate(87.244735,172.58797)" />
    <path
       style="opacity:0.93805309000000003;fill:#0070ff;fill-opacity:1;stroke:none"
       d="M 27.280591,264.56157 C 26.233753,252.52467 24.226421,206.03344 22.819855,161.24773 21.413288,116.46201 19.434861,76.534665 18.423351,72.520291 15.045907,59.116248 20.704573,46.186937 33.803123,37.379522 51.054519,25.779749 78.727173,22.780699 126.90268,27.28977 c 35.47796,3.320622 88.00643,3.957309 406.67584,4.929241 131.046,0.399686 136.72212,0.188637 188.57143,-7.011496 78.45677,-10.89502 79.94995,-10.735145 90.22237,9.660165 9.38926,18.641797 13.23606,39.110894 13.23606,70.42989 l 0,26.62572 -16.84674,4.72696 c -9.26572,2.59983 -18.42314,6.6264 -20.34986,8.94793 -4.08008,4.91622 -41.32668,6.06466 -44.23197,1.36383 -0.9712,-1.57143 -6.51137,-2.90939 -12.31149,-2.97326 l -10.54565,-0.11611 10,-8.70338 c 16.2406,-14.13479 39.73685,-28.97859 66.65688,-42.110563 13.87557,-6.7687 24.47137,-13.063666 23.54623,-13.988812 -2.97094,-2.970954 -59.57831,27.240825 -78.77454,42.042585 -42.29789,32.61487 -56.24283,43.32931 -66.1402,50.81804 -5.73426,4.33876 -12.73663,11.72855 -15.56083,16.42176 l -5.13494,8.53313 -9.23217,-19.9617 c -5.07769,-10.97893 -12.07235,-28.96169 -15.54366,-39.96169 -3.47132,-11 -9.39697,-27.01584 -13.16814,-35.59075 l -6.85669,-15.590752 -4.31383,8.314877 c -2.37257,4.57318 -8.83488,13.832255 -14.36063,20.575705 -5.52577,6.74346 -14.56125,22.23189 -20.07891,34.41874 -5.51763,12.18684 -13.2694,29.1923 -17.22617,37.78992 -7.06877,15.35971 -47.0902,75.38205 -52.4868,78.71733 -3.92597,2.42639 -3.18937,-6.73088 1.61394,-20.06364 5.75,-15.96056 5.51506,-16.50216 -6.51097,-15.01055 -17.0082,2.10957 -60.71429,-18.12941 -60.71429,-28.11497 0,-5.01324 -11.35468,-15.44591 -16.81097,-15.44591 -2.36771,0 -7.58957,2.99868 -11.60411,6.66374 -5.8774,5.36571 -25.1894,13.33626 -32.31272,13.33626 -0.82137,0 -2.36785,-4.66134 -3.43665,-10.35853 -2.3556,-12.55635 -12.52249,-28.80403 -30.76003,-49.15743 -14.98775,-16.72662 -15.5186,-19.32958 -9.31157,-45.65801 4.69662,-19.92182 3.32468,-25.307552 -8.40455,-32.992837 -10.31717,-6.760069 -26.81965,-5.7936 -40.21654,2.355288 -6.28571,3.823392 -17.70644,10.338986 -25.37939,14.479097 -15.62218,8.429295 -41.76347,31.643942 -41.76347,37.087842 0,1.9497 -2.03349,5.23254 -4.51886,7.29522 -2.48537,2.06268 -8.14495,10.89868 -12.57683,19.63556 -10.15625,20.02168 -51.32145,65.04354 -54.60863,59.72477 -1.30814,-2.11661 -0.82191,-4.63413 1.14085,-5.90699 2.6271,-1.70367 2.58,-2.76197 -0.20302,-4.562 -6.01064,-3.88764 -9.16689,-20.31259 -7.31255,-38.05399 1.98751,-19.01541 -1.68035,-22.1336 -9.8201,-8.34847 -9.43018,15.97054 -15.04004,24.52149 -25.69112,39.16019 -5.882503,8.08483 -20.523083,28.65626 -32.534623,45.71428 -12.01154,17.05802 -26.314183,35.07724 -31.783652,40.04272 l -9.944482,9.02813 -1.903342,-21.88528 z"
       id="path4671"
       inkscape:connector-curvature="0"
       transform="translate(87.244735,172.58797)" />
  </g>
</svg>
