<?xml version="1.0" encoding="UTF-8"?>
<!DOCTYPE svg PUBLIC "-//W3C//DTD SVG 1.1//EN" "http://www.w3.org/Graphics/SVG/1.1/DTD/svg11.dtd">
<svg version="1.1" xmlns="http://www.w3.org/2000/svg" xmlns:xlink="http://www.w3.org/1999/xlink" x="0" y="0" width="196.375" height="198.058" viewBox="0, 0, 436.389, 440.129">
  <g id="Layer_1">
    <path d="M198.472,232.603 C189.445,231.908 180.356,231.705 171.298,231.173 C163.369,230.706 155.388,231.191 147.462,230.696 C133.962,229.852 120.461,229.374 106.94,230.219 C89.35,231.318 71.541,229.421 54.023,231.173 C50.258,231.549 28.586,231.512 26.849,234.986 C25.828,237.028 26.238,239.911 25.896,242.137 C25.54,244.451 24.926,246.986 24.465,249.288 C23.602,253.607 21.141,257.752 20.652,262.16 C20.122,266.93 19.275,271.687 18.745,276.462 C18.518,278.499 18.999,280.625 18.745,282.659 C17.257,294.562 18.846,309.314 20.175,321.274 C20.31,322.488 20.99,324.321 21.128,325.565 C21.725,330.936 21.412,336.418 22.082,341.774 C22.385,344.203 23.21,346.508 23.512,348.925 C24.304,355.262 24.627,361.656 25.419,367.994 C25.654,369.872 25.184,371.837 25.419,373.715 C26.803,384.787 26.719,410.047 32.093,419.004 C33.936,422.075 37.181,425.611 40.674,427.108 C54.683,433.112 81.497,430.466 95.498,431.399 C102.643,431.875 109.806,431.876 116.951,432.352 C121.697,432.669 126.507,432.036 131.253,432.352 C142.973,433.134 154.797,432.97 166.531,432.352 C178.75,431.709 191.022,432.042 203.239,431.399 C213.089,430.881 222.948,430.516 232.796,429.969 C237.232,429.722 241.708,430.202 246.145,429.969 C251.811,429.671 249.042,429.158 254.726,429.492 C276.631,430.781 298.663,430.055 320.515,431.876 C324.303,432.191 328.166,431.584 331.956,431.876 C342.388,432.678 352.935,432.352 363.42,432.352 C371.611,432.352 386.264,431.899 393.454,427.585 C398.296,424.68 402.22,419.901 405.849,415.667 C409.433,411.485 412.34,407.22 413.954,401.842 C415.467,396.798 417.445,391.427 417.767,386.11 C418.037,381.665 418.244,377.214 418.244,372.761 C418.244,365.824 415.824,352.445 413.954,345.588 C413.728,344.762 413.168,344.043 413,343.204 C411.895,337.678 411.24,331.656 410.616,326.042 C410.244,322.687 409.127,319.373 408.71,316.03 C408.277,312.567 408.727,309 408.233,305.542 C407.715,301.92 407.51,298.114 406.803,294.578 C406.47,292.914 407.214,290.978 406.803,289.334 C406.025,286.224 406.148,282.901 405.372,279.799 C404.175,275.011 403.045,269.956 401.559,265.497 C400.044,260.954 398.44,251.066 393.931,248.812 C386.44,245.066 376.82,243.573 368.188,242.614 C364.71,242.228 361.177,242.524 357.699,242.137 C346.138,240.853 334.504,239.484 322.898,238.323 C318.901,237.924 314.977,236.816 310.98,236.417 C303.658,235.684 296.288,235.544 289.05,234.51 C287.5,234.288 285.828,234.767 284.283,234.51 C279.835,233.768 274.101,235.063 269.981,234.033 C265.315,232.866 259.606,233.556 229.698,233.079 C202.612,232.416 200.531,232.761 198.472,232.603 z" fill-opacity="0" stroke="#000000" stroke-width="2.5" id="path3956"/>
    <path d="M75.475,234.033 C71.133,239.181 69.44,245.453 68.325,252.149 C67.735,255.686 65.911,259.061 65.464,262.637 C65.022,266.172 64.243,269.698 63.557,273.125 C62.625,277.785 63.537,282.759 62.604,287.427 C61.694,291.976 62.636,302.368 63.557,306.973 C64.039,309.382 62.276,311.709 63.081,314.123 C64.2,317.482 63.66,321.209 64.511,324.612 C65.11,327.008 64.026,329.813 64.511,332.239 C65.228,335.825 65.054,339.656 65.941,343.204 C66.352,344.849 65.53,346.803 65.941,348.448 C67.672,355.373 65.65,363.679 66.894,369.901 C67.451,372.684 67.371,375.548 67.371,378.482 C67.371,384.265 68.307,409.981 65.941,414.713 C65.462,415.671 65.969,417.041 65.464,418.051 C64.77,419.439 66.256,425.84 65.941,426.155 C65.366,426.73 63.699,421.813 63.557,421.388" fill-opacity="0" stroke="#000000" stroke-width="2" id="path3958"/>
    <path d="M130.776,235.463 C129.601,246.813 130.776,258.349 130.776,269.788 C130.776,277.719 130.466,285.755 131.253,293.624 C132.067,301.761 133.689,309.825 134.59,317.937 C134.846,320.241 134.338,322.361 134.113,324.612 C133.783,327.919 133.938,331.304 133.637,334.623 C133.365,337.613 133.968,340.698 133.637,343.681 C132.86,350.666 132.717,357.747 131.73,364.657 C130.939,370.188 133.021,378.562 131.73,383.726 C131.104,386.229 130.44,394.159 131.253,396.598 C131.834,398.341 132.675,404.718 131.73,406.609 C131.263,407.543 130.776,413.549 130.776,414.713 C130.776,415.237 130.623,419.157 130.299,419.481 C130.173,419.607 129.066,419.481 128.869,419.481" fill-opacity="0" stroke="#000000" stroke-width="2" id="path3960"/>
    <path d="M188.46,237.847 C186.279,260.671 188.559,284.126 190.844,306.973 C191.282,311.351 190.845,316.022 190.367,320.321 C190.088,322.833 190.596,325.431 190.367,327.949 C189.903,333.058 188.969,338.114 188.46,343.204 C188.24,345.405 188.705,347.68 188.46,349.878 C187.669,357.003 187.442,364.225 186.554,371.331 C186.261,373.674 186.887,376.145 186.554,378.482 C185.004,389.329 187.03,400.145 187.03,410.9 C187.03,413.427 188.071,414.237 185.123,414.237" fill-opacity="0" stroke="#000000" stroke-width="2" id="path3962"/>
    <path d="M243.284,245.474 C248.227,249.827 246.259,256.249 245.668,262.16 C245.131,267.527 245.129,272.984 244.715,278.369 C243.281,297.004 240.544,315.546 238.994,334.146 C237.939,346.805 235.18,359.043 235.18,371.808 C235.18,382.27 236.012,394.578 232.796,404.225 C232.46,405.233 232.564,413.516 232.32,413.76 C231.734,414.346 231.843,410.628 231.843,410.423" fill-opacity="0" stroke="#000000" stroke-width="2" id="path3964"/>
    <path d="M294.771,244.044 C297.083,251.312 296.934,259.25 297.632,266.927 C298.023,271.236 299.146,275.477 299.538,279.799 C300.369,288.931 300.846,300.696 300.015,309.833 C299.15,319.347 298.366,328.892 297.632,338.437 C297.104,345.291 295.3,352.066 294.771,358.936 C294.331,364.657 293.86,370.385 293.341,376.098 C292.254,388.054 290.481,399.799 290.481,411.853 C290.481,412.28 290.49,421.388 290.957,421.388 C291.427,421.388 292.144,418.061 292.388,417.574" fill-opacity="0" stroke="#000000" stroke-width="2" id="path3966"/>
    <path d="M350.072,254.532 C349.616,259.753 348.649,264.935 348.165,270.264 C347.734,275.004 348.281,279.874 348.642,284.566 C349.042,289.778 348.595,295.137 348.165,300.298 C347.769,305.046 348.084,309.853 347.688,314.6 C347.448,317.48 346.498,320.301 346.258,323.181 C345.711,329.75 344.582,336.216 343.398,342.727 C342.509,347.612 341.031,352.569 340.537,357.506 C339.706,365.817 338.228,374.076 337.2,382.296 C337.28,383.508 336.41,384.488 336.247,385.633 C335.463,391.115 333.976,400.752 335.77,406.132 C335.863,406.413 335.332,415.151 336.247,414.237 C336.58,413.903 335.107,412.952 334.816,412.806" fill-opacity="0" stroke="#000000" stroke-width="2" id="path3968"/>
    <path d="M21.128,275.985 C26.317,276.045 31.129,275.341 36.384,275.032 C43.76,274.598 51.022,275.424 58.313,275.985 C68.741,276.787 79.341,275.289 89.777,275.985 C99.619,276.641 109.494,276.759 119.335,277.415 C135.088,278.465 150.802,279.442 166.531,280.752 C168.431,280.911 170.351,280.594 172.252,280.752 C180.2,281.415 188.126,282.567 196.088,283.136 C204.172,283.713 212.312,283.512 220.401,284.089 C231.07,284.852 241.653,287.235 252.342,287.903 C262.604,288.545 273.183,289.073 283.33,290.764 C290.43,291.947 297.667,291.88 304.782,292.671 C309.896,293.239 314.99,293.856 320.038,294.578 C324.839,295.263 333.782,293.479 338.63,292.671 C341.533,292.187 344.852,292.742 347.688,293.147 C354.478,294.117 361.766,293.624 368.664,293.624 C375.302,293.624 383.241,292.024 389.64,293.624 C391.993,294.212 394.167,293.624 395.838,293.624 C397.363,293.624 398.701,294.104 398.698,294.101 C397.415,292.817 393.573,293.624 392.024,293.624" fill-opacity="0" stroke="#000000" stroke-width="2" id="path3970"/>
    <path d="M24.942,321.751 C25.26,322.387 25.341,323.214 25.896,323.658 C26.326,324.002 46.549,322.334 47.825,322.228 C56.849,321.476 65.96,322.316 74.999,321.751 C90.007,320.813 104.818,321.274 119.811,321.274 C125.925,321.274 131.89,321.557 137.927,322.228 C140.596,322.524 143.363,321.931 146.031,322.228 C155.041,323.229 164.162,323.381 173.205,324.135 C177.94,324.529 182.769,323.77 187.507,324.135 C200.364,325.124 213.281,325.448 226.122,326.518 C232.354,327.038 238.49,328.813 244.715,329.379 C267.341,331.436 290.116,334.146 312.887,334.146 C320.082,334.146 327.668,334.861 334.816,334.146 C337.928,333.835 341.215,333.042 344.351,333.669 C344.699,333.739 344.949,334.146 345.304,334.146 C345.66,334.146 345.913,333.756 346.258,333.669 C347.432,333.376 348.927,334.051 350.072,333.669 C352.371,332.903 355.146,332.75 357.699,332.239 C358.92,331.995 360.281,332.415 361.513,332.239 C365.923,331.609 370.374,331.762 374.862,331.762 C376.489,331.762 378.436,332.796 380.106,332.239 C381.069,331.918 382.214,331.455 383.443,331.762 C383.788,331.849 384.041,332.239 384.396,332.239 C384.752,332.239 384.994,331.762 385.35,331.762 C385.574,331.762 385.602,332.239 385.827,332.239 C387.046,332.239 391.436,331.286 392.501,331.286 C393.019,331.286 395.777,331.793 395.838,331.762 C396.039,331.662 396.09,331.286 396.315,331.286 C396.473,331.286 396.202,331.65 396.315,331.762 C396.432,331.88 399.057,331.88 399.175,331.762 C399.842,331.096 396.895,331.286 396.791,331.286" fill-opacity="0" stroke="#000000" stroke-width="2" id="path3972"/>
    <path d="M34,362.75 C32.867,358.51 32.189,363.8 31.616,363.227 C31.457,363.068 31.873,362.794 32.093,362.75 C34.108,362.347 36.237,362.053 38.291,361.796 C45.132,360.941 51.876,359.845 58.79,359.413 C77.965,358.214 97.24,358.459 116.474,358.459 C134.117,358.459 151.821,360.625 169.391,361.796 C173.713,362.085 177.947,363.371 182.263,363.703 C188.614,364.192 194.977,364.68 201.332,365.134 C203.12,365.261 206.78,364.988 208.483,365.134 C214.768,365.672 221.229,367.031 227.552,367.517 C244.045,368.786 260.593,370.027 277.132,370.854 C286.843,371.34 296.484,373.238 306.213,373.238 C322.089,373.238 338.173,374.829 353.886,376.575 C360.779,377.341 368.081,376.649 374.862,378.005 C376.218,378.277 388.892,376.665 390.594,376.098 C392.85,375.346 395.616,376.575 397.745,376.575 C398.58,376.575 402.457,377.107 402.989,376.575 C403.637,375.927 401.306,376.098 401.082,376.098" fill-opacity="0" stroke="#000000" stroke-width="2" id="path3974"/>
    <path d="M37.337,250.718 C39.649,248.018 44.147,247.245 46.395,244.998 C47.186,244.206 48.038,243.223 49.255,242.614 C49.481,242.501 51.099,241.12 51.162,241.184 C51.771,241.792 50.455,244.152 50.209,244.521 C48.949,246.41 48.489,248.817 47.348,250.718 C46.564,252.025 45.408,253.306 44.488,254.532 C42.852,256.713 42.117,259.519 40.674,261.683 C38.696,264.651 37.9,268.661 36.384,271.695 C36.313,271.837 36.543,272.171 36.384,272.171 C36.066,272.171 36.384,271.536 36.384,271.218" fill-opacity="0" stroke="#000000" stroke-width="1.7" stroke-linecap="round" stroke-linejoin="round" id="path3976"/>
    <path d="M95.498,249.288 C95.523,249.001 91.684,248.165 91.684,247.858 C91.684,246.508 105.986,243.381 105.986,248.335 C105.986,252.784 96.498,257.776 94.545,261.683 C93.705,263.362 97.737,265.277 98.835,265.497 C100.453,265.821 102.026,266.612 103.603,266.927 C104.382,267.083 105.215,266.735 105.986,266.927 C107.285,267.252 108.417,267.881 109.8,267.881" fill-opacity="0" stroke="#000000" stroke-width="1.7" stroke-linecap="round" stroke-linejoin="round" id="path3978"/>
    <path d="M145.078,251.195 C145.714,250.56 146.237,249.787 146.985,249.288 C148.782,248.09 158.234,250.019 160.333,250.718 C160.629,250.817 163.194,251.424 163.194,252.149 C163.194,254.06 156.647,257.044 157.95,258.346 C159.411,259.807 161.852,259.417 163.194,261.206 C164.223,262.579 164.263,263.539 163.67,265.02 C160.946,271.832 153.127,269.788 147.462,269.788" fill-opacity="0" stroke="#000000" stroke-width="1.7" stroke-linecap="round" stroke-linejoin="round" id="path3980"/>
    <path d="M210.867,250.718 C206.405,252.477 204.733,261.028 210.39,262.16 C213.739,262.83 216.709,261.206 219.925,261.206" fill-opacity="0" stroke="#000000" stroke-width="1.7" stroke-linecap="round" stroke-linejoin="round" id="path3982"/>
    <path d="M224.215,253.579 C220.79,258.968 220.472,265.691 218.971,271.695 C218.637,273.033 218.937,275.032 217.541,275.032" fill-opacity="0" stroke="#000000" stroke-width="1.7" stroke-linecap="round" stroke-linejoin="round" id="path3984"/>
    <path d="M267.121,257.869 C266.831,257.98 262.379,260.756 262.83,261.206 C263.251,261.627 265.635,261.073 266.167,261.206 C268.556,261.804 269.47,263.999 270.458,265.974 C271.442,267.943 270.547,266.983 270.935,269.311 C272.667,279.702 254.284,277.962 252.342,274.078" fill-opacity="0" stroke="#000000" stroke-width="1.7" stroke-linecap="round" stroke-linejoin="round" id="path3986"/>
    <path d="M264.26,257.869 C270.662,257.39 276.914,257.754 283.33,258.823 C284.252,258.977 289.05,259.198 289.05,259.776" fill-opacity="0" stroke="#000000" stroke-width="1.7" stroke-linecap="round" stroke-linejoin="round" id="path3988"/>
    <path d="M325.282,259.776 C323.043,261.333 322.499,263.862 320.991,265.974 C319.069,268.665 313.422,277.533 315.271,281.229 C317.124,284.937 323.709,284.303 325.759,281.229 C326.317,280.392 325.589,280.259 325.282,279.799 C322.489,275.61 315.47,279.799 319.561,279.799" fill-opacity="0" stroke="#000000" stroke-width="1.7" stroke-linecap="round" stroke-linejoin="round" id="path3990"/>
    <path d="M362.943,260.73 C365.705,259.295 368.866,259.091 372.001,259.3 C375.089,259.505 380.582,260.213 380.582,261.206 C380.582,261.365 380.218,261.094 380.106,261.206 C380.089,261.224 378.89,264.186 378.676,264.544 C376.225,268.628 373.826,272.573 371.048,276.462 C369.573,278.527 367.534,280.093 366.281,282.183 C366.143,282.413 364.471,285.14 364.374,285.043 C363.969,284.638 365.399,284.495 365.804,284.089 C366.023,283.87 366.382,283.035 366.757,282.659" fill-opacity="0" stroke="#000000" stroke-width="1.7" stroke-linecap="round" stroke-linejoin="round" id="path3992"/>
    <path d="M366.281,273.125 C369.611,272.57 368.174,272.648 370.571,272.648 C373.955,272.648 377.176,272.171 380.582,272.171 C381.366,272.171 383.655,271.801 384.396,272.171 C384.597,272.272 385.098,272.648 384.873,272.648 C384.518,272.648 384.237,272.33 383.92,272.171" fill-opacity="0" stroke="#000000" stroke-width="1.7" stroke-linecap="round" stroke-linejoin="round" id="path3994"/>
    <path d="M54.976,286.473 C53.496,286.647 52.129,287.186 50.686,287.427 C49.202,287.674 47.835,287.543 46.395,287.903 C44.663,288.336 44.665,288.98 44.011,290.287 C41.502,295.306 58.656,297.02 56.883,304.112 C55.815,308.386 39.682,313.699 45.442,306.019 C46.932,304.031 48.909,302.465 50.209,300.298 C51.415,298.288 51.399,295.774 52.116,293.624 C52.296,293.084 51.863,292.222 52.116,291.717 C52.315,291.319 52.877,289.525 53.069,289.333 C54.056,288.347 53.031,290.841 54.023,288.857 C54.42,288.062 53.387,288.38 53.069,288.38" fill-opacity="0" stroke="#000000" stroke-width="1.7" stroke-linecap="round" stroke-linejoin="round" id="path3996"/>
    <path d="M110.753,290.287 C105.322,289.157 91.884,285.489 87.394,288.857 C86.443,289.57 84.802,291.301 85.487,292.671 C86.566,294.83 103.757,290.395 106.94,289.333 C107.691,289.083 110.753,287.526 110.753,290.287 C110.753,291.214 109.025,291.062 108.37,291.717 C108.242,291.845 101.219,309.533 101.219,309.833" fill-opacity="0" stroke="#000000" stroke-width="1.7" stroke-linecap="round" stroke-linejoin="round" id="path3998"/>
    <path d="M144.125,292.194 C147.028,290.484 148.795,288.667 151.276,287.427 C151.788,287.17 152.706,285.9 152.706,286.473 C152.706,286.505 151.346,287.691 151.276,287.903 C150.282,290.883 148.62,293.873 147.462,296.961 C146.957,298.306 141.955,312.956 141.741,313.17 C141.234,313.677 139.357,313.635 139.357,312.217" fill-opacity="0" stroke="#000000" stroke-width="1.7" stroke-linecap="round" stroke-linejoin="round" id="path4004"/>
    <path d="M170.345,290.764 C167.627,291.265 164.678,293.534 163.194,296.008 C162.145,297.756 161.255,299.886 160.333,301.728 C159.21,303.976 158.64,306.464 157.95,308.879 C157.6,310.102 158.198,309.645 158.426,310.786 C158.797,312.637 159.591,314.83 161.764,315.554 C162.367,315.755 163.067,315.353 163.67,315.554 C164.456,315.816 164.993,316.296 166.054,316.03 C168.288,315.472 169.874,313.834 171.775,312.693 C175.878,310.232 175.658,310.24 178.926,306.973 C179.985,305.913 179.932,307.237 180.356,305.542 C180.619,304.491 180.619,303.274 180.833,302.205 C181.064,301.047 181.528,300.915 181.309,299.822 C181.475,298.852 180.524,298.277 180.356,297.438 C180.087,296.094 179.82,293.585 178.449,292.671 C177.013,291.713 174.799,292.792 173.205,292.194 C172.207,291.82 171.298,291.24 170.345,290.764 z" fill-opacity="0" stroke="#000000" stroke-width="1.7" stroke-linecap="round" stroke-linejoin="round" id="path4006"/>
    <path d="M199.425,303.159 C200.387,301.345 202.388,300.672 203.716,299.345 C205.1,297.96 206.614,296.924 208.006,295.531 C208.61,294.927 211.383,291.757 211.82,292.194 C212.074,292.447 209.624,296.586 209.437,296.961 C208.096,299.642 201.167,315.554 198.472,315.554" fill-opacity="0" stroke="#000000" stroke-width="1.7" stroke-linecap="round" stroke-linejoin="round" id="path4008"/>
    <path d="M219.448,303.635 C220.094,302.472 220.933,301.674 221.831,300.775 C222.95,299.657 221.719,301.112 222.308,299.345 C222.695,298.184 225.215,296.461 226.122,296.008 C226.555,295.791 227.518,293.59 228.029,294.101 C228.277,294.349 225.809,298.855 225.645,299.345 C224.96,301.401 219.795,317.113 219.448,317.461 C219.139,317.769 218.441,316.984 218.018,316.984" fill-opacity="0" stroke="#000000" stroke-width="1.7" stroke-linecap="round" stroke-linejoin="round" id="path4010"/>
    <path d="M252.342,307.449 C254.675,305.235 257.15,302.668 259.97,301.728 C261.594,301.187 265.675,296.484 265.691,296.484 C266.432,296.484 264.417,302.214 264.26,302.682 C262.958,306.589 262.67,310.79 261.4,314.6 C261.055,315.636 258.187,319.72 257.586,320.321 C257.492,320.415 257.301,322.897 256.633,322.228 C256.447,322.042 256.633,320.612 256.633,320.321" fill-opacity="0" stroke="#000000" stroke-width="1.7" stroke-linecap="round" stroke-linejoin="round" id="path4012"/>
    <path d="M274.749,303.159 C278.627,299.281 275.139,301.869 277.609,301.252 C295.742,296.719 271.666,317.493 272.842,319.844 C273.644,321.449 286.046,323.181 288.097,323.181" fill-opacity="0" stroke="#000000" stroke-width="1.7" stroke-linecap="round" stroke-linejoin="round" id="path4014"/>
    <path d="M306.689,309.833 C308.28,308.06 309.419,307.276 310.98,306.496 C311.794,306.089 314.003,303.322 314.317,303.635 C315.16,304.478 310.278,314.997 310.026,316.507 C309.944,317.001 308.511,322.142 308.12,321.751 C307.811,321.442 308.596,320.745 308.596,320.321" fill-opacity="0" stroke="#000000" stroke-width="1.7" stroke-linecap="round" stroke-linejoin="round" id="path4016"/>
    <path d="M322.421,303.635 C322.739,303 322.739,301.411 323.375,301.728 C324.011,302.046 321.711,303.635 322.421,303.635 C323.567,303.635 324.257,302.241 325.282,301.728 C326.525,301.107 332.285,301.285 332.91,303.159 C333.874,306.053 328.142,307.521 328.142,309.833 C328.142,311.905 331.404,313.346 331.956,315.554 C333.239,320.686 323.678,320.245 321.468,320.798 C320.39,321.067 318.663,321.751 317.654,321.751" fill-opacity="0" stroke="#000000" stroke-width="1.7" stroke-linecap="round" stroke-linejoin="round" id="path4018"/>
    <path d="M358.176,308.879 C360.118,308.544 361.655,307.378 363.42,306.496 C365.384,305.514 367.711,303.635 367.711,303.635 C367.711,304.392 361.012,319.416 360.083,321.274 C359.627,322.186 359.162,324.612 358.176,324.612" fill-opacity="0" stroke="#000000" stroke-width="1.7" stroke-linecap="round" stroke-linejoin="round" id="path4020"/>
    <path d="M381.059,304.589 C376.365,309.556 376.552,313.878 384.396,311.263 C385.518,310.889 387.039,309.833 387.733,309.833" fill-opacity="0" stroke="#000000" stroke-width="1.7" stroke-linecap="round" stroke-linejoin="round" id="path4022"/>
    <path d="M391.547,306.973 C386.388,311.583 382.371,317.619 378.199,323.181 C377.451,324.178 376.914,326.518 375.338,326.518" fill-opacity="0" stroke="#000000" stroke-width="1.7" stroke-linecap="round" stroke-linejoin="round" id="path4024"/>
    <path d="M32.57,338.437 C32.805,337.305 38.362,329.379 38.767,329.379 C38.925,329.379 38.291,338.322 38.291,338.913 C38.291,340.072 38.173,353.215 38.767,353.215 C39.25,353.215 39.721,352.151 39.721,351.785" fill-opacity="0" stroke="#000000" stroke-width="1.7" stroke-linecap="round" stroke-linejoin="round" id="path4026"/>
    <path d="M53.069,332.716 C53.257,334.097 49.732,335.843 49.732,337.483 C49.732,337.983 59.621,340.709 57.36,347.495 C56.054,351.412 51.272,349.987 48.779,347.495" fill-opacity="0" stroke="#000000" stroke-width="1.7" stroke-linecap="round" stroke-linejoin="round" id="path4028"/>
    <path d="M47.348,334.623 C49.778,333.428 59.628,331.17 61.65,333.193" fill-opacity="0" stroke="#000000" stroke-width="1.7" stroke-linecap="round" stroke-linejoin="round" id="path4030"/>
    <path d="M82.15,332.716 C82.966,329.83 86.166,329.176 87.394,327.949 C87.421,327.921 89.301,326.351 89.301,326.995 C89.301,327.343 88.455,328.946 88.347,329.379 C87.361,333.323 86.247,337.497 85.487,341.297 C85.238,342.544 83.076,346.092 84.057,345.111" fill-opacity="0" stroke="#000000" stroke-width="1.7" stroke-linecap="round" stroke-linejoin="round" id="path4036"/>
    <path d="M108.847,326.995 C104.308,329.509 100.265,339.018 100.265,344.157 C100.265,345.18 100.916,347.495 102.172,347.495 C104.056,347.495 108.37,344.539 108.37,342.727 C108.37,340.606 102.858,341.297 102.172,341.297" fill-opacity="0" stroke="#000000" stroke-width="1.7" stroke-linecap="round" stroke-linejoin="round" id="path4038"/>
    <path d="M141.264,336.53 C141.949,333.783 147.653,331.379 148.415,329.856 C148.503,329.679 149.321,328.425 149.369,328.425 C149.73,328.425 148.912,330.212 148.415,333.193 C147.672,337.652 146.156,342.23 145.078,346.541 C144.666,348.19 143.594,349.878 143.648,349.878 C143.961,349.878 144.388,348.661 144.601,348.448" fill-opacity="0" stroke="#000000" stroke-width="1.7" stroke-linecap="round" stroke-linejoin="round" id="path4042"/>
    <path d="M155.566,331.286 C158.119,329.359 159.428,330.332 162.24,330.332 C163.988,330.332 165.736,330.332 167.484,330.332 C167.802,330.332 168.438,330.014 168.438,330.332 C168.438,332.815 164.533,341.449 163.194,343.681 C163.02,343.971 159.857,351.703 159.857,349.878 C159.857,349.653 160.333,349.626 160.333,349.401" fill-opacity="0" stroke="#000000" stroke-width="1.7" stroke-linecap="round" stroke-linejoin="round" id="path4044"/>
    <path d="M159.38,340.82 C162.459,339.697 165.772,340.792 168.915,340.344 C170.174,340.164 171.381,339.53 172.728,339.867 C173.073,339.953 173.326,340.344 173.682,340.344 C173.709,340.344 174.331,339.867 174.635,339.867" fill-opacity="0" stroke="#000000" stroke-width="1.7" stroke-linecap="round" stroke-linejoin="round" id="path4046"/>
    <path d="M196.565,335.1 C199.433,335.135 201.887,333.299 204.193,331.762 C204.313,331.682 206.099,330.591 206.099,330.809 C206.099,330.827 205.148,332.711 205.146,332.716 C204.209,335.525 203.637,338.594 202.286,341.297 C201.331,343.206 200.099,345.474 199.425,347.495 C199.125,348.396 197.995,353.483 197.995,352.739" fill-opacity="0" stroke="#000000" stroke-width="1.7" stroke-linecap="round" stroke-linejoin="round" id="path4048"/>
    <path d="M224.692,335.576 C215.098,335.373 223.262,340.761 223.262,345.111 C223.262,349.759 214.925,351.797 213.727,349.401 C213.344,348.635 216.915,346.691 217.541,346.064 C218.85,344.756 228.677,340.038 227.552,338.913 C226.756,338.117 225.999,337.21 224.692,335.576 z" fill-opacity="0" stroke="#000000" stroke-width="1.7" stroke-linecap="round" stroke-linejoin="round" id="path4050"/>
    <path d="M245.668,343.681 C246.304,343.204 246.864,342.606 247.575,342.251 C250.007,341.035 252.814,340.108 255.203,338.913 C255.691,338.669 257.458,337.355 257.586,337.483 C257.745,337.642 257.268,337.801 257.109,337.96 C256.885,338.185 257.21,338.612 257.109,338.913 C255.503,343.733 253.451,348.459 251.865,353.215 C251.681,353.769 248.288,358.699 249.482,357.506" fill-opacity="0" stroke="#000000" stroke-width="1.7" stroke-linecap="round" stroke-linejoin="round" id="path4052"/>
    <path d="M288.097,341.774 C286.413,340.986 285.105,339.867 283.33,339.867 C282.36,339.867 280.964,339.673 279.992,339.867 C279.383,339.989 271.103,342.896 272.365,344.157 C275.089,346.882 282.319,342.279 284.283,341.297 C284.917,340.98 285.922,341.833 285.713,342.251 C285.21,343.257 284.36,344.004 283.806,345.111 C282.044,348.636 279.073,351.146 276.655,354.169 C275.742,355.31 274.453,356.19 273.795,357.506 C273.695,357.707 273.318,358.207 273.318,357.983 C273.318,357.627 274.02,357.757 274.272,357.506" fill-opacity="0" stroke="#000000" stroke-width="1.7" stroke-linecap="round" stroke-linejoin="round" id="path4054"/>
    <path d="M307.166,345.588 C306.574,344.49 316.219,340.359 315.271,343.204 C313.989,347.048 302.762,354.872 300.015,360.366 C298.445,363.506 307.034,360.995 307.643,360.843 C308.92,360.524 311.317,361.459 311.933,360.843" fill-opacity="0" stroke="#000000" stroke-width="1.7" stroke-linecap="round" stroke-linejoin="round" id="path4056"/>
    <path d="M325.759,344.634 C323.402,342.288 321.348,344.159 319.561,346.541 C318.713,347.672 317.91,349.133 317.177,350.355 C310.617,361.288 325.078,360.864 330.526,351.785 C331.062,350.892 331.853,349.568 331.479,348.448 C331.242,347.735 326.082,344.893 325.759,344.634 z" fill-opacity="0" stroke="#000000" stroke-width="1.7" stroke-linecap="round" stroke-linejoin="round" id="path4058"/>
    <path d="M353.409,347.971 C368.348,342.36 349.751,356.657 351.025,357.506 C354.271,359.669 355.989,357.889 359.13,358.936 C360.236,359.305 361.303,360.366 362.467,360.366" fill-opacity="0" stroke="#000000" stroke-width="1.7" stroke-linecap="round" stroke-linejoin="round" id="path4060"/>
    <path d="M379.152,347.495 C377.924,349.125 372.001,362.904 372.001,363.227" fill-opacity="0" stroke="#000000" stroke-width="1.7" stroke-linecap="round" stroke-linejoin="round" id="path4062"/>
    <path d="M33.047,384.203 C34.161,384.162 34.873,383.031 35.907,382.773 C37.9,382.274 39.48,381.819 41.628,381.819 C48.427,381.819 33.004,396.901 39.244,398.981 C42.556,400.085 46.988,398.505 50.209,398.505" fill-opacity="0" stroke="#000000" stroke-width="1.7" stroke-linecap="round" stroke-linejoin="round" id="path4064"/>
    <path d="M51.639,386.11 C52.275,385.474 52.855,384.778 53.546,384.203 C54.904,383.071 56.642,382.773 58.313,382.773 C63.424,382.773 56.76,391.585 57.836,393.737 C59.229,396.522 68.293,394.707 70.231,393.737" fill-opacity="0" stroke="#000000" stroke-width="1.7" stroke-linecap="round" stroke-linejoin="round" id="path4066"/>
    <path d="M80.72,381.819 C78.582,382.461 77.374,380.29 78.813,380.866 C79.472,381.13 80.012,381.886 80.72,381.819 C82.884,381.613 89.139,377.36 90.254,381.819 C91,384.804 81.774,396.292 89.777,394.691 C90.873,394.472 92.544,393.737 93.591,393.737 C94.559,393.737 95.547,394.691 96.452,394.691" fill-opacity="0" stroke="#000000" stroke-width="1.7" stroke-linecap="round" stroke-linejoin="round" id="path4068"/>
    <path d="M102.649,378.482 C103.102,376.511 114.091,374.421 114.091,377.529 C114.091,379.311 111.23,380.872 111.23,382.296 C111.23,382.906 116.853,384.335 119.811,386.11 C120.42,386.475 119.016,389.659 118.858,389.923 C117.922,391.483 111.137,396.47 109.323,397.074 C108.102,397.482 106.905,397.551 105.509,397.551" fill-opacity="0" stroke="#000000" stroke-width="1.7" stroke-linecap="round" stroke-linejoin="round" id="path4070"/>
    <path d="M138.404,384.203 C135.182,383.834 135.866,384.964 138.404,384.203 C138.84,384.072 147.084,379.995 146.031,384.203 C144.665,389.668 139.024,393.498 137.927,398.981 C137.018,403.528 147.209,403.525 148.892,401.842" fill-opacity="0" stroke="#000000" stroke-width="1.7" stroke-linecap="round" stroke-linejoin="round" id="path4072"/>
    <path d="M159.857,380.389 C155.438,389.016 162.829,388.942 168.438,387.54 C169.522,387.269 170.75,386.145 171.775,385.633" fill-opacity="0" stroke="#000000" stroke-width="1.7" stroke-linecap="round" stroke-linejoin="round" id="path4074"/>
    <path d="M174.635,378.959 C171.417,384.483 168.438,396.423 168.438,402.795" fill-opacity="0" stroke="#000000" stroke-width="1.7" stroke-linecap="round" stroke-linejoin="round" id="path4076"/>
    <path d="M191.321,380.389 C192.886,379.096 197.896,376.476 199.902,378.482 C201.276,379.856 197.478,382.638 197.042,383.249 C195.704,385.122 190.795,391.305 193.228,393.737 C194.498,395.008 197.342,394.841 198.948,395.644 C199.58,395.96 201.573,396.598 202.286,396.598 C202.51,396.598 202.538,396.121 202.762,396.121" fill-opacity="0" stroke="#000000" stroke-width="1.7" stroke-linecap="round" stroke-linejoin="round" id="path4078"/>
    <path d="M213.727,379.435 C213.818,379.476 209.662,383.16 210.39,383.726 C212.149,385.094 216.856,386.706 217.541,389.447 C217.985,391.222 217.058,391.997 216.111,393.261 C215.684,393.829 215.66,394.665 215.157,395.168 C211.86,398.465 208.64,395.801 206.099,393.261" fill-opacity="0" stroke="#000000" stroke-width="1.7" stroke-linecap="round" stroke-linejoin="round" id="path4080"/>
    <path d="M211.343,379.912 C217.346,378.822 222.949,383.726 228.506,383.726" fill-opacity="0" stroke="#000000" stroke-width="1.7" stroke-linecap="round" stroke-linejoin="round" id="path4082"/>
    <path d="M237.564,386.586 C240.296,386.04 239.222,386.472 240.901,385.633 C242.094,385.036 249.959,382.329 249.959,383.726 C249.959,384.297 246.113,388.824 245.668,389.447 C244.812,390.645 238.908,400.065 241.377,400.888 C242.412,401.233 248.649,400.153 249.959,399.935 C252.038,399.588 256.071,400.497 257.586,398.981" fill-opacity="0" stroke="#000000" stroke-width="1.7" stroke-linecap="round" stroke-linejoin="round" id="path4084"/>
    <path d="M275.225,383.249 C271.074,385.233 263.226,394.133 267.598,398.505 C269.756,400.663 278.115,396.685 277.132,393.737 C276.658,392.315 272.365,392.088 272.365,393.737" fill-opacity="0" stroke="#000000" stroke-width="1.7" stroke-linecap="round" stroke-linejoin="round" id="path4086"/>
    <path d="M300.015,384.679 C300.153,383.02 307.679,381.746 306.213,384.679 C305.052,387.001 295.472,393.961 298.585,397.074 C300.172,398.661 304.016,397.551 306.213,397.551" fill-opacity="0" stroke="#000000" stroke-width="1.7" stroke-linecap="round" stroke-linejoin="round" id="path4088"/>
    <path d="M313.364,385.633 C314.306,384.585 322.049,381.923 323.375,383.249 C323.409,383.284 321.826,385.632 321.468,387.063 C320.567,390.668 319.644,394.4 318.608,398.028 C318.45,398.578 317.418,402.795 316.701,402.795 C316.45,402.795 316.154,401.295 315.747,400.888" fill-opacity="0" stroke="#000000" stroke-width="1.7" stroke-linecap="round" stroke-linejoin="round" id="path4090"/>
    <path d="M314.794,392.784 C318.041,390.098 329.827,391.576 331.956,389.447" fill-opacity="0" stroke="#000000" stroke-width="1.7" stroke-linecap="round" stroke-linejoin="round" id="path4092"/>
    <path d="M346.258,388.97 C348.067,388.202 349.147,387.54 351.025,387.54 C352.17,387.54 353.853,387.523 354.839,388.017 C356.412,388.803 348.27,398.342 349.118,400.888 C349.498,402.027 361.573,403.272 363.42,403.272" fill-opacity="0" stroke="#000000" stroke-width="1.7" stroke-linecap="round" stroke-linejoin="round" id="path4094"/>
    <path d="M387.733,388.493 C385.784,386.991 385.132,387.93 383.443,388.493 C382.873,388.683 382.105,388.303 381.536,388.493 C377.635,389.794 387.547,397.448 385.35,401.842 C383.883,404.776 370.181,410.64 372.001,405.179 C372.221,404.519 372.247,403.964 372.478,403.272 C373.519,400.148 387.509,392.541 391.071,391.354 C391.843,391.096 394.884,390.156 394.884,388.97 C394.884,387.797 392.295,388.834 392.024,388.97" fill-opacity="0" stroke="#000000" stroke-width="1.7" stroke-linecap="round" stroke-linejoin="round" id="path4096"/>
    <path d="M396.791,252.149 C396.695,250.226 398.377,248.772 398.698,247.056 C400.309,238.45 398.351,229.119 399.175,220.321 C400.253,208.804 399.652,197.549 399.652,185.947 C399.652,180.078 400.243,174.568 400.605,168.759 C401.532,153.91 400.178,138.948 401.559,124.2 C402.135,118.04 401.081,105.106 402.035,100.011 C405.324,82.445 404.889,61.79 400.605,44.631 C400.243,43.18 398.866,41.466 398.221,40.175 C396.98,37.689 396.511,35.045 394.408,33.173 C386.204,25.87 374.446,30.793 365.327,31.899 C353.923,33.284 342.454,35.263 331.003,36.355 C314.849,37.896 298.52,38.014 282.376,36.355 C276.179,35.719 269.925,36.992 263.784,36.992 C260.926,36.992 258.132,36 255.203,36.355 C246.671,37.391 238.013,36.113 229.459,36.992 C228.495,37.091 227.565,37.629 226.599,37.629 C220.33,37.629 213.785,36.355 207.53,36.355 C206.563,36.355 205.636,36.992 204.669,36.992 C203.859,36.992 203.092,36.463 202.286,36.355 C194.939,35.374 183.419,35.997 176.542,35.719 C171.149,35.501 165.638,35.47 160.333,36.355 C152.502,37.662 140.928,36.355 132.683,36.355 C127.011,36.355 120.656,37.426 115.044,36.355 C112.828,35.933 110.658,35.337 108.37,35.719 C104.474,36.369 94.789,36.622 90.731,35.719 C86.202,34.711 81.356,35.634 76.906,34.446 C74.938,33.92 72.653,35.095 70.708,34.446 C65.275,32.632 36.633,33.025 32.618,35.706 C30.057,37.415 27.215,38.995 24.513,40.799 C23.945,41.178 22.56,41.497 22.13,42.072 C17.437,48.338 18.166,57.384 20.223,65.624 C20.711,67.581 20.23,70.109 20.699,71.99 C21.528,75.307 20.699,84.075 20.699,87.904 C20.699,91.368 21.176,94.523 21.176,98.089 C21.176,105.999 20.501,114.587 21.653,122.278 C21.959,124.318 21.347,126.603 21.653,128.644 C22.702,135.645 22.723,143.27 24.037,150.286 C24.888,154.831 23.869,159.8 24.99,164.291 C25.658,166.965 24.798,170.525 25.467,173.203 C26.661,177.985 28.208,200.257 26.42,205.031 C25.543,207.373 26.182,235.575 25.944,235.894" fill-opacity="0" stroke="#000000" stroke-width="2.5" id="path4614"/>
    <path d="M287.62,283.136 C286.349,282.5 283.171,282.5 283.806,281.229 C284.442,279.958 288.625,284.141 287.62,283.136 C283.645,279.16 274.333,276.462 268.551,276.462 C263.654,276.462 259.287,278.234 255.203,280.276 C253.221,281.266 250.544,281.175 248.528,282.183 C247.207,282.843 246.198,284.513 245.668,285.043 C239.075,291.636 238.04,292.317 238.04,303.159 C238.04,304.539 237.436,307.671 238.04,308.879 C240.387,313.572 242.353,318.459 244.715,323.181 C246.643,327.039 259.92,333.645 263.784,335.576 C264.546,335.958 265.881,335.195 266.644,335.576 C275.251,339.88 292.441,334.569 297.155,329.856 C297.604,329.406 298.612,330.305 299.062,329.856 C299.614,329.303 300.416,326.594 300.969,326.042 C303.207,323.804 305.626,321.385 307.643,319.367 C307.895,319.115 307.643,316.9 307.643,316.507 C307.643,304.171 297.048,290.678 287.62,283.136 z" fill-opacity="0" stroke="#D23131" stroke-width="5" id="path4631"/>
    <path d="M24.641,164.182 C25.053,158.346 31.758,155.157 35.129,151.787 C38.65,148.266 41.878,142.617 44.663,138.438 C48.063,133.339 52.502,128.482 55.151,123.183 C55.469,122.547 56.741,122.865 57.058,122.23 C60.608,115.13 65.481,108.086 70.407,103.16 C71.167,102.4 75.889,90.527 77.081,91.719 C79.641,94.279 75.425,104.164 76.128,106.974 C77.417,112.13 78.886,117.908 79.941,123.183 C80.253,124.741 79.556,126.409 79.941,127.95 C81.423,133.875 85.459,140.96 88.523,146.066 C89.327,147.407 91.848,148.414 92.336,149.88 C93.815,154.317 95.619,158.775 97.104,163.228 C97.506,164.434 96.702,165.836 97.104,167.042 C99.939,175.547 104.75,180.409 109.499,185.158 C109.852,185.511 112.723,185.817 113.313,186.111 C115.658,187.284 118.178,191.306 120.94,189.925 C134.756,183.017 143.968,162.13 155.265,150.833 C157.734,148.364 158.474,143.81 160.985,141.299 C164.216,138.068 179.8,125.493 183.868,124.136 C187.236,123.014 192.308,121.824 195.31,120.323 C197.104,119.426 202.195,119.159 202.938,118.416 C203.918,117.435 209.945,110.168 212.472,112.695 C212.949,113.172 212.949,114.125 213.426,114.602 C213.875,115.051 214.883,114.152 215.333,114.602 C216.647,115.916 217.339,119.567 218.193,121.276 C219.102,123.094 227.439,128.172 229.635,128.904 C233.02,130.032 239.507,133.671 242.983,133.671 C243.007,133.671 251.564,131.691 251.564,132.718 C251.564,134.396 249.594,137.103 248.704,138.438 C247.731,139.897 247.75,147.549 247.75,149.88 C247.75,152.084 249.703,152.832 250.611,154.647 C251.403,156.233 252.207,159.104 253.471,160.368 C257.192,164.089 253.983,160.147 256.331,161.321 C258.638,162.475 260.812,165.58 263.006,167.042 C266.247,169.203 263.517,167.17 266.819,167.996 C269.46,168.656 271.654,171.111 274.447,171.809 C281.3,173.523 287.627,176.162 294.47,177.53 C295.864,177.809 296.905,179.092 298.284,179.437 C307.943,181.852 315.85,186.882 324.98,189.925 C329.478,191.424 334.906,192.504 339.282,194.692 C340.086,195.094 340.336,196.315 341.189,196.599 C344.579,197.729 348.394,198.772 351.677,200.413 C353.594,201.372 357.261,200.345 359.305,201.367 C365.887,204.658 372.943,202.942 380.281,206.611 C381.889,207.414 397.253,217.386 398.397,218.529" fill-opacity="0" stroke="#000000" stroke-width="0.5" id="path4633"/>
    <path d="M80.895,125.09 C82.166,124.772 84.391,122.865 84.709,124.136 C85.027,125.408 80.309,126.262 80.895,125.09 C81.14,124.6 87.32,120.22 88.523,118.416 C90.445,115.532 92.895,114.044 95.197,111.742 C98.311,108.627 100.73,104.302 103.778,101.253 C107.184,97.848 108.69,91.025 111.406,86.952 C112.384,85.485 114.242,84.605 115.219,83.138 C115.777,82.301 115.462,80.988 116.173,80.277 C119.005,77.445 126.729,68.802 130.475,66.929 C133.958,65.187 140.17,62.955 142.87,60.255 C145.737,57.387 155.284,51.683 160.985,54.534 C166.951,57.516 172.621,60.82 168.613,68.836 C167.91,70.242 168.694,74.475 167.66,75.51 C167.183,75.986 165.197,84.489 166.706,85.998 C168.322,87.614 168.857,90.055 170.52,91.719 C172.66,93.858 175.644,95.292 177.194,98.393 C177.833,99.67 179.469,99.714 180.055,100.3 C180.504,100.749 179.605,101.757 180.055,102.207 C182.438,104.591 183.392,108.404 185.775,110.788 C186.672,111.685 187.682,119.513 187.682,118.416 C187.682,117.78 187.682,115.873 187.682,116.509 C187.682,118.142 189.406,121.276 187.682,121.276" fill-opacity="0" stroke="#000000" stroke-width="0.5" id="path4635"/>
    <path d="M247.75,151.787 C252.911,147.728 255.86,142.483 259.192,137.485 C262.835,132.02 266.961,126.784 270.633,121.276 C279.686,107.697 281.901,89.032 292.563,78.37 C295.353,75.58 297.502,70.571 300.191,67.882 C300.64,67.433 299.555,65.975 300.191,65.975 C300.566,65.975 307.818,81.881 307.818,83.138 C307.818,88.543 321.34,120.496 324.98,124.136 C329.33,128.486 333.98,133.136 338.329,137.485 C339.074,138.23 339.988,136.656 340.236,136.531 C341.915,135.692 344.35,136.381 345.957,135.578 C348.648,134.232 351.878,133.094 354.538,131.764 C362.921,127.573 365.905,140.382 373.607,136.531 C379.304,133.683 387.483,130.283 391.723,126.043 C392.891,124.875 396.991,125.543 398.397,124.136 C399.033,123.501 399.668,121.594 400.304,122.23 C401.647,123.572 396.882,121.276 396.49,121.276" fill-opacity="0" stroke="#000000" stroke-width="0.5" id="path4637"/>
    <path d="M320.213,117.462 C321.484,116.509 322.903,115.726 324.027,114.602 C325.262,113.367 326.265,109.932 327.841,108.881 C330.552,107.074 332.349,105.327 334.515,103.16 C336.385,101.29 339.982,100.014 342.143,98.393 C347.953,94.035 354.389,89.007 359.305,84.091 C364.112,79.284 372.179,75.985 376.467,71.696 C377.092,71.071 379.803,71.22 380.281,70.743 C384.051,66.973 397.984,62.575 399.35,61.208" fill-opacity="0" stroke="#000000" stroke-width="0.5" id="path4639"/>
    <path d="M116.173,81.231 C120.603,77.613 122.517,80.277 126.661,80.277 C129.012,80.277 130.569,82.231 132.382,83.138 C135.169,84.531 139.129,83.651 141.916,85.045 C142.72,85.447 143.019,86.55 143.823,86.952 C146.404,88.242 149.439,87.376 152.404,88.858 C153.544,89.428 157.438,90.078 158.125,90.765 C158.35,90.99 157.807,91.719 158.125,91.719 C160.771,91.719 170.52,88.229 170.52,92.672" fill-opacity="0" stroke="#000000" stroke-width="0.5" id="path4641"/>
    <path d="M60.872,117.462 C60.87,117.514 81.848,117.42 81.848,117.462 C81.848,118.173 80.652,118.416 79.941,118.416" fill-opacity="0" stroke="#000000" stroke-width="0.5" id="path4643"/>
    <path d="M276.354,107.928 C280.624,102.706 296.447,109.323 299.237,107.928 C303.477,105.808 307.983,106.809 310.679,104.114 C311.403,103.389 316.266,105.067 315.446,105.067 C314.81,105.067 314.175,105.067 313.539,105.067" fill-opacity="0" stroke="#000000" stroke-width="0.5" id="path4645"/>
    <path d="M342.143,99.347 C347.295,96.014 353.575,91.719 360.258,91.719 C362.202,91.719 362.339,93.713 364.072,94.579 C365.725,95.405 382.38,95.341 383.142,94.579 C384.06,93.661 383.708,93.342 385.048,92.672 C386.774,91.809 388.969,90.659 389.816,89.812 C390.45,89.177 396.898,89.404 399.35,86.952 C399.538,86.764 404.972,86.952 402.211,86.952" fill-opacity="0" stroke="#000000" stroke-width="0.5" id="path4647"/>
    <path d="M116.039,187.231 C114.706,186.182 113.147,185.324 112.576,185.324 C108.918,185.324 98.178,171.003 98.188,166.138 C98.196,162.234 93.197,149.718 90.265,146.304 C87.117,142.637 81.021,130.504 81.021,127.905 C81.021,126.845 81.736,126.209 82.928,126.209 C83.977,126.209 84.835,125.78 84.835,125.256 C84.835,124.731 84.862,123.98 84.896,123.587 C84.929,123.194 88.487,119.225 92.802,114.768 C103.015,104.218 106.142,100.096 109.528,92.717 C113.378,84.326 117.282,80.443 121.867,80.443 C123.827,80.443 127.048,81.268 129.025,82.276 C131.002,83.284 134.418,84.403 136.616,84.763 C138.814,85.123 141.256,85.952 142.043,86.605 C142.829,87.257 146.202,88.352 149.537,89.037 C152.872,89.722 156.069,90.784 156.642,91.397 C157.344,92.149 158.939,92.268 161.543,91.763 C163.666,91.351 166.133,90.996 167.027,90.973 C168.673,90.931 179.228,100.208 179.228,101.696 C179.228,102.142 180.535,104.406 182.133,106.729 C185.032,110.942 188.113,119.225 187.282,120.57 C187.041,120.96 187.382,121.496 188.041,121.762 C188.7,122.027 188.381,122.284 187.332,122.332 C181.736,122.586 161.137,138.652 157.69,145.449 C156.445,147.903 154.946,150.208 154.357,150.572 C153.768,150.936 148.452,157.724 142.542,165.657 C132.198,179.543 128.054,184.188 123,187.563 C119.96,189.593 118.983,189.546 116.039,187.231 z" fill="#B3B3B3" id="path4655" opacity="0.938"/>
    <path d="M395.373,248.162 C394.258,247.081 389.053,245.146 383.764,243.846 C377.72,242.361 370.601,241.362 363.198,240.96 C355.958,240.567 324.528,237.158 316.955,235.943 C308.488,234.586 294.661,233.5 281.195,233.135 C274.637,232.958 268.98,232.632 268.624,232.412 C268.268,232.192 252.288,231.832 233.113,231.611 C213.938,231.391 194.709,230.984 190.383,230.707 C186.057,230.429 174.794,229.998 165.355,229.748 C155.916,229.498 143.044,229.049 136.751,228.75 C127.943,228.332 120.811,228.345 105.764,228.809 C95.013,229.14 82.785,229.268 78.59,229.094 C71.475,228.797 66.179,228.978 44.272,230.264 C36.475,230.722 30.365,231.529 28.176,232.389 C27.395,232.696 27.342,231.961 27.345,220.867 C27.348,213.009 27.593,207.17 28.074,203.535 C28.673,199.004 28.714,196.417 28.312,188.63 C28.044,183.448 27.609,177.763 27.344,175.997 C27.08,174.231 26.779,170.748 26.675,168.257 C26.572,165.766 26.331,163.128 26.142,162.395 C25.773,160.97 25.969,160.746 35.01,152.286 C36.739,150.668 39.5,147.248 41.361,144.42 C43.172,141.667 46.512,136.84 48.784,133.694 C51.056,130.547 53.528,126.924 54.276,125.642 C55.025,124.36 56.039,123.206 56.531,123.077 C57.022,122.949 58.033,121.638 58.776,120.164 L60.128,117.485 L69.205,117.624 L78.281,117.763 L78.793,120.15 C79.075,121.463 79.305,123.691 79.305,125.102 C79.305,126.692 79.808,129.082 80.629,131.395 C82.521,136.723 87.209,145.207 89.803,147.996 C91.691,150.026 92.359,151.332 94.312,156.815 C95.679,160.65 96.579,163.97 96.54,165.031 C96.395,168.987 100.381,176.177 106.161,182.385 C108.638,185.046 109.717,185.86 111.112,186.122 C112.093,186.306 114.155,187.403 115.694,188.56 C117.246,189.727 119.017,190.663 119.672,190.663 C121.492,190.663 126.852,186.889 130.58,182.984 C134.753,178.611 137.763,174.796 144.312,165.577 C147.129,161.612 151.165,156.356 153.281,153.897 C155.397,151.438 157.674,148.246 158.341,146.804 C159.009,145.362 160.099,143.461 160.764,142.58 C162.701,140.013 176.62,128.908 181.344,126.16 C183.755,124.758 196.679,120.335 200.463,119.617 C202.51,119.229 203.41,118.673 206.106,116.129 C210.296,112.177 211.463,111.853 212.747,114.29 C213.141,115.038 213.599,115.298 214.188,115.111 C215.101,114.822 215.9,116.108 217.05,119.718 C218.091,122.985 223.841,127.013 232.879,130.809 C240.661,134.077 241.271,134.199 246.231,133.497 C248.591,133.163 250.627,132.996 250.756,133.125 C250.886,133.254 250.225,134.83 249.289,136.626 C247.64,139.789 247.583,140.072 247.469,145.689 C247.36,151.114 247.421,151.561 248.415,152.622 C249,153.246 250.209,155.25 251.102,157.074 C252.933,160.814 255.027,163.14 255.652,162.128 C255.934,161.672 256.781,162.189 258.845,164.079 C262.546,167.468 263.758,168.257 265.265,168.257 C265.954,168.257 267.569,168.826 268.853,169.522 C270.138,170.218 271.725,171.065 272.381,171.404 C273.633,172.052 289.536,176.933 292.403,177.549 C293.321,177.746 294.823,178.286 295.74,178.749 C296.658,179.212 299.372,180.247 301.771,181.049 C304.17,181.852 308.997,183.772 312.497,185.317 C320.023,188.638 323.355,189.886 331.95,192.602 C336.138,193.925 338.76,195.025 339.506,195.77 C341.142,197.406 350.53,200.705 354.855,201.163 C356.821,201.372 359.251,201.893 360.255,202.322 C361.259,202.751 365.12,203.61 368.836,204.231 C372.552,204.852 376.772,205.816 378.215,206.372 C379.657,206.929 384.591,209.897 389.179,212.968 L397.522,218.552 L397.666,230.47 C397.816,242.998 397.599,246.78 396.657,248.069 C396.157,248.752 395.995,248.764 395.373,248.162 L395.373,248.162 z" fill="#008000" id="path4663" opacity="0.938"/>
    <path d="M394.423,215.132 C388.108,210.833 380.299,206.058 378.31,205.28 C377.183,204.838 373.536,204.046 370.206,203.52 C366.876,202.993 362.949,202.138 361.48,201.619 C360.011,201.099 357.437,200.549 355.759,200.396 C354.029,200.238 350.503,199.31 347.606,198.251 C344.8,197.224 342.312,196.384 342.079,196.384 C341.845,196.384 341.259,195.947 340.776,195.413 C339.601,194.115 336.7,192.877 330.599,191.068 C324.208,189.174 321.649,188.203 312.113,184.055 C307.877,182.212 303.157,180.343 301.625,179.902 C300.093,179.461 297.874,178.623 296.694,178.04 C295.514,177.457 293.476,176.721 292.165,176.404 C285.701,174.842 273.329,170.879 271.427,169.761 C268.348,167.95 266.728,167.303 265.273,167.303 C264.365,167.303 262.92,166.344 260.29,163.995 C258.047,161.992 256.08,160.628 255.306,160.538 C254.247,160.416 253.698,159.761 252.12,156.736 C251.071,154.726 249.915,152.738 249.552,152.318 C248.972,151.649 249.209,151.221 251.492,148.822 C252.922,147.319 255.603,143.836 257.448,141.083 C259.293,138.33 263.314,132.538 266.383,128.211 C270.158,122.892 273.045,118.162 275.302,113.601 L278.64,106.858 L280.754,106.54 C283.098,106.189 284.952,106.387 292.603,107.803 C297.523,108.714 297.956,108.725 300.47,107.993 C301.933,107.568 304.484,106.917 306.139,106.548 C307.794,106.178 309.667,105.536 310.301,105.12 C311.267,104.488 311.749,104.457 313.267,104.93 C315.174,105.525 315.398,105.904 319.295,115.101 C321.645,120.649 323.596,123.261 330.955,130.714 C335.033,134.844 338.575,138.223 338.827,138.223 C339.08,138.223 339.649,137.894 340.092,137.493 C340.536,137.092 342.038,136.628 343.431,136.463 C344.88,136.292 348.17,135.176 351.118,133.856 C353.953,132.587 356.972,131.552 357.828,131.556 C359.429,131.564 360.939,132.338 365.62,135.547 C370.059,138.59 370.987,138.499 379.525,134.184 C383.511,132.17 388.198,129.483 389.941,128.212 C392.328,126.471 393.703,125.82 395.509,125.571 C397.109,125.351 398.25,124.872 398.935,124.133 L399.963,123.024 L399.797,139.324 C399.705,148.288 399.403,160.021 399.124,165.396 C398.846,170.771 398.511,184.394 398.38,195.669 C398.249,206.943 398.003,216.41 397.832,216.705 C397.631,217.054 396.438,216.503 394.423,215.132 z" fill="#008000" id="path4665" opacity="0.938"/>
    <path d="M331.45,129.758 C326.864,125.085 323.59,121.32 322.773,119.783 L321.46,117.313 L323.064,116.09 C323.946,115.417 325.253,113.791 325.969,112.475 C326.796,110.955 328.431,109.154 330.456,107.532 C332.207,106.128 334.067,104.503 334.588,103.919 C335.74,102.629 340.991,99.47 341.983,99.47 C342.376,99.47 344.679,98.311 347.099,96.894 C354.431,92.603 360.276,91.178 361.944,93.275 C363.162,94.806 364.308,95.166 369.07,95.511 C375.387,95.969 382.863,95.393 383.864,94.372 C385.694,92.506 390.471,90.137 393.47,89.607 C395.174,89.306 397.38,88.644 398.371,88.136 C399.362,87.628 400.596,87.213 401.112,87.213 C402.311,87.213 402.347,89.035 401.272,95.317 C400.809,98.025 400.378,104.256 400.202,110.811 C400.012,117.832 399.731,121.746 399.42,121.693 C399.153,121.648 398.349,121.464 397.632,121.284 C395.952,120.862 395.932,121.69 397.608,122.279 C398.816,122.705 398.841,122.773 398.064,123.55 C397.612,124.001 396.17,124.513 394.858,124.687 C393.031,124.929 391.724,125.557 389.277,127.366 C387.519,128.665 382.838,131.347 378.874,133.326 C370.464,137.523 369.989,137.553 365.425,134.194 C359.371,129.737 358.093,129.624 350.736,132.902 C347.884,134.172 344.382,135.364 342.939,135.556 C341.498,135.747 339.981,136.209 339.567,136.583 C338.9,137.187 337.988,136.42 331.45,129.758 L331.45,129.758 z" fill="#666666" id="path4667" opacity="0.938"/>
    <path d="M390.644,212.341 C380.53,205.831 378.267,204.779 371.748,203.565 C368.619,202.982 364.02,202.005 361.529,201.394 C359.038,200.782 356.037,200.128 354.859,199.94 C351.525,199.408 342.73,196.495 341.459,195.502 C339.478,193.955 336.712,192.771 329.588,190.425 C325.786,189.173 319.565,186.86 315.763,185.285 C303.339,180.139 294.415,176.888 284.655,173.953 C279.376,172.365 273.221,170.237 270.978,169.222 C268.734,168.208 266.328,167.254 265.631,167.104 C264.935,166.954 262.646,165.489 260.545,163.849 C258.445,162.209 256.105,160.525 255.345,160.106 C254.508,159.644 253.067,157.815 251.687,155.461 L249.411,151.578 L252.006,148.595 C257.514,142.265 270.999,122.214 275.494,113.671 C277.288,110.263 278.984,107.316 279.263,107.123 C280.172,106.495 284.411,106.733 291.124,107.789 C297.574,108.803 297.787,108.807 301.374,107.978 C303.388,107.513 306.712,106.586 308.759,105.919 L312.481,104.707 L313.765,105.652 C315.167,106.686 315.493,107.26 319.244,115.34 C320.814,118.72 322.727,121.945 324.235,123.752 C327.673,127.872 334.623,135.116 336.766,136.814 L338.569,138.242 L341.825,137.238 C343.616,136.687 347.725,135.288 350.956,134.13 C354.187,132.972 357.405,132.027 358.107,132.028 C358.818,132.03 361.482,133.296 364.123,134.889 C367.862,137.143 369.27,137.745 370.797,137.739 C373.125,137.731 379.694,134.672 387.749,129.846 C390.764,128.039 394.364,126.203 395.747,125.765 C397.131,125.328 398.579,124.707 398.965,124.387 C399.578,123.878 399.667,124.733 399.664,131.133 C399.662,135.163 399.456,145.862 399.207,154.908 C398.958,163.954 398.639,176.075 398.499,181.844 C397.773,211.782 397.612,216.406 397.3,216.406 C397.113,216.406 394.118,214.577 390.644,212.341 z" fill="#666666" id="path4669" opacity="0.938"/>
    <path d="M25.121,148.208 C24.627,142.527 23.679,120.586 23.015,99.45 C22.352,78.314 21.418,59.47 20.941,57.576 C19.347,51.25 22.017,45.148 28.199,40.992 C36.34,35.517 49.4,34.102 72.136,36.23 C88.879,37.797 113.67,38.097 264.062,38.556 C325.908,38.745 328.586,38.645 353.056,35.247 C390.083,30.105 390.787,30.181 395.635,39.806 C400.067,48.604 401.882,58.264 401.882,73.045 L401.882,85.61 L393.931,87.841 C389.559,89.068 385.237,90.969 384.328,92.064 C382.402,94.384 364.824,94.926 363.453,92.708 C362.994,91.966 360.38,91.335 357.642,91.305 L352.666,91.25 L357.385,87.142 C365.05,80.472 376.138,73.466 388.843,67.269 C395.391,64.074 400.392,61.103 399.955,60.667 C398.553,59.265 371.838,73.523 362.779,80.508 C342.817,95.901 336.235,100.957 331.564,104.491 C328.858,106.539 325.554,110.027 324.221,112.241 L321.797,116.269 L317.44,106.848 C315.044,101.666 311.743,93.18 310.105,87.988 C308.466,82.797 305.67,75.239 303.89,71.192 L300.654,63.834 L298.618,67.758 C297.499,69.916 294.449,74.286 291.841,77.468 C289.233,80.651 284.969,87.961 282.365,93.712 C279.761,99.463 276.103,107.489 274.235,111.546 C270.899,118.795 252.012,147.122 249.465,148.696 C247.612,149.841 247.96,145.52 250.226,139.227 C252.94,131.695 252.829,131.439 247.154,132.143 C239.127,133.139 218.5,123.587 218.5,118.875 C218.5,116.509 213.142,111.585 210.567,111.585 C209.449,111.585 206.985,113 205.09,114.73 C202.316,117.262 193.202,121.024 189.841,121.024 C189.453,121.024 188.723,118.824 188.219,116.135 C187.107,110.21 182.309,102.542 173.702,92.936 C166.628,85.042 166.378,83.814 169.307,71.388 C171.524,61.987 170.876,59.445 165.341,55.818 C160.472,52.628 152.684,53.084 146.361,56.929 C143.395,58.734 138.005,61.809 134.384,63.763 C127.011,67.741 114.674,78.697 114.674,81.266 C114.674,82.186 113.714,83.735 112.541,84.709 C111.368,85.682 108.697,89.852 106.606,93.975 C101.813,103.424 82.385,124.672 80.834,122.162 C80.216,121.163 80.446,119.975 81.372,119.374 C82.612,118.57 82.59,118.071 81.276,117.221 C78.44,115.386 76.95,107.635 77.825,99.262 C78.763,90.288 77.032,88.816 73.191,95.322 C68.74,102.859 66.093,106.895 61.066,113.803 C58.29,117.619 51.381,127.327 45.712,135.378 C40.043,143.428 33.293,151.932 30.712,154.275 L26.019,158.536 L25.121,148.208 z" fill="#0070FF" id="path4671" opacity="0.938"/>
  </g>
</svg>
