<?xml version="1.0" encoding="UTF-8"?>
<!DOCTYPE svg PUBLIC "-//W3C//DTD SVG 1.1//EN" "http://www.w3.org/Graphics/SVG/1.1/DTD/svg11.dtd">
<svg version="1.1" xmlns="http://www.w3.org/2000/svg" xmlns:xlink="http://www.w3.org/1999/xlink" x="0" y="0" width="297.638" height="420.945" viewBox="0, 0, 744.094, 1052.362">
  <g id="Layer_1">
    <g id="path3200">
      <path d="M147.482,195.753 C176.414,179.929 230.937,171.198 266.68,153.326 C310.497,131.418 467.319,135.21 515.178,141.205 C552.864,145.925 596.695,170.288 614.173,213.936 C614.964,215.913 615.52,217.976 616.193,219.996 C620.683,233.466 624.737,244.07 628.315,258.382 C632.372,274.609 634.275,290.304 638.416,306.87 C643.507,327.233 646.498,346.907 646.498,369.499 C646.498,389.105 648.518,409.963 648.518,430.108 C648.518,450.311 648.518,470.514 648.518,490.717 C648.518,517.97 642.814,547.164 638.416,573.55 C635.051,593.741 631.721,617.562 624.274,636.179 C619.734,647.53 617.162,658.569 614.173,670.525 C612.034,679.078 593.905,688.772 587.909,694.768 C577.376,705.3 562.306,712.29 553.564,721.032 C552.611,721.984 510.464,728.103 509.117,728.103" fill="#C8BEB7"/>
      <path d="M147.482,195.753 C176.414,179.929 230.937,171.198 266.68,153.326 C310.497,131.418 467.319,135.21 515.178,141.205 C552.864,145.925 596.695,170.288 614.173,213.936 C614.964,215.913 615.52,217.976 616.193,219.996 C620.683,233.466 624.737,244.07 628.315,258.382 C632.372,274.609 634.275,290.304 638.416,306.87 C643.507,327.233 646.498,346.907 646.498,369.499 C646.498,389.105 648.518,409.963 648.518,430.108 C648.518,450.311 648.518,470.514 648.518,490.717 C648.518,517.97 642.814,547.164 638.416,573.55 C635.051,593.741 631.721,617.562 624.274,636.179 C619.734,647.53 617.162,658.569 614.173,670.525 C612.034,679.078 593.905,688.772 587.909,694.768 C577.376,705.3 562.306,712.29 553.564,721.032 C552.611,721.984 510.464,728.103 509.117,728.103" fill-opacity="0" stroke="#000000" stroke-width="10"/>
    </g>
    <g id="path2417">
      <path d="M348.571,725.219 C335.532,725.219 324.115,723.791 311.429,723.791 C294.808,723.791 279.393,722.362 262.857,722.362 C242.837,722.362 221.839,722.217 202.857,719.505 C181.927,716.515 163.056,717.585 142.857,709.505 C127.346,703.3 114.761,697.123 102.857,685.219 C91.953,674.315 85.65,657.754 82.857,643.791 C82.381,641.41 80.476,607.6 80,605.219 C77.393,592.185 80,575.629 80,562.362 C80,555.695 80,549.029 80,542.362 C80,530.888 80.195,518.724 82.857,508.076 C85.678,496.792 82.857,481.165 82.857,469.505 C82.857,453.1 84.286,435.338 84.286,418.076 C84.286,402.208 80,385.992 80,369.505 C80,352.212 78.571,334.229 78.571,316.648 C78.571,303.227 78.099,288.544 82.857,276.648 C87.744,264.431 94.145,248.638 97.143,236.648 C101.653,218.605 140.99,199.681 155.714,193.791 C181.143,183.619 196.505,178.076 224.286,178.076 C253.39,178.076 283.351,175.219 312.857,175.219 C336.194,175.219 362.849,174.266 385.714,178.076 C406.753,181.583 430.005,179.505 451.429,179.505 C460.723,179.505 469.123,183.214 477.143,185.219 C486.049,187.446 493.715,196.362 500,199.505 C510.804,204.907 524.385,216.845 530,228.076 C535.014,238.105 540.236,248.548 545.714,259.505 C552.31,272.697 554.804,286.897 557.143,300.934 C563.661,340.04 561.429,382.23 561.429,422.362 C561.429,458.794 557.143,494.105 557.143,529.505 C557.143,543.78 554.286,557.699 554.286,572.362 C554.286,583.73 551.429,595.404 551.429,606.648 C551.429,619.38 550.947,664.77 548.571,676.648 C545.712,690.944 545.714,691.767 545.714,706.648 C545.714,714.856 530.668,725.052 524.286,726.648 C522.381,727.124 520.476,727.6 518.571,728.076 C508.462,730.604 500.818,732.362 490,732.362 C478.009,732.362 467.119,728.076 455.714,728.076 C446.536,728.076 436.771,726.648 427.143,726.648 C415.704,726.648 364.73,725.219 348.571,725.219 z" fill="#AC9D93"/>
      <path d="M348.571,725.219 C335.532,725.219 324.115,723.791 311.429,723.791 C294.808,723.791 279.393,722.362 262.857,722.362 C242.837,722.362 221.839,722.217 202.857,719.505 C181.927,716.515 163.056,717.585 142.857,709.505 C127.346,703.3 114.761,697.123 102.857,685.219 C91.953,674.315 85.65,657.754 82.857,643.791 C82.381,641.41 80.476,607.6 80,605.219 C77.393,592.185 80,575.629 80,562.362 C80,555.695 80,549.029 80,542.362 C80,530.888 80.195,518.724 82.857,508.076 C85.678,496.792 82.857,481.165 82.857,469.505 C82.857,453.1 84.286,435.338 84.286,418.076 C84.286,402.208 80,385.992 80,369.505 C80,352.212 78.571,334.229 78.571,316.648 C78.571,303.227 78.099,288.544 82.857,276.648 C87.744,264.431 94.145,248.638 97.143,236.648 C101.653,218.605 140.99,199.681 155.714,193.791 C181.143,183.619 196.505,178.076 224.286,178.076 C253.39,178.076 283.351,175.219 312.857,175.219 C336.194,175.219 362.849,174.266 385.714,178.076 C406.753,181.583 430.005,179.505 451.429,179.505 C460.723,179.505 469.123,183.214 477.143,185.219 C486.049,187.446 493.715,196.362 500,199.505 C510.804,204.907 524.385,216.845 530,228.076 C535.014,238.105 540.236,248.548 545.714,259.505 C552.31,272.697 554.804,286.897 557.143,300.934 C563.661,340.04 561.429,382.23 561.429,422.362 C561.429,458.794 557.143,494.105 557.143,529.505 C557.143,543.78 554.286,557.699 554.286,572.362 C554.286,583.73 551.429,595.404 551.429,606.648 C551.429,619.38 550.947,664.77 548.571,676.648 C545.712,690.944 545.714,691.767 545.714,706.648 C545.714,714.856 530.668,725.052 524.286,726.648 C522.381,727.124 520.476,727.6 518.571,728.076 C508.462,730.604 500.818,732.362 490,732.362 C478.009,732.362 467.119,728.076 455.714,728.076 C446.536,728.076 436.771,726.648 427.143,726.648 C415.704,726.648 364.73,725.219 348.571,725.219 z" fill-opacity="0" stroke="#000000" stroke-width="10"/>
    </g>
    <g id="path2415">
      <path d="M162.857,385.661 C167.748,364.029 162.857,337.114 162.857,314.891 C162.857,295.784 161.324,284.946 177.143,274.451 C194.456,262.964 200.59,256.758 228.571,256.758 C249.732,256.758 273.655,246.648 297.143,246.648 C332.032,246.648 364.322,253.128 397.836,255.253 C419.164,256.606 428.415,262.426 448.081,275.474 C465.032,286.72 467.081,313.351 471.429,332.583 C476.69,355.857 482.857,385.233 482.857,413.464 C482.857,431.227 488.571,449.724 488.571,469.069 C488.571,488.387 477.127,496.879 460,504.454 C434.502,515.733 407.992,515.072 380,522.147 C358.094,527.684 328.805,524.675 305.714,524.675 C281.541,524.675 254.487,526.027 234.286,517.092 C214.289,508.247 198.416,503.053 185.714,491.817 C173.013,480.581 157.496,409.374 162.857,385.661 z" fill="#00FFFF"/>
      <path d="M162.857,385.661 C167.748,364.029 162.857,337.114 162.857,314.891 C162.857,295.784 161.324,284.946 177.143,274.451 C194.456,262.964 200.59,256.758 228.571,256.758 C249.732,256.758 273.655,246.648 297.143,246.648 C332.032,246.648 364.322,253.128 397.836,255.253 C419.164,256.606 428.415,262.426 448.081,275.474 C465.032,286.72 467.081,313.351 471.429,332.583 C476.69,355.857 482.857,385.233 482.857,413.464 C482.857,431.227 488.571,449.724 488.571,469.069 C488.571,488.387 477.127,496.879 460,504.454 C434.502,515.733 407.992,515.072 380,522.147 C358.094,527.684 328.805,524.675 305.714,524.675 C281.541,524.675 254.487,526.027 234.286,517.092 C214.289,508.247 198.416,503.053 185.714,491.817 C173.013,480.581 157.496,409.374 162.857,385.661 z" fill-opacity="0" stroke="#000000" stroke-width="10"/>
    </g>
    <g id="path2419">
      <path d="M354.286,632.362 C369.523,633.278 383.534,629.505 398.571,629.505 C411.396,629.505 421.859,625.219 434.286,625.219 C441.772,625.219 450.538,623.791 458.571,623.791 C469.687,623.791 473.158,622.138 475.714,632.362 C477.643,640.078 475.758,648.033 471.429,652.362 C465.415,658.376 456.806,656.648 447.143,656.648 C439.524,656.648 431.905,656.648 424.286,656.648 C415.238,656.648 406.19,656.648 397.143,656.648 C388.571,656.648 380,656.648 371.429,656.648 C362.539,656.648 353.95,656.429 345.714,658.076 C336.555,659.908 335.714,654.164 335.714,646.648 C335.714,636.054 334.949,635.219 345.714,635.219 C348.726,635.219 351.429,633.315 354.286,632.362 z" fill="#000000"/>
      <path d="M354.286,632.362 C369.523,633.278 383.534,629.505 398.571,629.505 C411.396,629.505 421.859,625.219 434.286,625.219 C441.772,625.219 450.538,623.791 458.571,623.791 C469.687,623.791 473.158,622.138 475.714,632.362 C477.643,640.078 475.758,648.033 471.429,652.362 C465.415,658.376 456.806,656.648 447.143,656.648 C439.524,656.648 431.905,656.648 424.286,656.648 C415.238,656.648 406.19,656.648 397.143,656.648 C388.571,656.648 380,656.648 371.429,656.648 C362.539,656.648 353.95,656.429 345.714,658.076 C336.555,659.908 335.714,654.164 335.714,646.648 C335.714,636.054 334.949,635.219 345.714,635.219 C348.726,635.219 351.429,633.315 354.286,632.362 z" fill-opacity="0" stroke="#000000" stroke-width="1"/>
    </g>
    <g id="path2421">
      <path d="M133.234,585.742 C136.379,599.229 137.263,613.534 144.023,625.916 C147.756,632.736 150.644,640.558 157.307,645.145 C165.119,650.433 172.591,656.387 181.141,660.468 C189.275,663.465 197.762,665.436 206.041,668.014 C212.03,668.584 217.598,665.316 222.999,663.17 C231.411,659.006 240.299,655.028 247.028,648.336 C244.873,645.212 238.197,650.763 221.486,644.727 C204.465,638.578 215.081,643.192 183.384,630.223 C151.98,617.373 143.135,590.677 133.234,585.742 z" fill="#FFFF00"/>
      <path d="M133.234,585.742 C136.379,599.229 137.263,613.534 144.023,625.916 C147.756,632.736 150.644,640.558 157.307,645.145 C165.119,650.433 172.591,656.387 181.141,660.468 C189.275,663.465 197.762,665.436 206.041,668.014 C212.03,668.584 217.598,665.316 222.999,663.17 C231.411,659.006 240.299,655.028 247.028,648.336 C244.873,645.212 238.197,650.763 221.486,644.727 C204.465,638.578 215.081,643.192 183.384,630.223 C151.98,617.373 143.135,590.677 133.234,585.742 z" fill-opacity="0" stroke="#000000" stroke-width="3"/>
    </g>
    <path d="M133.055,585.8 C133.401,587.575 134.574,591.591 135.789,595.013 C136.832,597.951 138.116,600.06 139.137,602.935 C140.094,605.631 141.297,607.961 142.792,610.213 C144.268,612.435 146.183,613.958 147.707,616.508 C149.452,619.43 151.279,622.041 152.514,625.521 C153.651,628.725 158.483,630.683 160.177,633.52 C161.708,636.083 168.302,638.067 171.003,639.86 C173.002,641.187 175.918,642.595 178.266,643.713 C180.925,644.979 183.823,646.505 187.126,647.535 C189.399,648.245 192.634,649.762 194.696,650.744 C197.231,651.95 199.871,653.207 201.791,654.121 C204.605,655.461 207.607,654.61 211.234,655.056 C214.047,655.403 215.885,655.549 219.049,654.426 C221.738,653.472 224.166,653.563 226.696,653.32 C229.163,653.082 231.56,652.129 234.005,651.261 C236.384,650.416 238.764,649.572 241.144,648.727 C242.59,648.214 245.159,648.094 246.242,647.989" fill-opacity="0" stroke="#000000" stroke-width="3" id="path2424"/>
    <path d="M134.206,587.535 C134.173,588.095 136,593.021 137.862,594.813 C139.754,596.634 141.523,600.328 142.469,601.753 C143.723,603.642 164.716,626.682 167.731,627.622 C170.45,628.471 173.5,629.974 175.301,630.831 C177.213,631.741 179.729,633.27 181.75,633.901 C183.975,634.595 186.204,636.417 188.369,637.447 C190.944,638.673 194.391,641.568 196.139,642.728 C198.323,644.179 201.8,644.6 204.016,645.292 C206.012,645.914 210.904,645.489 213.121,645.275 C216.78,644.922 216.536,645.319 219.54,646.748 C222.404,648.112 224.999,647.499 228.2,648.498 C230.83,649.318 233.747,648.498 236.354,648.819 C238.535,649.088 239.837,648.79 242.096,648.389" fill-opacity="0" stroke="#000000" stroke-width="3" id="path2426"/>
    <g id="path3495">
      <path d="M147.397,876.944 C125.082,875.726 102.024,879.979 80.337,873.519 C60.956,865.206 61.016,845.732 71.601,822.625 C83.255,802.541 91.793,787.677 102.58,771.449 C114.041,751.119 120.847,746.592 141.563,746.239 C165.792,747.109 190.006,747.013 214.061,743.686 C257.289,743.291 300.591,742.922 343.805,743.844 C372.07,749.52 400.932,748.875 429.611,750.201 C451.254,749.485 472.895,749.75 494.291,753.168 C518.363,754.798 545.951,745.007 566.957,760.799 C582.553,772.496 575.974,793.816 577.251,810.355 C571.641,830.362 553.417,845.643 538.38,859.656 C520.245,867.732 509.035,887.724 487.86,888.932 C447.77,897.57 406.441,892.778 365.775,894.069 C339.253,892.799 312.392,893.543 286.564,886.428 C256.907,879.289 226.5,883.623 196.461,883.915 C180.198,881.265 163.448,880.657 147.397,876.944 z" fill="#C8BEB7"/>
      <path d="M147.397,876.944 C125.082,875.726 102.024,879.979 80.337,873.519 C60.956,865.206 61.016,845.732 71.601,822.625 C83.255,802.541 91.793,787.677 102.58,771.449 C114.041,751.119 120.847,746.592 141.563,746.239 C165.792,747.109 190.006,747.013 214.061,743.686 C257.289,743.291 300.591,742.922 343.805,743.844 C372.07,749.52 400.932,748.875 429.611,750.201 C451.254,749.485 472.895,749.75 494.291,753.168 C518.363,754.798 545.951,745.007 566.957,760.799 C582.553,772.496 575.974,793.816 577.251,810.355 C571.641,830.362 553.417,845.643 538.38,859.656 C520.245,867.732 509.035,887.724 487.86,888.932 C447.77,897.57 406.441,892.778 365.775,894.069 C339.253,892.799 312.392,893.543 286.564,886.428 C256.907,879.289 226.5,883.623 196.461,883.915 C180.198,881.265 163.448,880.657 147.397,876.944 z" fill-opacity="0" stroke="#000000" stroke-width="10"/>
    </g>
    <path d="M560.73,756.924 C560.958,761.288 551.893,775.25 547.164,787.07 C542.855,797.843 527.368,808.943 520.032,818.725 C514.139,826.583 509.038,833.886 503.452,841.335 C500.17,845.709 497.545,857.424 495.915,863.945 C494.884,868.068 485.546,875.272 483.856,882.033 C483.513,883.405 473.847,889.027 473.305,889.57" fill-opacity="0" stroke="#000000" stroke-width="10" id="path3504"/>
    <path d="M533.598,796.114 C522.285,796.023 500.066,799.129 483.856,799.129 C469.313,799.129 455.007,800.636 440.143,800.636 C423.384,800.636 410.488,800.006 394.923,796.114 C379.359,792.223 363.955,793.237 348.195,790.085 C329.414,786.329 307.999,788.703 289.409,784.056 C287.459,783.568 285.39,784.056 283.38,784.056 C270.138,784.056 248.567,780.711 235.145,778.026 C221.67,775.331 205.256,775.012 191.432,775.012 C173.847,775.012 156.261,775.012 138.675,775.012 C128.626,775.012 118.577,775.012 108.528,775.012" fill-opacity="0" stroke="#000000" stroke-width="5" id="path3508"/>
    <path d="M91.948,811.188 C91,811.188 106.449,811.302 122.095,808.173 C136.739,805.244 153.87,809.68 168.822,809.68 C180.479,809.68 197.24,817.776 209.52,820.232 C229.762,824.28 251.025,822.694 271.321,827.769 C273.807,828.39 276.346,828.773 278.858,829.276 C290.103,831.525 302.862,830.783 315.034,830.783 C317.546,830.783 320.059,830.783 322.571,830.783 C335.634,830.783 348.698,830.783 361.762,830.783 C374.825,830.783 387.889,830.783 400.952,830.783 C413.514,830.783 426.075,830.783 438.636,830.783 C449.86,830.783 459.45,829.575 470.29,827.769 C479.749,826.192 490.17,828.451 498.929,826.261" fill-opacity="0" stroke="#000000" stroke-width="5" id="path3510"/>
    <path d="M60.294,841.335 C72.9,842.542 84.143,839.827 96.47,839.827 C105.038,839.827 123.245,844.171 132.646,848.871 C147.114,856.105 163.658,854.901 179.373,854.901 C190.427,854.901 201.481,854.901 212.535,854.901 C229.116,854.901 245.696,854.901 262.277,854.901 C277.853,854.901 293.429,854.901 309.005,854.901 C321.566,854.901 334.127,854.901 346.688,854.901 C357.742,854.901 368.796,854.901 379.85,854.901 C392.913,854.901 405.977,854.901 419.04,854.901 C430.094,854.901 441.148,854.901 452.202,854.901 C463.256,854.901 474.31,854.901 485.363,854.901 C487.876,854.901 490.388,854.901 492.9,854.901" fill-opacity="0" stroke="#000000" stroke-width="5" id="path3514"/>
    <path d="M159.778,753.909 C160.765,753.909 142.827,781.156 140.183,785.563 C135.337,793.639 129.203,801.065 123.602,806.666 C117.265,813.002 116.134,822.904 114.558,830.783 C112.672,840.214 110.036,847.212 110.036,857.915 C110.036,863.063 106.726,868.142 105.514,872.989" fill-opacity="0" stroke="#000000" stroke-width="5" id="path3516"/>
    <path d="M201.984,746.372 C201.984,758.494 197.019,776.159 194.447,791.592 C192.679,802.201 183.419,812.14 179.373,820.232 C175.973,827.032 171.975,837.765 170.329,844.349 C168.031,853.544 166.273,859.066 164.3,866.959 C162.977,872.25 162.793,878.014 162.793,883.54" fill-opacity="0" stroke="#000000" stroke-width="5" id="path3518"/>
    <path d="M253.233,747.88 C251.885,753.27 244.244,777.75 241.174,793.1 C238.976,804.092 232.709,820.175 224.594,826.261 C217.479,831.597 206.475,845.918 203.491,851.886 C199.175,860.518 198.352,866.411 195.954,876.003" fill-opacity="0" stroke="#000000" stroke-width="5" id="path3520"/>
    <path d="M292.424,752.402 C290.915,758.436 276.799,774.755 274.336,787.07 C272.496,796.268 266.347,808.625 260.77,814.202 C256.598,818.374 251.735,845.821 250.218,851.886" fill-opacity="0" stroke="#000000" stroke-width="5" id="path3522"/>
    <path d="M328.6,746.372 C326.751,753.768 328.548,772.205 325.585,784.056 C322.533,796.264 320.59,812.321 313.527,821.739 C307.828,829.337 306.276,840.619 302.975,848.871" fill-opacity="0" stroke="#000000" stroke-width="5" id="path3524"/>
    <path d="M373.82,747.88 C370.556,760.936 361.762,781.895 361.762,802.144 C361.762,811.143 354.907,825.042 352.717,833.798 C350.194,843.89 345.03,852.188 340.659,860.93 C336.082,870.083 328.6,876.655 328.6,886.555" fill-opacity="0" stroke="#000000" stroke-width="5" id="path3526"/>
    <path d="M406.982,753.909 C403.603,760.666 398.167,781.631 394.923,794.607 C392.559,804.064 391.195,812.534 388.894,821.739 C386.968,829.44 383.396,837.701 381.357,845.857 C379.54,853.123 378.658,861.174 376.835,868.467 C375.279,874.69 373.82,881.059 373.82,888.062" fill-opacity="0" stroke="#000000" stroke-width="5" id="path3528"/>
    <path d="M443.158,755.416 C440.41,766.406 441.651,793.348 441.651,809.68 C441.651,823.139 434.908,836.568 432.607,850.379 C431.277,858.353 427.177,866.067 425.07,874.496 C423.88,879.257 425.07,886.149 425.07,891.077" fill-opacity="0" stroke="#000000" stroke-width="5" id="path3530"/>
    <path d="M476.319,756.924 C474.565,763.941 476.319,783.966 476.319,796.114 C476.319,809.409 473.144,820.876 470.29,832.291 C467.867,841.982 463.493,850.434 461.246,859.423 C458.939,868.652 461.246,881.638 461.246,891.077" fill-opacity="0" stroke="#000000" stroke-width="5" id="path3532"/>
    <path d="M538.12,749.387 C544.756,746.402 572.304,733 587.862,726.777 C599.757,722.019 609.616,713.099 619.517,705.674 C626.717,700.273 630.843,695.037 633.083,686.079 C634.982,678.483 633.083,668.351 633.083,660.454 C633.083,653.085 630.759,647.579 627.053,643.873" fill-opacity="0" stroke="#000000" stroke-width="10" id="path3534"/>
    <g id="path3536">
      <path d="M618.009,809.68 C610.217,801.889 601.684,824.499 593.892,832.291 C587.986,838.197 579.416,849.496 577.311,857.915 C574.534,869.024 569.774,870.976 569.774,883.54 C569.774,894.612 577.679,894.937 586.355,897.106 C594.532,899.15 604.341,898.614 613.487,898.614 C622.72,898.614 631.547,886.592 636.097,880.525 C641.465,873.369 645.141,868.482 645.141,857.915 C645.141,845.862 646.489,833.16 643.634,821.739 C641.824,814.497 633.488,812.796 627.053,811.188 C616.429,808.532 636.07,818.711 618.009,809.68 z" fill="#C8BEB7"/>
      <path d="M618.009,809.68 C610.217,801.889 601.684,824.499 593.892,832.291 C587.986,838.197 579.416,849.496 577.311,857.915 C574.534,869.024 569.774,870.976 569.774,883.54 C569.774,894.612 577.679,894.937 586.355,897.106 C594.532,899.15 604.341,898.614 613.487,898.614 C622.72,898.614 631.547,886.592 636.097,880.525 C641.465,873.369 645.141,868.482 645.141,857.915 C645.141,845.862 646.489,833.16 643.634,821.739 C641.824,814.497 633.488,812.796 627.053,811.188 C616.429,808.532 636.07,818.711 618.009,809.68 z" fill-opacity="0" stroke="#000000" stroke-width="10"/>
    </g>
    <path d="M645.141,854.901 C639.554,853.627 627.831,848.506 619.517,844.349 C612.578,840.88 600.12,838.37 593.892,836.813" fill-opacity="0" stroke="#000000" stroke-width="10" id="path3540"/>
    <path d="M627.053,814.203 C625.515,813.433 640.053,794.425 643.634,776.519 C644.04,774.488 644.639,772.499 645.141,770.49 C647.362,761.609 645.141,749.552 645.141,740.343 C645.141,726.587 638.681,714.071 636.097,701.152 C633.431,687.818 630.068,675.204 630.068,660.454 C630.068,653.856 629.992,648.093 628.561,642.366" fill-opacity="0" stroke="#000000" stroke-width="10" id="path3542"/>
    <path d="M215.39,296.561 C211.94,295.923 196.708,295.717 196.708,302.461 C196.708,307.753 198.373,308.797 201.984,311.505 C206.39,314.81 211.077,313.815 214.042,316.78 C216.443,319.181 215.55,323.949 215.55,327.332 C215.55,330.899 202.327,329.593 200.476,329.593 C194.456,329.593 191.187,330.522 187.664,325.824" fill-opacity="0" stroke="#000000" stroke-width="5" id="path3544"/>
    <path d="M202.737,287.387 C201.686,287.387 204.245,301.034 204.245,303.968 C204.245,308.862 205.752,313.87 205.752,319.041 C205.752,323.061 205.752,327.081 205.752,331.1 C205.752,333.361 205.752,335.622 205.752,337.883" fill-opacity="0" stroke="#000000" stroke-width="5" id="path3546"/>
    <path d="M195.201,288.895 C195.201,291.08 195.201,297.997 195.201,302.461 C195.201,307.988 195.201,313.514 195.201,319.041 C195.201,323.563 195.201,328.085 195.201,332.607 C195.201,334.868 195.201,337.129 195.201,339.39" fill-opacity="0" stroke="#000000" stroke-width="5" id="path3548"/>
    <path d="M230.623,331.1 C230.623,339.139 246.701,331.1 254.74,331.1 C257.504,331.1 260.267,331.1 263.031,331.1" fill-opacity="0" stroke="#000000" stroke-width="10" id="path3550"/>
  </g>
</svg>
