<svg height="420.945" viewBox="0 0 744.094 1052.362" width="297.638" xmlns="http://www.w3.org/2000/svg"><path d="m147.482 195.753c28.932-15.824 83.455-24.555 119.198-42.427 43.817-21.908 200.639-18.116 248.498-12.121 37.686 4.72 81.517 29.083 98.995 72.731.791 1.977 1.347 4.04 2.02 6.06 4.49 13.47 8.544 24.074 12.122 38.386 4.057 16.227 5.96 31.922 10.101 48.488 5.091 20.363 8.082 40.037 8.082 62.629 0 19.606 2.02 40.464 2.02 60.609v60.609c0 27.253-5.704 56.447-10.102 82.833-3.365 20.191-6.695 44.012-14.142 62.629-4.54 11.351-7.112 22.39-10.101 34.346-2.139 8.553-20.268 18.247-26.264 24.243-10.533 10.532-25.603 17.522-34.345 26.264-.953.952-43.1 7.071-44.447 7.071" fill="#c8beb7"/><path d="m147.482 195.753c28.932-15.824 83.455-24.555 119.198-42.427 43.817-21.908 200.639-18.116 248.498-12.121 37.686 4.72 81.517 29.083 98.995 72.731.791 1.977 1.347 4.04 2.02 6.06 4.49 13.47 8.544 24.074 12.122 38.386 4.057 16.227 5.96 31.922 10.101 48.488 5.091 20.363 8.082 40.037 8.082 62.629 0 19.606 2.02 40.464 2.02 60.609v60.609c0 27.253-5.704 56.447-10.102 82.833-3.365 20.191-6.695 44.012-14.142 62.629-4.54 11.351-7.112 22.39-10.101 34.346-2.139 8.553-20.268 18.247-26.264 24.243-10.533 10.532-25.603 17.522-34.345 26.264-.953.952-43.1 7.071-44.447 7.071" fill="none" stroke="#000" stroke-width="10"/><path d="m348.571 725.219c-13.039 0-24.456-1.428-37.142-1.428-16.621 0-32.036-1.429-48.572-1.429-20.02 0-41.018-.145-60-2.857-20.93-2.99-39.801-1.92-60-10-15.511-6.205-28.096-12.382-40-24.286-10.904-10.904-17.207-27.465-20-41.428-.476-2.381-2.381-36.191-2.857-38.572-2.607-13.034 0-29.59 0-42.857 0-6.667 0-13.333 0-20 0-11.474.195-23.638 2.857-34.286 2.821-11.284 0-26.911 0-38.571 0-16.405 1.429-34.167 1.429-51.429 0-15.868-4.286-32.084-4.286-48.571 0-17.293-1.429-35.276-1.429-52.857 0-13.421-.472-28.104 4.286-40 4.887-12.217 11.288-28.01 14.286-40 4.51-18.043 43.847-36.967 58.571-42.857 25.429-10.172 40.791-15.715 68.572-15.715 29.104 0 59.065-2.857 88.571-2.857 23.337 0 49.992-.953 72.857 2.857 21.039 3.507 44.291 1.429 65.715 1.429 9.294 0 17.694 3.709 25.714 5.714 8.906 2.227 16.572 11.143 22.857 14.286 10.804 5.402 24.385 17.34 30 28.571 5.014 10.029 10.236 20.472 15.714 31.429 6.596 13.192 9.09 27.392 11.429 41.429 6.518 39.106 4.286 81.296 4.286 121.428 0 36.432-4.286 71.743-4.286 107.143 0 14.275-2.857 28.194-2.857 42.857 0 11.368-2.857 23.042-2.857 34.286 0 12.732-.482 58.122-2.858 70-2.859 14.296-2.857 15.119-2.857 30 0 8.208-15.046 18.404-21.428 20-1.905.476-3.81.952-5.715 1.428-10.109 2.528-17.753 4.286-28.571 4.286-11.991 0-22.881-4.286-34.286-4.286-9.178 0-18.943-1.428-28.571-1.428-11.439 0-62.413-1.429-78.572-1.429z" fill="#ac9d93"/><path d="m348.571 725.219c-13.039 0-24.456-1.428-37.142-1.428-16.621 0-32.036-1.429-48.572-1.429-20.02 0-41.018-.145-60-2.857-20.93-2.99-39.801-1.92-60-10-15.511-6.205-28.096-12.382-40-24.286-10.904-10.904-17.207-27.465-20-41.428-.476-2.381-2.381-36.191-2.857-38.572-2.607-13.034 0-29.59 0-42.857 0-6.667 0-13.333 0-20 0-11.474.195-23.638 2.857-34.286 2.821-11.284 0-26.911 0-38.571 0-16.405 1.429-34.167 1.429-51.429 0-15.868-4.286-32.084-4.286-48.571 0-17.293-1.429-35.276-1.429-52.857 0-13.421-.472-28.104 4.286-40 4.887-12.217 11.288-28.01 14.286-40 4.51-18.043 43.847-36.967 58.571-42.857 25.429-10.172 40.791-15.715 68.572-15.715 29.104 0 59.065-2.857 88.571-2.857 23.337 0 49.992-.953 72.857 2.857 21.039 3.507 44.291 1.429 65.715 1.429 9.294 0 17.694 3.709 25.714 5.714 8.906 2.227 16.572 11.143 22.857 14.286 10.804 5.402 24.385 17.34 30 28.571 5.014 10.029 10.236 20.472 15.714 31.429 6.596 13.192 9.09 27.392 11.429 41.429 6.518 39.106 4.286 81.296 4.286 121.428 0 36.432-4.286 71.743-4.286 107.143 0 14.275-2.857 28.194-2.857 42.857 0 11.368-2.857 23.042-2.857 34.286 0 12.732-.482 58.122-2.858 70-2.859 14.296-2.857 15.119-2.857 30 0 8.208-15.046 18.404-21.428 20-1.905.476-3.81.952-5.715 1.428-10.109 2.528-17.753 4.286-28.571 4.286-11.991 0-22.881-4.286-34.286-4.286-9.178 0-18.943-1.428-28.571-1.428-11.439 0-62.413-1.429-78.572-1.429z" fill="none" stroke="#000" stroke-width="10"/><path d="m162.857 385.661c4.891-21.632 0-48.547 0-70.77 0-19.107-1.533-29.945 14.286-40.44 17.313-11.487 23.447-17.693 51.428-17.693 21.161 0 45.084-10.11 68.572-10.11 34.889 0 67.179 6.48 100.693 8.605 21.328 1.353 30.579 7.173 50.245 20.221 16.951 11.246 19 37.877 23.348 57.109 5.261 23.274 11.428 52.65 11.428 80.881 0 17.763 5.714 36.26 5.714 55.605 0 19.318-11.444 27.81-28.571 35.385-25.498 11.279-52.008 10.618-80 17.693-21.906 5.537-51.195 2.528-74.286 2.528-24.173 0-51.227 1.352-71.428-7.583-19.997-8.845-35.87-14.039-48.572-25.275-12.701-11.236-28.218-82.443-22.857-106.156z" fill="#0ff"/><path d="m162.857 385.661c4.891-21.632 0-48.547 0-70.77 0-19.107-1.533-29.945 14.286-40.44 17.313-11.487 23.447-17.693 51.428-17.693 21.161 0 45.084-10.11 68.572-10.11 34.889 0 67.179 6.48 100.693 8.605 21.328 1.353 30.579 7.173 50.245 20.221 16.951 11.246 19 37.877 23.348 57.109 5.261 23.274 11.428 52.65 11.428 80.881 0 17.763 5.714 36.26 5.714 55.605 0 19.318-11.444 27.81-28.571 35.385-25.498 11.279-52.008 10.618-80 17.693-21.906 5.537-51.195 2.528-74.286 2.528-24.173 0-51.227 1.352-71.428-7.583-19.997-8.845-35.87-14.039-48.572-25.275-12.701-11.236-28.218-82.443-22.857-106.156z" fill="none" stroke="#000" stroke-width="10"/><path d="m354.286 632.362c15.237.916 29.248-2.857 44.285-2.857 12.825 0 23.288-4.286 35.715-4.286 7.486 0 16.252-1.428 24.285-1.428 11.116 0 14.587-1.653 17.143 8.571 1.929 7.716.044 15.671-4.285 20-6.014 6.014-14.623 4.286-24.286 4.286-7.619 0-15.238 0-22.857 0-9.048 0-18.096 0-27.143 0-8.572 0-17.143 0-25.714 0-8.89 0-17.479-.219-25.715 1.428-9.159 1.832-10-3.912-10-11.428 0-10.594-.765-11.429 10-11.429 3.012 0 5.715-1.904 8.572-2.857z"/><path d="m354.286 632.362c15.237.916 29.248-2.857 44.285-2.857 12.825 0 23.288-4.286 35.715-4.286 7.486 0 16.252-1.428 24.285-1.428 11.116 0 14.587-1.653 17.143 8.571 1.929 7.716.044 15.671-4.285 20-6.014 6.014-14.623 4.286-24.286 4.286-7.619 0-15.238 0-22.857 0-9.048 0-18.096 0-27.143 0-8.572 0-17.143 0-25.714 0-8.89 0-17.479-.219-25.715 1.428-9.159 1.832-10-3.912-10-11.428 0-10.594-.765-11.429 10-11.429 3.012 0 5.715-1.904 8.572-2.857z" fill="none" stroke="#000"/><path d="m133.234 585.742c3.145 13.487 4.029 27.792 10.789 40.174 3.733 6.82 6.621 14.642 13.284 19.229 7.812 5.288 15.284 11.242 23.834 15.323 8.134 2.997 16.621 4.968 24.9 7.546 5.989.57 11.557-2.698 16.958-4.844 8.412-4.164 17.3-8.142 24.029-14.834-2.155-3.124-8.831 2.427-25.542-3.609-17.021-6.149-6.405-1.535-38.102-14.504-31.404-12.85-40.249-39.546-50.15-44.481z" fill="#ff0"/><path d="m133.234 585.742c3.145 13.487 4.029 27.792 10.789 40.174 3.733 6.82 6.621 14.642 13.284 19.229 7.812 5.288 15.284 11.242 23.834 15.323 8.134 2.997 16.621 4.968 24.9 7.546 5.989.57 11.557-2.698 16.958-4.844 8.412-4.164 17.3-8.142 24.029-14.834-2.155-3.124-8.831 2.427-25.542-3.609-17.021-6.149-6.405-1.535-38.102-14.504-31.404-12.85-40.249-39.546-50.15-44.481z" fill="none" stroke="#000" stroke-width="3"/><path d="m133.055 585.8c.346 1.775 1.519 5.791 2.734 9.213 1.043 2.938 2.327 5.047 3.348 7.922.957 2.696 2.16 5.026 3.655 7.278 1.476 2.222 3.391 3.745 4.915 6.295 1.745 2.922 3.572 5.533 4.807 9.013 1.137 3.204 5.969 5.162 7.663 7.999 1.531 2.563 8.125 4.547 10.826 6.34 1.999 1.327 4.915 2.735 7.263 3.853 2.659 1.266 5.557 2.792 8.86 3.822 2.273.71 5.508 2.227 7.57 3.209 2.535 1.206 5.175 2.463 7.095 3.377 2.814 1.34 5.816.489 9.443.935 2.813.347 4.651.493 7.815-.63 2.689-.954 5.117-.863 7.647-1.106 2.467-.238 4.864-1.191 7.309-2.059 2.379-.845 4.759-1.689 7.139-2.534 1.446-.513 4.015-.633 5.098-.738" fill="none" stroke="#000" stroke-width="3"/><path d="m134.206 587.535c-.033.56 1.794 5.486 3.656 7.278 1.892 1.821 3.661 5.515 4.607 6.94 1.254 1.889 22.247 24.929 25.262 25.869 2.719.849 5.769 2.352 7.57 3.209 1.912.91 4.428 2.439 6.449 3.07 2.225.694 4.454 2.516 6.619 3.546 2.575 1.226 6.022 4.121 7.77 5.281 2.184 1.451 5.661 1.872 7.877 2.564 1.996.622 6.888.197 9.105-.017 3.659-.353 3.415.044 6.419 1.473 2.864 1.364 5.459.751 8.66 1.75 2.63.82 5.547 0 8.154.321 2.181.269 3.483-.029 5.742-.43" fill="none" stroke="#000" stroke-width="3"/><path d="m147.397 876.944c-22.315-1.218-45.373 3.035-67.06-3.425-19.381-8.313-19.321-27.787-8.736-50.894 11.654-20.084 20.192-34.948 30.979-51.176 11.461-20.33 18.267-24.857 38.983-25.21 24.229.87 48.443.774 72.498-2.553 43.228-.395 86.53-.764 129.744.158 28.265 5.676 57.127 5.031 85.806 6.357 21.643-.716 43.284-.451 64.68 2.967 24.072 1.63 51.66-8.161 72.666 7.631 15.596 11.697 9.017 33.017 10.294 49.556-5.61 20.007-23.834 35.288-38.871 49.301-18.135 8.076-29.345 28.068-50.52 29.276-40.09 8.638-81.419 3.846-122.085 5.137-26.522-1.27-53.383-.526-79.211-7.641-29.657-7.139-60.064-2.805-90.103-2.513-16.263-2.65-33.013-3.258-49.064-6.971z" fill="#c8beb7"/><g fill="none" stroke="#000"><path d="m147.397 876.944c-22.315-1.218-45.373 3.035-67.06-3.425-19.381-8.313-19.321-27.787-8.736-50.894 11.654-20.084 20.192-34.948 30.979-51.176 11.461-20.33 18.267-24.857 38.983-25.21 24.229.87 48.443.774 72.498-2.553 43.228-.395 86.53-.764 129.744.158 28.265 5.676 57.127 5.031 85.806 6.357 21.643-.716 43.284-.451 64.68 2.967 24.072 1.63 51.66-8.161 72.666 7.631 15.596 11.697 9.017 33.017 10.294 49.556-5.61 20.007-23.834 35.288-38.871 49.301-18.135 8.076-29.345 28.068-50.52 29.276-40.09 8.638-81.419 3.846-122.085 5.137-26.522-1.27-53.383-.526-79.211-7.641-29.657-7.139-60.064-2.805-90.103-2.513-16.263-2.65-33.013-3.258-49.064-6.971z" stroke-width="10"/><path d="m560.73 756.924c.228 4.364-8.837 18.326-13.566 30.146-4.309 10.773-19.796 21.873-27.132 31.655-5.893 7.858-10.994 15.161-16.58 22.61-3.282 4.374-5.907 16.089-7.537 22.61-1.031 4.123-10.369 11.327-12.059 18.088-.343 1.372-10.009 6.994-10.551 7.537" stroke-width="10"/><path d="m533.598 796.114c-11.313-.091-33.532 3.015-49.742 3.015-14.543 0-28.849 1.507-43.713 1.507-16.759 0-29.655-.63-45.22-4.522-15.564-3.891-30.968-2.877-46.728-6.029-18.781-3.756-40.196-1.382-58.786-6.029-1.95-.488-4.019 0-6.029 0-13.242 0-34.813-3.345-48.235-6.03-13.475-2.695-29.889-3.014-43.713-3.014-17.585 0-35.171 0-52.757 0-10.049 0-20.098 0-30.147 0" stroke-width="5"/><path d="m91.948 811.188c-.948 0 14.501.114 30.147-3.015 14.644-2.929 31.775 1.507 46.727 1.507 11.657 0 28.418 8.096 40.698 10.552 20.242 4.048 41.505 2.462 61.801 7.537 2.486.621 5.025 1.004 7.537 1.507 11.245 2.249 24.004 1.507 36.176 1.507h7.537 39.191 39.19 37.684c11.224 0 20.814-1.208 31.654-3.014 9.459-1.577 19.88.682 28.639-1.508" stroke-width="5"/><path d="m60.294 841.335c12.606 1.207 23.849-1.508 36.176-1.508 8.568 0 26.775 4.344 36.176 9.044 14.468 7.234 31.012 6.03 46.727 6.03h33.162 49.742 46.728 37.683 33.162 39.19 33.162 33.161 7.537" stroke-width="5"/><path d="m159.778 753.909c.987 0-16.951 27.247-19.595 31.654-4.846 8.076-10.98 15.502-16.581 21.103-6.337 6.336-7.468 16.238-9.044 24.117-1.886 9.431-4.522 16.429-4.522 27.132 0 5.148-3.31 10.227-4.522 15.074" stroke-width="5"/><path d="m201.984 746.372c0 12.122-4.965 29.787-7.537 45.22-1.768 10.609-11.028 20.548-15.074 28.64-3.4 6.8-7.398 17.533-9.044 24.117-2.298 9.195-4.056 14.717-6.029 22.61-1.323 5.291-1.507 11.055-1.507 16.581" stroke-width="5"/><path d="m253.233 747.88c-1.348 5.39-8.989 29.87-12.059 45.22-2.198 10.992-8.465 27.075-16.58 33.161-7.115 5.336-18.119 19.657-21.103 25.625-4.316 8.632-5.139 14.525-7.537 24.117" stroke-width="5"/><path d="m292.424 752.402c-1.509 6.034-15.625 22.353-18.088 34.668-1.84 9.198-7.989 21.555-13.566 27.132-4.172 4.172-9.035 31.619-10.552 37.684" stroke-width="5"/><path d="m328.6 746.372c-1.849 7.396-.052 25.833-3.015 37.684-3.052 12.208-4.995 28.265-12.058 37.683-5.699 7.598-7.251 18.88-10.552 27.132" stroke-width="5"/><path d="m373.82 747.88c-3.264 13.056-12.058 34.015-12.058 54.264 0 8.999-6.855 22.898-9.045 31.654-2.523 10.092-7.687 18.39-12.058 27.132-4.577 9.153-12.059 15.725-12.059 25.625" stroke-width="5"/><path d="m406.982 753.909c-3.379 6.757-8.815 27.722-12.059 40.698-2.364 9.457-3.728 17.927-6.029 27.132-1.926 7.701-5.498 15.962-7.537 24.118-1.817 7.266-2.699 15.317-4.522 22.61-1.556 6.223-3.015 12.592-3.015 19.595" stroke-width="5"/><path d="m443.158 755.416c-2.748 10.99-1.507 37.932-1.507 54.264 0 13.459-6.743 26.888-9.044 40.699-1.33 7.974-5.43 15.688-7.537 24.117-1.19 4.761 0 11.653 0 16.581" stroke-width="5"/><path d="m476.319 756.924c-1.754 7.017 0 27.042 0 39.19 0 13.295-3.175 24.762-6.029 36.177-2.423 9.691-6.797 18.143-9.044 27.132-2.307 9.229 0 22.215 0 31.654" stroke-width="5"/><path d="m538.12 749.387c6.636-2.985 34.184-16.387 49.742-22.61 11.895-4.758 21.754-13.678 31.655-21.103 7.2-5.401 11.326-10.637 13.566-19.595 1.899-7.596 0-17.728 0-25.625 0-7.369-2.324-12.875-6.03-16.581" stroke-width="10"/></g><path d="m618.009 809.68c-7.792-7.791-16.325 14.819-24.117 22.611-5.906 5.906-14.476 17.205-16.581 25.624-2.777 11.109-7.537 13.061-7.537 25.625 0 11.072 7.905 11.397 16.581 13.566 8.177 2.044 17.986 1.508 27.132 1.508 9.233 0 18.06-12.022 22.61-18.089 5.368-7.156 9.044-12.043 9.044-22.61 0-12.053 1.348-24.755-1.507-36.176-1.81-7.242-10.146-8.943-16.581-10.551-10.624-2.656 9.017 7.523-9.044-1.508z" fill="#c8beb7"/><path d="m618.009 809.68c-7.792-7.791-16.325 14.819-24.117 22.611-5.906 5.906-14.476 17.205-16.581 25.624-2.777 11.109-7.537 13.061-7.537 25.625 0 11.072 7.905 11.397 16.581 13.566 8.177 2.044 17.986 1.508 27.132 1.508 9.233 0 18.06-12.022 22.61-18.089 5.368-7.156 9.044-12.043 9.044-22.61 0-12.053 1.348-24.755-1.507-36.176-1.81-7.242-10.146-8.943-16.581-10.551-10.624-2.656 9.017 7.523-9.044-1.508z" fill="none" stroke="#000" stroke-width="10"/><path d="m645.141 854.901c-5.587-1.274-17.31-6.395-25.624-10.552-6.939-3.469-19.397-5.979-25.625-7.536" fill="none" stroke="#000" stroke-width="10"/><path d="m627.053 814.203c-1.538-.77 13-19.778 16.581-37.684.406-2.031 1.005-4.02 1.507-6.029 2.221-8.881 0-20.938 0-30.147 0-13.756-6.46-26.272-9.044-39.191-2.666-13.334-6.029-25.948-6.029-40.698 0-6.598-.076-12.361-1.507-18.088" fill="none" stroke="#000" stroke-width="10"/><path d="m215.39 296.561c-3.45-.638-18.682-.844-18.682 5.9 0 5.292 1.665 6.336 5.276 9.044 4.406 3.305 9.093 2.31 12.058 5.275 2.401 2.401 1.508 7.169 1.508 10.552 0 3.567-13.223 2.261-15.074 2.261-6.02 0-9.289.929-12.812-3.769" fill="none" stroke="#000" stroke-width="5"/><path d="m202.737 287.387c-1.051 0 1.508 13.647 1.508 16.581 0 4.894 1.507 9.902 1.507 15.073v12.059 6.783" fill="none" stroke="#000" stroke-width="5"/><path d="m195.201 288.895v13.566 16.58 13.566 6.783" fill="none" stroke="#000" stroke-width="5"/><path d="m230.623 331.1c0 8.039 16.078 0 24.117 0h8.291" fill="none" stroke="#000" stroke-width="10"/></svg>