<?xml version="1.0" encoding="UTF-8" standalone="no"?>
<!-- Created with Inkscape (http://www.inkscape.org/) -->

<svg
   xmlns:dc="http://purl.org/dc/elements/1.1/"
   xmlns:cc="http://creativecommons.org/ns#"
   xmlns:rdf="http://www.w3.org/1999/02/22-rdf-syntax-ns#"
   xmlns:svg="http://www.w3.org/2000/svg"
   xmlns="http://www.w3.org/2000/svg"
   xmlns:sodipodi="http://sodipodi.sourceforge.net/DTD/sodipodi-0.dtd"
   xmlns:inkscape="http://www.inkscape.org/namespaces/inkscape"
   width="299.13504"
   height="336.58685"
   id="svg2"
   version="1.1"
   inkscape:version="0.48.0 r9654"
   sodipodi:docname="lists.svg">
  <defs
     id="defs4" />
  <sodipodi:namedview
     id="base"
     pagecolor="#ffffff"
     bordercolor="#666666"
     borderopacity="1.0"
     inkscape:pageopacity="0.0"
     inkscape:pageshadow="2"
     inkscape:zoom="1"
     inkscape:cx="129.13645"
     inkscape:cy="165.12799"
     inkscape:document-units="px"
     inkscape:current-layer="layer1"
     showgrid="false"
     inkscape:window-width="1280"
     inkscape:window-height="1004"
     inkscape:window-x="-4"
     inkscape:window-y="-3"
     inkscape:window-maximized="1"
     fit-margin-top="10"
     fit-margin-right="10"
     fit-margin-bottom="10"
     fit-margin-left="10" />
  <metadata
     id="metadata7">
    <rdf:RDF>
      <cc:Work
         rdf:about="">
        <dc:format>image/svg+xml</dc:format>
        <dc:type
           rdf:resource="http://purl.org/dc/dcmitype/StillImage" />
        <dc:title />
      </cc:Work>
    </rdf:RDF>
  </metadata>
  <g
     inkscape:label="Layer 1"
     inkscape:groupmode="layer"
     id="layer1"
     transform="translate(-178.38712,-431.31665)">
    <g
       id="g3839">
      <path
         sodipodi:nodetypes="czzzzzzzzzzzzzcc"
         inkscape:connector-curvature="0"
         id="path2987"
         d="m 214.34887,708.16993 c 11.1868,19.15422 5.47465,14.41061 28.99104,18.50278 23.51639,4.09217 82.18352,4.03556 106.74391,-0.99936 24.56039,-5.03492 29.73486,-8.10018 37.92538,-21.77229 8.19052,-13.67211 4.9583,-28.05559 3.48028,-41.85874 -1.47802,-13.80315 -6.2487,-26.47528 -7.25588,-40.43598 -1.00718,-13.9607 2.76577,-27.07267 -0.40595,-42.88742 -3.17172,-15.81475 -5.07632,-35.87693 -7.56279,-52.0934 -2.48647,-16.21647 1.59035,-30.5451 -2.85918,-45.34186 -4.44953,-14.79676 -3.58418,-29.74594 -27.60792,-36.73821 -24.02374,-6.99227 -71.80797,1.83106 -96.80558,0.40112 -24.99761,-1.42994 -40.62475,-3.62282 -53.44134,5.23123 -12.81659,8.85405 -3.49248,18.92049 -1.87593,32.58909 1.61655,13.6686 2.26873,20.55395 3.31772,39.36067 1.04899,18.80672 -1.09605,57.53038 4.12885,72.70968 10.26244,28.29162 -5.8633,77.06333 13.22739,113.33269 z"
         style="fill:#f0ecb1;fill-opacity:1;stroke:#000000;stroke-width:1px;stroke-linecap:butt;stroke-linejoin:miter;stroke-opacity:1" />
      <path
         transform="translate(0,308.2677)"
         inkscape:connector-curvature="0"
         id="path3768"
         d="m 217.14286,189.80877 c 0.0832,-3.13921 0.0663,-9.67601 3.57143,-11.42857 3.04335,-1.52168 2.25007,15.44045 7.85714,13.57142 2.98223,-0.99407 4.72035,-5.38297 7.85714,-6.42857 1.78093,-0.59364 24.49485,-1.12076 25.71429,-0.71428 3.4535,1.15116 7.09001,5.7319 11.42857,4.28571 6.72407,-2.24136 19.03183,-3.31755 24.28571,-8.57143 0.59524,-0.59523 0.11905,-2.2619 0.71429,-2.85714 1.01906,-1.01906 7.97888,2.20373 9.28571,2.85714 3.35539,1.6777 38.90792,0.71429 45.71429,0.71429"
         style="fill:none;stroke:#000000;stroke-width:1px;stroke-linecap:butt;stroke-linejoin:miter;stroke-opacity:1" />
      <path
         transform="translate(0,308.2677)"
         inkscape:connector-curvature="0"
         id="path3770"
         d="m 211.42857,227.66591 c 0.95238,-0.23809 2.61905,-1.66667 2.85714,-0.71429 0.2381,0.95239 -3.16758,1.64561 -2.85714,0.71429 0.48211,-1.44632 2.49341,-1.77912 3.57143,-2.85714 1.37823,-1.37824 1.15845,-4.5078 3.57143,-5.71429 7.39179,-3.69589 -0.68759,5.0267 4.28571,10 0.98169,0.98169 2.58974,-1.16116 3.57143,-2.14286 5.39553,-5.39552 8.68927,3.15537 10.71429,2.14286 4.01794,-2.00897 7.9767,-4.36542 12.14285,-7.14286 0.9617,-0.64113 3.05806,-2.54468 3.57143,-3.57142 0.24087,-0.48174 -0.18081,-6.42858 0,-6.42858 0.71429,0 -0.22587,1.46523 0,2.14286 0.6099,1.8297 1.75872,6.30053 4.28572,7.14286 3.39698,1.13233 9.8518,-4.35981 12.85714,-2.85714 4.45741,2.2287 9.18718,4.23644 13.57143,6.42857 2.04816,1.02408 5.9876,-2.72049 8.57143,-1.42857 1.26159,0.63079 5.15028,1.85466 6.42857,1.42857 2.33003,-0.77668 10.95064,-5.23897 12.85714,-4.28572 2.6862,1.3431 2.82432,4.26931 5.71429,5.71429 3.56067,1.78034 12.1531,-2.14798 15,-3.57143 4.47199,-2.236 10.33239,4.66761 15,0"
         style="fill:none;stroke:#000000;stroke-width:1px;stroke-linecap:butt;stroke-linejoin:miter;stroke-opacity:1" />
      <path
         transform="translate(0,308.2677)"
         inkscape:connector-curvature="0"
         id="path3774"
         d="m 220,271.23734 c 2.82614,-2.56095 3.21256,-5 7.14286,-5 0.23769,0 3.33149,3.09432 4.28571,3.57143 0.45205,0.22602 3.97515,-2.34472 5,-2.85715 2.15389,-1.07694 5.87135,2.3607 7.85714,2.85715 3.13837,0.78459 7.75796,-1.40378 10.71429,-2.14286 2.92057,-0.73014 5.42158,1.42857 7.85714,1.42857 4.71051,0 14.39089,-5.40973 17.85715,-7.14286 1.94701,-0.9735 0.56872,-4.28571 1.42857,-4.28571 4.76974,0 9.54182,6.55662 13.57143,8.57143 1.99758,0.99879 12.00734,0.71428 15,0.71428 9.50219,0 19.12707,0 28.57142,0 3.76046,0 5.24949,2.39235 7.14286,4.28572 0.52776,0.52776 9.61448,0.87867 5,-1.42857"
         style="fill:none;stroke:#000000;stroke-width:1px;stroke-linecap:butt;stroke-linejoin:miter;stroke-opacity:1" />
      <path
         transform="translate(0,308.2677)"
         inkscape:connector-curvature="0"
         id="path3776"
         d="m 223.57143,315.52305 c 2.84075,-4.8706 4.4725,-10.90107 8.57143,-15 1.76307,-1.76307 3.39306,2.44041 6.42857,1.42857 4.12468,-1.37489 7.77722,-4.60289 11.42857,-6.42857 2.00942,-1.00471 10.58443,5.67101 12.85714,6.42857 4.58869,1.52957 10.75106,-4.03536 16.42857,-2.14285 4.83556,1.61185 8.41979,6.70989 12.14286,8.57143 3.04437,1.52218 11.84596,-1.42858 15.71429,-1.42858 9.54169,0 19.00045,-3.90461 28.57143,-0.71428 3.74414,1.24805 11.10615,-1.98165 8.57142,-0.71429"
         style="fill:none;stroke:#000000;stroke-width:1px;stroke-linecap:butt;stroke-linejoin:miter;stroke-opacity:1" />
      <path
         transform="translate(0,308.2677)"
         inkscape:connector-curvature="0"
         id="path3778"
         d="m 217.85714,351.23734 c 0.55723,-3.87698 0.83503,-6.1318 4.28572,-7.85714 2.59426,-1.29713 3.91552,5.52919 5.71428,6.42857 1.71376,0.85688 6.13165,-3.57143 7.85715,-3.57143 1.60185,0 2.51924,3.40248 4.28571,4.28571 0.29144,0.14572 27.1637,-4.51686 30,-3.57143 4.52193,1.50732 9.40979,6.14912 15,4.28572 15.34582,-5.11527 24.9707,-14.05739 41.42857,-8.57143 6.48602,2.16201 18.89399,-2.92631 20.71429,0.71429"
         style="fill:none;stroke:#000000;stroke-width:1px;stroke-linecap:butt;stroke-linejoin:miter;stroke-opacity:1" />
    </g>
    <g
       id="g3816"
       transform="translate(-180.71429,17.142857)">
      <path
         inkscape:connector-curvature="0"
         id="path2994"
         d="m 424.26407,655.37223 c 1.01983,13.60697 7.61133,25.6597 9.95168,38.96338 4.04166,11.1072 8.4374,24.47642 19.84607,29.84411 21.93317,4.37947 44.00024,-2.79355 65.91874,-3.27145 13.11837,0.36509 26.20283,-2.45195 39.3526,-2.94075 12.53378,-2.26182 27.77992,-0.4541 37.77397,-9.61382 4.27415,-9.62557 3.11031,-22.30212 2.7893,-33.20062 -1.59301,-17.61092 -1.97697,-35.82494 -9.07454,-52.30544 -4.17129,-19.46904 -1.63964,-39.56901 -1.14179,-59.22328 -2.00988,-11.85962 -0.0697,-24.04277 -4.32635,-35.84173 -3.682,-12.28643 -3.7886,-24.08916 -6.53634,-36.05511 -6.78531,-18.60849 -15.75452,-39.18479 -34.26871,-48.70285 -12.29931,-6.61259 -23.93272,-0.51087 -36.50505,0.0525 -13.92385,-0.12388 -27.63254,3.94379 -41.45644,1.75845 -18.14114,3.40728 -36.76858,5.13932 -54.37756,10.84782 -4.75354,9.01294 1.30818,20.98905 2.65235,30.84649 3.48335,11.62832 4.00653,23.21647 4.6373,35.58246 1.01471,11.79402 1.24659,23.44334 0.64476,35.30847 -0.43413,32.6816 0.22503,65.4697 4.12001,97.95133 z"
         style="fill:#f0ecb1;fill-opacity:1;stroke:#000000;stroke-width:1px;stroke-linecap:butt;stroke-linejoin:miter;stroke-opacity:1" />
      <path
         transform="translate(0,308.2677)"
         inkscape:connector-curvature="0"
         id="path3780"
         d="m 435.71429,174.80877 c 12.86898,-3.38454 0.71428,8.25931 0.71428,5.71428 0,-0.75292 1.80614,-1.38772 2.14286,-0.71428"
         style="fill:none;stroke:#000000;stroke-width:1px;stroke-linecap:butt;stroke-linejoin:miter;stroke-opacity:1" />
      <path
         transform="translate(0,308.2677)"
         inkscape:connector-curvature="0"
         id="path3782"
         d="m 449.28571,180.52305 c 0.95239,-0.47619 1.90477,-0.95238 2.85715,-1.42857 0.23809,-0.23809 0.41311,-0.5637 0.71428,-0.71428 3.60703,-1.80352 8.10063,2.85714 10.71429,2.85714 2.73391,0 7.30489,-4.2047 10,-2.85714 1.92548,0.96274 2.77165,3.57142 5,3.57142 10.621,0 21.84734,-2.94089 32.14286,-5 4.811,-0.9622 8.69014,1.22033 13.57142,0"
         style="fill:none;stroke:#000000;stroke-width:1px;stroke-linecap:butt;stroke-linejoin:miter;stroke-opacity:1" />
      <path
         transform="translate(0,308.2677)"
         inkscape:connector-curvature="0"
         id="path3784"
         d="m 438.57143,209.09448 c 1.89396,6.49667 2.03901,0.66236 5,2.14286 3.22729,1.61364 2.68192,9.73046 9.28571,6.42857"
         style="fill:none;stroke:#000000;stroke-width:1px;stroke-linecap:butt;stroke-linejoin:miter;stroke-opacity:1" />
      <path
         transform="translate(0,308.2677)"
         inkscape:connector-curvature="0"
         id="path3786"
         d="m 460,214.09448 c 2.89758,1.23026 5.61501,-3.57143 7.85714,-3.57143 2.39346,0 1.49789,4.7388 5,3.57143 18.38593,-6.12864 50.23765,-5.71428 66.42857,-5.71428"
         style="fill:none;stroke:#000000;stroke-width:1px;stroke-linecap:butt;stroke-linejoin:miter;stroke-opacity:1" />
      <path
         transform="translate(0,308.2677)"
         inkscape:connector-curvature="0"
         id="path3788"
         d="m 442.14286,245.52305 c 2.4322,-1.30904 2.42137,-4.28571 10.71428,-4.28571"
         style="fill:none;stroke:#000000;stroke-width:1px;stroke-linecap:butt;stroke-linejoin:miter;stroke-opacity:1" />
      <path
         transform="translate(0,308.2677)"
         inkscape:connector-curvature="0"
         id="path3790"
         d="m 482.14286,240.52305 c 4.42324,0.40441 6.01765,1.73194 7.85714,3.57143 0.38001,0.38001 9.73718,-4.28571 11.42857,-4.28571 10.809,0 39.44989,2.06077 47.85714,-2.14286"
         style="fill:none;stroke:#000000;stroke-width:1px;stroke-linecap:butt;stroke-linejoin:miter;stroke-opacity:1" />
      <path
         transform="translate(0,308.2677)"
         inkscape:connector-curvature="0"
         id="path3792"
         d="m 446.42857,277.66591 c 4.84258,-2.12356 10.9858,-7.14286 16.42857,-7.14286 3.80696,0 5.67209,5.3677 10,4.28572 4.57378,-1.14345 21.64739,-7.03345 25.71429,-5 8.23634,4.11817 26.05469,3.69605 35,0.71428 5.54276,-1.84758 11.42348,3.57398 17.14286,0.71429"
         style="fill:none;stroke:#000000;stroke-width:1px;stroke-linecap:butt;stroke-linejoin:miter;stroke-opacity:1" />
      <path
         transform="translate(0,308.2677)"
         inkscape:connector-curvature="0"
         id="path3794"
         d="m 442.14286,298.3802 c -0.38124,-2.76153 9.28571,-1.52741 9.28571,0 0,4.17156 -6.08778,1.08778 -5.71428,0.71428 0.73307,-0.73308 4.28571,0.26446 4.28571,1.42857 0,0.52301 -4.28571,0.97684 -4.28571,0.71429 0,-4.95271 4.76488,9.0506 0,4.28571 -0.16836,-0.16836 0,-0.47619 0,-0.71428"
         style="fill:none;stroke:#000000;stroke-width:1px;stroke-linecap:butt;stroke-linejoin:miter;stroke-opacity:1" />
      <path
         transform="translate(0,308.2677)"
         inkscape:connector-curvature="0"
         id="path3796"
         d="m 468.57143,301.23734 c 4.13714,-0.91317 7.97278,-2.55782 11.42857,-4.28572 0.89911,-0.44955 7.45001,3.94524 10.71429,2.85715 9.30396,-3.10132 14.22193,-2.16412 22.85714,0.71428 0.0385,0.0128 24.43962,-4.33701 26.42857,-5 7.47558,-2.49186 19.14126,2.92937 25,0"
         style="fill:none;stroke:#000000;stroke-width:1px;stroke-linecap:butt;stroke-linejoin:miter;stroke-opacity:1" />
      <path
         transform="translate(0,308.2677)"
         inkscape:connector-curvature="0"
         id="path3798"
         d="m 440,336.23734 c 4.37089,2.47218 9.55798,-2.27899 13.57143,-4.28572 2.8813,-1.44064 5.81175,3.72564 9.28571,2.85715 3.50801,-0.877 6.57426,-3.42928 10,-4.28572 3.66501,-0.91625 5.553,3.79033 9.28572,2.85715 15.94513,-3.98629 31.968,-3.88486 47.85714,-7.85715 2.4965,-0.62412 6.98374,1.37553 9.28571,2.14286 6.6988,2.23293 15.19878,-0.36522 21.42858,-2.85714"
         style="fill:none;stroke:#000000;stroke-width:1px;stroke-linecap:butt;stroke-linejoin:miter;stroke-opacity:1" />
    </g>
    <g
       id="g3829"
       transform="translate(-354.28572,35.714286)">
      <path
         sodipodi:nodetypes="cccccccccccccccccc"
         inkscape:connector-curvature="0"
         id="path2997"
         d="m 623.95499,507.12839 c -5.14995,27.53619 -8.71718,56.25765 -1.88984,83.83091 -0.36307,12.47536 4.60784,24.2354 3.83638,36.73462 1.46161,11.15518 0.11972,22.33664 2.97497,33.19918 3.02082,17.20457 -2.34914,36.09792 6.40993,52.06915 9.88675,10.16581 25.72314,8.62763 38.82857,8.66319 15.25577,-0.005 30.17906,-4.87291 45.40944,-3.3009 28.92732,-7.5185 60.80022,2.36422 88.20122,-11.80572 15.60678,-7.80765 15.74274,-29.03129 10.42929,-43.40889 -6.08073,-14.60251 -10.2708,-30.0312 -9.57747,-45.99374 0.0455,-14.85218 -4.51406,-29.42229 -2.30534,-44.32268 2.28695,-18.41259 -2.5703,-36.5437 -3.67872,-54.85558 -0.96113,-15.24456 -6.09261,-29.62862 -12.32185,-43.41758 -1.71376,-14.18155 -7.93815,-29.65679 -24.23041,-31.39767 -26.27082,-5.82663 -53.36685,-2.37366 -80.03097,-3.3763 -18.88048,0.30132 -37.91069,-0.45906 -56.654,2.11448 -11.6023,7.15497 -10.74117,22.01201 -8.92232,33.82415 1.03558,10.49265 1.89077,21.02308 3.52112,31.44338 z"
         style="fill:#f0ecb1;fill-opacity:1;stroke:#000000;stroke-width:1px;stroke-linecap:butt;stroke-linejoin:miter;stroke-opacity:1" />
      <path
         transform="translate(0,308.2677)"
         inkscape:connector-curvature="0"
         id="path3800"
         d="m 649.28571,165.52305 c -1.58588,1.92041 -1.62292,3.63456 -2.14285,5.71429 -2.37903,9.5161 1.80047,0.86945 5.71428,1.42857 3.183,0.45471 6.57428,3.28714 8.57143,4.28571"
         style="fill:none;stroke:#000000;stroke-width:1px;stroke-linecap:butt;stroke-linejoin:miter;stroke-opacity:1" />
      <path
         transform="translate(0,308.2677)"
         inkscape:connector-curvature="0"
         id="path3802"
         d="m 697.14286,173.3802 c 2.05821,0.49377 8.89048,-3.25238 10.71428,-1.42858 0.38519,0.38519 -0.13131,2.85715 1.42858,2.85715 2.63738,0 16.41934,-5.00922 19.28571,-2.14286 3.33194,3.33194 23.0771,3.57143 29.28571,3.57143"
         style="fill:none;stroke:#000000;stroke-width:1px;stroke-linecap:butt;stroke-linejoin:miter;stroke-opacity:1" />
      <path
         transform="translate(0,308.2677)"
         inkscape:connector-curvature="0"
         id="path3804"
         d="m 655.71429,206.95162 c 8.50863,-8.18613 8.1297,0 17.14285,0 1.27828,0 5.18011,-2.94719 6.42858,-3.57142 3.34507,-1.67254 22.83972,-3.75436 26.42857,-2.85715 8.14509,2.03628 48.02114,5.98943 54.28571,2.85715"
         style="fill:none;stroke:#000000;stroke-width:1px;stroke-linecap:butt;stroke-linejoin:miter;stroke-opacity:1" />
      <path
         transform="translate(0,308.2677)"
         inkscape:connector-curvature="0"
         id="path3806"
         d="m 652.14286,240.52305 c 11.48345,-13.30991 16.69297,-2.94527 20.71428,-4.28571 3.10851,-1.03617 11.90335,-5.31793 15,-4.28572 2.71227,0.90409 4.80433,3.46771 7.85715,2.85715 16.03555,-3.20711 31.60856,-2.85715 47.14285,-2.85715 3.77211,0 4.93484,1.36342 6.42858,2.85715 0.93637,0.93638 19.84084,-1.349 24.28571,-3.57143"
         style="fill:none;stroke:#000000;stroke-width:1px;stroke-linecap:butt;stroke-linejoin:miter;stroke-opacity:1" />
      <path
         transform="translate(0,308.2677)"
         inkscape:connector-curvature="0"
         id="path3810"
         d="m 649.28571,278.3802 c 12.08637,-15.52757 14.40956,-3.13652 20,-5 3.28592,-1.09531 8.23649,-5 11.42858,-5 1.99265,0 1.77914,5 4.28571,5 2.02454,0 4.01221,-1.29182 5.71429,-2.14286 0.59888,-0.29944 19.97463,1.44125 25.71428,-1.42857 1.13626,-0.56813 3.38518,0.9783 4.28572,1.42857 4.30695,2.15348 11.32468,-1.48052 15.71428,0.71428 1.97059,0.9853 5.66565,-0.43829 7.85715,0 9.85008,1.97002 15.92088,1.01978 25.71428,-1.42857"
         style="fill:none;stroke:#000000;stroke-width:1px;stroke-linecap:butt;stroke-linejoin:miter;stroke-opacity:1" />
      <path
         transform="translate(0,308.2677)"
         inkscape:connector-curvature="0"
         id="path3812"
         d="m 655.71429,324.80877 c 5.71841,-27.57089 17.01262,-8.50632 22.85714,-11.42857 2.70358,-1.35179 11.83569,-4.6262 15,-3.57143 3.99891,1.33297 4.58789,6.08242 10,5 3.16885,-0.63377 40.7324,-3.91952 41.42857,-3.57143 7.65687,3.82844 22.74318,6.12841 30.71429,2.14286"
         style="fill:none;stroke:#000000;stroke-width:1px;stroke-linecap:butt;stroke-linejoin:miter;stroke-opacity:1" />
      <path
         transform="translate(0,308.2677)"
         inkscape:connector-curvature="0"
         id="path3814"
         d="m 661.42857,360.52305 c -3.53509,8.97309 2.01214,-3.14892 5.71429,-5 4.03295,-2.01647 3.69518,5.71429 6.42857,5.71429 4.4419,0 6.55041,-6.13235 10,-7.85714 2.38326,-1.19163 5.87578,-1.24431 8.57143,-2.14286 9.52153,-3.17384 6.03414,6.23136 10.71428,8.57143 1.95182,0.97591 6.40939,-1.42857 8.57143,-1.42857 1.55268,0 2.56527,2.00205 4.28572,1.42857 10.6189,-3.53964 23.90883,-4.81156 32.85714,-9.28572 1.14643,-0.57321 3.93282,1.78997 4.28571,2.14286 1.44227,1.44227 22.56529,-1.42857 30,-1.42857"
         style="fill:none;stroke:#000000;stroke-width:1px;stroke-linecap:butt;stroke-linejoin:miter;stroke-opacity:1" />
    </g>
  </g>
</svg>
