<svg height="252.44" viewBox="0 0 299.135 336.587" width="224.351" xmlns="http://www.w3.org/2000/svg"><path d="m35.962 276.853c11.187 19.155 5.474 14.411 28.991 18.503 23.516 4.092 82.183 4.036 106.744-.999 24.56-5.035 29.735-8.1 37.925-21.773 8.191-13.672 4.958-28.055 3.48-41.858s-6.248-26.476-7.256-40.436c-1.007-13.961 2.766-27.073-.405-42.888-3.172-15.814-5.077-35.877-7.563-52.093-2.487-16.217 1.59-30.545-2.859-45.342-4.45-14.797-3.585-29.746-27.608-36.738-24.024-6.992-71.808 1.831-96.806.401s-40.625-3.623-53.441 5.231c-12.817 8.854-3.493 18.921-1.876 32.589 1.616 13.669 2.269 20.554 3.318 39.361s-1.097 57.53 4.128 72.71c10.263 28.291-5.863 77.063 13.228 113.332z" fill="#fcf6d5"/><path d="m35.962 276.853c11.187 19.155 5.474 14.411 28.991 18.503 23.516 4.092 82.183 4.036 106.744-.999 24.56-5.035 29.735-8.1 37.925-21.773 8.191-13.672 4.958-28.055 3.48-41.858s-6.248-26.476-7.256-40.436c-1.007-13.961 2.766-27.073-.405-42.888-3.172-15.814-5.077-35.877-7.563-52.093-2.487-16.217 1.59-30.545-2.859-45.342-4.45-14.797-3.585-29.746-27.608-36.738-24.024-6.992-71.808 1.831-96.806.401s-40.625-3.623-53.441 5.231c-12.817 8.854-3.493 18.921-1.876 32.589 1.616 13.669 2.269 20.554 3.318 39.361s-1.097 57.53 4.128 72.71c10.263 28.291-5.863 77.063 13.228 113.332z" fill="none" stroke="#000" stroke-width="3"/><path d="m38.756 66.76c.083-3.139.066-9.676 3.571-11.429 3.044-1.521 2.25 15.441 7.857 13.572 2.983-.994 4.721-5.383 7.857-6.429 1.781-.594 24.495-1.121 25.715-.714 3.453 1.151 7.09 5.732 11.428 4.286 6.724-2.242 19.032-3.318 24.286-8.572.595-.595.119-2.262.714-2.857 1.019-1.019 7.979 2.204 9.286 2.857 3.355 1.678 38.908.714 45.714.714" fill="none" stroke="#000" stroke-width="3"/><path d="m33.041 104.617c.953-.238 2.619-1.667 2.858-.714.238.952-3.168 1.645-2.858.714.483-1.446 2.494-1.779 3.572-2.857 1.378-1.378 1.158-4.508 3.571-5.714 7.392-3.696-.687 5.026 4.286 10 .982.981 2.59-1.162 3.571-2.143 5.396-5.396 8.69 3.155 10.715 2.143 4.018-2.009 7.976-4.366 12.143-7.143.961-.641 3.058-2.545 3.571-3.572.241-.481-.181-6.428 0-6.428.714 0-.226 1.465 0 2.143.61 1.829 1.759 6.3 4.286 7.142 3.397 1.133 9.852-4.359 12.857-2.857 4.457 2.229 9.187 4.237 13.571 6.429 2.048 1.024 5.988-2.721 8.572-1.429 1.261.631 5.15 1.855 6.428 1.429 2.33-.777 10.951-5.239 12.857-4.286 2.687 1.343 2.825 4.269 5.715 5.714 3.56 1.781 12.153-2.148 15-3.571 4.472-2.236 10.332 4.668 15 0" fill="none" stroke="#000" stroke-width="3"/><path d="m41.613 148.188c2.826-2.561 3.212-5 7.143-5 .237 0 3.331 3.095 4.285 3.572.452.226 3.976-2.345 5-2.857 2.154-1.077 5.872 2.36 7.858 2.857 3.138.784 7.758-1.404 10.714-2.143 2.92-.73 5.421 1.429 7.857 1.429 4.711 0 14.391-5.41 17.857-7.143 1.947-.974.569-4.286 1.429-4.286 4.769 0 9.542 6.557 13.571 8.571 1.998.999 12.008.715 15 .715h28.572c3.76 0 5.249 2.392 7.142 4.285.528.528 9.615.879 5-1.428" fill="none" stroke="#000" stroke-width="3"/><path d="m45.184 192.474c2.841-4.87 4.473-10.901 8.572-15 1.763-1.763 3.393 2.441 6.428 1.429 4.125-1.375 7.778-4.603 11.429-6.429 2.009-1.005 10.584 5.671 12.857 6.429 4.589 1.529 10.751-4.036 16.429-2.143 4.835 1.612 8.419 6.71 12.142 8.571 3.045 1.522 11.846-1.428 15.715-1.428 9.541 0 19-3.905 28.571-.715 3.744 1.248 11.106-1.981 8.572-.714" fill="none" stroke="#000" stroke-width="3"/><path d="m39.47 228.188c.557-3.877.835-6.131 4.286-7.857 2.594-1.297 3.915 5.529 5.714 6.429 1.714.857 6.132-3.572 7.857-3.572 1.602 0 2.519 3.403 4.286 4.286.291.146 27.164-4.517 30-3.571 4.522 1.507 9.41 6.149 15 4.285 15.346-5.115 24.971-14.057 41.428-8.571 6.486 2.162 18.894-2.926 20.715.714" fill="none" stroke="#000" stroke-width="3"/><path d="m65.163 241.198c1.019 13.607 7.611 25.66 9.951 38.964 4.042 11.107 8.438 24.476 19.846 29.844 21.934 4.379 44.001-2.794 65.919-3.272 13.119.366 26.203-2.451 39.353-2.94 12.534-2.262 27.78-.454 37.774-9.614 4.274-9.626 3.11-22.302 2.789-33.201-1.593-17.611-1.977-35.825-9.075-52.305-4.171-19.469-1.639-39.569-1.141-59.223-2.01-11.86-.07-24.043-4.327-35.842-3.682-12.287-3.788-24.089-6.536-36.055-6.785-18.609-15.755-39.185-34.269-48.703-12.299-6.613-23.932-.511-36.505.052-13.924-.123-27.632 3.944-41.456 1.759-18.141 3.407-36.769 5.139-54.378 10.848-4.753 9.013 1.308 20.989 2.653 30.846 3.483 11.628 4.006 23.217 4.637 35.583 1.015 11.794 1.246 23.443.645 35.308-.434 32.682.225 65.47 4.12 97.951z" fill="#fcf6d5"/><g fill="none" stroke="#000" stroke-width="3"><path d="m65.163 241.198c1.019 13.607 7.611 25.66 9.951 38.964 4.042 11.107 8.438 24.476 19.846 29.844 21.934 4.379 44.001-2.794 65.919-3.272 13.119.366 26.203-2.451 39.353-2.94 12.534-2.262 27.78-.454 37.774-9.614 4.274-9.626 3.11-22.302 2.789-33.201-1.593-17.611-1.977-35.825-9.075-52.305-4.171-19.469-1.639-39.569-1.141-59.223-2.01-11.86-.07-24.043-4.327-35.842-3.682-12.287-3.788-24.089-6.536-36.055-6.785-18.609-15.755-39.185-34.269-48.703-12.299-6.613-23.932-.511-36.505.052-13.924-.123-27.632 3.944-41.456 1.759-18.141 3.407-36.769 5.139-54.378 10.848-4.753 9.013 1.308 20.989 2.653 30.846 3.483 11.628 4.006 23.217 4.637 35.583 1.015 11.794 1.246 23.443.645 35.308-.434 32.682.225 65.47 4.12 97.951z"/><path d="m76.613 68.903c12.869-3.385.714 8.259.714 5.714 0-.753 1.806-1.388 2.143-.714"/><path d="m90.184 74.617c.953-.476 1.905-.952 2.857-1.429.239-.238.414-.563.715-.714 3.607-1.803 8.1 2.857 10.714 2.857 2.734 0 7.305-4.204 10-2.857 1.926.963 2.772 3.572 5 3.572 10.621 0 21.847-2.941 32.143-5 4.811-.963 8.69 1.22 13.571 0"/><path d="m79.47 103.188c1.894 6.497 2.039.663 5 2.143 3.227 1.614 2.682 9.731 9.286 6.429"/><path d="m100.899 108.188c2.897 1.231 5.615-3.571 7.857-3.571 2.393 0 1.498 4.739 5 3.571 18.386-6.128 50.237-5.714 66.428-5.714"/><path d="m83.041 139.617c2.433-1.309 2.422-4.286 10.715-4.286"/><path d="m123.041 134.617c4.424.404 6.018 1.732 7.858 3.571.38.38 9.737-4.285 11.428-4.285 10.809 0 39.45 2.06 47.857-2.143"/><path d="m87.327 171.76c4.843-2.124 10.986-7.143 16.429-7.143 3.807 0 5.672 5.368 10 4.286 4.574-1.144 21.647-7.034 25.714-5 8.236 4.118 26.055 3.696 35 .714 5.543-1.848 11.423 3.574 17.143.714"/><path d="m83.041 192.474c-.381-2.761 9.286-1.527 9.286 0 0 4.172-6.088 1.088-5.714.714.733-.733 4.286.265 4.286 1.429 0 .523-4.286.977-4.286.714 0-4.952 4.765 9.051 0 4.286-.168-.168 0-.476 0-.714"/><path d="m109.47 195.331c4.137-.913 7.973-2.558 11.429-4.285.899-.45 7.45 3.945 10.714 2.857 9.304-3.102 14.222-2.164 22.857.714.039.013 24.44-4.337 26.429-5 7.475-2.492 19.141 2.929 25 0"/><path d="m80.899 230.331c4.37 2.472 9.558-2.279 13.571-4.285 2.881-1.441 5.812 3.725 9.286 2.857 3.508-.877 6.574-3.43 10-4.286 3.665-.916 5.553 3.79 9.285 2.857 15.946-3.986 31.968-3.885 47.858-7.857 2.496-.624 6.983 1.375 9.285 2.143 6.699 2.233 15.199-.365 21.429-2.857"/></g><path d="m91.282 111.526c-5.15 27.536-8.717 56.258-1.89 83.831-.363 12.475 4.608 24.235 3.837 36.735 1.461 11.155.119 22.336 2.975 33.199 3.02 17.204-2.349 36.098 6.41 52.069 9.886 10.166 25.723 8.628 38.828 8.663 15.256-.005 30.179-4.873 45.41-3.301 28.927-7.518 60.8 2.364 88.201-11.806 15.607-7.807 15.743-29.031 10.429-43.408-6.081-14.603-10.271-30.032-9.577-45.994.045-14.852-4.514-29.422-2.306-44.323 2.287-18.412-2.57-36.544-3.678-54.855-.962-15.245-6.093-29.629-12.322-43.418-1.714-14.182-7.938-29.657-24.231-31.398-26.27-5.826-53.367-2.373-80.031-3.376-18.88.301-37.91-.459-56.654 2.114-11.602 7.155-10.741 22.013-8.922 33.825 1.036 10.492 1.891 21.023 3.521 31.443z" fill="#fcf6d5"/><path d="m91.282 111.526c-5.15 27.536-8.717 56.258-1.89 83.831-.363 12.475 4.608 24.235 3.837 36.735 1.461 11.155.119 22.336 2.975 33.199 3.02 17.204-2.349 36.098 6.41 52.069 9.886 10.166 25.723 8.628 38.828 8.663 15.256-.005 30.179-4.873 45.41-3.301 28.927-7.518 60.8 2.364 88.201-11.806 15.607-7.807 15.743-29.031 10.429-43.408-6.081-14.603-10.271-30.032-9.577-45.994.045-14.852-4.514-29.422-2.306-44.323 2.287-18.412-2.57-36.544-3.678-54.855-.962-15.245-6.093-29.629-12.322-43.418-1.714-14.182-7.938-29.657-24.231-31.398-26.27-5.826-53.367-2.373-80.031-3.376-18.88.301-37.91-.459-56.654 2.114-11.602 7.155-10.741 22.013-8.922 33.825 1.036 10.492 1.891 21.023 3.521 31.443z" fill="none" stroke="#000" stroke-width="3"/><path d="m116.613 78.188c-1.586 1.921-1.623 3.635-2.143 5.715-2.379 9.516 1.8.869 5.714 1.428 3.183.455 6.575 3.287 8.572 4.286" fill="none" stroke="#000" stroke-width="3"/><path d="m164.47 86.046c2.058.493 8.891-3.253 10.714-1.429.385.385-.131 2.857 1.429 2.857 2.637 0 16.419-5.009 19.286-2.143 3.332 3.332 23.077 3.572 29.285 3.572" fill="none" stroke="#000" stroke-width="3"/><path d="m123.041 119.617c8.509-8.186 8.13 0 17.143 0 1.279 0 5.18-2.947 6.429-3.571 3.345-1.673 22.84-3.755 26.428-2.858 8.146 2.037 48.022 5.99 54.286 2.858" fill="none" stroke="#000" stroke-width="3"/><path d="m119.47 153.188c11.483-13.31 16.693-2.945 20.714-4.285 3.109-1.036 11.904-5.318 15-4.286 2.713.904 4.805 3.468 7.857 2.857 16.036-3.207 31.609-2.857 47.143-2.857 3.772 0 4.935 1.363 6.429 2.857.936.936 19.841-1.349 24.286-3.571" fill="none" stroke="#000" stroke-width="3"/><path d="m116.613 191.046c12.086-15.528 14.409-3.137 20-5 3.286-1.096 8.236-5 11.428-5 1.993 0 1.78 5 4.286 5 2.025 0 4.012-1.292 5.714-2.143.599-.3 19.975 1.441 25.715-1.429 1.136-.568 3.385.978 4.285 1.429 4.307 2.153 11.325-1.481 15.715.714 1.97.985 5.665-.438 7.857 0 9.85 1.97 15.921 1.02 25.714-1.429" fill="none" stroke="#000" stroke-width="3"/><path d="m123.041 237.474c5.719-27.571 17.013-8.506 22.858-11.428 2.703-1.352 11.835-4.627 15-3.572 3.999 1.333 4.587 6.083 10 5 3.168-.634 40.732-3.919 41.428-3.571 7.657 3.828 22.743 6.128 30.714 2.143" fill="none" stroke="#000" stroke-width="3"/><path d="m128.756 273.188c-3.535 8.973 2.012-3.149 5.714-5 4.033-2.016 3.695 5.715 6.429 5.715 4.441 0 6.55-6.133 10-7.857 2.383-1.192 5.875-1.245 8.571-2.143 9.522-3.174 6.034 6.231 10.714 8.571 1.952.976 6.41-1.428 8.572-1.428 1.552 0 2.565 2.002 4.285 1.428 10.619-3.54 23.909-4.811 32.858-9.286 1.146-.573 3.932 1.79 4.285 2.143 1.443 1.443 22.566-1.428 30-1.428" fill="none" stroke="#000" stroke-width="3"/></svg>