<svg height="649.42682" width="548.79999" xmlns="http://www.w3.org/2000/svg"><g transform="translate(-198.60158 -318.4742)"><g fill="none" stroke="#000"><path d="m365.67522 274.37355c-6.60896 6.67106-9.54519 16.86505-11.11168 26.26397-.65591 3.93547-.35167 8.17095-1.01015 12.12183-.5187 3.11221-2.41137 5.99593-3.03046 9.09137-1.80048 9.00243-4.20182 16.64609-7.07106 25.25381-.86771 2.6031-.29941 5.49988-2.02031 8.08122-2.40957 3.61436-13.49911 5.80371-19.1929 8.08122-5.13748 2.055-10.10891 4.90963-15.15229 7.07107-5.03008 2.15575-11.00281 3.1159-16.16244 5.05076-13.65434 5.12038-28.58619 6.71696-41.41625 13.13199-5.57885 2.78942-11.6575 4.31352-17.17259 7.07106-6.01204 3.00602-9.66532 8.94597-16.16245 11.11168-.65785.21929-7.07106 2.77149-7.07106 3.03046 0 1.32155 30.24749 4.79109 32.32488 5.05076 18.51358 2.3142 36.2506 6.53727 54.54824 11.11168 5.34598 1.3365 10.75019 4.14872 16.16244 5.05076 4.25824.70971 9.05831 1.67257 13.13198 3.03046 1.77341.59114 3.27736 2.43932 5.05076 3.03046 1.78366.59455 15.51912 2.38713 16.16244 3.03046.29097.29096-2.68715 3.01069-3.03045 4.04061-1.05907 3.17718-2.3353 6.62572-3.03046 10.10152-1.65813 8.29064-3.36778 16.83891-5.05076 25.25382-1.67371 8.36852-6.04359 16.09313-8.08123 24.24366-2.17765 8.71063-8.01189 16.8953-10.10152 25.25381-.53073 2.12292-2.33912 2.97676-3.03046 5.05076-.9818 2.94542-3.05337 6.12965-4.04061 9.09138-.42592 1.27775.42592 2.76285 0 4.04061-2.59671 5.211-4.93602 14.90939-7.07107 19.19289-.23809.2381.33672 1.01016 0 1.01016" stroke-width="2" transform="translate(0 308.2677)"/><path d="m422.24376 271.34309c-2.1821 8.37998-.60166 17.19472 1.01016 25.25381 1.19667 5.98335.54884 12.2969 2.0203 18.18275 1.16547 4.66187-.0749 9.95168 2.02031 14.14214 1.41611 2.83222-2.34674 13.8157 0 16.16244 3.68968 3.68968 31.03816 14.35173 37.37564 16.16244 4.99344 1.42669 10.08188 1.58177 15.15229 3.03046 8.54783 2.44223 16.16131 5.85843 24.24366 9.09137 13.5394 5.41576 27.5627 9.74074 40.4061 16.16244 6.62471 3.31235 19.90657 7.24948 27.27412 9.09137.18316.0458 15.15229 2.11522 15.15229 3.03046 0 1.37412-20.18904 9.23168-23.23351 10.10153-13.61975 3.89135-25.3625 11.96327-38.3858 17.17259-1.01015.33672-2.0203.67343-3.03045 1.01015-.67344 0-1.38143-.21296-2.02031 0-10.56326 3.52109-20.68193 9.58772-31.31473 13.13198-11.13622 3.71208-24.87029-.19176-35.35534 5.05077-1.48968.74484-5.9386-1.13247-7.07106 0-.45537.45536 1.62749 2.24484 2.0203 3.03045 1.84456 3.68913 3.40912 8.01773 5.05076 12.12183 3.87232 9.6808 6.23366 19.62475 10.10153 29.29443 1.02368 2.5592 3.01693 4.51187 4.04061 7.07107 3.60825 9.02063 7.18919 17.52696 10.10152 26.26396 1.21333 3.63997 4.42779 6.83527 6.06092 10.10153 3.76602 7.53204 6.59846 15.21722 10.10152 22.22335 2.39719 4.79437 2.54476 12.16058 5.05077 17.1726" stroke-width="2" transform="translate(0 308.2677)"/><path d="m302.14286 567.66591c-4.12362-1.40147-8.44769-4.87626-11.42857-7.85714-1.75343-1.75343-4.53044-2.38758-6.42858-4.28572-2.12797-2.12798-16.15957-12.41185-16.42857-12.14285-.16836.16836-.23809.71428 0 .71428.33672 0 .71429-1.051.71429-.71428 0 1.67464-1.20966 3.0185-.71429 5 .73711 2.9484.99997 5.5712 1.42857 8.57143 1.41906 9.93338 4.46708 19.47825 6.42858 29.28571.58738 2.93691 2.281 5.69074 2.85714 8.57143 1.64004 8.20021 2.35026 17.76508 5 25.71428.48561 1.45684 1.60553 2.67373 2.14286 4.28572.35927 1.07782.1913 2.52545.71428 3.57143 1.12894 2.25787 5.18209 17.85714 6.42857 17.85714.2381 0-.16836-.54593 0-.71429.23752-.23751 1.19106.23752 1.42857 0 1.29078-1.29078 2.17753-4.32038 3.57143-5.71428 4.44085-4.44085 10.92645-9.39745 15-14.28572 2.4474-2.93687 4.01115-6.3848 6.42857-9.28571 4.60197-5.52236 7.78746-12.5029 11.42858-18.57143 2.71894-4.53157 5.41594-9.40332 7.85714-14.28571 3.04335-6.0867 5.05603-12.31094 7.14286-18.57143.51256-1.53769 4.86497-15.13502 2.85714-17.14286-2.41883-2.41883-20.09742 7.19157-22.85714 8.57143-3.94977 1.97488-9.99247 4.27818-12.85715 7.14286-1.01219 1.01218-2.52478 2.69096-4.28571 3.57143-.4329.21645-1.84354.41496-2.14286.71428-.37646.37646-.19223 1.53298-.71428 1.42857-5.31879-1.06375-3.74464-3.20355-1.42858 1.42857.10648.21296-.57142.19048-.71428 0-.63888-.85183-.36378-2.85714-1.42857-2.85714-.95238 0 0 1.90476 0 2.85714" stroke-width="2" transform="translate(0 308.2677)"/><path d="m500 576.23734c-.95238-.95238-1.80541-2.01576-2.85714-2.85714-2.17146-1.73717-9.50763-5.11096-12.14286-6.42857-1.4175-.70875-13.80843-12.37986-15.71429-14.28572-2.72524-2.72525-8.46258-4.28571-7.14285-4.28571.67167 0 3.83588 20.15817 4.28571 22.85714.24756 1.48536 1.18101 2.80036 1.42857 4.28571.76217 4.573.38516 12.25491 1.42857 16.42858 2.4667 9.86676 3.24637 20.12832 5.71429 30 .44248 1.76989 2.37276 2.83256 2.85714 4.28571 1.03732 3.11196 2.7881 6.29048 4.28572 9.28571 1.49994 2.99989 2.68725 12.05791 5.71428 13.57143 1.77398.88699 13.38191-13.69167 15-15.71428 2.75531-3.44414 4.25646-7.62737 6.42857-11.42857 2.91999-5.10997 5.96342-9.78398 8.57143-15 4.28872-8.57743-1.12909 3.07229 2.85715-3.57143 2.76014-4.60024 5.30839-9.22072 8.57142-13.57143 1.48466-1.97954 10.90693-20.05626 11.42858-22.14286.56254-2.25018.99189-4.12665 2.14285-6.42857.53159-1.06317 4.79625-15.20375 4.28572-15.71429-2.0863-2.0863-6.92828 1.28552-9.28572 2.85715-9.96691 6.64461-18.7756 13.46945-28.57143 20-4.54586 3.03058-7.71048 6.912-12.85714 10" stroke-width="2" transform="translate(0 308.2677)"/><path d="m330 599.09448c7.55413-.36391 14.77978-2.09881 22.14286-3.57143 2.06158-.41231 4.3534.34586 6.42857 0 10.86855-1.81142 23.31408-.2928 33.57143-2.85714 1.97946-.49487 4.49895.64321 6.42857 0 3.94056-1.31352 8.93231-.35839 12.14286-1.42857 5.39387-1.79796 11.26935-2.14286 17.14285-2.14286 3.12873 0 31.63885.46228 32.14286.71429.76251.38125 10.71429-.34267 10.71429 0 0 .0825-4.42959.71428-5 .71428" stroke-width="2" transform="translate(0 308.2677)"/><path d="m387.14286 591.23734c1.08007 4.18802 3.08981 6.89392 5 10.71429 4.66565 9.33129 10.4821 18.10706 15 27.14285 2.53318 5.06637 3.95013 8.95014 7.14285 12.14286.20685.20684.49535 4.50466 1.42858 3.57143 2.31106-2.31106 11.42857-30.10437 11.42857-34.28572 0-3.30609 2.48541-13.91398 4.28571-15.71428.35714-.35714-.28571-1.71429 0-2.14286.56033-.8405 2.14286-3.15301 2.14286-2.14286 0 .75293-1.61046.18189-2.14286.71429" stroke-width="2" transform="translate(0 308.2677)"/><path d="m393.57143 580.93361c13.05362-1.58796 26.29643.12462 39.30867-2.0795 11.10429-1.10688 22.28885-1.41177 33.25405-3.5201 9.7339-1.22295 20.92695-1.13227 28.50358-8.27278 5.69796-8.87065-4.52835-18.59741-13.55198-18.26425-14.03096-1.48928-28.22489-1.04717-42.29469-.6212-9.21487 1.62041-20.50022 5.15261-28.25312-2.14694-6.03193-4.70423-7.77845-17.85569-14.6716-18.53605-4.23596 6.98029-2.3796 18.54559-12.3407 21.06038-8.66292 3.80863-18.28829 1.91346-27.36304 2.35829-8.61313 2.03581-17.43995 1.5897-26.14382.64896-9.13936.12807-18.2379 1.9348-27.03344 4.27186-8.17271 2.0251-10.77255 12.36438-6.3693 18.91521 4.8653 8.16368 14.80474 11.13312 23.82005 10.81087 10.70119.86683 21.32704-.61749 31.90136-2.02076 7.13768-.44465 14.21047-1.81291 21.12545-3.34623 6.71451-.0713 13.39028 1.27888 20.10853.74224z" stroke-width="2"/><path d="m330.31988 243.5639c-6.01203-6.38839-15.64219-9.57369-20.70812-17.1726-2.72863-4.09293-4.46531-10.12631-6.06092-14.64721-.73679-2.08756-1.99345-3.93319-2.52538-6.06091-1.15154-4.60615-1.58337-9.4321-2.52538-14.14214-1.00947-5.04731-2.02153-10.10762-3.03046-15.15229-.48174-2.40867.0535-5.31807.50508-7.57614.32119-1.60595-.39665-3.4642 0-5.05077 1.01894-4.07575 1.7066-8.53301 2.52538-12.6269.46169-2.30846.55083-4.77448 1.01015-7.07107.38028-1.90139 1.65003-3.70448 2.0203-5.55584.73759-3.68792 2.11559-7.05674 3.53554-10.6066 1.39519-3.48798-.18784.43411.50508-3.03046 1.20655-6.03279 5.52103-12.41214 9.09137-17.17259 4.61253-6.15005 11.54375-11.063012 17.67767-15.15229 7.63837-5.092248 14.8691-10.941767 22.72843-15.657364 5.14068-3.084408 14.38555-5.596409 20.20305-6.565992 1.55618-.259363 2.98951-1.255865 4.54569-1.515229 6.413-1.068833 12.78657-2.115267 19.1929-3.030457 2.8417-.405958 1.15295.107979 3.53553.505076 2.45713.409521 5.11902-.409521 7.57614 0 4.20898.701497 8.52179.994025 12.62691 2.020305 2.50602.626504 5.01255 2.098116 7.57614 2.525382 14.02071 2.336784 27.36677 8.944929 39.39595 16.16244 6.40295 3.841771 13.27089 14.841219 16.66752 20.708129 2.34856 4.05661 3.15264 9.70228 4.04061 14.14213.83979 4.19893.072 9.95623 1.01015 14.64722.22509 1.12543-.27781 2.42427 0 3.53553 1.12731 4.50921 1.61278 9.07403 2.52538 13.63706.45328 2.26637-.45327 4.8047 0 7.07107 2.21914 11.09568-.33351 23.55742-3.03045 34.34518-.78548 3.14192-2.54514 6.1202-3.53554 9.09138-.22415.67247-1.19131 1.37247-1.51523 2.0203-1.85064 3.70129-2.21644 9.28752-5.05076 12.12183-.35406.35407-1.33873 5.37934-2.0203 6.06092-.54409.54408-.80441 2.31963-1.51523 3.03046-.59838.59838-1.8541 1.85409-2.52538 2.52538-.2381.23809.23809.77205 0 1.01015-.58926.58925-1.43105.92597-2.02031 1.51523-.85266.85266-.88541 2.90572-1.51523 3.53553-1.40217 1.40217-2.93156 2.42649-4.54568 4.04061-.25727.25726-2.71546 0-3.03046 0" stroke-width="2" transform="translate(0 308.2677)"/><path d="m305.57115 127.39635c-.50508-.67343-1.08213-1.29847-1.51523-2.0203-1.55928-2.59879 7.79015-12.84092 9.59645-14.64721 1.7261-1.72611 9.80833-4.34612 12.6269-5.05077 2.44281-.6107 4.67153-1.92549 7.07107-2.52538 6.64369-1.66092 13.68719-.99344 19.69797 1.01015.76099.25366 1.83048 1.55704 2.52539 2.02031 2.84686 1.89791 7.00813 3.78835 9.09137 6.56599 1.9059 2.5412 3.8353 5.8556 6.06091 8.08122 2.17946 2.17946 9.85417 12.64762 10.60661 15.65737 1.26024 5.04097 2.24228 10.48435 3.53553 15.65736.57681 2.30724.0347 5.92197-.50508 8.08122-1.1008 4.40322.50508 10.2274.50508 14.64721 0 1.40064-.0753-.80624.50508 1.51523.69429 2.77717-.1573 14.10896-1.01016 16.66752-.70957 2.12871.49549 4.56487-.50507 6.56599-.33672.67344.33671 1.85195 0 2.52538-1.10303 2.20607-.96236 4.95517-2.02031 7.07107-.26937.53875.26938 1.48156 0 2.0203-.6049 1.2098-4.54568 12.32527-4.54568 12.62691 0 1.15396-4.66679 14.26324-5.05077 14.64721-.38563.38563-.54229 4.04061-1.01015 4.04061-.23809 0 .33672-.33671.50508-.50507.35714-.35715 0-1.01016 0-1.51523" stroke-width="2" transform="translate(0 308.2677)"/><path d="m488.40876 108.70853c-7.71347-3.2613-13.32722-8.08122-22.22336-8.08122-.55993 0-1.53604-.24213-2.02031 0-1.24584.62292-2.82059.40015-4.04061 1.01015-3.53147 1.76574-7.66303 3.0739-11.61675 5.05077-3.91968 1.95984-10.43489 13.12192-11.61675 16.66751-.53622 1.60864-2.85962 4.03317-3.53554 6.06092-2.64865 7.94594-4.86599 16.1132-7.57614 24.24366-1.08702 3.26105.56417 7.39884-.50508 10.6066-.85319 2.55957-.17719 5.58234-1.01015 8.08122-.74826 2.24478-.34079 5.06299-1.01015 7.07107-1.59406 4.78216-1.37585 10.18846-3.03046 15.15229-.45869 1.37608.93588 8.43775 1.51523 9.59645.73827 1.47655.50507 11.81977.50507 14.14213 0 .81729.39014 10.37673.50508 10.6066.97156 1.94312 1.01015 3.75963 1.01015 6.06092 0 3.07737 1.893 6.56599 1.51523 6.56599-.61553 0 .37928-.94725-1.51523 0" stroke-width="2" transform="translate(0 308.2677)"/><path d="m452.12992 497.28336c-.67343-.50508-1.42506-.91999-2.0203-1.51523-.36053-.36053.17056-2.0137 0-2.52538-1.78448-5.35345.0839-12.75271 3.03046-17.1726.80909-1.21364 3.23855-3.09982 4.54568-3.53553.47916-.15972 1.06348.22588 1.51523 0 .46565-.23283.82341-.85099 1.51523-.50508 5.9966 2.9983 4.78033 8.99986 4.04061 15.65737-.50538 4.54838-1.45 8.83047-2.52538 13.13198-.40776 1.63103-3.35452 6.6565-5.55584 5.55584-4.94766-2.47383-1.84834-18.69323.50508-22.22335.28061-.42093 1.96339-3.53554 2.0203-3.53554 1.08711 0 .88049 3.01688 1.01015 3.53554.94572 3.78284-1.00056 21.55311-8.08122 19.19289-6.73882-2.24627-.48171-18.47033 2.02031-22.22335.6704-1.0056 1.86716-3.35957 3.53553-2.52538 4.83721 2.4186.48245 16.47154-1.01015 20.20305-.30566.76415-2.42518 3.08055-3.53553 2.52538-3.4006-1.7003 1.10733-15.61858 3.03045-18.18275.57895-.77193 1.39609-3.84764 3.03046-3.03045 3.40074 1.70036 1.70299 18.18274-3.03046 18.18274-1.81328 0-1.58052-3.29162-2.0203-5.05076-.62322-2.49286-.40454-4.64386 0-7.07107.23346-1.40076 4.99618-10.66118 7.57614-8.08122.2381.2381-.0817.68349 0 1.01015.18261.73045.86249 1.28201 1.01015 2.02031.38087 1.90431-.24174 1.18714-.50507 3.03046-.68475 4.79324-1.52264 9.09878-5.05076 12.6269-.75445.75445-4.60664 1.39333-5.05077.50508-.45798-.91597.50508-2.00637.50508-3.03046 0-.5324-.42978-.98818-.50508-1.51523-.79903-5.59325 1.78546-9.86667 5.55584-13.63706.49545-.49545 2.04056-2.51525 3.03046-2.0203 4.9414 2.4707-.85296 21.79687-5.05076 19.69797-4.49127-2.24563-.37281-17.67767 5.05076-17.67767 2.93222 0 .31622 13.63706-6.06092 13.63706" stroke-width="2"/><path d="m340.08965 507.54333c-1.11459.46567.6862 2.84934 0 3.53554-.36177.36177-6.61641-5.10118-7.57614-6.06092-2.58982-2.58981-2.25786-6.00094-3.03046-9.09137-.4599-1.83959-.96061-3.89199-1.51523-5.55584-.62263-1.86789.14647-4.77299.50508-6.56599 1.28661-6.43309-.41598-11.5078 5.05076-15.15229.39621-.26414.5584-.85957 1.01015-1.01015 2.10195-.70065 3.39606-.0349 5.55584.50508 3.504.876 6.14131 3.11084 8.5863 5.55583.88439.8844 1.45628 2.91258 2.0203 4.04061 4.05294 8.10588 7.92477 30.52509-3.53553 34.34519-1.23189.41063-6.16087-.80494-6.56599-2.0203-.27147-.81441.19348-2.02641-.50508-2.52539-.822-.58713-2.18996.56034-3.03046 0-4.15314-2.76875-5.21295-25.27231-3.53553-30.30457.59982-1.79948 3.83032-3.53554 5.55584-3.53554 5.17006 0 9.0031 13.0192 9.59645 17.1726.7825 5.47751-.43418 13.06108-3.53554 16.16244-1.37579 1.37579-2.95249-4.07789-3.03046-4.54569-.75349-4.52099-3.18178-14.34457-1.01015-18.68782.37646-.75292 1.13877-1.26738 1.51523-2.02031.39778-.79555 1.54524-2.52538 2.52538-2.52538 1.7146 0 2.2224 4.14181 2.52538 5.05077 1.21273 3.63818 2.13885 7.24633 2.52538 11.11167.30028 3.0028-1.63406 16.45955-7.07106 14.64722-7.33224-2.44408-8.4957-23.53135-3.03046-26.26397 2.95851-1.47926 3.63088 4.32666 4.04061 5.55584.6189 1.85669.26608 3.13878.50508 5.05076.54087 4.32699.6389 7.9474-2.52539 11.11168-.67343.67343-1.07374 2.12548-2.0203 2.0203-2.89107-.32123-4.08991-5.52514-4.54569-7.57614-.72447-3.26012-2.43701-17.21677 1.51523-19.1929 5.24743-2.62371 9.59512 23.23351 2.52538 23.23351-5.80864 0-10.43711-25.25381-.50507-25.25381 4.40995 0 7.30418 23.1558 1.01015 25.25381-5.93474 1.97825-8.92613-21.77336-1.51523-24.24366 5.81573-1.93858 8.09788 16.32524 2.52538 18.18275-3.6656 1.22186-6.70419-6.01814-7.07107-8.5863-.48214-3.37499.89643-6.88152 2.52539-9.59645.76445-1.27409 1.3022-2.59839 3.03045-3.03046 5.69396-1.42349 6.8691 19.1929-1.01015 19.1929-1.05928 0-2.33298-.81775-3.03046-1.51523-5.56608-5.56608 4.87396-17.29046 6.56599-16.16244 2.26568 1.51045-.60878 13.23569-2.52538 15.15229-.16836.16836-.29211-.3986-.50507-.50508-.60754-.30376-1.30838-.65418-2.02031-1.01015" stroke-width="2"/><path d="m454.15023 488.69706c.74869 2.28752.50507 4.69609.50507 7.07107 0 1.03899-.84913 6.91005-1.51522 7.57614-2.7317 2.7317-7.65242 1.21016-8.5863-2.52538-.41409-1.65636-.7967-3.80607-.50508-5.55584.62134-3.728 4.46319-18.71532 10.6066-16.66751 4.19468 1.39822 7.57615 7.36375 7.57615 11.61675 0 2.7333-2.50754 7.55236-4.04061 9.59645-.56087.74782-2.08005 3.7582-3.53554 3.03046-1.67763-.83882-1.60647-4.10743-2.0203-5.55584-1.84444-6.45555-4.47482-18.31211 4.04061-21.71828 1.3252-.53008 2.75347-1.36317 4.04061-.50508 6.94239 4.62826-3.27165 27.78676-8.5863 24.24366-.31323-.20882-.23887-.74395-.50507-1.01015-5.25219-5.25219-5.79063-16.91433-.50508-22.72843 2.69945-2.9694 2.77838-4.5877 6.06092-4.04061 5.14242.85707 3.67447 23.76637-6.566 21.71828-8.17265-1.63453-8.8247-19.45015 1.01016-22.72843 1.16018-.38673 3.30999-.99936 4.54568-.50508 5.661 2.2644 3.75224 11.11113 2.02031 15.15229-.35735.8338-.59706 2.50579-1.51523 3.03046-.74536.42591-1.91836-.10195-2.52538.50507-1.32807 1.32807-.75568 5.13559-4.04061 4.04061-5.06486-1.68828.46976-20.70813 5.55584-20.70813.91552 0 .93849.62566 1.51523 1.01016 7.07557 4.71704-2.14154 24.24366-9.09138 24.24366-1.91468 0-2.0203-3.34788-2.0203-4.54569 0-4.19667 3.86213-17.67767 9.59645-17.67767 6.40149 0 1.88761 10.07443 1.01015 12.12183-.27344.63804.0902 1.66317-.50508 2.02031-.59523.35714-1.63525-1.08265-2.0203-.50508-.65372.98058.25565 2.38509 0 3.53554-.25008 1.12533-4.35155 3.93696-5.55584 3.53553-6.29774-2.09925-.43577-18.68782 3.03046-18.68782 4.38038 0 3.18375 18.58562 0 20.70812-.70042.46695-1.17851 1.51523-2.02031 1.51523-5.15922 0-4.39518-15.15228 6.06092-15.15228 7.75976 0 4.99259 10.79435-.50508 12.6269-.74826.24942-3.73646-1.11061-4.54569-1.51523" stroke-width="2"/><path d="m318.19805 260.73649c2.57446-.65674 5.45463-.13462 8.08122-1.01015 2.59753-.86584 10.19031 1.99071 13.13199 1.01015 2.59223-.86408 5.53728-.28331 8.08122-1.01015 3.46248-.98928 7.65247-2.02031 11.11167-2.02031 9.81524 0 18.61459-1.01015 28.28428-1.01015 3.75208 0 14.79786.95993 17.67766 0 1.79334-.59778 3.83294.0692 5.55584-.50508 5.38863-1.79621 12.16244-2.0203 18.18275-2.0203 9.08078 0 17.61307-.50508 26.76904-.50508 3.81727 0 8.47211-1.51523 12.62691-1.51523.84179 0 2.52538-.84179 2.52538 0 0 .53397-2.4515.93628-3.03046 1.51523" stroke-width="2" transform="translate(0 308.2677)"/><path d="m361.12954 25.876022c7.45239 3.232859 14.45597 7.057343 21.2132 11.111678 4.41571 2.649429 10.52206 11.307494 13.13198 15.657365.96022 1.600357 1.49083 3.498926 2.52538 5.050762.2385.357748 6.1859 13.256967 3.03046 10.101526-.2186-.2186 1.758-2.768154 2.02031-3.030458 3.43963-3.439629 7.09438-7.094386 10.6066-10.606601 3.93966-3.939667-1.11804.798595 3.53553-2.525382 1.16248-.83034 1.86798-2.200117 3.03046-3.030457 7.06766-5.04833 17.3607-11.648106 26.26397-13.131984 1.16247-.193746 2.36886.166667 3.53553 0 1.17052-.167217 12.62691-.608877 12.62691 0 0 .336718-.67344 0-1.01016 0-1.34687 0-2.69374 0-4.04061 0" stroke-width="2" transform="translate(0 308.2677)"/><path d="m401.53564 69.312582c2.67503-4.431935 3.02811-9.58475 4.04061-14.647212.53003-2.650184 2.66314-5.785444 4.04061-8.081221 1.60928-2.68214 2.7408-6.179784 4.54568-8.586296 3.60721-4.80961 7.67652-8.821572 12.62691-12.121831 1.39402-.929344 3.02076-2.017072 4.54569-2.525381 1.72352-.574509 3.8642-.164334 5.55584-1.010153.76185-.380927 2.46739-.44709 3.03045-1.010152.2662-.266199 1.01016-.881538 1.01016-.505076 0 .605658-2.12955 1.31731-2.52539 1.515228" stroke-width="2" transform="translate(0 308.2677)"/></g><path d="m337.93324 586.84608c6.55921-13.05066 11.70173-28.73497 11.70173-35.68944 0-3.99886-.53483-4.84952-3.049-4.84952-3.89543 0-28.84206 11.78118-35.17511 16.61162-2.65138 2.02231-5.19164 3.30597-5.64503 2.85257-.45339-.45339.55312-4.60217 2.23668-9.21951 1.68357-4.61733 3.06103-9.3646 3.06103-10.54946 0-1.18487 3.21409-9.02002 7.14243-17.41143 9.8117-20.95904 16.68551-41.26063 20.83669-61.54057 1.92672-9.41266 4.76199-19.52912 6.30061-22.48102l2.79749-5.3671-3.18147-.7217c-9.91574-2.24937-15.28611-3.65867-21.0386-5.52101-28.45804-9.21309-55.90803-15.48003-86.97833-19.85751l-23.05119-3.24767 11.08619-7.2579c13.49051-8.83195 30.12852-15.61405 57.51475-23.44456 11.39286-3.25754 25.53572-8.02802 31.42858-10.60107 5.89285-2.57306 14.11361-5.79738 18.26834-7.16517 4.23356-1.39375 8.39418-3.84142 9.46532-5.56841 1.05119-1.69484 3.64635-9.5101 5.76702-17.36724s4.77199-17.13237 5.89182-20.61163c1.11984-3.47925 2.03607-8.7151 2.03607-11.63523 0-7.71148 5.20607-23.35852 9.4499-28.40203l3.66123-4.35111h25.94442 25.94445l.0481 6.78571c.0266 3.73215 1.28511 16.10715 2.79687 27.5 1.51177 11.39286 2.59429 24.35215 2.4056 28.79841-.31818 7.49803-.0376 8.30168 3.87122 11.08495 6.12575 4.36193 31.53425 14.12891 43.06707 16.55492 9.7835 2.05802 29.94587 9.4321 66.38245 24.27837 16.67878 6.79585 27.08028 10.14868 39.97982 12.88712 5.39294 1.14486 4.13744 1.90936-13.86134 8.44045-7.29373 2.64662-19.95435 8.09081-28.13469 12.0982-8.18027 4.00738-15.63887 7.28616-16.57461 7.28616-.93573 0-8.70702 2.95198-17.2695 6.55995-12.48059 5.25895-18.11809 6.80756-28.42532 7.80839-22.3963 2.17467-29.28571 3.14734-29.28571 4.13461 0 .52822 1.28518 3.62043 2.85598 6.87159 1.57079 3.25116 5.72392 14.04324 9.22917 23.98241 3.50528 9.93916 6.95468 18.81059 7.66536 19.71428.71069.90367 3.361 7.10734 5.88959 13.78591 2.52858 6.67857 6.71703 16 9.30767 20.71429 6.18967 11.26361 13.44008 28.01071 14.56767 33.64861l.89927 4.49636-4.85021-2.44419c-2.66762-1.34428-7.10022-4.54607-9.85022-7.11506-7.13327-6.66372-18.81213-15.24978-19.6302-14.43171-.3817.38169.6123 7.6389 2.20887 16.12713 1.59659 8.48823 3.23419 17.83118 3.63915 20.76213l.73627 5.32898-21.88969-.90323c-15.04324-.62072-24.69764-.3508-30.86741.86303-4.93776.97145-13.52707 2.09486-19.08736 2.49649-5.5603.40161-17.82391 1.26644-27.25248 1.92183-17.15859 1.1927-27.09232 2.33141-33.32165 3.81967-3.19833.76413-3.11168.37583 2.3342-10.45966z" fill="#f00" opacity=".938053" transform="translate(0 308.2677)"/><path d="m413.60243 637.69225c-8.87788-14.08463-23.60579-43.02325-22.12904-43.48097.95316-.29543 5.91158-.89611 11.01872-1.33484 5.10715-.43873 13.59323-1.21749 18.85797-1.73057l9.57225-.93287-1.98661 6.97563c-1.09264 3.8366-3.26646 12.43992-4.83072 19.11849-1.56426 6.67858-4.06691 15.01617-5.56145 18.52799l-2.71735 6.38512z" fill="#f00" opacity=".938053" transform="translate(0 308.2677)"/><path d="m373.92069 239.46134c0-.81876 2.27898-8.2993 5.06441-16.62343 6.05627-18.0989 7.66117-30.89623 7.04213-56.15335-.59981-24.47219-2.6158-31.3006-13.46381-45.6035-14.06182-18.54025-25.46088-23.250927-42.92845-17.74026-11.15912 3.52048-12.31489 3.61274-9.97753.79639 2.3088-2.78193 32.19067-23.919877 37.83467-26.763629 11.35274-5.720118 39.2968-11.164119 42.72049-8.322712 1.54819 1.284889 2.26901 1.286156 3.06057.0054 2.81904-4.5613 40.82582 5.168436 58.24806 14.911502 8.02643 4.488632 19.54231 15.139615 19.54231 18.074589 0 .51436-3.69643-.002-8.21428-1.1469-7.79355-1.975466-8.64783-1.916732-16.67861 1.1467-4.65538 1.77585-9.96511 4.84819-11.7994 6.82742-8.44493 9.11224-20.45056 39.79621-20.45056 52.26754 0 3.42339-.97593 11.82069-2.16872 18.66067-1.76822 10.13973-1.9184 16.63331-.81325 35.16341.7455 12.4999 1.75936 23.38062 2.25302 24.17938.51607.83502-.60965 1.4523-2.64857 1.4523-4.53123 0-11.70781-6.02448-15.10454-12.6797-3.20062-6.271-7.93679-10.79353-9.98058-9.5304-.82491.50982-2.52358 4.44855-3.77485 8.75273-1.37939 4.74496-3.52517 8.64494-5.45059 9.90651-4.21593 2.76239-12.31192 4.35329-12.31192 2.41935z" fill="#800000" opacity=".938053" transform="translate(0 308.2677)"/><path d="m288.27608 629.86894c-2.42797-7.46866-5.68224-19.52185-7.23171-26.78488-1.54946-7.26303-4.74192-21.24122-7.09433-31.06265-2.35242-9.82143-4.28567-19.62279-4.2961-21.7808-.0186-3.83884.29757-3.69371 14.62389 6.71374 8.05357 5.85056 15.71717 11.69316 17.03022 12.98354 2.21838 2.18008 2.93199 1.93496 10.08141-3.46291 7.9861-6.02956 30.5049-17.31071 34.55466-17.31071 1.78527 0 2.11769.90119 1.44911 3.92857-3.82886 17.33737-15.84063 42.94359-29.31846 62.5-3.79048 5.5-11.05257 14.01748-16.13799 18.92773l-9.2462 8.92774z" fill="#fc0" opacity=".938053" transform="translate(0 308.2677)"/><path d="m485.27434 640.94998c-.94879-2.94643-3.48325-8.94455-5.63214-13.32917-3.80199-7.75762-7.32493-23.35718-10.04917-44.49765-.73621-5.7131-2.21747-15.04818-3.29168-20.74461s-1.45826-10.35714-.85344-10.35714 4.7818 3.375 9.28219 7.5c4.50038 4.125 11.14147 9.12791 14.75798 11.11758 4.42993 2.43719 6.4385 4.41826 6.1557 6.07143-.60941 3.56245 1.44334 3.03458 7.72333-1.98604 10.2751-8.21459 40.7144-28.73262 41.48409-27.96294 2.84584 2.84585-11.35296 34.74147-23.55183 52.90589-3.77172 5.61617-9.90543 15.67551-13.63048 22.35408-6.40575 11.48476-16.63319 24.28571-19.4033 24.28571-.6964 0-2.04246-2.41071-2.99125-5.35714z" fill="#fc0" opacity=".938053" transform="translate(0 308.2677)"/><path d="m310.94007 274.9418c-13.3207-4.03684-19.25521-17.15816-10.89744-24.09448 4.07268-3.38003 21.88353-5.73376 49.77984-6.57848 25.99195-.78705 35.02847-2.03128 39.37707-5.42179.93908-.73219 2.78596-4.65677 4.10417-8.7213s2.89511-7.93529 3.50421-8.60169 3.26484 2.48047 5.90164 6.99303c6.63604 11.35676 10.95189 14.31114 20.2435 13.8575 4.06791-.1986 19.28905-.4917 33.82477-.65133 22.8179-.25058 27.07126.0521 31.1328 2.21524 8.84963 4.7133 8.91907 12.90934.14783 17.44513-8.08655 4.18171-56.17386 9.05655-97.7092 9.90524-13.35715.27293-31.03572 1.49332-39.28572 2.71198-15.97347 2.35955-34.04404 2.78333-40.12347.94095zm51.55204-15.57562c9.03572-.8712 23.17858-1.59818 31.42858-1.61551 8.25-.0174 18.60374-.62187 23.00832-1.34341 4.40459-.72153 18.08359-1.49475 30.3978-1.71825 20.41476-.37053 27.07523-1.23386 25.06072-3.24838-.77073-.77072-34.66069 1.00732-62.75256 3.29232-9.03571.73497-24.78571 1.43167-35 1.54821-10.21428.11655-21.14286.79721-24.28571 1.51258-3.14286.71538-11.66072 1.3164-18.92857 1.3356-7.26786.0192-13.21429.57823-13.21429 1.24226 0 1.55364 23.20912 1.02672 44.28571-1.00542z" fill="#fc0" opacity=".938053" transform="translate(0 308.2677)"/><path d="m375.34926 238.40475c0-.41774 1.8861-7.1084 4.19134-14.86813 5.21217-17.54481 7.24542-31.80141 7.20893-50.54715-.0547-28.10652-3.27039-39.3672-15.68617-54.92976-12.34593-15.47502-25.17539-20.285535-41.31419-15.4911-4.25862 1.26513-7.94062 2.10257-8.18222 1.86097-.45903-.45903 18.32411-14.466294 29.61506-22.085011 13.29954-8.974052 32.92816-13.420537 55.59582-12.594161 16.23622.59191 30.10579 4.084159 47.14286 11.870196 9.09122 4.154742 24.28571 15.020015 24.28571 17.366224 0 .651581-4.66071 1.133532-10.35714 1.071012-17.0781-.187462-25.05022 5.70002-33.74276 24.91934-7.0809 15.65598-10.06513 27.82987-12.59994 51.40031-2.07078 19.25559-2.1974 25.72051-.83007 42.37916.88741 10.81156 1.32499 19.94587.97239 20.29847-1.78926 1.78926-8.86425-2.79868-13.06818-8.47437-7.7324-10.43944-10.03833-12.84506-12.31279-12.84506-1.18508 0-2.6033 1.44643-3.1516 3.21429-2.4918 8.03414-6.76493 15.09283-10.04017 16.58513-3.75587 1.7113-7.72688 2.15821-7.72688.86964z" fill="#d40000" opacity=".938053" transform="translate(0 308.2677)"/><path d="m336.09083 593.2811c.57948-1.8714 2.3456-5.96165 3.9247-9.08943 4.9101-9.7256 9.61944-25.24786 9.61944-31.70619 0-5.67996-.29566-6.17836-3.66506-6.17836-4.11748 0-21.69462 7.77873-32.24221 14.26872-3.82243 2.35197-6.94987 3.89904-6.94987 3.43794 0-3.1223 5.88342-19.82563 12.52665-35.5638 10.24361-24.26764 13.68226-34.44474 19.74578-58.44003 2.7614-10.92773 5.95119-22.09553 7.08843-24.81731 2.57908-6.1726 2.5904-7.45695.0657-7.45695-1.1011 0-14.17266-3.4706-29.04793-7.71244-29.40499-8.38516-53.33918-13.63576-78.95008-17.31977-21.57337-3.10324-21.51656-3.08179-17.13354-6.47058 10.93259-8.45267 31.89457-17.24531 67.84783-28.45919 27.84858-8.68603 49.49649-17.61708 52.3964-21.61663 3.37264-4.65152 11.94492-33.69419 14.77642-50.06208 2.49405-14.41723 6.18538-24.28468 11.00312-29.41294 2.92501-3.11353 3.93554-3.23208 27.55084-3.23208h24.51447l3.11775 32.5c1.71475 17.875 3.1069 34.30863 3.09365 36.51918-.022 3.67378 1.11153 4.55525 13.1902 10.25708 7.26786 3.43085 21.1294 8.55127 30.80345 11.37871 9.67402 2.82745 24.13831 7.63454 32.14285 10.68243 8.00453 3.04789 24.51799 9.35849 36.69656 14.02356 12.17857 4.66506 26.86564 9.68588 32.63796 11.15736 5.7723 1.47148 9.62944 2.94301 8.57143 3.27006-1.05803.32704-15.42368 6.35539-31.92368 13.39633-51.38484 21.92712-61.86548 25.31959-85 27.51356-13.13024 1.2452-17.14285 2.16153-17.14285 3.91477 0 4.53963 27.9803 72.73942 38.54827 93.95839 5.44013 10.92301 10.77821 25.43541 9.73836 26.47527-.31673.31674-5.04295-2.89894-10.50269-7.14597-15.65437-12.17724-20.62617-15.53469-21.58474-14.57611-.73675.73672 1.06207 14.35832 4.89035 37.03252l.6633 3.92858-24.805.0114c-13.64275.006-28.66214.60578-33.37642 1.33295-4.71429.72718-14.03572 1.72504-20.71429 2.21747-21.92713 1.61676-43.48583 3.62948-48.3703 4.51588-4.53696.82333-4.74137.68515-3.74527-2.53168v-.00064z" fill="#d40000" opacity=".938053" transform="translate(0 308.2677)"/><path d="m409.36137 628.32252c-8.99615-15.634-17.19116-32.16969-16.35669-33.00415.7227-.7227 35.62176-4.60499 36.30124-4.03828.50207.41876-8.91001 35.50547-11.46958 42.75672l-1.97206 5.58683z" fill="#d40000" opacity=".938053" transform="translate(0 308.2677)"/><path d="m338.57143 473.79076c.0378 4.971 2.85714 8.42216 2.85714 12.85714v11.42857c0 24.02084-19.70494-.29505-5.71428-14.28571 1.18984-1.18984 3.85019-2.36062 5.71428-1.42857 7.87239 3.93619.6827 31.42857-7.14285 31.42857-7.8134 0-7.78354-26.10824 0-30 5.31623-2.65812 10 9.82884 10 12.85714 0 2.21369-3.27013 14.28571-7.14286 14.28571-12.68036 0-5.20785-32.60392 2.85714-28.57142 9.2726 4.63629 8.03264 24.15101-2.85714 21.42857-14.40636-3.60159-5.92319-31.83794 1.42857-30 11.13512 2.78378 6.65029 28.57143 4.28572 28.57143-6.78133 0-4.8953-16.9521-4.28572-20 .27211-1.36055-.54422-8.70749 0-8.57143 8.29442 2.0736 12.5115 23.02996 4.28572 27.14285-1.67762.83881-3.26039-.40323-4.28572-1.42857-9.38497-9.38497 1.42857-11.80961 1.42857-20 0-1.96338-3.18467-4.83623-1.42857-5.71428 3.54392-1.77196 11.42857 6.38122 11.42857 10 0 3.05274-3.31507 15.22896-7.14285 17.14285-8.72824 4.36412-11.16771-28.44099 2.85714-21.42857 8.18199 4.091 2.28458 26.14229-4.28572 22.85715-8.8772-4.4386-7.79397-28.57143-2.85714-28.57143 3.04911 0 4.98681 3.55824 7.14286 5.71428 1.01015 1.01016 0 2.85715 0 4.28572 0 9.06467 1.11771 5.40945-15.71429 10-2.22706.60738-.58453-8.83094 0-10 3.47991-6.95982 6.71132-12.17262 15.71429-8.57143.90838.36335-1.15851 23.70646-5.71429 21.42857-4.37372-2.18686-2.59776-12.2067-1.42857-15.71429.59524-1.78571-2.38095-7.14285 0-7.14285 3.38431 0 .59264 14.52901 0 15.71428" fill="none" stroke="#000" stroke-width="2"/><path d="m134.89454 232.7596c-2.2477-.15521-3.12699-.51904-5.05077-2.08987-1.2811-1.04608-5.02876-3.81529-8.32813-6.1538-8.95937-6.35022-10.46653-8.33573-14.35285-18.9082-1.12324-3.05572-2.48846-6.59177-3.03383-7.85791-.54536-1.26613-1.5983-5.69818-2.33987-9.84898-.74156-4.15081-2.029599-11.00181-2.862305-15.22444-1.776208-9.00712-1.711301-13.77009.332437-24.39483.667939-3.4724 1.465198-8.01809 1.771678-10.10153.30649-2.08344 1.86145-7.76554 3.45547-12.6269 1.59403-4.86136 3.17592-9.97526 3.51531-11.36422 1.52815-6.25396 5.6993-12.35323 9.80846-14.342437 1.18445-.573385 5.89804-2.338652 10.47464-3.922815l8.32108-2.880297 6.06092.0017c6.84185.0019 10.09106.75413 13.52066 3.13006 1.17519.814132 3.4725 2.343701 5.10514 3.399043 2.03101 1.312846 3.8532 3.125976 5.77011 5.741386 1.54092 2.10242 3.86193 5.07265 5.1578 6.60051 3.25039 3.83225 7.76143 10.40067 9.01875 13.13198.57545 1.25006 1.87113 6.02303 2.87929 10.6066 1.79754 8.1725 1.82086 8.41915 1.20526 12.74663-.68979 4.84905-.36481 14.12579.63777 18.20542.45949 1.86971.45003 3.86612-.0419 8.83884-.34948 3.53297-.85898 8.81008-1.13222 11.72689-.27323 2.91682-.86066 6.66701-1.3054 8.33376-.44475 1.66675-.98302 3.93959-1.19618 5.05076s-2.24561 7.36149-4.51657 13.8896-4.48739 13.06254-4.92541 14.52094l-.7964 2.65165h-6.90569c-3.79813 0-9.15873.33959-11.91245.75464-4.6235.69687-11.67979.84535-18.33483.38581zm4.27161-38.28909c1.0261-.7607 2.05055-1.08409 3.03045-.95663 6.67016.86759 6.9853.85419 8.79192-.37382 3.92901-2.67065 5.69673-7.43271 5.66678-15.26564-.0229-5.9903-.95609-10.94831-3.2408-17.21848-1.31787-3.61675-2.14808-5.04234-4.06264-6.97603-2.86054-2.88913-6.88625-4.85669-10.75368-5.25585-2.7353-.28231-2.86263-.23833-4.85851 1.67784-2.6633 2.55693-3.29791 4.13907-3.95695 9.86496-.29941 2.60133-.77061 5.88783-1.04711 7.30334-.35006 1.79206-.33068 3.32595.0638 5.05077.31161 1.3624.53901 5.01245.50534 8.1112-.0911 8.38843 1.55839 13.75568 4.62371 15.04455 1.86302.78334 3.15978.53422 5.23768-1.00621z" fill="#fff" opacity=".9" transform="translate(198.60158 318.4742)"/><path d="m226.78898 228.9675c-1.25691-4.10323-2.45441-16.79344-2.50086-26.50229-.023-4.81914-.32745-8.02171-1.09354-11.50513-1.02577-4.66421-1.0336-4.97572-.2319-9.23186 2.25062-11.94834 2.75098-14.85051 3.28472-19.05198.3176-2.50013.80216-6.02303 1.07678-7.82868s.4546-4.87399.39995-6.81853c-.0883-3.14022.33901-4.94737 3.82123-16.16244 2.16485-6.97222 4.54569-13.64475 5.31643-14.89975.76771-1.25006 2.43028-4.24966 3.6946-6.66577 2.84277-5.43252 6.535-10.664567 8.63183-12.231683 1.75876-1.314448 11.06048-5.439617 14.21137-6.302522 5.12484-1.403493 10.26406-.36379 18.41981 3.726475 4.92521 2.470085 5.64919 3.003461 6.35347 4.68075 1.77959 4.23822 2.78093 10.11197 3.2933 19.31813.31057 5.58023 1.03503 12.16664 1.79858 16.35176.7032 3.85432 1.34583 8.96822 1.42808 11.36422.0822 2.396.31623 6.85649.51997 9.9122.74654 11.1967-3.59516 31.85546-7.88712 37.52859-.48397.63971-1.48869 3.02619-2.23271 5.30331-.74403 2.27711-1.87032 5.04933-2.50286 6.1605-.63255 1.11117-1.49491 3.18442-1.91636 4.60722-1.1024 3.72161-2.17902 5.605-5.16182 9.02984-1.45163 1.66675-2.80225 3.55733-3.00137 4.20128s-1.17519 1.91602-2.16904 2.82681l-1.807 1.65599-14.68929.31237c-11.79419.25081-15.71317.51492-19.88424 1.34007-2.85722.56523-5.49184 1.0277-5.8547 1.0277-.36287 0-.95566-.96596-1.31731-2.14658zm34.68315-41.92133c2.04105-2.15638 2.52737-3.17365 3.48459-7.28898 2.38379-10.24849 3.05653-19.89788 1.58281-22.70289-1.04931-1.99721-3.66944-4.22705-4.96691-4.22705-.54552 0-1.65158-.48775-2.45792-1.0839-3.14162-2.3227-9.28966-.0946-11.8651 4.30008-1.8701 3.19108-2.5412 7.55121-1.73272 11.25745.35411 1.62333.6219 3.06515.59508 3.20404-.0268.1389-.40699 1.99152-.84482 4.11692-1.33287 6.47022.0692 10.61979 4.03673 11.94699 1.67026.55873 2.26653.54269 3.9163-.10536 1.92862-.75758 1.95733-.75104 3.20345.72988 1.62862 1.9355 3.11833 1.89207 5.04851-.14718z" fill="#fff" opacity=".9" transform="translate(198.60158 318.4742)"/><path d="m304.05591 224.1526c25.95488-24.22189 34.39781-64.43669 61.61931-84.85281" fill="none" stroke="#000" stroke-linecap="round" stroke-width="7.6" transform="translate(198.60158 318.4742)"/><path d="m552.94958 414.72722c10.81853-1.6819 22.62052-2.71346 31.54263-9.67374 5.98089-8.52319-9.44633-9.9208-14.61599-6.68287-10.01066 2.59838-21.47141 7.30209-25.38622 17.70289-2.44723 8.76317 5.19854 16.41621 13.35831 17.91243 10.74591 3.10856 23.88923 2.28275 32.37338-5.65216l.91776-1.18472.75967-1.29338" fill="none" stroke="#000" stroke-linecap="round" stroke-linejoin="round" stroke-width="6.924719"/><path d="m626.07935 402.009c-4.89669-7.05747-15.06729-5.08095-21.95635-2.5226-9.99948 3.67846-10.4268 18.42679-3.62213 25.17789 8.29438 5.10492 18.76471-1.19011 24.15905-7.804 2.94768-3.35725 2.97061-12.85555 1.12483-13.67264.8928 10.22699 11.83651 16.36749 21.38055 14.72309l1.17094-.005" fill="none" stroke="#000" stroke-linecap="round" stroke-linejoin="round" stroke-width="6.924719"/><path d="m666.61868 394.0601c-6.30913-1.73245.768-3.21371-.77401-.50977-5.97208-5.63455-14.61589 4.64697-11.34834 10.40584 7.31921 1.77229 18.35685 2.48693 19.87541 12.08804.87023 10.00073-12.42791 7.62034-18.08661 5.04212" fill="none" stroke="#000" stroke-linecap="round" stroke-linejoin="round" stroke-width="6.924719"/><path d="m677.74713 394.85499c1.00054 9.09254 8.24556 15.98419 14.97687 21.46053.95001.65544 2.43636 1.02994 3.30557.001" fill="none" stroke="#000" stroke-linecap="round" stroke-linejoin="round" stroke-width="6.924719"/><path d="m716.69669 391.67545c-12.69868 13.89268-16.45433 33.43775-28.61601 47.69332" fill="none" stroke="#000" stroke-linecap="round" stroke-linejoin="round" stroke-width="6.924719"/><path d="m731.00468 374.18789c-.58921-6.23097-.93693 6.15085-1.46276 8.58142.407 8.34095 3.05229 16.42728 3.05254 24.80391" fill="none" stroke="#000" stroke-linecap="round" stroke-linejoin="round" stroke-width="6.924719"/><path d="m731.79958 422.67611c1.69533-4.22059 1.54002-4.17462 0 0z" fill="none" stroke="#000" stroke-linecap="round" stroke-linejoin="round" stroke-width="6.924719"/></g></svg>