<?xml version="1.0" encoding="UTF-8" standalone="no"?>
<!-- Created with Inkscape (http://www.inkscape.org/) -->

<svg
   xmlns:dc="http://purl.org/dc/elements/1.1/"
   xmlns:cc="http://creativecommons.org/ns#"
   xmlns:rdf="http://www.w3.org/1999/02/22-rdf-syntax-ns#"
   xmlns:svg="http://www.w3.org/2000/svg"
   xmlns="http://www.w3.org/2000/svg"
   xmlns:sodipodi="http://sodipodi.sourceforge.net/DTD/sodipodi-0.dtd"
   xmlns:inkscape="http://www.inkscape.org/namespaces/inkscape"
   width="744.09448819"
   height="1052.3622047"
   id="svg2"
   version="1.1"
   inkscape:version="0.48.0 r9654"
   sodipodi:docname="tickle.svg">
  <defs
     id="defs4">
    <inkscape:perspective
       sodipodi:type="inkscape:persp3d"
       inkscape:vp_x="0 : 526.18109 : 1"
       inkscape:vp_y="0 : 1000 : 0"
       inkscape:vp_z="744.09448 : 526.18109 : 1"
       inkscape:persp3d-origin="372.04724 : 350.78739 : 1"
       id="perspective10" />
  </defs>
  <sodipodi:namedview
     id="base"
     pagecolor="#ffffff"
     bordercolor="#666666"
     borderopacity="1.0"
     inkscape:pageopacity="0.0"
     inkscape:pageshadow="2"
     inkscape:zoom="1.4"
     inkscape:cx="391.10933"
     inkscape:cy="375.54483"
     inkscape:document-units="px"
     inkscape:current-layer="layer1"
     showgrid="false"
     inkscape:window-width="1280"
     inkscape:window-height="1004"
     inkscape:window-x="-4"
     inkscape:window-y="-3"
     inkscape:window-maximized="1" />
  <metadata
     id="metadata7">
    <rdf:RDF>
      <cc:Work
         rdf:about="">
        <dc:format>image/svg+xml</dc:format>
        <dc:type
           rdf:resource="http://purl.org/dc/dcmitype/StillImage" />
        <dc:title />
      </cc:Work>
    </rdf:RDF>
  </metadata>
  <g
     inkscape:label="Layer 1"
     inkscape:groupmode="layer"
     id="layer1">
    <path
       style="fill:#5aa3ff;stroke:#000000;stroke-width:1px;stroke-linecap:butt;stroke-linejoin:miter;stroke-opacity:1;fill-opacity:1"
       d="m 372.14285,605.93361 c 8.81042,3.96452 19.57653,2.0017 28.57143,5 10.52504,3.50835 37.95674,21.94367 30.71429,36.42858 -5.56575,11.1315 -17.48857,19.41083 -19.28572,32.14285 -1.61553,11.44536 11.16618,30.52479 8.57143,35.71429 -11.56611,23.13222 -42.78479,11.15273 -60.35714,43.57142 -4.60441,8.49455 32.9049,43.86104 15.35714,50.00001 -14.93309,5.22425 -18.48604,-28.57552 -20.71428,-29.28572 -3.92317,0 -2.61665,32.14286 -12.14286,32.14286 -18.98753,0 0.32065,-32.85714 0.71429,-32.85714 0.12625,0 -5.10664,5.10663 -9.28572,9.28571 -7.90626,7.90627 -8.98805,12.85714 -21.42857,12.85714 -1.21491,0 -4.98844,0.0116 -5.71428,-0.71428 -8.2733,-8.2733 20.35713,-23.88694 28.57142,-27.14286 1.01689,-0.40307 -9.86393,-2.96769 -11.07142,-3.57143 -16.20403,-1.66969 -26.23343,-4.71379 -22.50001,-15 11.22815,-8.93931 36.49955,5.99833 41.78572,0.35714 1.06851,-1.06851 8.06252,-7.19646 8.92857,-8.92857 3.82008,-7.64015 9.8503,-16.27886 15,-21.42857 6.95211,-6.95211 23.77869,-6.27868 30.71429,-13.21429 7.09678,-7.09677 -7.4481,-30.83173 -4.28572,-39.28571 3.20154,-8.55868 26.96415,-25.1787 16.78572,-35.35714 -9.3835,-8.02918 -28.21692,-23.23445 -38.92858,-19.28571"
       id="path3016"
       inkscape:connector-curvature="0"
       sodipodi:nodetypes="csssssscsssscscccsssscc" />
    <path
       style="fill:#5aa3ff;fill-opacity:1;stroke:#000000;stroke-width:1px;stroke-linecap:butt;stroke-linejoin:miter;stroke-opacity:1"
       d="m 183.27927,694.98845 c -3.42854,-8.18228 -8.33821,-16.24852 -9.1983,-24.84711 -1.82462,-9.52306 -6.7684,-18.44303 -6.64575,-28.28741 -3.02707,-15.59838 -0.92864,-34.67038 -2.43522,-47.34889 -1.50658,-12.67851 -2.4299,-19.13865 -0.71429,-28.57143 4.74679,-10.12739 16.17839,-13.33925 26.2184,-15.42479 8.90461,-2.57783 18.12064,-3.83618 27.13291,-5.90503 8.00299,-0.9095 20.96581,-3.06919 22.8331,7.67005 -2.31228,12.01611 12.21144,9.01562 19.89911,9.59159 8.67625,0.12971 16.93831,-1.42629 25.9714,-1.43519 9.03309,-0.009 17.1125,0.40075 28.50268,0.11975 11.39019,-0.281 29.03436,1.53168 39.26179,2.10806 10.22743,0.57638 17.70849,-1.04182 17.03157,9.68646 -0.67692,10.72828 3.3729,64.29001 1.69811,96.39369 -0.61932,5.25239 -0.44509,10.93531 -2.83478,15.76684"
       id="path2839"
       inkscape:connector-curvature="0"
       sodipodi:nodetypes="ccczccccczzzzcc" />
    <path
       style="fill:#5aa3ff;fill-opacity:1;stroke:#000000;stroke-width:1px;stroke-linecap:butt;stroke-linejoin:miter;stroke-opacity:1"
       d="m 166.78572,616.82647 c -20.22288,6.83165 -43.15224,15.66889 -55.61611,33.96059 -5.88767,8.38081 -11.08611,16.53604 -11.6072,26.74733 -0.460427,9.0225 7.16853,16.8604 11.20328,25.21658 4.94973,10.25116 13.7141,13.66259 22.25616,20.83619 7.29428,6.12572 20.95566,7.2445 22.63882,18.37243 2.14004,9.53798 7.51992,17.81472 15.11878,25.47946 12.69879,7.3698 19.05326,11.83193 31.51581,19.71326 0.69121,10.24155 -7.08193,20.52536 -3.02069,30.83848 6.96883,11.32806 16.59768,-1.64938 14.76072,-10.6036 0.0871,-5.57182 1.35852,-20.38636 5.6084,-17.96197 2.73136,9.76893 6.06786,29.0387 18.76662,27.85637 12.109,-1.55702 11.73391,-15.4132 7.65351,-23.92898 -1.67921,-8.13259 -8.44052,-14.33199 -13.92097,-18.84757 8.18915,3.04099 16.1123,7.53439 25.16389,7.4191 7.18377,1.22656 25.67977,-2.82862 17.81276,-11.9427 -11.9117,-6.40957 -26.19692,-6.22092 -39.40522,-6.19068 8.17177,-3.70386 20.6295,-8.21669 20.63835,-18.88437 -5.55159,-10.66048 -19.77584,-1.75913 -28.09248,1.06299 -8.57304,3.81968 -16.80695,8.3404 -25.04587,12.82137 -8.29291,-1.29867 -17.18033,-7.48287 -20.21647,-15.62174 -4.06745,-7.15691 -5.80825,-15.78422 -12.49245,-20.91619 -6.90836,-5.37008 -15.39684,-8.47587 -20.93412,-15.59102 -9.17345,-9.70471 -18.80221,-19.46515 -24.90399,-31.4699 0.18451,-10.30884 11.48125,-17.63861 17.61859,-25.46172 6.30374,-7.19711 16.37232,-10.94094 25.21416,-13.08228"
       id="path3014"
       inkscape:connector-curvature="0"
       sodipodi:nodetypes="ccsssccccccccccccccccccccc" />
    <path
       sodipodi:nodetypes="cssssssssssssssscc"
       inkscape:connector-curvature="0"
       id="path3797"
       d="m 177.3833,607.97629 c 0,-3.27493 -1.49984,-8.11201 0,-11.11168 5.10208,-10.20416 9.85038,-18.30971 20.70812,-23.73859 8.73588,-4.36794 38.28754,-6.56599 48.9924,-6.56599 27.07906,0 54.83437,-3.03046 81.82236,-3.03046 6.95082,0 16.9419,-1.24083 21.2132,3.03046 2.0572,2.0572 -0.43798,8.72049 1.01015,11.61676 3.46815,6.9363 0.95236,45.12517 -2.0203,54.04316 -2.09873,6.29618 1.47171,13.76761 -0.50508,19.69797 -0.92101,2.76303 -0.74429,6.93814 -4.04061,8.5863 -8.50976,4.25488 -18.18432,5.05129 -27.27412,8.08122 -2.94156,0.98052 -6.58262,-0.49953 -9.59645,0.50507 -6.46906,2.15636 -15.84512,-0.27413 -22.72843,2.02031 -3.83692,1.27897 -8.79792,-0.26618 -12.62691,1.01015 -10.32229,3.44077 -22.9833,-0.42012 -33.33503,3.03046 -12.60526,4.20175 -42.61857,6.37383 -52.02286,-3.03046 -4.44972,-4.44973 -6.8393,-11.15323 -9.59644,-16.66751 -1.61599,-19.93969 -0.43062,-23.78254 0,-47.47717 z"
       style="fill:#fffffb;fill-opacity:1;stroke:#000000;stroke-width:1px;stroke-linecap:butt;stroke-linejoin:miter;stroke-opacity:1" />
    <path
       style="fill:#fffffb;fill-opacity:1;stroke:#000000;stroke-width:1px;stroke-linecap:butt;stroke-linejoin:miter;stroke-opacity:1"
       d="m 187.3833,615.97629 c -1.33932,-37.99148 10.29099,-29.43213 20.70812,-34.85027 8.73588,-4.36794 38.28754,-6.56599 48.9924,-6.56599 27.07906,0 54.83437,-3.03046 81.82236,-3.03046 6.95082,0 16.9419,-1.24083 21.2132,3.03046 2.0572,2.0572 -0.43798,8.72049 1.01015,11.61676 3.46815,6.9363 0.95236,45.12517 -2.0203,54.04316 -2.09873,6.29618 1.47171,13.76761 -0.50508,19.69797 -0.92101,2.76303 -0.74429,6.93814 -4.04061,8.5863 -8.50976,4.25488 -18.18432,5.05129 -27.27412,8.08122 -2.94156,0.98052 -6.58262,-0.49953 -9.59645,0.50507 -6.46906,2.15636 -15.84512,-0.27413 -22.72843,2.02031 -3.83692,1.27897 -8.79792,-0.26618 -12.62691,1.01015 -10.32229,3.44077 -22.9833,-0.42012 -33.33503,3.03046 -12.60526,4.20175 -42.61857,6.37383 -52.02286,-3.03046 -4.44972,-4.44973 -6.8393,-11.15323 -9.59644,-16.66751 -1.61599,-19.93969 -0.43062,-23.78254 0,-47.47717 z"
       id="path3795"
       inkscape:connector-curvature="0"
       sodipodi:nodetypes="ccssssssssssssscc" />
    <path
       style="fill:none;stroke:#000000;stroke-width:1px;stroke-linecap:butt;stroke-linejoin:miter;stroke-opacity:1"
       d="m 203.54574,602.33923 c -2.18738,-12.32165 9.41247,-2.2957 10.10152,-2.52538 2.26318,-0.7544 4.25287,-3.26957 6.56599,-4.04061 1.76989,-0.58997 4.17766,0.82613 5.55584,1.51522 1.52621,0.76311 5.54476,-1.13365 7.07107,-1.51522 2.77544,-0.69386 4.87283,1.01015 7.57614,1.01015 2.56227,0 5.12402,-0.9022 7.57615,-1.51523 3.44455,-0.86114 6.37214,1.9425 10.10152,1.01015 10.14822,-2.53705 22.15257,-0.81819 31.81981,-4.04061 3.75102,-1.25034 5.55885,2.39836 9.09137,1.51523 1.21253,-0.30313 8.17141,-2.43519 9.09137,-1.51523 0.51368,0.51368 0.86909,1.4447 2.02031,2.02031 1.2324,0.6162 5.72286,-0.97595 7.07107,-1.51523 7.68571,-3.07429 17.62125,1.03836 24.74873,-2.52538"
       id="path3799"
       inkscape:connector-curvature="0" />
    <path
       style="fill:none;stroke:#000000;stroke-width:1px;stroke-linecap:butt;stroke-linejoin:miter;stroke-opacity:1"
       d="m 195.96959,617.49151 c 6.37663,-10.85783 10.58837,0.67952 12.62691,0 4.15052,-1.3835 8.32961,-5.55583 12.62691,-5.55583 3.63628,0 6.24172,2.6636 10.10152,2.0203 3.60619,-0.60103 7.07145,-1.81835 10.6066,-2.52538 2.20674,-0.44135 4.06502,0.51118 6.06092,1.01015 3.43361,0.85841 7.16394,-2.1577 10.6066,-1.01015 1.91869,0.63956 3.8916,1.98305 6.06091,2.52538 5.11151,1.27788 21.02426,-1.8815 26.76905,-3.03046 5.46378,-1.09275 10.17704,1.87516 15.65736,0.50508 3.34428,-0.83607 6.53059,-2.52538 10.10153,-2.52538 3.87282,0 5.3119,3.48331 10.10152,2.52538 0.93434,-0.18687 9.41583,-0.32445 10.10153,-1.01015 0.53239,-0.5324 2.0203,-1.76308 2.0203,-1.01016 0,0.72346 -2.21825,0.90778 -2.52538,1.01016"
       id="path3801"
       inkscape:connector-curvature="0" />
    <path
       style="fill:none;stroke:#000000;stroke-width:1px;stroke-linecap:butt;stroke-linejoin:miter;stroke-opacity:1"
       d="m 193.94929,638.70472 c 1.05451,0.62471 -1.87683,2.66885 -1.01016,3.53553 1.7351,1.7351 0.8689,-3.42252 1.01016,-3.53553 0.79967,-0.63974 2.01428,0.6321 3.03045,0.50507 1.23155,-0.15394 2.71004,-2.58693 4.04062,-3.03045 4.63534,-1.54512 3.73315,4.44687 9.59644,1.51523 2.30345,-1.15173 5.89846,-4.54569 8.5863,-4.54569 2.27313,0 4.48086,2.52538 7.07107,2.52538 4.18534,0 8.98426,-2.20091 13.13198,-3.03046 2.26433,-0.45286 4.73491,0.90487 6.56599,1.51523 1.7027,0.56757 12.09594,-0.76409 17.1726,0.50508 3.80945,0.95236 17.84516,-1.14467 22.22335,-2.02031 5.75868,-1.15173 12.92124,0 18.68782,0 2.2258,0 5.22242,2.10614 7.07107,3.03046 2.89156,1.44578 7.93337,-2.59931 11.11168,-1.01015 2.45539,1.22769 4.22492,2.365 6.56599,3.53553 1.31824,0.65912 12.05634,-2.52538 8.5863,-2.52538"
       id="path3803"
       inkscape:connector-curvature="0" />
    <path
       style="fill:none;stroke:#000000;stroke-width:1px;stroke-linecap:butt;stroke-linejoin:miter;stroke-opacity:1"
       d="m 194.95944,654.86716 c 5.70454,4.29869 12.46103,-4.9377 18.18275,-3.03046 2.66015,0.88672 4.44848,3.03046 7.57614,3.03046 7.58346,0 31.03253,-9.01708 38.3858,-6.56599 4.47742,1.49247 8.89724,-0.0485 13.13198,1.01015 10.8364,2.7091 25.46843,3.18956 36.36549,1.01015 9.13271,-1.82654 24.17141,2.81405 30.80965,-0.50507"
       id="path3805"
       inkscape:connector-curvature="0" />
    <g
       id="g3825"
       transform="matrix(0.6249216,0,0,0.6249216,-120.67739,219.02469)">
      <path
         sodipodi:nodetypes="ssssssssssss"
         inkscape:connector-curvature="0"
         id="path3816"
         d="m 504.57119,621.18825 c -2.66307,-7.29218 -3.12238,-21.35047 0,-28.18541 4.06006,-8.88753 15.86026,-8.8359 26.99272,-10.86666 3.06869,-0.55979 6.66704,0.4533 9.77323,0 3.84284,-0.56081 9.39113,-0.8853 13.03096,0 3.45257,0.83975 7.50311,4.15794 8.84245,6.1125 6.51125,9.50216 6.51548,34.94542 6.51548,46.18331 0,5.62432 1.74487,18.47907 -7.44627,20.71457 -2.23414,0.5434 -5.11352,2.8854 -7.91166,3.39584 -6.82566,1.24512 -38.17727,10.00111 -44.21221,3.39583 -2.38769,-2.61336 -1.96081,-4.63185 -3.25774,-7.47083 -4.39308,-9.61653 1.18214,-23.67029 -2.32696,-33.27915 z"
         style="fill:#71ed1c;fill-opacity:0.84126988;stroke:#000000;stroke-width:1px;stroke-linecap:butt;stroke-linejoin:miter;stroke-opacity:1" />
      <path
         inkscape:connector-curvature="0"
         id="path3819"
         d="m 515.68287,601.83415 c -1.6262,3.90636 -7.66436,16.07423 -3.03046,20.70813 2.80516,2.80515 16.69531,3.50774 19.69798,0.50507 3.83945,-3.83945 1.68771,-20.53564 -2.02031,-24.24366 -1.29754,-1.29754 -17.14808,-3.22171 -14.64721,3.03046 z"
         style="fill:#eb131c;fill-opacity:0.84126988;stroke:#000000;stroke-width:1px;stroke-linecap:butt;stroke-linejoin:miter;stroke-opacity:1" />
      <path
         inkscape:connector-curvature="0"
         id="path3821"
         d="m 534.87577,632.13873 c 2.66417,0.30635 21.43811,-0.72999 22.72843,-2.02031 2.03249,-2.03249 -7.60379,-9.61027 -9.59645,-10.6066 -1.47537,-0.73768 -5.01313,-9.129 -6.56599,-7.57614 -4.90658,4.90657 -5.09293,12.83773 -6.56599,20.20305 z"
         style="fill:#6845fb;fill-opacity:1;stroke:#000000;stroke-width:1px;stroke-linecap:butt;stroke-linejoin:miter;stroke-opacity:1" />
      <path
         inkscape:connector-curvature="0"
         id="path3823"
         d="m 530.83516,634.15903 c -1.71164,-3.18734 -8.72229,-5.41984 -11.61676,-2.52538 -1.20755,1.20755 -2.85472,2.67899 -3.53553,4.04061 -5.25227,10.50454 10.5785,21.24131 19.1929,12.62691 0.97532,-0.97533 -0.50508,-5.1027 -0.50508,-6.06092 0,-3.84148 0.85472,-5.44707 -3.53553,-8.08122 z"
         style="fill:#68fffb;fill-opacity:1;stroke:#000000;stroke-width:1px;stroke-linecap:butt;stroke-linejoin:miter;stroke-opacity:1" />
    </g>
    <path
       style="opacity:0.93805309;fill:#4188ed;fill-opacity:1;stroke:#000000;stroke-width:1px;stroke-linecap:butt;stroke-linejoin:miter;stroke-opacity:1"
       d="m 197.59533,642.79966 c 2.25217,-13.65472 5.78688,-27.11287 11.59668,-39.69703 5.44305,-10.34274 17.76807,-15.90778 29.18121,-14.26614 12.22598,-1.75264 24.71536,0.63033 36.77006,-2.35035 21.52309,-2.56984 43.28055,-2.11464 64.91359,-1.88869 10.04585,0.68731 20.17461,0.51534 30.18365,0.56768 9.11442,1.28121 22.07796,3.54963 23.54259,14.58562 -1.38274,9.86865 -5.36172,17.20216 -8.74048,27.98549 -3.07671,11.15568 -4.14078,22.65259 -6.01667,34.02979 -3.43388,9.54228 -4.29108,22.23773 -15.21098,26.49761 -23.52499,8.29433 -48.88594,3.08523 -73.18991,5.35493 -12.08152,0.12876 -24.14704,0.86744 -35.89504,3.86777 -19.04841,2.98556 -38.39081,4.55303 -57.67316,4.28662 -9.51178,1.60544 -17.98747,-4.64271 -11.65636,-16.10216 6.33111,-11.45945 10.19533,-28.40751 12.19482,-42.87114 z"
       id="path2837"
       inkscape:connector-curvature="0"
       sodipodi:nodetypes="ccccccccccccczc" />
    <path
       style="fill:none;stroke:#000000;stroke-width:4.09999999999999960;stroke-linecap:round;stroke-linejoin:round;stroke-opacity:1;stroke-miterlimit:4;stroke-dasharray:none"
       d="m 231.07143,625.93361 c 1.47515,-2.49917 4.22033,-3.8894 5.75965,-6.34488 1.60357,-1.15613 2.97041,-2.53255 4.38804,-3.83467 1.87737,-1.22224 3.66468,-2.6036 5.06401,-4.36537 1.6828,-1.55 3.52581,-2.93672 4.9957,-4.70108 0.97174,-1.43277 2.78949,-1.59002 3.338,0.23639 3.00346,3.71076 5.56795,7.77696 8.91295,11.2071 1.48271,1.69152 2.79692,3.53613 4.2981,5.19928 2.04149,1.55088 3.87641,3.39906 5.3509,5.50399"
       id="path3615"
       inkscape:connector-curvature="0"
       sodipodi:nodetypes="ccccccccc" />
    <path
       style="fill:none;stroke:#000000;stroke-width:4.09999999999999960;stroke-linecap:round;stroke-linejoin:round;stroke-opacity:1;stroke-miterlimit:4;stroke-dasharray:none"
       d="m 321.42857,627.71932 c 1.44024,-1.23591 3.03186,-2.32017 4.72395,-3.16384 1.93495,-1.31613 3.64374,-2.92475 5.68178,-4.09065 1.30094,-1.1047 2.53539,-2.31059 4.19591,-2.90335 1.52017,-0.69079 2.39555,-2.22553 3.83178,-3.04951 1.18005,-1.18013 2.57287,-2.07481 3.90975,-3.04363 1.49674,-1.32302 0.83127,1.7914 1.80399,2.34696 1.32763,2.02491 2.7909,3.9618 4.27979,5.86979 1.62959,1.20912 2.62311,3.09462 4.34969,4.20788 1.45584,1.03211 3.39201,3.13754 4.63323,4.40543"
       id="path3617"
       inkscape:connector-curvature="0"
       sodipodi:nodetypes="cccccccccc" />
    <path
       sodipodi:type="inkscape:offset"
       inkscape:radius="0"
       inkscape:original="M 299.5 649.90625 C 299.51962 649.91364 299.54271 649.9296 299.5625 649.9375 C 299.6139 649.93672 299.66752 649.93853 299.71875 649.9375 L 299.5 649.90625 z M 299.5625 649.9375 C 297.57813 649.96757 295.46686 649.839 293.53125 650.40625 C 292.44695 650.84143 291.99873 651.9854 291.125 652.6875 C 290.5948 653.16479 290.18587 653.8577 290.3125 654.59375 C 290.291 655.6633 290.23069 656.92625 291.09375 657.71875 C 291.8206 658.65094 292.37139 659.84368 293.53125 660.3125 C 294.32091 660.9237 295.20695 661.44987 296.21875 661.5625 C 297.34599 661.80319 298.48365 661.59531 299.59375 661.375 C 300.63362 661.27486 301.68852 661.11687 302.59375 660.5625 C 303.52365 660.23127 304.44947 659.7644 305 658.90625 C 305.41238 658.10377 306.17378 657.43075 306.3125 656.53125 C 306.3231 655.58241 305.42784 655.06468 305.0625 654.28125 C 304.77028 653.55047 303.91156 653.38778 303.8125 652.625 C 303.17534 652.08125 302.27206 651.95326 301.6875 651.3125 C 301.12014 650.82628 300.28341 650.22514 299.5625 649.9375 z "
       style="fill:#000000;stroke:#000000;stroke-width:1px;stroke-linecap:butt;stroke-linejoin:miter;stroke-opacity:1;fill-opacity:1"
       id="path3818"
       d="m 299.5,649.90625 c 0.0196,0.007 0.0427,0.0234 0.0625,0.0312 0.0514,-7.8e-4 0.10502,0.001 0.15625,0 L 299.5,649.90625 z m 0.0625,0.0312 c -1.98437,0.0301 -4.09564,-0.0985 -6.03125,0.46875 -1.0843,0.43518 -1.53252,1.57915 -2.40625,2.28125 -0.5302,0.47729 -0.93913,1.1702 -0.8125,1.90625 -0.0215,1.06955 -0.0818,2.3325 0.78125,3.125 0.72685,0.93219 1.27764,2.12493 2.4375,2.59375 0.78966,0.6112 1.6757,1.13737 2.6875,1.25 1.12724,0.24069 2.2649,0.0328 3.375,-0.1875 1.03987,-0.10014 2.09477,-0.25813 3,-0.8125 0.9299,-0.33123 1.85572,-0.7981 2.40625,-1.65625 0.41238,-0.80248 1.17378,-1.4755 1.3125,-2.375 0.0106,-0.94884 -0.88466,-1.46657 -1.25,-2.25 -0.29222,-0.73078 -1.15094,-0.89347 -1.25,-1.65625 -0.63716,-0.54375 -1.54044,-0.67174 -2.125,-1.3125 -0.56736,-0.48622 -1.40409,-1.08736 -2.125,-1.375 z" />
    <path
       style="fill:none;stroke:#000000;stroke-width:1px;stroke-linecap:butt;stroke-linejoin:miter;stroke-opacity:1"
       d="m 307.14286,653.07647 c 1.23769,-0.4684 2.51456,-0.80276 3.80716,-1.07381 1.16504,-0.34539 2.39161,-0.4242 3.4769,-1.00655 1.14171,-0.48332 2.4195,-0.47178 3.54883,-1.00214 0.93916,-0.26489 1.7892,-0.913 2.80053,-0.86345 0.99505,-0.49046 2.13578,-0.61394 3.15777,-1.0356 1.10412,0.0969 2.07978,-0.46545 3.14036,-0.37022 0.93483,-0.24915 1.745,-0.32243 2.71762,-0.47707 0.38254,-0.10558 0.76118,-0.23624 1.15712,-0.28287"
       id="path3635"
       inkscape:connector-curvature="0" />
    <path
       style="fill:none;stroke:#000000;stroke-width:1px;stroke-linecap:butt;stroke-linejoin:miter;stroke-opacity:1"
       d="m 306.42857,657.71932 c 2.93242,0.005 5.8662,-0.016 8.7974,0.0221 0.59441,-0.34778 1.23446,-0.42907 1.91689,-0.37928 6.19048,0 12.38095,0 18.57143,0 0.88885,-0.0466 -0.48659,0.20953 0.25111,-0.27479 l 0.10603,-0.0824"
       id="path3637" />
    <path
       style="fill:none;stroke:#000000;stroke-width:1px;stroke-linecap:butt;stroke-linejoin:miter;stroke-opacity:1"
       d="m 305,660.93361 c 1.08017,0.3602 2.33387,0.25492 3.53236,0.462 1.78312,0.1529 3.51016,0.86578 5.3194,0.61608 1.03544,-0.11784 2.06969,0.0109 3.06852,0.28405 1.48496,0.29315 3.06405,-0.25969 4.48674,0.31132 1.29278,0.31898 2.67254,0.0448 3.93883,0.50306 2.25852,-0.23362 4.40376,0.8131 6.65801,0.70567 1.17003,0.0415 2.28417,0.5813 3.47272,0.35025 0.89774,-0.0711 1.88647,-0.14446 2.67426,0.37953"
       id="path3639"
       inkscape:connector-curvature="0"
       sodipodi:nodetypes="ccccccccc" />
    <path
       style="fill:none;stroke:#000000;stroke-width:1px;stroke-linecap:butt;stroke-linejoin:miter;stroke-opacity:1"
       d="m 290.35714,651.29075 c -0.86964,0.058 -1.47813,-0.67859 -2.45581,-0.33978 -0.9114,0.1115 -1.63518,-0.61483 -2.57338,-0.3745 -2.01392,-0.006 -4.03186,0.008 -6.04224,0 -0.37833,-0.64092 -1.16598,-0.27545 -1.77971,-0.35715 -7.30061,0.53706 -12.42486,-0.51022 -18.18123,-0.307"
       id="path3641"
       sodipodi:nodetypes="cccccc"
       inkscape:connector-curvature="0" />
    <path
       style="fill:none;stroke:#000000;stroke-width:1px;stroke-linecap:butt;stroke-linejoin:miter;stroke-opacity:1"
       d="m 288.92857,655.93361 c -1.65872,0.1552 -3.25861,0.70041 -4.93219,0.73617 -1.20484,0.19113 -2.42301,0.32635 -3.63208,0.42525 -2.51634,0.60063 -5.10541,0.81746 -7.60423,1.49769 -1.30025,0.42165 -2.67885,-0.0162 -3.92725,0.48938 -1.54287,0.0901 -3.05193,0.32234 -4.56311,0.6276 -1.4861,0.20404 -2.95889,0.30354 -4.43619,0.62661 -0.89724,0.0561 -2.25301,0.62067 -2.91232,0.0309 l 0.22162,-0.14793"
       id="path3643"
       inkscape:connector-curvature="0" />
    <path
       style="fill:none;stroke:#000000;stroke-width:1px;stroke-linecap:butt;stroke-linejoin:miter;stroke-opacity:1"
       d="m 290.35714,660.21932 c -1.27795,0.16636 -2.45402,0.80583 -3.75683,0.83149 -1.2125,0.30883 -2.39068,0.75057 -3.59719,1.07102 -1.61085,0.60011 -3.36839,0.57466 -4.9952,1.11565 -1.35066,0.33628 -2.75918,0.17296 -4.09706,0.58163 -1.06526,0.17011 -2.13349,-0.18094 -3.17377,0.25158 -1.4937,0.45936 -3.03666,0.82332 -4.39934,1.61471 -0.97216,0.57527 -2.12015,0.55108 -3.14553,0.97902 -0.1622,-0.0309 -0.0175,-0.0151 0.022,-0.0161"
       id="path3645"
       inkscape:connector-curvature="0" />
    <path
       style="fill:#000000;fill-opacity:1;stroke:#000000;stroke-width:1px;stroke-linecap:butt;stroke-linejoin:miter;stroke-opacity:1"
       d="m 267.18535,669.51437 c 5.10718,6.80199 9.98654,11.50177 14.64721,16.16244 1.0552,1.0552 4.21282,1.3488 5.55584,2.0203 11.78552,5.89276 30.49036,-1.88679 34.85026,-10.6066 1.65829,-3.31656 4.57976,-12.59283 4.54569,-12.6269 -1.23436,-1.23436 -6.24669,3.21622 -7.07107,4.04061 -2.46211,2.46211 -8.9563,1.95276 -12.12183,3.53553 -1.37634,0.68817 -3.66343,-0.18859 -5.05076,0.50508 -13.33383,6.66691 -25.83524,-3.03046 -35.35534,-3.03046 z"
       id="path3789"
       inkscape:connector-curvature="0" />
    <path
       style="fill:#ec94ce;fill-opacity:1;stroke:none"
       d="m 295.12734,688.29148 c -7.58267,-5.1488 20.85898,-12.72025 23.70206,-7.03409 0.11595,0.2319 -0.57135,1.20269 -0.69448,1.32583 -1.57133,2.4074 -13.90356,8.76195 -21.04329,7.49397"
       id="path3791"
       inkscape:connector-curvature="0"
       sodipodi:nodetypes="sscs" />
    <path
       style="fill:none;stroke:#000000;stroke-width:1px;stroke-linecap:butt;stroke-linejoin:miter;stroke-opacity:1"
       d="m 207.14286,580.93361 c -0.42988,-2.73372 1.82008,-13.01852 5.71428,-11.07142 1.06155,0.53077 1.29469,0.80365 1.78572,1.78571 0.48623,0.97246 -0.31881,3.1376 -0.71429,3.92857 -1.86501,3.73001 1.54772,14.16656 -1.07143,16.78572 -0.88479,0.88478 -2.00618,3.57142 -3.92857,3.57142 -10.68999,0 -2.9573,-20.4573 -4.28571,-21.78571 -0.22803,-0.22803 -1.8567,0 -2.14286,0"
       id="path3833"
       inkscape:connector-curvature="0" />
  </g>
</svg>
