<?xml version="1.0" encoding="UTF-8"?>
<!DOCTYPE svg PUBLIC "-//W3C//DTD SVG 1.1//EN" "http://www.w3.org/Graphics/SVG/1.1/DTD/svg11.dtd">
<svg version="1.1" xmlns="http://www.w3.org/2000/svg" xmlns:xlink="http://www.w3.org/1999/xlink" x="0" y="0" width="267.268" height="223.705" viewBox="0, 0, 334.085, 279.631">
  <g id="Layer_1">
    <g id="path3016">
      <path d="M255.591,87.387 C262.947,90.697 271.935,89.058 279.445,91.561 C288.233,94.491 311.135,109.882 305.089,121.976 C300.442,131.269 290.487,138.182 288.987,148.812 C287.638,158.367 298.31,174.297 296.143,178.629 C286.487,197.943 260.422,187.941 245.751,215.007 C241.907,222.099 273.223,251.627 258.573,256.752 C246.105,261.114 243.139,232.894 241.278,232.301 C238.003,232.301 239.094,259.138 231.14,259.138 C215.288,259.138 231.408,231.705 231.737,231.705 C231.842,231.705 227.473,235.969 223.984,239.458 C217.383,246.059 216.48,250.192 206.093,250.192 C205.079,250.192 201.929,250.202 201.323,249.596 C194.415,242.688 218.319,229.653 225.177,226.934 C226.026,226.598 216.941,224.457 215.933,223.953 C202.405,222.558 194.031,220.017 197.148,211.429 C206.522,203.966 227.622,216.437 232.035,211.727 C232.927,210.835 238.766,205.719 239.489,204.273 C242.679,197.894 247.713,190.682 252.013,186.382 C257.817,180.578 271.866,181.14 277.656,175.349 C283.581,169.424 271.438,149.608 274.078,142.55 C276.751,135.404 296.59,121.528 288.092,113.03 C280.258,106.327 264.534,93.632 255.591,96.929" fill="#5AA3FF"/>
      <path d="M255.591,87.387 C262.947,90.697 271.935,89.058 279.445,91.561 C288.233,94.491 311.135,109.882 305.089,121.976 C300.442,131.269 290.487,138.182 288.987,148.812 C287.638,158.367 298.31,174.297 296.143,178.629 C286.487,197.943 260.422,187.941 245.751,215.007 C241.907,222.099 273.223,251.627 258.573,256.752 C246.105,261.114 243.139,232.894 241.278,232.301 C238.003,232.301 239.094,259.138 231.14,259.138 C215.288,259.138 231.408,231.705 231.737,231.705 C231.842,231.705 227.473,235.969 223.984,239.458 C217.383,246.059 216.48,250.192 206.093,250.192 C205.079,250.192 201.929,250.202 201.323,249.596 C194.415,242.688 218.319,229.653 225.177,226.934 C226.026,226.598 216.941,224.457 215.933,223.953 C202.405,222.558 194.031,220.017 197.148,211.429 C206.522,203.966 227.622,216.437 232.035,211.727 C232.927,210.835 238.766,205.719 239.489,204.273 C242.679,197.894 247.713,190.682 252.013,186.382 C257.817,180.578 271.866,181.14 277.656,175.349 C283.581,169.424 271.438,149.608 274.078,142.55 C276.751,135.404 296.59,121.528 288.092,113.03 C280.258,106.327 264.534,93.632 255.591,96.929" fill-opacity="0" stroke="#000000" stroke-width="1"/>
    </g>
    <g id="path2839">
      <path d="M97.909,161.739 C95.047,154.907 90.948,148.173 90.229,140.994 C88.706,133.043 84.579,125.596 84.681,117.377 C82.154,104.354 83.906,88.431 82.648,77.845 C81.39,67.26 80.619,61.866 82.051,53.991 C86.015,45.536 95.559,42.854 103.941,41.113 C111.376,38.961 119.07,37.91 126.594,36.183 C133.276,35.423 144.099,33.62 145.658,42.587 C143.727,52.619 155.853,50.114 162.271,50.595 C169.515,50.703 176.413,49.404 183.955,49.396 C191.497,49.389 198.242,49.731 207.752,49.496 C217.261,49.262 231.992,50.775 240.531,51.256 C249.07,51.738 255.316,50.386 254.751,59.343 C254.186,68.301 257.567,113.019 256.169,139.822 C255.652,144.208 255.797,148.952 253.802,152.986" fill="#5AA3FF"/>
      <path d="M97.909,161.739 C95.047,154.907 90.948,148.173 90.229,140.994 C88.706,133.043 84.579,125.596 84.681,117.377 C82.154,104.354 83.906,88.431 82.648,77.845 C81.39,67.26 80.619,61.866 82.051,53.991 C86.015,45.536 95.559,42.854 103.941,41.113 C111.376,38.961 119.07,37.91 126.594,36.183 C133.276,35.423 144.099,33.62 145.658,42.587 C143.727,52.619 155.853,50.114 162.271,50.595 C169.515,50.703 176.413,49.404 183.955,49.396 C191.497,49.389 198.242,49.731 207.752,49.496 C217.261,49.262 231.992,50.775 240.531,51.256 C249.07,51.738 255.316,50.386 254.751,59.343 C254.186,68.301 257.567,113.019 256.169,139.822 C255.652,144.208 255.797,148.952 253.802,152.986" fill-opacity="0" stroke="#000000" stroke-width="1"/>
    </g>
    <g id="path3014">
      <path d="M84.139,96.481 C67.255,102.185 48.111,109.563 37.705,124.835 C32.789,131.832 28.449,138.641 28.014,147.166 C27.63,154.699 33.999,161.243 37.368,168.22 C41.5,176.778 48.818,179.627 55.949,185.616 C62.039,190.73 73.445,191.664 74.85,200.955 C76.637,208.918 81.129,215.828 87.473,222.228 C98.075,228.381 103.381,232.106 113.786,238.686 C114.363,247.237 107.873,255.823 111.264,264.433 C117.082,273.891 125.121,263.056 123.587,255.58 C123.66,250.928 124.721,238.56 128.27,240.584 C130.55,248.74 133.336,264.828 143.938,263.841 C154.048,262.541 153.735,250.973 150.328,243.863 C148.926,237.073 143.281,231.897 138.705,228.127 C145.542,230.666 152.157,234.417 159.715,234.321 C165.712,235.345 181.155,231.96 174.586,224.35 C164.641,218.999 152.715,219.156 141.687,219.182 C148.51,216.089 158.911,212.322 158.918,203.415 C154.283,194.515 142.407,201.946 135.464,204.303 C128.306,207.492 121.431,211.266 114.553,215.007 C107.629,213.923 100.209,208.76 97.674,201.965 C94.278,195.989 92.825,188.786 87.244,184.502 C81.476,180.018 74.389,177.425 69.766,171.485 C62.107,163.382 54.068,155.233 48.974,145.211 C49.128,136.604 58.56,130.484 63.684,123.953 C68.947,117.944 77.353,114.818 84.735,113.03" fill="#5AA3FF"/>
      <path d="M84.139,96.481 C67.255,102.185 48.111,109.563 37.705,124.835 C32.789,131.832 28.449,138.641 28.014,147.166 C27.63,154.699 33.999,161.243 37.368,168.22 C41.5,176.778 48.818,179.627 55.949,185.616 C62.039,190.73 73.445,191.664 74.85,200.955 C76.637,208.918 81.129,215.828 87.473,222.228 C98.075,228.381 103.381,232.106 113.786,238.686 C114.363,247.237 107.873,255.823 111.264,264.433 C117.082,273.891 125.121,263.056 123.587,255.58 C123.66,250.928 124.721,238.56 128.27,240.584 C130.55,248.74 133.336,264.828 143.938,263.841 C154.048,262.541 153.735,250.973 150.328,243.863 C148.926,237.073 143.281,231.897 138.705,228.127 C145.542,230.666 152.157,234.417 159.715,234.321 C165.712,235.345 181.155,231.96 174.586,224.35 C164.641,218.999 152.715,219.156 141.687,219.182 C148.51,216.089 158.911,212.322 158.918,203.415 C154.283,194.515 142.407,201.946 135.464,204.303 C128.306,207.492 121.431,211.266 114.553,215.007 C107.629,213.923 100.209,208.76 97.674,201.965 C94.278,195.989 92.825,188.786 87.244,184.502 C81.476,180.018 74.389,177.425 69.766,171.485 C62.107,163.382 54.068,155.233 48.974,145.211 C49.128,136.604 58.56,130.484 63.684,123.953 C68.947,117.944 77.353,114.818 84.735,113.03" fill-opacity="0" stroke="#000000" stroke-width="1"/>
    </g>
    <g id="path3797">
      <path d="M92.987,89.092 C92.987,86.358 91.734,82.32 92.987,79.815 C97.246,71.296 101.211,64.529 110.276,59.996 C117.569,56.349 142.242,54.514 151.179,54.514 C173.788,54.514 196.961,51.984 219.493,51.984 C225.296,51.984 233.638,50.948 237.204,54.514 C238.921,56.232 236.838,61.795 238.047,64.213 C240.943,70.004 238.842,101.888 236.36,109.333 C234.608,114.59 237.589,120.828 235.939,125.779 C235.17,128.086 235.317,131.572 232.565,132.948 C225.46,136.5 217.383,137.165 209.794,139.695 C207.338,140.514 204.298,139.278 201.782,140.117 C196.381,141.917 188.553,139.888 182.806,141.803 C179.603,142.871 175.461,141.581 172.264,142.647 C163.646,145.519 153.075,142.296 144.432,145.177 C133.908,148.685 108.85,150.498 100.999,142.647 C97.284,138.932 95.288,133.335 92.987,128.731 C91.637,112.083 92.627,108.875 92.987,89.092 z" fill="#FFFFFB"/>
      <path d="M92.987,89.092 C92.987,86.358 91.734,82.32 92.987,79.815 C97.246,71.296 101.211,64.529 110.276,59.996 C117.569,56.349 142.242,54.514 151.179,54.514 C173.788,54.514 196.961,51.984 219.493,51.984 C225.296,51.984 233.638,50.948 237.204,54.514 C238.921,56.232 236.838,61.795 238.047,64.213 C240.943,70.004 238.842,101.888 236.36,109.333 C234.608,114.59 237.589,120.828 235.939,125.779 C235.17,128.086 235.317,131.572 232.565,132.948 C225.46,136.5 217.383,137.165 209.794,139.695 C207.338,140.514 204.298,139.278 201.782,140.117 C196.381,141.917 188.553,139.888 182.806,141.803 C179.603,142.871 175.461,141.581 172.264,142.647 C163.646,145.519 153.075,142.296 144.432,145.177 C133.908,148.685 108.85,150.498 100.999,142.647 C97.284,138.932 95.288,133.335 92.987,128.731 C91.637,112.083 92.627,108.875 92.987,89.092 z" fill-opacity="0" stroke="#000000" stroke-width="1"/>
    </g>
    <g id="path3795">
      <path d="M101.336,95.772 C100.217,64.053 109.927,71.199 118.625,66.675 C125.918,63.028 150.591,61.193 159.528,61.193 C182.137,61.193 205.31,58.663 227.842,58.663 C233.645,58.663 241.987,57.627 245.553,61.193 C247.27,62.911 245.187,68.474 246.396,70.892 C249.292,76.683 247.191,108.567 244.709,116.013 C242.957,121.269 245.938,127.507 244.288,132.458 C243.519,134.765 243.666,138.251 240.914,139.627 C233.809,143.179 225.732,143.844 218.143,146.374 C215.687,147.193 212.647,145.957 210.131,146.796 C204.73,148.596 196.902,146.567 191.155,148.483 C187.952,149.55 183.81,148.26 180.613,149.326 C171.995,152.199 161.424,148.975 152.781,151.856 C142.257,155.364 117.199,157.178 109.348,149.326 C105.633,145.611 103.637,140.014 101.336,135.41 C99.986,118.763 100.976,115.554 101.336,95.772 z" fill="#FFFFFB"/>
      <path d="M101.336,95.772 C100.217,64.053 109.927,71.199 118.625,66.675 C125.918,63.028 150.591,61.193 159.528,61.193 C182.137,61.193 205.31,58.663 227.842,58.663 C233.645,58.663 241.987,57.627 245.553,61.193 C247.27,62.911 245.187,68.474 246.396,70.892 C249.292,76.683 247.191,108.567 244.709,116.013 C242.957,121.269 245.938,127.507 244.288,132.458 C243.519,134.765 243.666,138.251 240.914,139.627 C233.809,143.179 225.732,143.844 218.143,146.374 C215.687,147.193 212.647,145.957 210.131,146.796 C204.73,148.596 196.902,146.567 191.155,148.483 C187.952,149.55 183.81,148.26 180.613,149.326 C171.995,152.199 161.424,148.975 152.781,151.856 C142.257,155.364 117.199,157.178 109.348,149.326 C105.633,145.611 103.637,140.014 101.336,135.41 C99.986,118.763 100.976,115.554 101.336,95.772 z" fill-opacity="0" stroke="#000000" stroke-width="1"/>
    </g>
    <path d="M114.83,84.386 C113.003,74.099 122.688,82.469 123.263,82.278 C125.153,81.648 126.814,79.548 128.745,78.904 C130.223,78.412 132.233,79.594 133.384,80.169 C134.658,80.806 138.013,79.223 139.287,78.904 C141.605,78.325 143.356,79.747 145.613,79.747 C147.752,79.747 149.891,78.994 151.938,78.482 C154.814,77.763 157.258,80.104 160.372,79.326 C168.844,77.208 178.867,78.643 186.938,75.952 C190.07,74.908 191.579,77.955 194.528,77.217 C195.541,76.964 201.351,75.184 202.119,75.952 C202.548,76.381 202.844,77.158 203.806,77.639 C204.834,78.154 208.584,76.824 209.709,76.374 C216.126,73.807 224.421,77.241 230.372,74.266" fill-opacity="0" stroke="#000000" stroke-width="1" id="path3799"/>
    <path d="M108.504,97.037 C113.828,87.971 117.344,97.604 119.046,97.037 C122.512,95.882 126.001,92.398 129.589,92.398 C132.625,92.398 134.8,94.622 138.022,94.085 C141.033,93.583 143.926,92.567 146.878,91.976 C148.72,91.608 150.272,92.403 151.938,92.82 C154.805,93.536 157.919,91.018 160.793,91.976 C162.395,92.51 164.043,93.632 165.854,94.085 C170.121,95.152 183.407,92.514 188.203,91.555 C192.765,90.642 196.7,93.12 201.275,91.976 C204.068,91.278 206.728,89.868 209.709,89.868 C212.943,89.868 214.144,92.776 218.143,91.976 C218.923,91.82 226.004,91.706 226.577,91.133 C227.021,90.689 228.263,89.661 228.263,90.29 C228.263,90.894 226.411,91.048 226.155,91.133" fill-opacity="0" stroke="#000000" stroke-width="1" id="path3801"/>
    <path d="M106.817,114.748 C107.698,115.269 105.251,116.976 105.974,117.699 C107.423,119.148 106.7,114.842 106.817,114.748 C107.485,114.213 108.499,115.275 109.348,115.169 C110.376,115.041 111.61,113.009 112.721,112.639 C116.591,111.349 115.838,116.352 120.733,113.904 C122.656,112.943 125.658,110.109 127.902,110.109 C129.8,110.109 131.643,112.217 133.805,112.217 C137.3,112.217 141.306,110.38 144.769,109.687 C146.66,109.309 148.723,110.443 150.251,110.952 C151.673,111.426 160.35,110.314 164.589,111.374 C167.769,112.169 179.488,110.418 183.143,109.687 C187.951,108.726 193.931,109.687 198.745,109.687 C200.604,109.687 203.106,111.446 204.649,112.217 C207.063,113.424 211.273,110.047 213.926,111.374 C215.976,112.399 217.453,113.349 219.408,114.326 C220.509,114.876 229.474,112.217 226.577,112.217" fill-opacity="0" stroke="#000000" stroke-width="1" id="path3803"/>
    <path d="M107.661,128.242 C112.424,131.83 118.065,124.119 122.842,125.711 C125.063,126.452 126.556,128.242 129.167,128.242 C135.498,128.242 155.076,120.713 161.215,122.76 C164.953,124.006 168.643,122.719 172.179,123.603 C181.226,125.865 193.443,126.266 202.54,124.446 C210.165,122.921 222.721,126.796 228.263,124.025" fill-opacity="0" stroke="#000000" stroke-width="1" id="path3805"/>
    <g id="g3825">
      <g id="path3816">
        <path d="M107.394,88.46 C106.005,84.655 105.765,77.32 107.394,73.754 C109.513,69.117 115.669,69.144 121.478,68.085 C123.079,67.793 124.956,68.321 126.577,68.085 C128.582,67.792 131.476,67.623 133.376,68.085 C135.177,68.523 137.29,70.254 137.989,71.274 C141.386,76.231 141.388,89.506 141.388,95.37 C141.388,98.304 142.299,105.011 137.503,106.177 C136.338,106.461 134.835,107.683 133.376,107.949 C129.814,108.599 113.457,113.167 110.308,109.721 C109.062,108.357 109.285,107.304 108.608,105.823 C106.316,100.806 109.225,93.473 107.394,88.46 z" fill="#71ED1C" fill-opacity="0.841"/>
        <path d="M107.394,88.46 C106.005,84.655 105.765,77.32 107.394,73.754 C109.513,69.117 115.669,69.144 121.478,68.085 C123.079,67.793 124.956,68.321 126.577,68.085 C128.582,67.792 131.476,67.623 133.376,68.085 C135.177,68.523 137.29,70.254 137.989,71.274 C141.386,76.231 141.388,89.506 141.388,95.37 C141.388,98.304 142.299,105.011 137.503,106.177 C136.338,106.461 134.835,107.683 133.376,107.949 C129.814,108.599 113.457,113.167 110.308,109.721 C109.062,108.357 109.285,107.304 108.608,105.823 C106.316,100.806 109.225,93.473 107.394,88.46 z" fill-opacity="0" stroke="#000000" stroke-width="0.625"/>
      </g>
      <g id="path3819">
        <path d="M113.192,78.362 C112.343,80.4 109.193,86.749 111.611,89.166 C113.074,90.63 120.321,90.996 121.888,89.43 C123.891,87.427 122.768,78.715 120.834,76.781 C120.157,76.104 111.887,75.1 113.192,78.362 z" fill="#EB131C" fill-opacity="0.841"/>
        <path d="M113.192,78.362 C112.343,80.4 109.193,86.749 111.611,89.166 C113.074,90.63 120.321,90.996 121.888,89.43 C123.891,87.427 122.768,78.715 120.834,76.781 C120.157,76.104 111.887,75.1 113.192,78.362 z" fill-opacity="0" stroke="#000000" stroke-width="0.625"/>
      </g>
      <g id="path3821">
        <path d="M123.205,94.173 C124.596,94.333 134.391,93.792 135.064,93.119 C136.124,92.059 131.097,88.105 130.057,87.585 C129.287,87.2 127.441,82.822 126.631,83.632 C124.071,86.192 123.974,90.33 123.205,94.173 z" fill="#6845FB"/>
        <path d="M123.205,94.173 C124.596,94.333 134.391,93.792 135.064,93.119 C136.124,92.059 131.097,88.105 130.057,87.585 C129.287,87.2 127.441,82.822 126.631,83.632 C124.071,86.192 123.974,90.33 123.205,94.173 z" fill-opacity="0" stroke="#000000" stroke-width="0.625"/>
      </g>
      <g id="path3823">
        <path d="M121.097,95.227 C120.204,93.564 116.546,92.4 115.036,93.91 C114.406,94.54 113.547,95.307 113.192,96.018 C110.451,101.499 118.711,107.1 123.205,102.606 C123.714,102.097 122.942,99.944 122.942,99.444 C122.942,97.439 123.388,96.602 121.097,95.227 z" fill="#68FFFB"/>
        <path d="M121.097,95.227 C120.204,93.564 116.546,92.4 115.036,93.91 C114.406,94.54 113.547,95.307 113.192,96.018 C110.451,101.499 118.711,107.1 123.205,102.606 C123.714,102.097 122.942,99.944 122.942,99.444 C122.942,97.439 123.388,96.602 121.097,95.227 z" fill-opacity="0" stroke="#000000" stroke-width="0.625"/>
      </g>
    </g>
    <g id="path2837" opacity="0.938">
      <path d="M109.862,118.166 C111.742,106.766 114.693,95.53 119.544,85.023 C124.088,76.388 134.378,71.742 143.907,73.113 C154.114,71.649 164.542,73.639 174.606,71.15 C192.576,69.005 210.741,69.385 228.802,69.573 C237.19,70.147 245.646,70.004 254.003,70.047 C261.612,71.117 272.436,73.011 273.658,82.225 C272.504,90.464 269.182,96.587 266.361,105.59 C263.792,114.904 262.904,124.503 261.338,134.001 C258.471,141.968 257.755,152.568 248.638,156.124 C228.997,163.049 207.823,158.7 187.532,160.595 C177.445,160.703 167.372,161.319 157.563,163.824 C141.66,166.317 125.511,167.626 109.412,167.403 C101.471,168.743 94.394,163.527 99.68,153.959 C104.966,144.392 108.192,130.242 109.862,118.166 z" fill="#4188ED"/>
      <path d="M109.862,118.166 C111.742,106.766 114.693,95.53 119.544,85.023 C124.088,76.388 134.378,71.742 143.907,73.113 C154.114,71.649 164.542,73.639 174.606,71.15 C192.576,69.005 210.741,69.385 228.802,69.573 C237.19,70.147 245.646,70.004 254.003,70.047 C261.612,71.117 272.436,73.011 273.658,82.225 C272.504,90.464 269.182,96.587 266.361,105.59 C263.792,114.904 262.904,124.503 261.338,134.001 C258.471,141.968 257.755,152.568 248.638,156.124 C228.997,163.049 207.823,158.7 187.532,160.595 C177.445,160.703 167.372,161.319 157.563,163.824 C141.66,166.317 125.511,167.626 109.412,167.403 C101.471,168.743 94.394,163.527 99.68,153.959 C104.966,144.392 108.192,130.242 109.862,118.166 z" fill-opacity="0" stroke="#000000" stroke-width="1"/>
    </g>
    <path d="M137.811,104.085 C139.042,101.998 141.334,100.838 142.619,98.788 C143.958,97.822 145.099,96.673 146.283,95.586 C147.85,94.566 149.343,93.412 150.511,91.941 C151.916,90.647 153.455,89.49 154.682,88.017 C155.493,86.82 157.011,86.689 157.469,88.214 C159.976,91.312 162.117,94.707 164.91,97.571 C166.148,98.983 167.245,100.523 168.499,101.912 C170.203,103.206 171.735,104.749 172.966,106.507" fill-opacity="0" stroke="#000000" stroke-width="4.1" stroke-linecap="round" stroke-linejoin="round" id="path3615"/>
    <path d="M213.25,105.576 C214.452,104.544 215.781,103.639 217.194,102.934 C218.809,101.836 220.236,100.492 221.937,99.519 C223.024,98.597 224.054,97.59 225.441,97.095 C226.71,96.518 227.441,95.237 228.64,94.549 C229.625,93.564 230.788,92.817 231.904,92.008 C233.154,90.903 232.598,93.504 233.41,93.967 C234.519,95.658 235.74,97.275 236.983,98.868 C238.344,99.878 239.173,101.452 240.615,102.381 C241.83,103.243 243.447,105.001 244.483,106.059" fill-opacity="0" stroke="#000000" stroke-width="4.1" stroke-linecap="round" stroke-linejoin="round" id="path3617"/>
    <g id="path3818">
      <path d="M194.942,124.1 C194.958,124.106 194.977,124.119 194.994,124.126 C195.037,124.125 195.081,124.127 195.124,124.126 L194.942,124.1 z M194.994,124.126 C193.337,124.151 191.574,124.044 189.958,124.517 C189.053,124.88 188.679,125.836 187.949,126.422 C187.507,126.82 187.165,127.399 187.271,128.013 C187.253,128.906 187.203,129.961 187.923,130.622 C188.53,131.401 188.99,132.396 189.958,132.788 C190.618,133.298 191.357,133.737 192.202,133.831 C193.143,134.032 194.093,133.859 195.02,133.675 C195.888,133.591 196.769,133.459 197.525,132.997 C198.301,132.72 199.074,132.33 199.534,131.614 C199.878,130.944 200.514,130.382 200.629,129.631 C200.638,128.839 199.891,128.406 199.586,127.752 C199.342,127.142 198.625,127.006 198.542,126.37 C198.01,125.916 197.256,125.809 196.768,125.274 C196.294,124.868 195.596,124.366 194.994,124.126 z" fill="#000000"/>
      <path d="M194.942,124.1 C194.958,124.106 194.977,124.119 194.994,124.126 C195.037,124.125 195.081,124.127 195.124,124.126 L194.942,124.1 z M194.994,124.126 C193.337,124.151 191.574,124.044 189.958,124.517 C189.053,124.88 188.679,125.836 187.949,126.422 C187.507,126.82 187.165,127.399 187.271,128.013 C187.253,128.906 187.203,129.961 187.923,130.622 C188.53,131.401 188.99,132.396 189.958,132.788 C190.618,133.298 191.357,133.737 192.202,133.831 C193.143,134.032 194.093,133.859 195.02,133.675 C195.888,133.591 196.769,133.459 197.525,132.997 C198.301,132.72 199.074,132.33 199.534,131.614 C199.878,130.944 200.514,130.382 200.629,129.631 C200.638,128.839 199.891,128.406 199.586,127.752 C199.342,127.142 198.625,127.006 198.542,126.37 C198.01,125.916 197.256,125.809 196.768,125.274 C196.294,124.868 195.596,124.366 194.994,124.126 z" fill-opacity="0" stroke="#000000" stroke-width="1"/>
    </g>
    <path d="M201.323,126.746 C202.356,126.355 203.422,126.076 204.501,125.85 C205.474,125.562 206.498,125.496 207.404,125.01 C208.357,124.606 209.424,124.616 210.367,124.173 C211.151,123.952 211.861,123.411 212.705,123.452 C213.536,123.043 214.488,122.939 215.342,122.587 C216.263,122.668 217.078,122.199 217.963,122.278 C218.744,122.07 219.42,122.009 220.232,121.88 C220.552,121.792 220.868,121.683 221.198,121.644" fill-opacity="0" stroke="#000000" stroke-width="1" id="path3635"/>
    <path d="M200.726,130.623 C203.175,130.627 205.624,130.609 208.071,130.641 C208.567,130.351 209.102,130.283 209.672,130.325 C214.84,130.325 220.008,130.325 225.177,130.325 C225.919,130.286 224.771,130.5 225.387,130.095 L225.475,130.026" fill-opacity="0" stroke="#000000" stroke-width="1" id="path3637"/>
    <path d="M199.534,133.306 C200.435,133.607 201.482,133.519 202.483,133.692 C203.971,133.82 205.413,134.415 206.924,134.206 C207.788,134.108 208.652,134.216 209.486,134.444 C210.726,134.688 212.044,134.227 213.232,134.704 C214.311,134.97 215.463,134.741 216.52,135.124 C218.406,134.929 220.197,135.802 222.079,135.713 C223.056,135.747 223.986,136.198 224.978,136.005 C225.728,135.946 226.553,135.885 227.211,136.322" fill-opacity="0" stroke="#000000" stroke-width="1" id="path3639"/>
    <path d="M187.308,125.256 C186.582,125.304 186.074,124.689 185.258,124.972 C184.497,125.065 183.893,124.459 183.109,124.659 C181.428,124.654 179.743,124.666 178.065,124.659 C177.749,124.124 177.091,124.429 176.579,124.361 C170.484,124.809 166.205,123.935 161.399,124.105" fill-opacity="0" stroke="#000000" stroke-width="1" id="path3641"/>
    <path d="M186.116,129.132 C184.731,129.261 183.395,129.717 181.998,129.747 C180.992,129.906 179.975,130.019 178.965,130.102 C176.864,130.603 174.703,130.784 172.616,131.352 C171.531,131.704 170.38,131.338 169.338,131.761 C168.049,131.836 166.79,132.03 165.528,132.285 C164.287,132.455 163.058,132.538 161.824,132.808 C161.075,132.855 159.943,133.326 159.393,132.834 L159.578,132.71" fill-opacity="0" stroke="#000000" stroke-width="1" id="path3643"/>
    <path d="M187.308,132.71 C186.241,132.849 185.259,133.383 184.172,133.404 C183.159,133.662 182.176,134.031 181.168,134.298 C179.823,134.799 178.356,134.778 176.998,135.23 C175.87,135.511 174.694,135.374 173.577,135.715 C172.688,135.858 171.796,135.564 170.927,135.926 C169.68,136.309 168.392,136.613 167.254,137.274 C166.443,137.754 165.484,137.734 164.628,138.091 C164.493,138.065 164.614,138.078 164.647,138.078" fill-opacity="0" stroke="#000000" stroke-width="1" id="path3645"/>
    <g id="path3789">
      <path d="M167.962,140.47 C172.226,146.149 176.3,150.073 180.191,153.964 C181.072,154.845 183.708,155.091 184.83,155.651 C194.669,160.571 210.286,154.076 213.926,146.796 C215.311,144.027 217.75,136.282 217.721,136.254 C216.691,135.223 212.506,138.939 211.818,139.627 C209.762,141.683 204.34,141.257 201.697,142.579 C200.548,143.153 198.639,142.421 197.48,143.001 C186.348,148.567 175.91,140.47 167.962,140.47 z" fill="#000000"/>
      <path d="M167.962,140.47 C172.226,146.149 176.3,150.073 180.191,153.964 C181.072,154.845 183.708,155.091 184.83,155.651 C194.669,160.571 210.286,154.076 213.926,146.796 C215.311,144.027 217.75,136.282 217.721,136.254 C216.691,135.223 212.506,138.939 211.818,139.627 C209.762,141.683 204.34,141.257 201.697,142.579 C200.548,143.153 198.639,142.421 197.48,143.001 C186.348,148.567 175.91,140.47 167.962,140.47 z" fill-opacity="0" stroke="#000000" stroke-width="1"/>
    </g>
    <path d="M191.291,156.147 C184.96,151.849 208.706,145.527 211.08,150.275 C211.176,150.468 210.603,151.279 210.5,151.382 C209.188,153.392 198.892,158.697 192.931,157.638" fill="#EC94CE" id="path3791"/>
    <path d="M117.833,66.515 C117.474,64.232 119.352,55.645 122.604,57.271 C123.49,57.714 123.685,57.942 124.095,58.762 C124.5,59.574 123.828,61.381 123.498,62.042 C121.941,65.156 124.79,73.869 122.604,76.056 C121.865,76.795 120.929,79.038 119.324,79.038 C110.399,79.038 116.855,61.958 115.746,60.849 C115.555,60.659 114.195,60.849 113.956,60.849" fill-opacity="0" stroke="#000000" stroke-width="1" id="path3833"/>
  </g>
</svg>
