<svg height="223.705" viewBox="0 0 334.085 279.631" width="267.268" xmlns="http://www.w3.org/2000/svg"><path d="m255.591 87.387c7.356 3.31 16.344 1.671 23.854 4.174 8.788 2.93 31.69 18.321 25.644 30.415-4.647 9.293-14.602 16.206-16.102 26.836-1.349 9.555 9.323 25.485 7.156 29.817-9.656 19.314-35.721 9.312-50.392 36.378-3.844 7.092 27.472 36.62 12.822 41.745-12.468 4.362-15.434-23.858-17.295-24.451-3.275 0-2.184 26.837-10.138 26.837-15.852 0 .268-27.433.597-27.433.105 0-4.264 4.264-7.753 7.753-6.601 6.601-7.504 10.734-17.891 10.734-1.014 0-4.164.01-4.77-.596-6.908-6.908 16.996-19.943 23.854-22.662.849-.336-8.236-2.477-9.244-2.981-13.528-1.395-21.902-3.936-18.785-12.524 9.374-7.463 30.474 5.008 34.887.298.892-.892 6.731-6.008 7.454-7.454 3.19-6.379 8.224-13.591 12.524-17.891 5.804-5.804 19.853-5.242 25.643-11.033 5.925-5.925-6.218-25.741-3.578-32.799 2.673-7.146 22.512-21.022 14.014-29.52-7.834-6.703-23.558-19.398-32.501-16.101" fill="#5aa3ff"/><path d="m255.591 87.387c7.356 3.31 16.344 1.671 23.854 4.174 8.788 2.93 31.69 18.321 25.644 30.415-4.647 9.293-14.602 16.206-16.102 26.836-1.349 9.555 9.323 25.485 7.156 29.817-9.656 19.314-35.721 9.312-50.392 36.378-3.844 7.092 27.472 36.62 12.822 41.745-12.468 4.362-15.434-23.858-17.295-24.451-3.275 0-2.184 26.837-10.138 26.837-15.852 0 .268-27.433.597-27.433.105 0-4.264 4.264-7.753 7.753-6.601 6.601-7.504 10.734-17.891 10.734-1.014 0-4.164.01-4.77-.596-6.908-6.908 16.996-19.943 23.854-22.662.849-.336-8.236-2.477-9.244-2.981-13.528-1.395-21.902-3.936-18.785-12.524 9.374-7.463 30.474 5.008 34.887.298.892-.892 6.731-6.008 7.454-7.454 3.19-6.379 8.224-13.591 12.524-17.891 5.804-5.804 19.853-5.242 25.643-11.033 5.925-5.925-6.218-25.741-3.578-32.799 2.673-7.146 22.512-21.022 14.014-29.52-7.834-6.703-23.558-19.398-32.501-16.101" fill="none" stroke="#000"/><path d="m97.909 161.739c-2.862-6.832-6.961-13.566-7.68-20.745-1.523-7.951-5.65-15.398-5.548-23.617-2.527-13.023-.775-28.946-2.033-39.532-1.258-10.585-2.029-15.979-.597-23.854 3.964-8.455 13.508-11.137 21.89-12.878 7.435-2.152 15.129-3.203 22.653-4.93 6.682-.76 17.505-2.563 19.064 6.404-1.931 10.032 10.195 7.527 16.613 8.008 7.244.108 14.142-1.191 21.684-1.199 7.542-.007 14.287.335 23.797.1 9.509-.234 24.24 1.279 32.779 1.76 8.539.482 14.785-.87 14.22 8.087-.565 8.958 2.816 53.676 1.418 80.479-.517 4.386-.372 9.13-2.367 13.164" fill="#5aa3ff"/><path d="m97.909 161.739c-2.862-6.832-6.961-13.566-7.68-20.745-1.523-7.951-5.65-15.398-5.548-23.617-2.527-13.023-.775-28.946-2.033-39.532-1.258-10.585-2.029-15.979-.597-23.854 3.964-8.455 13.508-11.137 21.89-12.878 7.435-2.152 15.129-3.203 22.653-4.93 6.682-.76 17.505-2.563 19.064 6.404-1.931 10.032 10.195 7.527 16.613 8.008 7.244.108 14.142-1.191 21.684-1.199 7.542-.007 14.287.335 23.797.1 9.509-.234 24.24 1.279 32.779 1.76 8.539.482 14.785-.87 14.22 8.087-.565 8.958 2.816 53.676 1.418 80.479-.517 4.386-.372 9.13-2.367 13.164" fill="none" stroke="#000"/><path d="m84.139 96.481c-16.884 5.704-36.028 13.082-46.434 28.354-4.916 6.997-9.256 13.806-9.691 22.331-.384 7.533 5.985 14.077 9.354 21.054 4.132 8.558 11.45 11.407 18.581 17.396 6.09 5.114 17.496 6.048 18.901 15.339 1.787 7.963 6.279 14.873 12.623 21.273 10.602 6.153 15.908 9.878 26.313 16.458.577 8.551-5.913 17.137-2.522 25.747 5.818 9.458 13.857-1.377 12.323-8.853.073-4.652 1.134-17.02 4.683-14.996 2.28 8.156 5.066 24.244 15.668 23.257 10.11-1.3 9.797-12.868 6.39-19.978-1.402-6.79-7.047-11.966-11.623-15.736 6.837 2.539 13.452 6.29 21.01 6.194 5.997 1.024 21.44-2.361 14.871-9.971-9.945-5.351-21.871-5.194-32.899-5.168 6.823-3.093 17.224-6.86 17.231-15.767-4.635-8.9-16.511-1.469-23.454.888-7.158 3.189-14.033 6.963-20.911 10.704-6.924-1.084-14.344-6.247-16.879-13.042-3.396-5.976-4.849-13.179-10.43-17.463-5.768-4.484-12.855-7.077-17.478-13.017-7.659-8.103-15.698-16.252-20.792-26.274.154-8.607 9.586-14.727 14.71-21.258 5.263-6.009 13.669-9.135 21.051-10.923" fill="#5aa3ff"/><path d="m84.139 96.481c-16.884 5.704-36.028 13.082-46.434 28.354-4.916 6.997-9.256 13.806-9.691 22.331-.384 7.533 5.985 14.077 9.354 21.054 4.132 8.558 11.45 11.407 18.581 17.396 6.09 5.114 17.496 6.048 18.901 15.339 1.787 7.963 6.279 14.873 12.623 21.273 10.602 6.153 15.908 9.878 26.313 16.458.577 8.551-5.913 17.137-2.522 25.747 5.818 9.458 13.857-1.377 12.323-8.853.073-4.652 1.134-17.02 4.683-14.996 2.28 8.156 5.066 24.244 15.668 23.257 10.11-1.3 9.797-12.868 6.39-19.978-1.402-6.79-7.047-11.966-11.623-15.736 6.837 2.539 13.452 6.29 21.01 6.194 5.997 1.024 21.44-2.361 14.871-9.971-9.945-5.351-21.871-5.194-32.899-5.168 6.823-3.093 17.224-6.86 17.231-15.767-4.635-8.9-16.511-1.469-23.454.888-7.158 3.189-14.033 6.963-20.911 10.704-6.924-1.084-14.344-6.247-16.879-13.042-3.396-5.976-4.849-13.179-10.43-17.463-5.768-4.484-12.855-7.077-17.478-13.017-7.659-8.103-15.698-16.252-20.792-26.274.154-8.607 9.586-14.727 14.71-21.258 5.263-6.009 13.669-9.135 21.051-10.923" fill="none" stroke="#000"/><path d="m92.987 89.092c0-2.734-1.253-6.772 0-9.277 4.259-8.519 8.224-15.286 17.289-19.819 7.293-3.647 31.966-5.482 40.903-5.482 22.609 0 45.782-2.53 68.314-2.53 5.803 0 14.145-1.036 17.711 2.53 1.717 1.718-.366 7.281.843 9.699 2.896 5.791.795 37.675-1.687 45.12-1.752 5.257 1.229 11.495-.421 16.446-.769 2.307-.622 5.793-3.374 7.169-7.105 3.552-15.182 4.217-22.771 6.747-2.456.819-5.496-.417-8.012.422-5.401 1.8-13.229-.229-18.976 1.686-3.203 1.068-7.345-.222-10.542.844-8.618 2.872-19.189-.351-27.832 2.53-10.524 3.508-35.582 5.321-43.433-2.53-3.715-3.715-5.711-9.312-8.012-13.916-1.35-16.648-.36-19.856 0-39.639z" fill="#fffffb"/><path d="m92.987 89.092c0-2.734-1.253-6.772 0-9.277 4.259-8.519 8.224-15.286 17.289-19.819 7.293-3.647 31.966-5.482 40.903-5.482 22.609 0 45.782-2.53 68.314-2.53 5.803 0 14.145-1.036 17.711 2.53 1.717 1.718-.366 7.281.843 9.699 2.896 5.791.795 37.675-1.687 45.12-1.752 5.257 1.229 11.495-.421 16.446-.769 2.307-.622 5.793-3.374 7.169-7.105 3.552-15.182 4.217-22.771 6.747-2.456.819-5.496-.417-8.012.422-5.401 1.8-13.229-.229-18.976 1.686-3.203 1.068-7.345-.222-10.542.844-8.618 2.872-19.189-.351-27.832 2.53-10.524 3.508-35.582 5.321-43.433-2.53-3.715-3.715-5.711-9.312-8.012-13.916-1.35-16.648-.36-19.856 0-39.639z" fill="none" stroke="#000"/><path d="m101.336 95.772c-1.119-31.719 8.591-24.573 17.289-29.097 7.293-3.647 31.966-5.482 40.903-5.482 22.609 0 45.782-2.53 68.314-2.53 5.803 0 14.145-1.036 17.711 2.53 1.717 1.718-.366 7.281.843 9.699 2.896 5.791.795 37.675-1.687 45.121-1.752 5.256 1.229 11.494-.421 16.445-.769 2.307-.622 5.793-3.374 7.169-7.105 3.552-15.182 4.217-22.771 6.747-2.456.819-5.496-.417-8.012.422-5.401 1.8-13.229-.229-18.976 1.687-3.203 1.067-7.345-.223-10.542.843-8.618 2.873-19.189-.351-27.832 2.53-10.524 3.508-35.582 5.322-43.433-2.53-3.715-3.715-5.711-9.312-8.012-13.916-1.35-16.647-.36-19.856 0-39.638z" fill="#fffffb"/><path d="m101.336 95.772c-1.119-31.719 8.591-24.573 17.289-29.097 7.293-3.647 31.966-5.482 40.903-5.482 22.609 0 45.782-2.53 68.314-2.53 5.803 0 14.145-1.036 17.711 2.53 1.717 1.718-.366 7.281.843 9.699 2.896 5.791.795 37.675-1.687 45.121-1.752 5.256 1.229 11.494-.421 16.445-.769 2.307-.622 5.793-3.374 7.169-7.105 3.552-15.182 4.217-22.771 6.747-2.456.819-5.496-.417-8.012.422-5.401 1.8-13.229-.229-18.976 1.687-3.203 1.067-7.345-.223-10.542.843-8.618 2.873-19.189-.351-27.832 2.53-10.524 3.508-35.582 5.322-43.433-2.53-3.715-3.715-5.711-9.312-8.012-13.916-1.35-16.647-.36-19.856 0-39.638z" fill="none" stroke="#000"/><path d="m114.83 84.386c-1.827-10.287 7.858-1.917 8.433-2.108 1.89-.63 3.551-2.73 5.482-3.374 1.478-.492 3.488.69 4.639 1.265 1.274.637 4.629-.946 5.903-1.265 2.318-.579 4.069.843 6.326.843 2.139 0 4.278-.753 6.325-1.265 2.876-.719 5.32 1.622 8.434.844 8.472-2.118 18.495-.683 26.566-3.374 3.132-1.044 4.641 2.003 7.59 1.265 1.013-.253 6.823-2.033 7.591-1.265.429.429.725 1.206 1.687 1.687 1.028.515 4.778-.815 5.903-1.265 6.417-2.567 14.712.867 20.663-2.108" fill="none" stroke="#000"/><path d="m108.504 97.037c5.324-9.066 8.84.567 10.542 0 3.466-1.155 6.955-4.639 10.543-4.639 3.036 0 5.211 2.224 8.433 1.687 3.011-.502 5.904-1.518 8.856-2.109 1.842-.368 3.394.427 5.06.844 2.867.716 5.981-1.802 8.855-.844 1.602.534 3.25 1.656 5.061 2.109 4.267 1.067 17.553-1.571 22.349-2.53 4.562-.913 8.497 1.565 13.072.421 2.793-.698 5.453-2.108 8.434-2.108 3.234 0 4.435 2.908 8.434 2.108.78-.156 7.861-.27 8.434-.843.444-.444 1.686-1.472 1.686-.843 0 .604-1.852.758-2.108.843" fill="none" stroke="#000"/><path d="m106.817 114.748c.881.521-1.566 2.228-.843 2.951 1.449 1.449.726-2.857.843-2.951.668-.535 1.682.527 2.531.421 1.028-.128 2.262-2.16 3.373-2.53 3.87-1.29 3.117 3.713 8.012 1.265 1.923-.961 4.925-3.795 7.169-3.795 1.898 0 3.741 2.108 5.903 2.108 3.495 0 7.501-1.837 10.964-2.53 1.891-.378 3.954.756 5.482 1.265 1.422.474 10.099-.638 14.338.422 3.18.795 14.899-.956 18.554-1.687 4.808-.961 10.788 0 15.602 0 1.859 0 4.361 1.759 5.904 2.53 2.414 1.207 6.624-2.17 9.277-.843 2.05 1.025 3.527 1.975 5.482 2.952 1.101.55 10.066-2.109 7.169-2.109" fill="none" stroke="#000"/><path d="m107.661 128.242c4.763 3.588 10.404-4.123 15.181-2.531 2.221.741 3.714 2.531 6.325 2.531 6.331 0 25.909-7.529 32.048-5.482 3.738 1.246 7.428-.041 10.964.843 9.047 2.262 21.264 2.663 30.361.843 7.625-1.525 20.181 2.35 25.723-.421" fill="none" stroke="#000"/><path d="m107.394 88.46c-1.389-3.805-1.629-11.14 0-14.706 2.119-4.637 8.275-4.61 14.084-5.669 1.601-.292 3.478.236 5.099 0 2.005-.293 4.899-.462 6.799 0 1.801.438 3.914 2.169 4.613 3.189 3.397 4.957 3.399 18.232 3.399 24.096 0 2.934.911 9.641-3.885 10.807-1.165.284-2.668 1.506-4.127 1.772-3.562.65-19.919 5.218-23.068 1.772-1.246-1.364-1.023-2.417-1.7-3.898-2.292-5.017.617-12.35-1.214-17.363z" fill="#71ed1c" fill-opacity=".841"/><path d="m107.394 88.46c-1.389-3.805-1.629-11.14 0-14.706 2.119-4.637 8.275-4.61 14.084-5.669 1.601-.292 3.478.236 5.099 0 2.005-.293 4.899-.462 6.799 0 1.801.438 3.914 2.169 4.613 3.189 3.397 4.957 3.399 18.232 3.399 24.096 0 2.934.911 9.641-3.885 10.807-1.165.284-2.668 1.506-4.127 1.772-3.562.65-19.919 5.218-23.068 1.772-1.246-1.364-1.023-2.417-1.7-3.898-2.292-5.017.617-12.35-1.214-17.363z" fill="none" stroke="#000" stroke-width=".625"/><path d="m113.192 78.362c-.849 2.038-3.999 8.387-1.581 10.804 1.463 1.464 8.71 1.83 10.277.264 2.003-2.003.88-10.715-1.054-12.649-.677-.677-8.947-1.681-7.642 1.581z" fill="#eb131c" fill-opacity=".841"/><path d="m113.192 78.362c-.849 2.038-3.999 8.387-1.581 10.804 1.463 1.464 8.71 1.83 10.277.264 2.003-2.003.88-10.715-1.054-12.649-.677-.677-8.947-1.681-7.642 1.581z" fill="none" stroke="#000" stroke-width=".625"/><path d="m123.205 94.173c1.391.16 11.186-.381 11.859-1.054 1.06-1.06-3.967-5.014-5.007-5.534-.77-.385-2.616-4.763-3.426-3.953-2.56 2.56-2.657 6.698-3.426 10.541z" fill="#6845fb"/><path d="m123.205 94.173c1.391.16 11.186-.381 11.859-1.054 1.06-1.06-3.967-5.014-5.007-5.534-.77-.385-2.616-4.763-3.426-3.953-2.56 2.56-2.657 6.698-3.426 10.541z" fill="none" stroke="#000" stroke-width=".625"/><path d="m121.097 95.227c-.893-1.663-4.551-2.827-6.061-1.317-.63.63-1.489 1.397-1.844 2.108-2.741 5.481 5.519 11.082 10.013 6.588.509-.509-.263-2.662-.263-3.162 0-2.005.446-2.842-1.845-4.217z" fill="#68fffb"/><path d="m121.097 95.227c-.893-1.663-4.551-2.827-6.061-1.317-.63.63-1.489 1.397-1.844 2.108-2.741 5.481 5.519 11.082 10.013 6.588.509-.509-.263-2.662-.263-3.162 0-2.005.446-2.842-1.845-4.217z" fill="none" stroke="#000" stroke-width=".625"/><g opacity=".938"><path d="m109.862 118.166c1.88-11.4 4.831-22.636 9.682-33.143 4.544-8.635 14.834-13.281 24.363-11.91 10.207-1.464 20.635.526 30.699-1.963 17.97-2.145 36.135-1.765 54.196-1.577 8.388.574 16.844.431 25.201.474 7.609 1.07 18.433 2.964 19.655 12.178-1.154 8.239-4.476 14.362-7.297 23.365-2.569 9.314-3.457 18.913-5.023 28.411-2.867 7.967-3.583 18.567-12.7 22.123-19.641 6.925-40.815 2.576-61.106 4.471-10.087.108-20.16.724-29.969 3.229-15.903 2.493-32.052 3.802-48.151 3.579-7.941 1.34-15.018-3.876-9.732-13.444 5.286-9.567 8.512-23.717 10.182-35.793z" fill="#4188ed"/><path d="m109.862 118.166c1.88-11.4 4.831-22.636 9.682-33.143 4.544-8.635 14.834-13.281 24.363-11.91 10.207-1.464 20.635.526 30.699-1.963 17.97-2.145 36.135-1.765 54.196-1.577 8.388.574 16.844.431 25.201.474 7.609 1.07 18.433 2.964 19.655 12.178-1.154 8.239-4.476 14.362-7.297 23.365-2.569 9.314-3.457 18.913-5.023 28.411-2.867 7.967-3.583 18.567-12.7 22.123-19.641 6.925-40.815 2.576-61.106 4.471-10.087.108-20.16.724-29.969 3.229-15.903 2.493-32.052 3.802-48.151 3.579-7.941 1.34-15.018-3.876-9.732-13.444 5.286-9.567 8.512-23.717 10.182-35.793z" fill="none" stroke="#000"/></g><path d="m137.811 104.085c1.231-2.087 3.523-3.247 4.808-5.297 1.339-.966 2.48-2.115 3.664-3.202 1.567-1.02 3.06-2.174 4.228-3.645 1.405-1.294 2.944-2.451 4.171-3.924.811-1.197 2.329-1.328 2.787.197 2.507 3.098 4.648 6.493 7.441 9.357 1.238 1.412 2.335 2.952 3.589 4.341 1.704 1.294 3.236 2.837 4.467 4.595" fill="none" stroke="#000" stroke-linecap="round" stroke-linejoin="round" stroke-width="4.1"/><path d="m213.25 105.576c1.202-1.032 2.531-1.937 3.944-2.642 1.615-1.098 3.042-2.442 4.743-3.415 1.087-.922 2.117-1.929 3.504-2.424 1.269-.577 2-1.858 3.199-2.546.985-.985 2.148-1.732 3.264-2.541 1.25-1.105.694 1.496 1.506 1.959 1.109 1.691 2.33 3.308 3.573 4.901 1.361 1.01 2.19 2.584 3.632 3.513 1.215.862 2.832 2.62 3.868 3.678" fill="none" stroke="#000" stroke-linecap="round" stroke-linejoin="round" stroke-width="4.1"/><path d="m194.942 124.1c.016.006.035.019.052.026.043-.001.087.001.13 0zm.052.026c-1.657.025-3.42-.082-5.036.391-.905.363-1.279 1.319-2.009 1.905-.442.398-.784.977-.678 1.591-.018.893-.068 1.948.652 2.609.607.779 1.067 1.774 2.035 2.166.66.51 1.399.949 2.244 1.043.941.201 1.891.028 2.818-.156.868-.084 1.749-.216 2.505-.678.776-.277 1.549-.667 2.009-1.383.344-.67.98-1.232 1.095-1.983.009-.792-.738-1.225-1.043-1.879-.244-.61-.961-.746-1.044-1.382-.532-.454-1.286-.561-1.774-1.096-.474-.406-1.172-.908-1.774-1.148z"/><g fill="none" stroke="#000"><path d="m194.942 124.1c.016.006.035.019.052.026.043-.001.087.001.13 0zm.052.026c-1.657.025-3.42-.082-5.036.391-.905.363-1.279 1.319-2.009 1.905-.442.398-.784.977-.678 1.591-.018.893-.068 1.948.652 2.609.607.779 1.067 1.774 2.035 2.166.66.51 1.399.949 2.244 1.043.941.201 1.891.028 2.818-.156.868-.084 1.749-.216 2.505-.678.776-.277 1.549-.667 2.009-1.383.344-.67.98-1.232 1.095-1.983.009-.792-.738-1.225-1.043-1.879-.244-.61-.961-.746-1.044-1.382-.532-.454-1.286-.561-1.774-1.096-.474-.406-1.172-.908-1.774-1.148z"/><path d="m201.323 126.746c1.033-.391 2.099-.67 3.178-.896.973-.288 1.997-.354 2.903-.84.953-.404 2.02-.394 2.963-.837.784-.221 1.494-.762 2.338-.721.831-.409 1.783-.513 2.637-.865.921.081 1.736-.388 2.621-.309.781-.208 1.457-.269 2.269-.398.32-.088.636-.197.966-.236"/><path d="m200.726 130.623c2.449.004 4.898-.014 7.345.018.496-.29 1.031-.358 1.601-.316h15.505c.742-.039-.406.175.21-.23l.088-.069"/><path d="m199.534 133.306c.901.301 1.948.213 2.949.386 1.488.128 2.93.723 4.441.514.864-.098 1.728.01 2.562.238 1.24.244 2.558-.217 3.746.26 1.079.266 2.231.037 3.288.42 1.886-.195 3.677.678 5.559.589.977.034 1.907.485 2.899.292.75-.059 1.575-.12 2.233.317"/><path d="m187.308 125.256c-.726.048-1.234-.567-2.05-.284-.761.093-1.365-.513-2.149-.313-1.681-.005-3.366.007-5.044 0-.316-.535-.974-.23-1.486-.298-6.095.448-10.374-.426-15.18-.256"/><path d="m186.116 129.132c-1.385.129-2.721.585-4.118.615-1.006.159-2.023.272-3.033.355-2.101.501-4.262.682-6.349 1.25-1.085.352-2.236-.014-3.278.409-1.289.075-2.548.269-3.81.524-1.241.17-2.47.253-3.704.523-.749.047-1.881.518-2.431.026l.185-.124"/><path d="m187.308 132.71c-1.067.139-2.049.673-3.136.694-1.013.258-1.996.627-3.004.894-1.345.501-2.812.48-4.17.932-1.128.281-2.304.144-3.421.485-.889.143-1.781-.151-2.65.211-1.247.383-2.535.687-3.673 1.348-.811.48-1.77.46-2.626.817-.135-.026-.014-.013.019-.013"/></g><path d="m167.962 140.47c4.264 5.679 8.338 9.603 12.229 13.494.881.881 3.517 1.127 4.639 1.687 9.839 4.92 25.456-1.575 29.096-8.855 1.385-2.769 3.824-10.514 3.795-10.542-1.03-1.031-5.215 2.685-5.903 3.373-2.056 2.056-7.478 1.63-10.121 2.952-1.149.574-3.058-.158-4.217.422-11.132 5.566-21.57-2.531-29.518-2.531z"/><path d="m167.962 140.47c4.264 5.679 8.338 9.603 12.229 13.494.881.881 3.517 1.127 4.639 1.687 9.839 4.92 25.456-1.575 29.096-8.855 1.385-2.769 3.824-10.514 3.795-10.542-1.03-1.031-5.215 2.685-5.903 3.373-2.056 2.056-7.478 1.63-10.121 2.952-1.149.574-3.058-.158-4.217.422-11.132 5.566-21.57-2.531-29.518-2.531z" fill="none" stroke="#000"/><path d="m191.291 156.147c-6.331-4.298 17.415-10.62 19.789-5.872.096.193-.477 1.004-.58 1.107-1.312 2.01-11.608 7.315-17.569 6.256" fill="#ec94ce"/><path d="m117.833 66.515c-.359-2.283 1.519-10.87 4.771-9.244.886.443 1.081.671 1.491 1.491.405.812-.267 2.619-.597 3.28-1.557 3.114 1.292 11.827-.894 14.014-.739.739-1.675 2.982-3.28 2.982-8.925 0-2.469-17.08-3.578-18.189-.191-.19-1.551 0-1.79 0" fill="none" stroke="#000"/></svg>